<svg xmlns="http://www.w3.org/2000/svg" fill="none" viewBox="0 0 33 32">
  <circle cx="16" cy="16" r="16" fill="#D4EEF9"/>
  <path fill="#fff" stroke="#53BCE6" stroke-linecap="round" stroke-linejoin="round" stroke-miterlimit="10" d="M5.93 28.91h19.38a1 1 0 001.02-1V8.6l-4.54-6.36H5.93a1 1 0 00-1.02 1V27.9a1 1 0 001.02 1.01z"/>
  <path fill="#D4EEF9" d="M5.98 28.8h17.8a1 1 0 001-1.02V6.98l-3.04-3H5.98c-.57 0-1.02.46-1.02 1v22.8a1 1 0 001.02 1.01z"/>
  <path fill="#98D7F0" d="M21.6 9.39H8.55v1.33h13.03V9.39zM21.6 12.17H8.55v1.33h13.03v-1.33zM21.6 14.98H8.55v1.33h13.03v-1.33zM21.6 17.78H8.55v1.33h13.03v-1.33zM21.6 20.57H8.55v1.33h13.03v-1.33zM15.9 23.37H8.55v1.33h7.33v-1.33z"/>
  <path fill="#fff" d="M26.25 8.68h-2.18c-1.21 0-2.23.27-2.23-1.43v-4.9"/>
  <path stroke="#53BCE6" stroke-linecap="round" stroke-linejoin="round" stroke-miterlimit="10" d="M26.25 8.68h-2.18c-1.21 0-2.23.27-2.23-1.43v-4.9"/>
  <path stroke="#53BCE6" stroke-linecap="round" stroke-linejoin="round" stroke-miterlimit="10" d="M5.93 28.91h19.38a1 1 0 001.02-1V8.64l-4.49-6.4H5.93a1 1 0 00-1.02 1V27.9a1 1 0 001.02 1.01z"/>
  <path fill="#fff" stroke="#53BCE6" stroke-linecap="round" stroke-linejoin="round" stroke-miterlimit="10" d="M16.36 22.64l-1.6.64.66-1.56c.08-.24.35-.76.57-.96L30.41 6.68c.2-.2.52-.2.72 0l.6.62c.2.2.2.51 0 .71L17.3 22.11c-.22.2-.59.48-.94.53z"/>
  <path fill="#D5EEF7" d="M16.29 21.8l-1.34.79.82-1.28c.1-.2.42-.64.62-.82L29.94 7.25c.2-.2.45-.25.55-.15l.32.34c.1.13.05.35-.15.54L17.11 21.23c-.2.2-.55.47-.82.57z"/>
  <path stroke="#53BCE6" stroke-linecap="round" stroke-linejoin="round" stroke-miterlimit="10" d="M17.03 21.3l-.77-.76M30.27 9.31L29.1 8.16M16.36 22.64l-1.6.64.66-1.56c.08-.24.35-.76.57-.96L30.41 6.68c.2-.2.52-.2.72 0l.6.62c.2.2.2.51 0 .71L17.3 22.11c-.22.2-.59.48-.94.53z"/>
</svg>