<svg xmlns="http://www.w3.org/2000/svg" fill="none" viewBox="0 0 32 32">
  <circle cx="16" cy="16" r="16" fill="#D4EEF9"/>
  <path fill="#fff" d="M28.2 26.89c0 .61-.5 1.11-1.13 1.11H4.65c-.62 0-1.13-.5-1.13-1.11V5.1C3.52 4.5 4.03 4 4.65 4h22.42c.62 0 1.13.5 1.13 1.11V26.9z"/>
  <path fill="#D4EEF9" d="M27.03 27.25c0 .4-.33.75-.76.75H4.28a.75.75 0 01-.76-.75V5.15h22.75c.41 0 .76.33.76.75v21.35z"/>
  <path fill="#fff" d="M15.16 28v-9.64h-3.22v-3.32h3.2v-3.61c0-2.17 1.98-3.6 3.58-3.6h3.6v3h-1.66c-.82 0-1.9.66-1.9 1.46v2.73H22v3.32h-3.22V28"/>
  <path stroke="#53BCE6" stroke-miterlimit="10" d="M15.16 28v-9.64h-3.22v-3.32h3.2v-3.61c0-2.17 1.98-3.6 3.58-3.6h3.6v3h-1.66c-.82 0-1.9.66-1.9 1.46v2.73H22v3.32h-3.22V28"/>
  <path stroke="#53BCE6" stroke-linecap="round" stroke-linejoin="round" stroke-miterlimit="10" d="M28.2 26.89c0 .61-.5 1.11-1.13 1.11H4.65c-.62 0-1.13-.5-1.13-1.11V5.1C3.52 4.5 4.03 4 4.65 4h22.42c.62 0 1.13.5 1.13 1.11V26.9z"/>
</svg>