<svg xmlns="http://www.w3.org/2000/svg" fill="none" viewBox="0 0 32 32">
  <circle cx="16" cy="16" r="16" fill="#D4EEF9"/>
  <path fill="#fff" d="M4.6 14.46c.06-.27.06-4.22.06-4.22s.56-3.36 3.16-3.6c2.63-.26 3.1-.07 3.1-.07s2.49 0 3.32 3.42c0 0 .21 4.7 0 5.47-.2.78-.65 2.25-2.91 3.03-2.23.77-2.12.52-3.02.2-.93-.29-2.29-.77-3-1.8-.72-1.03-.72-2.54-.72-2.54"/>
  <path stroke="#53BCE6" stroke-linecap="round" stroke-linejoin="round" stroke-miterlimit="10" d="M4.6 14.46c.06-.27.06-4.22.06-4.22s.56-3.36 3.16-3.6c2.63-.26 3.1-.07 3.1-.07s2.49 0 3.32 3.42c0 0 .21 4.7 0 5.47-.2.78-.65 2.25-2.91 3.03-2.23.77-2.12.52-3.02.2-.93-.29-2.29-.77-3-1.8-.72-1.03-.72-2.54-.72-2.54"/>
  <path fill="#fff" d="M12.8 17.75s2.85.23 3.23 3.53v4.47H2.93l-.02-4.66s.21-2.48 3.15-3.42"/>
  <path stroke="#53BCE6" stroke-linecap="round" stroke-linejoin="round" stroke-miterlimit="10" d="M12.8 17.75s2.85.23 3.23 3.53v4.47H2.93l-.02-4.66s.21-2.48 3.15-3.42"/>
  <path fill="#fff" d="M7.15 18.3l-.58 3.14 3-1.5"/>
  <path stroke="#53BCE6" stroke-linecap="round" stroke-linejoin="round" stroke-miterlimit="10" d="M7.15 18.3l-.58 3.14 3-1.5"/>
  <path fill="#fff" d="M11.81 18.36l.53 2.98-2.77-1.4-.07-.95"/>
  <path stroke="#53BCE6" stroke-linecap="round" stroke-linejoin="round" stroke-miterlimit="10" d="M11.81 18.36l.53 2.98-2.77-1.4-.07-.95"/>
  <path fill="#fff" d="M11.14 20.75l-1.6 2.44-1.76-2.35"/>
  <path stroke="#53BCE6" stroke-linecap="round" stroke-linejoin="round" stroke-miterlimit="10" d="M11.14 20.75l-1.6 2.44-1.76-2.35M9.54 23.19v2.56"/>
  <path fill="#D4EEF9" d="M6.06 17.73c-2.75.88-3.08 3.57-3.08 3.57v4.45h12.31v-4.28a3.51 3.51 0 00-3.02-3.32s-1.47.92-2.96.8c-1.53-.1-3.25-1.22-3.25-1.22zM4.57 14.14s0 1.5.53 2.44c.58 1.03 1.95 1.4 2.8 1.7.85.27.74.52 2.84-.21 2.12-.74 2.54-2.1 2.73-2.84.19-.73 0-5.14 0-5.14-.78-3.23-3.09-3.23-3.09-3.23s-.46-.17-2.91.07c-2.46.23-2.83 3.42-2.83 3.42s0 3.94-.07 4.21"/>
  <path fill="#D4EEF9" d="M11.14 20.75l-1.6 2.44-1.76-2.35"/>
  <path stroke="#53BCE6" stroke-linecap="round" stroke-linejoin="round" stroke-miterlimit="10" d="M12.8 17.75s2.85.23 3.23 3.53v4.47H2.93l-.02-4.66s.21-2.48 3.15-3.42"/>
  <path stroke="#53BCE6" stroke-linecap="round" stroke-linejoin="round" stroke-miterlimit="10" d="M4.6 14.35s0 1.53.7 2.56c.72 1.03 2.08 1.5 3 1.8.9.3.8.55 3.03-.2 2.26-.8 2.7-2.25 2.91-3.05.21-.77 0-5.47 0-5.47-.83-3.42-3.29-3.42-3.29-3.42s-.5-.19-3.1.06c-2.63.25-3.2 3.61-3.2 3.61s0 3.95-.06 4.22"/>
  <path stroke="#53BCE6" stroke-linecap="round" stroke-linejoin="round" stroke-miterlimit="10" d="M4.6 14.46c-.05-1.2.06-4.22.06-4.22s.56-3.36 3.16-3.6c2.63-.26 3.1-.07 3.1-.07s2.49 0 3.32 3.42c0 0 .21 4.7 0 5.47-.2.78-.65 2.25-2.91 3.03-2.23.77-2.12.52-3.02.2-.93-.29-2.29-.77-3-1.8-.72-1.03-.72-2.43-.72-2.43z"/>
  <path fill="#fff" d="M7.47 18.05c.06-.3.06-4.24.06-4.24s.57-3.36 3.17-3.61c2.62-.23 3.12-.04 3.12-.04s2.46 0 3.3 3.42c0 0 .2 4.7 0 5.47-.21.78-.65 2.25-2.92 3.02-2.22.78-2.12.53-3.02.21-.92-.29-2.29-.77-3-1.8s-.71-2.56-.71-2.56"/>
  <path stroke="#53BCE6" stroke-linecap="round" stroke-linejoin="round" stroke-miterlimit="10" d="M7.47 18.05c.06-.3.06-4.24.06-4.24s.57-3.36 3.17-3.61c2.62-.23 3.12-.04 3.12-.04s2.46 0 3.3 3.42c0 0 .2 4.7 0 5.47-.21.78-.65 2.25-2.92 3.02-2.22.78-2.12.53-3.02.21-.92-.29-2.29-.77-3-1.8s-.71-2.56-.71-2.56"/>
  <path fill="#fff" d="M15.65 21.34s2.85.23 3.23 3.52v4.47H5.78l-.01-4.63s.2-2.48 3.15-3.42"/>
  <path stroke="#53BCE6" stroke-linecap="round" stroke-linejoin="round" stroke-miterlimit="10" d="M15.65 21.34s2.85.23 3.23 3.52v4.47H5.78l-.01-4.63s.2-2.48 3.15-3.42"/>
  <path fill="#fff" d="M10 21.86l-.58 3.15 3.02-1.5"/>
  <path stroke="#53BCE6" stroke-linecap="round" stroke-linejoin="round" stroke-miterlimit="10" d="M10 21.86l-.58 3.15 3.02-1.5"/>
  <path fill="#fff" d="M14.66 21.93l.55 2.98-2.77-1.4-.06-.93"/>
  <path stroke="#53BCE6" stroke-linecap="round" stroke-linejoin="round" stroke-miterlimit="10" d="M14.66 21.93l.55 2.98-2.77-1.4-.06-.93"/>
  <path fill="#fff" d="M14 24.34l-1.6 1.72-1.76-1.64"/>
  <path stroke="#53BCE6" stroke-linecap="round" stroke-linejoin="round" stroke-miterlimit="10" d="M14 24.34l-1.6 1.72-1.76-1.64M12.4 26.06v3.25"/>
  <path fill="#D4EEF9" d="M8.94 21.3c-2.75.88-3.1 3.56-3.1 3.56l.01 4.45h12.3v-4.28c-.36-3.08-3.02-3.31-3.02-3.31s-1.47.92-2.96.8c-1.51-.11-3.23-1.22-3.23-1.22zM7.43 17.71s0 1.49.52 2.43c.59 1.03 1.95 1.4 2.81 1.7.84.28.74.53 2.83-.2 2.12-.74 2.54-2.1 2.73-2.84.19-.73 0-5.14 0-5.14-.8-3.21-3.1-3.21-3.1-3.21s-.47-.17-2.92.06-2.83 3.42-2.83 3.42 0 3.95-.07 4.22"/>
  <path fill="#D4EEF9" d="M14 24.34l-1.6 1.72-1.76-1.64"/>
  <path stroke="#53BCE6" stroke-linecap="round" stroke-linejoin="round" stroke-miterlimit="10" d="M15.65 21.34s2.85.23 3.23 3.52v4.47H5.78l-.01-4.63s.2-2.48 3.15-3.42"/>
  <path fill="#fff" d="M14.66 21.93l.55 2.98-2.77-1.4-.06-.93"/>
  <path stroke="#53BCE6" stroke-linecap="round" stroke-linejoin="round" stroke-miterlimit="10" d="M14.66 21.93l.55 2.98-2.77-1.4-.06-.93"/>
  <path fill="#D4EEF9" d="M14.12 21.99l.36 2.45-2.04-1.02-.06-.82"/>
  <path fill="#fff" stroke="#53BCE6" stroke-linecap="round" stroke-linejoin="round" stroke-miterlimit="10" d="M10 21.86l-.58 3.15 3-1.5-.06-.95s-.34.06-.57-.07c-.23-.1-1.78-.63-1.78-.63z"/>
  <path fill="#D4EEF9" d="M10 22.05l-.52 2.8 2.4-1.18-.13-.97-1.74-.65z"/>
  <path stroke="#53BCE6" stroke-linecap="round" stroke-linejoin="round" stroke-miterlimit="10" d="M14.66 21.93l.55 2.98-2.77-1.4-.06-.93M10 21.86l-.58 3.15 3-1.5-.06-.95s-.34.06-.57-.07c-.23-.1-1.78-.63-1.78-.63z"/>
  <path stroke="#53BCE6" stroke-linecap="round" stroke-linejoin="round" stroke-miterlimit="10" d="M7.47 17.92s0 1.53.71 2.56 2.08 1.49 3 1.8c.9.3.8.55 3.02-.2 2.27-.78 2.69-2.25 2.92-3.03.2-.77 0-5.47 0-5.47-.84-3.42-3.3-3.42-3.3-3.42s-.5-.2-3.1.06c-2.64.25-3.19 3.59-3.19 3.59s0 3.94-.06 4.21"/>
  <path stroke="#53BCE6" stroke-linecap="round" stroke-linejoin="round" stroke-miterlimit="10" d="M7.6 16.35s2.24.1 3.67-.23c1.07-.26 2.43-.63 3.48-2.86l2.45 3.13"/>
  <path stroke="#53BCE6" stroke-linecap="round" stroke-linejoin="round" stroke-miterlimit="10" d="M7.47 18.05c-.04-1.2.06-4.24.06-4.24s.57-3.36 3.17-3.61c2.62-.23 3.12-.04 3.12-.04s2.46 0 3.3 3.42c0 0 .2 4.7 0 5.47-.21.78-.65 2.25-2.92 3.02-2.22.78-2.12.53-3.02.21-.92-.29-2.29-.77-3-1.8s-.71-2.43-.71-2.43zM13.93 24.42l-1.53 1.64-1.66-1.57M12.4 26.06v3.25"/>
  <path fill="#fff" stroke="#53BCE6" stroke-linecap="round" stroke-linejoin="round" stroke-miterlimit="10" d="M18.34 12.8h2.53l.07 2.41s0 .25.19.3c.23.06.5-.21.5-.21l2.14-2.5h5.35c.23 0 .44-.19.44-.44V3.11a.44.44 0 00-.44-.44H18.34a.44.44 0 00-.45.44v9.27c.03.23.21.42.45.42z"/>
  <path fill="#D4EEF9" d="M18.34 12.8h2.53l.07 2.41s0 .25.19.3c.23.06.5-.21.5-.21l2.14-2.5h4.07c.23 0 .44-.19.44-.44V4.39a.44.44 0 00-.44-.44h-9.5a.44.44 0 00-.45.44V12.36c.03.25.21.44.45.44z"/>
  <path fill="#98D7F0" d="M27.21 4.9h-7.13v.85h7.13V4.9zM24.04 6.61h-3.96v.86h3.96v-.86zM27.19 6.61h-2.52v.86h2.52v-.86zM24.8 8.42h-4.72v.86h4.72v-.86zM27.19 9.99h-7.11v.86h7.11v-.86zM27.21 8.42h-1.76v.86h1.76v-.86z"/>
  <path stroke="#53BCE6" stroke-linecap="round" stroke-linejoin="round" stroke-miterlimit="10" d="M18.34 12.8h2.53l.07 2.41s0 .25.19.3c.23.06.5-.21.5-.21l2.14-2.5h5.35c.23 0 .44-.19.44-.44V3.11a.44.44 0 00-.44-.44H18.34a.44.44 0 00-.45.44v9.27c.03.23.21.42.45.42z"/>
</svg>