<svg xmlns="http://www.w3.org/2000/svg" fill="none" viewBox="0 0 32 32">
  <circle cx="16" cy="16" r="16" fill="#D4EEF9"/>
  <path fill="#fff" d="M26.45 3.45v25.43H6.8c-.7 0-1.25-.55-1.25-1.24V3.45c0-.68.56-1.23 1.25-1.23h18.4c.7 0 1.25.55 1.25 1.23z"/>
  <path fill="#D4EEF9" d="M25.16 4.33v20.29H6.39a.84.84 0 01-.84-.84V3.5h18.77c.47 0 .84.36.84.83zM25.16 24.83v4.05H6.69c-.62 0-1.14-.51-1.14-1.13v-1.64c0-.7.58-1.28 1.3-1.28h18.3z"/>
  <path fill="#96D7EF" d="M6.8 2.22c-.7 0-1.25.55-1.25 1.23v22.62c0-.69.56-1.24 1.25-1.24H9.2V2.22H6.8z"/>
  <path stroke="#53BCE6" stroke-linecap="round" stroke-linejoin="round" stroke-miterlimit="10" d="M26.45 3.45v25.43H6.8c-.7 0-1.25-.55-1.25-1.24V3.45c0-.68.56-1.23 1.25-1.23h18.4c.7 0 1.25.55 1.25 1.23z"/>
  <path stroke="#53BCE6" stroke-linecap="round" stroke-linejoin="round" stroke-miterlimit="10" d="M5.55 27.43v-1.36c0-.69.56-1.24 1.25-1.24h19.65v2.6"/>
  <path fill="#53BCE6" d="M23.07 10.7H11.73v1.16h11.34V10.7zM23.07 13.14H11.73v1.15h11.34v-1.15zM18.11 15.55h-6.38v1.15h6.38v-1.15z"/>
</svg>