<svg xmlns="http://www.w3.org/2000/svg" fill="none" viewBox="0 0 32 32">
  <circle cx="16" cy="16" r="16" fill="#D4EEF9"/>
  <path fill="#fff" d="M2.63 25.95c-1.03 0-1.7-1.2-1.03-2 .06-.05 13.29-21.07 13.29-21.07a1.82 1.82 0 012.6 0S30.4 23.59 30.47 23.7c.54.79-.12 1.88-1.09 1.88l-26.75.36z"/>
  <path fill="#D5EEF7" d="M2.63 25.95c-1.03 0-1.7-1.2-1.03-2 .06-.05 13.29-21.07 13.29-21.07.72-.73.06-.73.78 0 0 0 12.93 20.71 12.99 20.83.54.79-.12 1.88-1.09 1.88l-24.94.36z"/>
  <path stroke="#53BCE6" stroke-linecap="round" stroke-linejoin="round" stroke-miterlimit="10" d="M2.63 25.95c-1.03 0-1.7-1.2-1.03-2 .06-.05 13.29-21.07 13.29-21.07a1.82 1.82 0 012.6 0S30.4 23.59 30.47 23.7c.54.79-.12 1.88-1.09 1.88l-26.75.36z"/>
  <path fill="#53BCE6" d="M14.53 21.6c0-.18.06-.36.12-.6.06-.18.18-.37.3-.49s.3-.24.48-.3.36-.12.6-.12c.19 0 .37.06.55.12.18.06.36.18.48.3s.24.3.3.49c.06.18.13.36.13.6 0 .18-.07.42-.13.6-.06.19-.18.3-.3.49-.12.12-.3.24-.48.3s-.36.12-.54.12c-.19 0-.43-.06-.6-.12a1.32 1.32 0 01-.5-.3c-.11-.12-.23-.3-.3-.49-.05-.24-.11-.42-.11-.6zm2.65-12.74v5.55c0 .6 0 1.15-.06 1.75-.06.55-.12 1.15-.24 1.82h-1.63c-.12-.67-.18-1.21-.24-1.82-.06-.6-.06-1.14-.06-1.75V8.86h2.23z"/>
</svg>