<svg xmlns="http://www.w3.org/2000/svg" fill="none" viewBox="0 0 32 32">
  <circle cx="16" cy="16" r="16" fill="#D4EEF9"/>
  <path fill="#fff" d="M30.07 8.87a3.66 3.66 0 00-2.6-2.6C25.2 5.67 16 5.67 16 5.67s-9.2 0-11.47.6a3.66 3.66 0 00-2.6 2.6c-.6 2.26-.6 7.06-.6 7.06s0 4.8.6 7.07a3.66 3.66 0 002.6 2.6c2.27.6 11.47.6 11.47.6s9.2 0 11.47-.6a3.66 3.66 0 002.6-2.6c.6-2.27.6-7.07.6-7.07s0-4.8-.6-7.06z"/>
  <path fill="#D4EEF9" d="M28.6 10.53a3.66 3.66 0 00-2.6-2.6c-2.27-.6-10-.6-10-.6s-9.2 0-11.47.67a3.7 3.7 0 00-2.6 2.53c-.6 2.27-.6 5.4-.6 5.4s0 4.8.6 7.07a3.66 3.66 0 002.6 2.6c2.27.6 11.47.6 11.47.6s7.73 0 10-.6a3.66 3.66 0 002.6-2.6c.6-2.27.6-7.07.6-7.07s0-3.06-.6-5.4zm-15.53 9.8v-8.8l7.6 4.4-7.6 4.4z"/>
  <path stroke="#53BCE6" stroke-linecap="round" stroke-linejoin="round" stroke-miterlimit="10" d="M30.07 8.87a3.66 3.66 0 00-2.6-2.6C25.2 5.67 16 5.67 16 5.67s-9.2 0-11.47.6a3.66 3.66 0 00-2.6 2.6c-.6 2.26-.6 7.06-.6 7.06s0 4.8.6 7.07a3.66 3.66 0 002.6 2.6c2.27.6 11.47.6 11.47.6s9.2 0 11.47-.6a3.66 3.66 0 002.6-2.6c.6-2.27.6-7.07.6-7.07s0-4.8-.6-7.06zm-17 11.46v-8.8l7.6 4.4-7.6 4.4z"/>
</svg>