<svg width="551" height="393" xmlns="http://www.w3.org/2000/svg" xmlns:xlink="http://www.w3.org/1999/xlink"><defs><filter x="-1.7%" y="-.5%" width="103.4%" height="101.1%" filterUnits="objectBoundingBox" id="c"><feOffset in="SourceAlpha" result="shadowOffsetOuter1"/><feGaussianBlur stdDeviation=".5" in="shadowOffsetOuter1" result="shadowBlurOuter1"/><feColorMatrix values="0 0 0 0 0 0 0 0 0 0 0 0 0 0 0 0 0 0 0.25 0" in="shadowBlurOuter1"/></filter><filter x="-3.5%" y="-1.1%" width="105.6%" height="103.7%" filterUnits="objectBoundingBox" id="g"><feOffset in="SourceAlpha" result="shadowOffsetOuter1"/><feGaussianBlur stdDeviation=".5" in="shadowOffsetOuter1" result="shadowBlurOuter1"/><feColorMatrix values="0 0 0 0 0 0 0 0 0 0 0 0 0 0 0 0 0 0 0.25 0" in="shadowBlurOuter1" result="shadowMatrixOuter1"/><feMerge><feMergeNode in="shadowMatrixOuter1"/><feMergeNode in="SourceGraphic"/></feMerge></filter><filter x="-8.2%" y="-10.4%" width="116.3%" height="120.9%" filterUnits="objectBoundingBox" id="h"><feOffset in="SourceAlpha" result="shadowOffsetOuter1"/><feGaussianBlur stdDeviation=".5" in="shadowOffsetOuter1" result="shadowBlurOuter1"/><feColorMatrix values="0 0 0 0 0 0 0 0 0 0 0 0 0 0 0 0 0 0 0.1 0" in="shadowBlurOuter1"/></filter><filter x="-16.3%" y="-20.9%" width="132.7%" height="141.8%" filterUnits="objectBoundingBox" id="j"><feGaussianBlur stdDeviation="1.5" in="SourceAlpha" result="shadowBlurInner1"/><feOffset dy="1" in="shadowBlurInner1" result="shadowOffsetInner1"/><feComposite in="shadowOffsetInner1" in2="SourceAlpha" operator="arithmetic" k2="-1" k3="1" result="shadowInnerInner1"/><feColorMatrix values="0 0 0 0 0 0 0 0 0 0 0 0 0 0 0 0 0 0 0.18 0" in="shadowInnerInner1"/></filter><filter x="-1.4%" y="-1%" width="102.8%" height="102.5%" filterUnits="objectBoundingBox" id="l"><feOffset in="SourceAlpha" result="shadowOffsetOuter1"/><feGaussianBlur stdDeviation=".5" in="shadowOffsetOuter1" result="shadowBlurOuter1"/><feColorMatrix values="0 0 0 0 0 0 0 0 0 0 0 0 0 0 0 0 0 0 0.25 0" in="shadowBlurOuter1" result="shadowMatrixOuter1"/><feMerge><feMergeNode in="shadowMatrixOuter1"/><feMergeNode in="SourceGraphic"/></feMerge></filter><filter x="-2.7%" y="-5.4%" width="105.4%" height="110.8%" filterUnits="objectBoundingBox" id="n"><feOffset in="SourceAlpha" result="shadowOffsetOuter1"/><feGaussianBlur stdDeviation=".5" in="shadowOffsetOuter1" result="shadowBlurOuter1"/><feColorMatrix values="0 0 0 0 0 0 0 0 0 0 0 0 0 0 0 0 0 0 0.25 0" in="shadowBlurOuter1"/></filter><filter x="-1.7%" y="-.9%" width="103.3%" height="101.7%" filterUnits="objectBoundingBox" id="q"><feOffset in="SourceAlpha" result="shadowOffsetOuter1"/><feGaussianBlur stdDeviation=".5" in="shadowOffsetOuter1" result="shadowBlurOuter1"/><feColorMatrix values="0 0 0 0 0 0 0 0 0 0 0 0 0 0 0 0 0 0 0.25 0" in="shadowBlurOuter1" result="shadowMatrixOuter1"/><feMerge><feMergeNode in="shadowMatrixOuter1"/><feMergeNode in="SourceGraphic"/></feMerge></filter><path d="M179.529 53.104v271.604a3 3 0 003 3h86.164V53.104H179.53z" id="d"/><path d="M297.48 153.13h186.218a2 2 0 012 2v28.833a2 2 0 01-2 2H297.48a2 2 0 01-2-2V155.13a2 2 0 012-2z" id="a"/><path d="M293.48 208.277h186.218a2 2 0 012 2v28.833a2 2 0 01-2 2H293.48a2 2 0 01-2-2v-28.833a2 2 0 012-2z" id="b"/><path d="M26.367 27.102c-.189 9.57 2.844 14.355 9.098 14.355 6.255 0 9.335-4.785 9.241-14.355-2.06 5.296-5.14 7.944-9.24 7.944-4.1 0-7.133-2.648-9.1-7.944z" id="i"/><path d="M126.65 45.146l-3.093 8.66 10.007 3.641c6.83 1.057 12.426.845 16.786-.635 4.638-.86 11.703-2.071 21.194-3.634 3.574.943 5.513.943 5.818 0 .611-1.915.611-1.915 1.162-8.032.368-4.078.722-7.463 1.062-10.155.067-3.362-.287-4.401-1.062-3.119-.181-1.823-.569-1.991-1.162-.505-2.537 11.073-4.477 16.753-5.818 17.04-.058.012-2.019.012-5.884 0-8.357.658-16.386.658-24.086 0-5.003-.429-9.978-1.515-14.925-3.26z" id="o"/><linearGradient x1="86.775%" y1="66.427%" x2="26.359%" y2="54.325%" id="k"><stop stop-color="#86D3F0" offset="0%"/><stop stop-color="#B7E8FA" offset="35.419%"/><stop stop-color="#8FD9F6" offset="100%"/></linearGradient><linearGradient x1="50%" y1="0%" x2="50%" y2="100%" id="m"><stop stop-color="#404040" offset="0%"/><stop stop-color="#4D4D4D" offset="0%"/><stop stop-color="#858A98" offset="100%"/></linearGradient><linearGradient x1="50%" y1="20.285%" x2="77.344%" y2="61.911%" id="p"><stop stop-color="#6AC580" offset="0%"/><stop stop-color="#97DFA6" offset="100%"/></linearGradient><linearGradient x1="83.267%" y1="35.274%" x2="16.411%" y2="59.819%" id="r"><stop stop-color="#F17D7D" offset="0%"/><stop stop-color="#EA6C6C" offset="100%"/></linearGradient><mask id="e" maskContentUnits="userSpaceOnUse" maskUnits="objectBoundingBox" x="0" y="0" width="190.218" height="32.833" fill="#fff"><use xlink:href="#a"/></mask><mask id="f" maskContentUnits="userSpaceOnUse" maskUnits="objectBoundingBox" x="0" y="0" width="190.218" height="32.833" fill="#fff"><use xlink:href="#b"/></mask></defs><g fill="none" fill-rule="evenodd"><g transform="translate(0 45)"><path d="M26.274 113.173v211.332a3 3 0 003 3h152.385V113.173H26.274z" fill="#FFF" fill-rule="nonzero"/><path d="M195.876 175.164V324.09c0 2.188-1.792 3.962-4.002 3.962H29.254c-2.21 0-4.001-1.774-4.001-3.962V175.164m0-8.811V96.624c0-2.188 1.791-3.961 4.002-3.961h162.619c2.21 0 4.002 1.773 4.002 3.961v69.729" stroke="#BBB" stroke-width="2" stroke-linecap="square" fill-rule="nonzero"/><path d="M24.232 116.8V96.343c0-2.6 1.791-4.707 4.001-4.707h164.662c2.21 0 4.002 2.108 4.002 4.707V116.8" fill="#888" fill-rule="nonzero"/><path d="M96.308 101.851v-.985a1 1 0 011-1h19.796a1 1 0 011 1v.985a1 1 0 01-1 1H97.308a1 1 0 01-1-1zM268.458 53.418v274.604h228.908V53.418z" fill="#FFF" fill-rule="nonzero"/><path fill="#325995" opacity=".05" d="M483.734 61.901V327.69h12.491l1.25-265.788z"/><path fill-opacity=".04" fill="#000" d="M165.797 116.967v210.722h11.492l1.249-210.722z"/><path d="M498.308 61.677v263.164c0 2.133-1.803 3.862-4.027 3.862H182.623c-2.224 0-4.027-1.73-4.027-3.862V85.67m0-12.589V39.058c0-2.134 1.803-3.863 4.027-3.863H494.28c2.224 0 4.027 1.73 4.027 3.863v12.1" stroke="#979797" stroke-width="2" fill-rule="nonzero"/><g fill-rule="nonzero"><use fill="#000" filter="url(#c)" xlink:href="#d"/><use fill="#EFEFEF" xlink:href="#d"/></g><path d="M179.617 62.603V41.197c0-3.014 1.78-5.457 3.978-5.457h309.793c2.197 0 3.978 2.443 3.978 5.457v21.406" fill="#888" fill-rule="nonzero"/><use stroke="#8D95A7" mask="url(#e)" stroke-width="2" fill="#EFEFEF" stroke-dasharray="3" xlink:href="#a"/><use stroke="#8D95A7" mask="url(#f)" stroke-width="2" fill="#EFEFEF" stroke-dasharray="3" xlink:href="#b"/><path fill="#707B91" opacity=".8" d="M194.389 85.978h62.415v8.954h-62.415z"/><path d="M198.37 111.846h45.224a2 2 0 012 2v1.1a2 2 0 01-2 2H198.37a2 2 0 01-2-2v-1.1a2 2 0 012-2zm0 19.383h35.995a2 2 0 012 2v1.1a2 2 0 01-2 2H198.37a2 2 0 01-2-2v-1.1a2 2 0 012-2zm0 18.362h54.453a2 2 0 012 2v1.1a2 2 0 01-2 2h-54.452a2 2 0 01-2-2v-1.1a2 2 0 012-2z" fill="#707B91" opacity=".6"/><path stroke-opacity=".75" stroke="#5E657D" fill="#FFF" d="M331.571 153.63h189.218v31.833H331.571z"/><path d="M340.02 161.082v16.929h16.874v-16.929H340.02zm16.877-.77c.422 0 .764.345.764.77v16.929c0 .425-.337.77-.764.77h-16.88a.767.767 0 01-.764-.77v-16.929c0-.425.337-.77.764-.77h16.88zm-8.44 14.621c2.965 0 5.369-2.411 5.369-5.386s-2.404-5.387-5.37-5.387c-2.964 0-5.368 2.412-5.368 5.387 0 2.975 2.404 5.386 5.369 5.386zm-.86-2.84c-.511.32-.93.1-.93-.486v-4.12c0-.587.419-.806.93-.488l3.16 1.969c.512.318.512.84 0 1.157l-3.16 1.969z" fill="#E46E59" fill-rule="nonzero"/><path d="M367.894 164.416h62.37a2.052 2.052 0 010 4.105h-62.37a2.052 2.052 0 110-4.105zm-1.026 10.26h57.391a1.026 1.026 0 010 2.053h-57.39a1.026 1.026 0 010-2.052zm63.406 0h51.351a1.026 1.026 0 110 2.053h-51.35a1.026 1.026 0 010-2.052z" fill="#949CAD" opacity=".75"/><path d="M289.48 97.594a1.5 1.5 0 00-1.5 1.5v28.833a1.5 1.5 0 001.5 1.5h186.218a1.5 1.5 0 001.5-1.5V99.094a1.5 1.5 0 00-1.5-1.5H289.48z" stroke="#878C9E" fill="#FFF"/><path d="M297.18 104.847v17.328h17.256v-17.328H297.18zm17.258-.788c.432 0 .782.352.782.788v17.328a.782.782 0 01-.782.788h-17.26a.785.785 0 01-.782-.788v-17.328c0-.435.345-.788.782-.788h17.26zm-6.692 6.04c-.921-.474-1.341-.754-1.341-1.314l-.568.1v6.305a3.412 3.412 0 00-.994.035c-1.295.23-2.345 1.077-2.345 1.892 0 .816 1.05 1.291 2.345 1.062 1.296-.23 2.346-1.077 2.346-1.892v-4.272c0-1.038 1.034-.938 1.074.4.04 1.337-.536 1.696-.536 1.696l.596.26c1.292-1.298.902-3.512-.577-4.272z" fill="#6892BF" fill-rule="nonzero"/><path d="M325.136 108.039h78.25a1.99 1.99 0 010 3.98h-78.25a1.99 1.99 0 010-3.98zm-.995 9.95h137.7a.995.995 0 010 1.989h-137.7a.995.995 0 110-1.99z" fill="#949CAD" opacity=".75"/><path d="M257.078 208.777a1.5 1.5 0 00-1.5 1.5v28.833a1.5 1.5 0 001.5 1.5h186.218a1.5 1.5 0 001.5-1.5v-28.833a1.5 1.5 0 00-1.5-1.5H257.078z" stroke-opacity=".75" stroke="#5E657D" fill="#FFF"/><path d="M263.788 216.03v17.328h17.255V216.03h-17.255zm17.258-.788c.432 0 .782.352.782.788v17.328a.782.782 0 01-.782.788h-17.26a.785.785 0 01-.782-.788V216.03c0-.435.345-.788.782-.788h17.26zm-10.591 8.664l4.314 7.09h-8.628l4.314-7.09zm5.49 3.15l2.745 3.94h-5.49l2.745-3.94zm-1.176-3.15c.866 0 1.568-.705 1.568-1.575s-.702-1.576-1.568-1.576c-.867 0-1.569.706-1.569 1.576 0 .87.702 1.575 1.569 1.575z" fill="#5FC294" fill-rule="nonzero"/><path d="M291.743 219.222h54.473a1.99 1.99 0 110 3.98h-54.473a1.99 1.99 0 010-3.98zm-.995 10.944h89.156a.995.995 0 010 1.99h-89.156a.995.995 0 110-1.99z" fill="#949CAD" opacity=".75"/><path d="M0 346.381h15.417m9.341 0h160.893m-.47 0h146.304m.57 0h191.19m8.566 0h18.382" stroke="#979797" stroke-width="2" opacity=".5"/><path d="M193.913 52.11a3.475 3.475 0 01-3.468-3.483 3.475 3.475 0 013.468-3.482 3.475 3.475 0 013.467 3.482 3.475 3.475 0 01-3.467 3.482zm10.898 0a3.475 3.475 0 01-3.468-3.483 3.475 3.475 0 013.468-3.482 3.475 3.475 0 013.467 3.482 3.475 3.475 0 01-3.467 3.482zm10.897 0a3.475 3.475 0 01-3.467-3.483 3.475 3.475 0 013.467-3.482 3.475 3.475 0 013.468 3.482 3.475 3.475 0 01-3.468 3.482z" fill="#FFF"/><path d="M70.13 183.651c-.992-.038-1.99-1.21-2.995-3.519-.666-1.488-1.237-3.203-1.714-5.145-.93.138-2.45.277-4.56.416-1.983.139-3.503.302-4.558.492-.578 1.387-1.582 3.474-3.014 6.261-.553.909-1.319 1.363-2.298 1.363-.69 0-1.312-.237-1.865-.71a2.273 2.273 0 01-.829-1.806c0-.644.917-2.826 2.75-6.546-.175-.391-.25-.757-.226-1.097.05-.606.66-1.079 1.828-1.42a192.176 192.176 0 015.952-9.647c3.14-4.78 5.074-7.17 5.802-7.17 1.382 0 2.305.838 2.77 2.516.25 1.35.646 3.373 1.186 6.072a537.394 537.394 0 002.807 12.467c.088.354.408 1.186.96 2.498.453 1.084.679 1.898.679 2.44 0 .732-.273 1.343-.82 1.835-.546.492-1.164.725-1.855.7zm-7.027-19.41c-.98 1.69-2.33 3.992-4.05 6.905.566-.126 1.445-.227 2.638-.302 1.406-.089 2.292-.158 2.656-.209a408.74 408.74 0 00-1.244-6.394z" fill="#3C7FBA"/><path d="M87.49 161.553h52.967a2 2 0 012 2v.11a2 2 0 01-2 2H87.49a2 2 0 01-2-2v-.11a2 2 0 012-2zm0 16.438h69.243a2 2 0 012 2v.11a2 2 0 01-2 2H87.49a2 2 0 01-2-2v-.11a2 2 0 012-2zM46.8 202.648h109.933a2 2 0 012 2v.11a2 2 0 01-2 2H46.8a2 2 0 01-2-2v-.11a2 2 0 012-2zm0 16.438h109.933a2 2 0 012 2v.11a2 2 0 01-2 2H46.8a2 2 0 01-2-2v-.11a2 2 0 012-2zm0 16.439h109.933a2 2 0 012 2v.11a2 2 0 01-2 2H46.8a2 2 0 01-2-2v-.11a2 2 0 012-2zm0 16.438h69.243a2 2 0 012 2v.11a2 2 0 01-2 2H46.8a2 2 0 01-2-2v-.11a2 2 0 012-2z" fill="#949CAD" opacity=".75"/><g filter="url(#g)" transform="translate(70.668 .923)"><use fill="#000" filter="url(#h)" xlink:href="#i"/><use fill="#FFC88F" xlink:href="#i"/><use fill="#000" filter="url(#j)" xlink:href="#i"/><g fill="#035567"><path d="M20.893 123.077l-.562-.363a1 1 0 00-.785-.13l-9.144 2.286-7.46 6.87c-2.025 1.658-1.38 2.488 1.932 2.488 3.197 0 8.568-3.275 16.113-9.825h0a.831.831 0 00-.094-1.326z" stroke="#F7FEFF" stroke-width="4"/><path d="M22.141 123.346l-1.255-2.713-11.629 3.042-7.162 7.226c-1.536 2.218-.648 3.327 2.665 3.327 3.314 0 9.107-3.628 17.381-10.882z" stroke="#004D5F"/></g><path d="M34.954 72.816c7.842 2.038 6.937 15.084 1.074 16.552-3.908.98-10.26.98-19.055 0l7.712 28.378-3.54 3.686H10.957c-5.996-19.009-9.301-31.326-9.915-36.95-.92-8.438 1.975-7.45 6.697-10.841 4.721-3.39 19.372-2.863 27.214-.825z" stroke="#93E1FF" fill="url(#k)"/><path d="M48.144 122.987l.686-.43a.659.659 0 01.504-.081l9.24 2.24 7.416 6.622c2.014 1.599 1.373 2.398-1.92 2.398-3.179 0-8.518-3.157-16.02-9.47a.786.786 0 01.094-1.279z" stroke="#FFF" stroke-width="4" fill="#035567"/><g fill="#035567"><path d="M48.458 123.077l.561-.363a1 1 0 01.785-.13l9.144 2.286 7.46 6.87c2.025 1.658 1.381 2.488-1.932 2.488-3.197 0-8.568-3.275-16.112-9.825h0a.831.831 0 01.094-1.326z" stroke="#F7FEFF" stroke-width="4"/><path d="M47.095 123.346l1.256-2.713 11.628 3.042 7.162 7.226c1.536 2.218.648 3.327-2.665 3.327s-9.107-3.628-17.38-10.882z" stroke="#004D5F"/></g><path d="M37.132 72.816c7.843-2.038 22.493-2.565 27.214.825 4.722 3.39 7.618 2.403 6.697 10.84-.614 5.625-3.919 17.942-9.915 36.951H50.942l-3.54-3.686 7.711-28.378c-8.795.98-15.146.98-19.055 0-5.863-1.468-6.768-14.514 1.074-16.552z" stroke="#93E1FF" fill="url(#k)"/><path d="M63.208 46.584l-7.76 1.424 1.106 10.585-1.651 14.649c4.794-.927 7.852-2.768 9.175-5.522 0-5.205-.29-12.25-.87-21.136zM7.859 46.584l7.76 1.424-1.107 10.585 1.652 14.649c-4.794-.927-7.853-2.768-9.175-5.522 0-5.205.29-12.25.87-21.136z" fill="#FFC792"/><g transform="translate(10.367 55.275)"><path d="M44.615 25.466a.981.981 0 01-1.763-.823l1.712-5.436h2.22a1 1 0 01.843 1.538l-3.012 4.72zm-39.647 0l-3.013-4.721a1 1 0 01.843-1.538h2.22l1.713 5.436a.981.981 0 01-1.763.823zm2.11 2.754c-.352 0-.672-.2-.827-.514a.356.356 0 01.32-.514h36.122a.362.362 0 01.329.514.883.883 0 01-.802.514H7.077z" fill="#A0A2A5"/><path d="M2.227.536h43.91a2 2 0 011.955 2.421L43.1 26.143a1 1 0 01-.978.79H6.906a1 1 0 01-.972-.764L.284 3.01A2 2 0 012.227.536z" stroke="#979797" fill="#D8D8D8"/><circle fill="#FFF" cx="24.469" cy="13.734" r="2.897"/></g><path d="M6.99 46.964l10.327 3.067v5.78H54.72v-6.518l9.357-2.329-.58-8.433c-1.65-4.885-4.576-7.803-8.777-8.753-4.201-.95-7.276-1.841-9.226-2.676l-.632 4.837c-1.675 5.928-4.513 8.891-8.516 8.891-6.004 0-7.404-2.825-8.757-8.89-.118-.649-.314-2.261-.588-4.838L16.94 28.986c-3.726.86-6.572 3.966-8.537 9.32-.942 4.88-1.413 7.766-1.413 8.658z" fill="#383761"/><path d="M26.815 14.826c2.437-6.691 8.548-6.867 18.335-.527v6.524c.582-1.381 1.23-2.35 1.947-2.907.715-.557.858 1.13.427 5.06-.386.817-1.002.95-1.851.401 0 1.46-.058 2.443-.175 2.952-1.438 5.3-4.59 7.95-9.455 7.95-7.298 0-8.59-5.093-9.056-7.95-.311-1.905-.432-2.889-.362-2.952-.455.496-.987.496-1.597 0-.913-.743-.742-2.483-.577-4.834.165-2.35 1.322-1.621 1.491.708.287.6.287 1.403 0 2.411.072-1.067.263-1.87.573-2.411.31-.54.41-2.016.3-4.425z" fill="#FFC88F"/><path d="M27.213 15.347l-.286 6.629h-.531v-2.54l-.755-1.998-1.321-1.703V5.685c1.426-2.998 3.445-4.669 6.056-5.012 3.915-.515 11.87 0 11.87 0l4.866 5.013c3.205-.348 4.335.949 3.39 3.891-.944 2.943-2.074 4.414-3.39 4.414l-.276 3.447-.692 1.998-.266 1.817h-.693V14.83l-8.896-.838-2.816-1.791c-1.206-.837-2.238-.698-3.097.416a10.447 10.447 0 01-3.163 2.731z" fill="#614C42"/></g><g filter="url(#l)" transform="translate(76.475 187.735)"><path d="M10.738 134.139c-2.9 3.397-4.35 4.826-4.35 4.286 0-.81 2.25 6.58 5.413 5.949 1.151.192 1.947-.311 2.388-1.51l1.368-3.844-4.82-4.881z" fill="#FABF9B"/><path d="M149.977 17.37l-3.667-1.868c-.786-3.729-2.076-6.05-3.87-6.965-2.692-1.371-5.545-4.054-11.609-4.462-4.042-.272-7.192 2.573-9.447 8.536l-5.572 13.415 1.784.91 2.765-5.428-.648-1.272c1.136-3.374 2.179-4.572 3.128-3.595.95.977.527 3.227-1.267 6.748l1.923.98 3.696-5.51c1.344-3.442 3.27-4.525 5.774-3.248 2.505 1.276 3.781 2.61 3.829 4.003.06 2.617 2.058 4.422 5.991 5.417 3.934.995 6.33-1.559 7.19-7.66z" fill="#2B2B2B"/><path d="M117.292 26.877l-.13.51-5.775 4.083c1.185 5.849 3.343 10.167 6.471 12.954 4.693 4.18 5.03-3.68 3.27-4.577-1.76-.897.909-2.611 1.931-3.143.567-.425 1.923-2.061 2.989.576 2.329 2.08 4.812 1.71 7.45-1.113l.003-1.242 1.046.53 1.077-2.922 1.432 1.874c.078-1.636.271-3.188.58-4.657.093-.445.434-1.361.735-1.912.411-.753 1.295-1.85 2.65-3.288-2.899-1.05-4.374-2.698-4.427-4.941-.047-1.393-1.323-2.728-3.828-4.004-2.505-1.276-4.43-.194-5.774 3.248l-3.696 5.51-1.923-.98c1.794-3.521 2.216-5.77 1.267-6.748-.95-.977-1.992.221-3.128 3.595l.648 1.272-2.765 5.428-.103-.053zM83.56 138.249l-3.787 8.297c-.148.9.309 1.255 1.369 1.067 1.59-.283 3.148 5.208 7.284 1.904 2.758-2.202 3.907-3.193 3.448-2.971l-2.688-2.185.703-2.648-6.33-3.464z" fill="#FABF9B"/><path d="M66.52 64.272c-8.522-.052-13.578 6.215-15.167 18.803-11.22 5.383-17.734 23.202-18.72 23.202-.987 0-17.583 11.317-24.208 27.766 2.404 2.017 4.924 4.497 7.563 7.44l25.981-25.673c4.343-4.478 7.99-7.655 10.94-9.533 2.95-1.877 9.48-7.417 19.59-16.62 6.803 6.479 14.394 11.417 22.772 14.814-3.43 2.283-5.44 5.8-6.03 10.552l-7.6 24.206 8.484 3.13c9.81-16.153 14.983-25.264 15.518-27.336.535-2.072 2.409-6.174 5.621-12.309.584-2.576-2.7-6.196-9.85-10.858-5.753-5.854-9.517-9.824-11.29-11.911L66.522 64.272z" fill="url(#m)"/><path d="M123.935 39.084l-3.435 7.354 8.405 2.808c5.675 1.858 11.214 3.1 16.62 3.724 4.778 0 10.544-.062 17.296-.187l9.875-.762c1.851-1.214 3.119-3.957 3.801-8.227a724.25 724.25 0 011.623-9.828c.746-3.253.735-4.259-.032-3.018-.18-1.764-.563-1.927-1.15-.489-4.24 9.168-7.023 13.891-8.35 14.168-.058.012-2.336.012-6.835 0-1.144.349-5.528.204-13.152-.433-4.954-.415-13.176-2.118-24.666-5.11z" fill="#FABF9B"/><use fill="#000" filter="url(#n)" xlink:href="#o"/><use fill="#FABF9B" xlink:href="#o"/><path d="M59.64 63.763c3.721 4.096 10.305 10.011 19.752 17.746 1.261.776 1.974 1.257 6.388 1.257 2.647-3.61 5.752-6.31 9.315-8.098 13.516-7.088 21.378-14.145 23.587-21.173.597.277 2.207.745 4.827 1.404l4.123-10.422a41.058 41.058 0 00-2.59-1.07c-.31 0-.428-.229-.288-.523.238-.342 1.033-2.662.697-3.098-.7-.907-3.45-3.893-8.252-8.96-5.151-2.776-10.543-1.667-16.178 3.327-13.741 12.895-27.535 22.765-41.38 29.61z" fill="url(#p)"/><path d="M4.367 143.386l-4.093 2.597 9.208 9.733h13.95c1.727-.528 1.727-1.327 0-2.395-2.588-1.603-7.58 2.546-9.9-2.916-.35-2.695-.902-3.402-1.655-2.12-1.379 1.4-2.913 1.4-4.602 0-1.69-1.401-2.659-3.034-2.908-4.899z" stroke="#FFF" stroke-width="2"/><path d="M6.17 137.221l-5.896 7.32 9.445 10.147h14.31c2.106-.889 2.275-1.89.504-3.004-2.655-1.672-6.582-1.45-8.963-7.144-.36-2.81-.925-3.548-1.697-2.211-1.414 1.46-2.988 1.46-4.72 0-1.733-1.46-2.727-3.163-2.983-5.108z" fill="#7D879C"/><path d="M80.002 156.743h26.895c3.22-2.27 4.125-3.677 2.714-4.22-1.41-.541-4.493-.541-9.246 0-1.574-.053-2.928-.573-4.064-1.561-1.027-.894-6.614-.47-15.33 3.828-.611.302-.934.953-.97 1.953z" stroke="#FFF" stroke-width="2"/><path d="M79.746 145.585v10.13h27.934c2.681-2.35 3.314-3.782 1.897-4.295-1.416-.513-4.148-.656-8.194-.43-1.58-.05-2.939-.543-4.078-1.479-1.71-1.403-2.532-4.538-4.876-5.097-.683 1.618-1.087 2.352-3.414 3.534-3.722.4-4.704-.278-6.132-.845-1.427-.568-3.137-2.427-3.137-1.518z" fill="#7D879C"/></g><g><path d="M289.48 264.813a1.5 1.5 0 00-1.5 1.5v28.833a1.5 1.5 0 001.5 1.5h186.218a1.5 1.5 0 001.5-1.5v-28.833a1.5 1.5 0 00-1.5-1.5H289.48z" stroke-opacity=".75" stroke="#5E657D" fill="#FFF"/><path d="M325.136 275.257h78.25a1.99 1.99 0 010 3.98h-78.25a1.99 1.99 0 010-3.98zm-.995 9.95h137.7a.995.995 0 010 1.99h-137.7a.995.995 0 110-1.99z" fill="#949CAD" opacity=".75"/><path d="M296.261 272.137v17.185h20.535v-17.185h-20.535zm20.538-.86c.47 0 .853.385.853.86v17.185c0 .475-.377.86-.853.86h-20.54a.856.856 0 01-.853-.86v-17.185c0-.474.376-.86.852-.86H316.8zm-17.971 3.871c0-.24.195-.433.428-.433h14.545c.237 0 .428.184.428.433V276c0 .239-.195.433-.428.433h-14.545a.424.424 0 01-.428-.433v-.852zm.856 10.308a.43.43 0 01.42-.43h4.293a.43.43 0 010 .86h-4.293a.43.43 0 01-.42-.43zm11.123 1.288a3.43 3.43 0 01-3.423-3.437h3.423v-3.437a3.43 3.43 0 013.422 3.437 3.43 3.43 0 01-3.422 3.437zm-7.73-6.014h.03v-.43a.43.43 0 00-.42-.43h-2.584a.422.422 0 00-.42.43c0 .23.189.43.42.43h1.704l-2.094 1.718h-.03v.43c0 .23.189.43.42.43h2.583c.236 0 .42-.193.42-.43a.43.43 0 00-.42-.43h-1.625l2.044-1.677-.029-.041zm3.454 1.716a3.51 3.51 0 013.502-3.517v3.517h-3.502z" fill="#D98E13" fill-rule="nonzero"/></g><g filter="url(#q)" transform="translate(442.07 169.376)"><path fill="#FFDFB7" d="M17.747 164.157l-1.934 4.097 7.994.878 1.913-4.805zM66.34 163.466v5.666h7.925v-5.97z"/><path d="M39.037 76.985l-9.125 39.412c-1.323 2.511-1.653 4.545-.992 6.101s-2.717 15.443-10.135 41.66h10.126l9.117-23.894c2.604-6.567 3.277-12.08 2.02-16.54 2.501-4.205 6.585-12.987 12.253-26.348l9.754 28.838 4.729 37.943h10.453l-5.187-40.434-1.104-24.816c3.321-7.47 1.934-14.778-4.162-21.922-6.096-7.143-15.345-7.143-27.747 0z" fill="#657281"/><path d="M40.696 9.745c.595-1.328 1.338-2.224 2.23-2.69.892-.464 2.635.7 5.23 3.491 1.973.943 3.628 2.514 4.966 4.714.682 1.076.972 1.076.871 0 3.365-1.7 4.254-.603 2.667 3.29-1.588 3.892-2.476 4.036-2.667.433l1.208 12.126c.13.301-.245 1.052-1.124 2.253-.878 1.2-2.396 2.59-4.553 4.165-4.891.875-6.78-.359-5.669-3.702 1.112-3.343 1.9-5.015 2.363-5.015h1.358v-2.17c-2.48.18-3.928-.491-4.341-2.015-.414-1.523-.662-2.022-.744-1.496l-.185-1.19h-.753V20.47l-.857-.421v-1.067l-1.106-.629c.166-1.493.535-2.37 1.106-2.628v-5.98zM77.193 34.448l-.708 8.326h7.142c5.347-1.2 6.795-3.775 4.342-7.727-2.452-3.951-5.855-9.286-10.206-16.003l-.57-10.135-.708-3.177c-.947-.82-1.31-.568-1.088.754.222 1.322.35 2.096.382 2.323.009 1.167-.281 1.246-.87.236-.295-1.59-.485-2.93-.57-4.019-.587-.956-.937-.956-1.05 0 0 1.265.057 2.766.17 4.501-.113 1.013-.36 1.013-.74 0-.367-1.98-.658-3.041-.95-4.64 0-.827-1.506-1.892-1.102.845.27 1.824.553 3.277.853 4.358.15 1.316-.134 1.227-.853-.268a147.4 147.4 0 00-1.893-3.815c-.992-.712-1.363-.407-1.112.917.25 1.324 1.145 3.227 2.684 5.71.254 1.85-.366 2.492-1.857 1.922-2.237-.855-.6 2.359-.3 2.359s3.9 1.569 5.857 6.145c1.305 3.05 2.286 5.261 2.946 6.632 1.845 3.623 4.003 5.899 6.474 6.827 2.47.927.38.237-6.273-2.071z" fill="#FFDFB7"/><path d="M36.335 80.582c1.028-.795 2.444-1.06 4.247-.795 2.705.398 20.611.795 23.382.398 1.848-.265 4.087-.265 6.718 0l-3.316-8.168c-1.255-4.62-1.44-8.5-.555-11.641.37-2.78.813-6.971 1.328-12.573v-4.716l10.459.803.62-9.488c-6.269-1.474-9.593-2.21-9.97-2.21-.377 0-2.3-.78-5.769-2.342-4.87 3.443-9.647 3.108-14.33-1.005-4.03.67-10.849 2.523-20.457 5.557v9.488c4.87.798 8.396.3 10.577-1.492-2.934 2.773-3.046 3.056-1.523 12.634 1.015 6.386.545 14.902-1.41 25.55z" fill="url(#r)"/><path d="M15.85 167.142L.952 172.296v2.805h26.75v-3.568c-.103-1.007-.71-1.51-1.822-1.51h-7.624l-2.406-2.881z" fill="#4A5170"/><path d="M15.85 165.152l-9.88 2.88c-3.345 1.49-5.018 3.183-5.018 5.08h26.75v-3.569c-.103-1.007-.71-1.51-1.822-1.51h-7.624l-2.406-2.88z" fill="#F4A58B"/><path d="M63.367 173.191v1.91h12.88v-1.91c-.175-1.746-.784-2.62-1.828-2.62s-3.96-.148-8.746-.444l-2.306 3.064z" fill="#4A5170"/><path d="M63.455 169.364c-.117.601-.117 1.85 0 3.748h12.792v-3.39c-.1-1.056-.69-1.585-1.774-1.585h-9.29c-.81.073-1.386.482-1.728 1.227z" fill="#F4A58B"/><path d="M53.538 1.76c6.564 2.207 10.09 6.27 10.576 12.19.488 5.92.244 11.583-.73 16.987-1.44 5.175-3.919 9.097-7.436 11.765-1.08.46-1.257-1.292-.53-5.257.088-3.208-.12-5.546-.624-7.015-.504-1.468-.64-4.19-.406-8.163v-1.895c.649.449 1.169.449 1.56 0 .392-.45.79-1.453 1.194-3.011.077-2.267-.405-3.217-1.446-2.85-1.04.369-1.57 1.023-1.587 1.963l-3.302-4.124-3.496-2.445-3.044-2.731c-.327-.719-.806-.719-1.439 0a9.235 9.235 0 00-1.538 2.432v5.627l-.6 1.04c-.454 1.39-.567 2.084-.34 2.084.226 0 .54.162.94.485l.2 1.135.806.395v1.208l.753 1.185c.418 2.84 1.652 4.037 3.703 3.59h1.07v2.187h-1.698v.698h-1.416v-1.284a9.615 9.615 0 01-3.418-3.188c-1.302-2.003-1.718-2.083-3.55-9.183-.226-2.697-.226-4.613.533-7.807.758-3.194 2.417-4.473 5.634-6.019 2.144-1.03 5.355-1.03 9.631 0z" fill="#4A3320"/><path d="M29.166 35.48v7.91l-7.127.38c-5.235-1.935-6.544-4.875-3.926-8.82 2.617-3.946 5.91-9.615 9.88-17.007-.867-2.171-.728-3.965.417-5.382.504-1.62.788-2.93.852-3.93.562-1.092.973-1.004 1.235.264-.243 1.402-.365 2.297-.365 2.685.414.568.666.374.759-.582.365-2.42-.044-3.19.256-4.33.215-.579.74-1.363.994.262.253 1.625-.02 4.74.323 4.65.314-.083.723-1.633 1.228-4.65.726-.816 1.088-.632 1.088.553 0 1.184-.31 2.68-.928 4.488.177.591.487.705.928.34.662-.547.809-2.655.937-3.192.128-.537 1.229-1.715 1.229.637 0 1.568-.41 3.126-1.23 4.673-.503.656-.248.808.767.457 2.324-.803.329 2.606.329 2.753 0 .097-1.223 1.04-3.668 2.827-4.435 9.656-7.435 15.226-9 16.71 1.64-1.13 3.314-1.696 5.022-1.696z" fill="#FFDFB7"/></g><g stroke="#4E5A78" stroke-width="1.5"><g transform="translate(203.196 286.278)"><rect fill="#AFD3F3" x="97.445" y="25.596" width="35.874" height="28.623" rx="2"/><path d="M116.761 39.739c-1.067.44-2.077.388-3.03-.154l-.028-.027a.392.392 0 01-.1.144L98.315 52.67c-.026.024.023.557.317 0 .196-.37 5.166-4.792 14.911-13.263l-14.146-13.31h30.855c.308.013.597.157.794.395a1.105 1.105 0 01-.141 1.551l-13.808 11.541c-.062.031-.124.06-.185.089l14.628 12.852a.08.08 0 01-.047.145.758.758 0 01-.447-.146l-14.285-12.786z" stroke-linecap="round" stroke-linejoin="round"/><path d="M51.167 40.823h0l-4.03 5.37a2.54 2.54 0 01-3.564.503l-3.23-2.446a20.727 20.727 0 01-3.913 2.316l.562 4.023a2.556 2.556 0 01-2.165 2.886l-6.63.935c-1.347.19-2.684-.822-2.874-2.174l-.563-4.024a20.574 20.574 0 01-4.396-1.142l-2.435 3.245a2.54 2.54 0 01-3.563.504l-5.348-4.047a2.566 2.566 0 01-.5-3.579l2.435-3.245a20.823 20.823 0 01-2.306-3.93l-4.006.566c-1.296.184-2.693-.876-2.874-2.175l-.932-6.658a2.546 2.546 0 01.488-1.894 2.562 2.562 0 011.679-.993l4.005-.566c.217-1.51.6-2.99 1.137-4.414l-3.23-2.446a2.565 2.565 0 01-.502-3.579l4.03-5.37a2.54 2.54 0 013.563-.502l3.23 2.445a20.78 20.78 0 013.913-2.315l-.562-4.024a2.556 2.556 0 012.165-2.886l6.631-.935c1.346-.19 2.684.823 2.874 2.174l.563 4.024c1.504.218 2.978.602 4.396 1.142l2.435-3.245a2.54 2.54 0 013.564-.503l5.348 4.047a2.566 2.566 0 01.5 3.579l-2.435 3.244a20.818 20.818 0 012.305 3.93l4.007-.566c1.296-.183 2.693.876 2.874 2.175l.931 6.658a2.544 2.544 0 01-.488 1.894c-.404.539-1.016.9-1.679.994l-4.005.566c-.218 1.511-.6 2.99-1.138 4.414l3.232 2.445a2.565 2.565 0 01.501 3.58zm-15.976-7.88c3.075-4.099 2.257-9.946-1.824-13.035-4.081-3.088-9.904-2.266-12.98 1.832-3.074 4.099-2.256 9.946 1.825 13.035 4.081 3.088 9.903 2.267 12.979-1.832z" fill="#F8AA8C" fill-rule="nonzero"/><path d="M91.195 34.055c0-.94-.76-1.704-1.696-1.704H86.8a13.93 13.93 0 00-1.158-2.808l1.907-1.916c.315-.317.497-.756.497-1.205 0-.456-.176-.883-.497-1.205l-3.156-3.17c-.615-.618-1.782-.62-2.4 0l-1.906 1.916c-.888-.49-1.826-.88-2.797-1.164v-2.708c0-.94-.761-1.704-1.696-1.704H71.13c-.936 0-1.697.764-1.697 1.704V22.8c-.97.283-1.909.673-2.797 1.163l-1.907-1.915c-.64-.644-1.758-.644-2.399 0l-3.157 3.17a1.71 1.71 0 000 2.408l1.907 1.916a13.96 13.96 0 00-1.158 2.809h-2.697c-.935 0-1.696.764-1.696 1.704v4.482c0 .94.76 1.704 1.696 1.704h2.698c.282.975.67 1.916 1.158 2.808l-1.907 1.915a1.72 1.72 0 00-.497 1.206c0 .455.176.883.497 1.205l3.156 3.169c.616.619 1.783.62 2.4 0l1.907-1.915c.888.49 1.825.88 2.797 1.163v2.709c0 .94.76 1.704 1.696 1.704h4.464c.936 0 1.696-.765 1.696-1.704v-2.709a13.73 13.73 0 002.797-1.163l1.907 1.915c.641.644 1.758.644 2.398 0l3.157-3.17a1.71 1.71 0 000-2.408l-1.907-1.916c.488-.892.876-1.834 1.158-2.809h2.697c.936 0 1.697-.764 1.697-1.703v-4.483h0zM79.53 36.239c0 3.39-2.77 6.148-6.173 6.148-3.404 0-6.173-2.758-6.173-6.148 0-3.39 2.77-6.148 6.173-6.148 3.404 0 6.173 2.758 6.173 6.148z" fill="#7DDC98" fill-rule="nonzero"/></g></g></g><circle fill="#9112FF" opacity=".5" cx="299" cy="4" r="4"/><path d="M390.196 26.42c-.222 6.36 1.824 8.554 8.184 8.776-6.36-.222-8.555 1.824-8.777 8.184.222-6.36-1.824-8.555-8.184-8.777 6.36.222 8.555-1.824 8.777-8.184z" stroke="#FC9391" stroke-width="2.5" opacity=".8" stroke-linecap="round" stroke-linejoin="round"/><path d="M45.795 328c-3.01 3.587-2.817 5.785.77 8.795-3.587-3.01-5.786-2.817-8.796.77 3.01-3.587 2.818-5.786-.769-8.796 3.587 3.01 5.785 2.818 8.795-.769z" stroke="#F3CD90" stroke-width="2.5" opacity=".8" stroke-linecap="round" stroke-linejoin="round"/><path d="M223.121 39.152c-2.727 3.25-2.552 5.242.698 7.97-3.25-2.728-5.243-2.553-7.97.697 2.727-3.25 2.553-5.243-.697-7.97 3.25 2.727 5.242 2.553 7.97-.697z" stroke="#9DC1F0" stroke-width="2.5" opacity=".8" stroke-linecap="round" stroke-linejoin="round"/><path d="M33.6 84.8v-3.6a1.2 1.2 0 112.4 0v3.6h3.4a1.2 1.2 0 110 2.4H36v3.6a1.2 1.2 0 11-2.4 0v-3.6h-3.4a1.2 1.2 0 110-2.4h3.4z" fill="#F89EA3"/><path d="M521.6 68.8v-3.6a1.2 1.2 0 112.4 0v3.6h3.4a1.2 1.2 0 110 2.4H524v3.6a1.2 1.2 0 11-2.4 0v-3.6h-3.4a1.2 1.2 0 110-2.4h3.4z" fill="#ABCBEF"/><path d="M540.681 169.903l-4.122 10.049a2 2 0 01-3.336.579l-7.306-8.115a2 2 0 011.152-3.31l11.428-1.934a2 2 0 012.184 2.73z" stroke="#EEE0B1" stroke-width="2.5" stroke-linecap="round" stroke-linejoin="round"/></g></svg>