<svg xmlns="http://www.w3.org/2000/svg" viewBox="0 0 595.03 596.58"><defs><style>.cls-1{fill:#ebeff3;}.cls-2,.cls-4{fill:#fff;}.cls-2{stroke:#aab9c1;stroke-linecap:round;stroke-linejoin:round;stroke-width:8px;stroke-dasharray:5.72 18.3;}.cls-3{fill:#dfe7ea;}.cls-5{fill:#97a8af;}.cls-6{fill:#cfd7df;}.cls-7{fill:#ff8086;}.cls-8{fill:#92a2b1;}.cls-9{fill:#f8ab59;}.cls-10{fill:#b1bdc7;}.cls-11{fill:#91a2b2;}.cls-12{fill:#e8f0f7;}.cls-13{fill:#fac386;}</style></defs><title>Asset 2</title><g id="Layer_2" data-name="Layer 2"><g id="Layer_1-2" data-name="Layer 1"><path class="cls-1" d="M12.14,277.74C64.38,449.13-37.65,478.91,67.64,565.6,155.54,638,310.45,552.16,413.25,591c70.36,26.57,173.8-44.61,181.34-147.51C601.51,349.15,523.71,346.93,544,242,568.33,116.63,567.16,0,308.15,0S-34.11,126,12.14,277.74Z"/><rect class="cls-2" x="383.22" y="158.62" width="168.11" height="369.45" rx="20"/><rect class="cls-2" x="43.81" y="158.62" width="168.11" height="369.45" rx="20"/><rect class="cls-3" x="73.79" y="162.78" width="451.95" height="362.28"/><path class="cls-4" d="M507.11,172.06V541.37a24.06,24.06,0,0,1-24.06,24H121.11a24.06,24.06,0,0,1-24.06-24V130.29h68.66L214.3,75.11H417.43"/><path class="cls-5" d="M503.11,172.06V536.39c0,4,.21,7.93-1.17,11.76-3.32,9.24-11.92,13.27-21.12,13.27H147.09c-8.64,0-17.31.23-25.95,0-11.74-.31-20-9.46-20.09-21,0-3.33,0-6.66,0-10V130.29l-4,4h63.1c2.64,0,6.21.62,8.38-1.18,1.71-1.4,3.11-3.52,4.56-5.17l24.63-28,19.41-22-2.83,1.17H417.43c5.15,0,5.16-8,0-8H216.56c-4.43,0-6,2.25-8.87,5.47l-44.81,50.88,2.83-1.17H97.05a4.06,4.06,0,0,0-4,4V515.65c0,8.51-.18,17.05,0,25.56a28.49,28.49,0,0,0,28.06,28.21c2.34.06,4.7,0,7,0H469.56c4.07,0,8.13,0,12.19,0,10.68-.06,20.74-5,25.94-14.64,5.05-9.36,3.42-22,3.42-32.36V172.06c0-5.14-8-5.15-8,0Z"/><path class="cls-4" d="M477.88,170.06,419.27,170V75.23S501.74,165,506.8,170.06"/><path class="cls-5" d="M477.88,165.9l-58.61-.05,4.16,4.16V75.23l-7.1,2.94q37.21,40.5,74.53,80.91c4.3,4.66,8.53,9.42,13,13.92,3.77,3.8,9.66-2.08,5.88-5.88-11-11.06-21.29-22.87-31.85-34.32q-22.67-24.59-45.29-49.21l-10.39-11.3c-2.47-2.7-7.1-.56-7.1,2.94V170a4.22,4.22,0,0,0,4.16,4.16l58.61.05c5.35,0,5.36-8.32,0-8.32Z"/><path class="cls-6" d="M205.94,190.79H386.4c5.15,0,5.16-8,0-8H205.94c-5.15,0-5.15,8,0,8Z"/><path class="cls-6" d="M205.94,214.37H343.13c5.14,0,5.15-8,0-8H205.94c-5.15,0-5.15,8,0,8Z"/><path class="cls-7" d="M145.45,188.49l26.78,26.78c3.64,3.65,9.3-2,5.65-5.65L151.1,182.84c-3.64-3.65-9.3,2-5.65,5.65Z"/><path class="cls-7" d="M172.23,182.84l-26.78,26.78c-3.65,3.64,2,9.3,5.65,5.65l26.78-26.78c3.65-3.64-2-9.3-5.65-5.65Z"/><polygon class="cls-8" points="386.8 479.06 411.95 504.2 431.21 485.48 402.58 456.58 386.8 479.06"/><path class="cls-9" d="M408.89,520.27l-3.38-3.36a9.85,9.85,0,0,1-.05-13.93l25.14-25.32a9.86,9.86,0,0,1,14,0l3.2,3.2Z"/><polygon class="cls-10" points="386.8 479.06 426.74 481.02 407.74 499.75 386.8 479.06"/><path class="cls-11" d="M405.24,502.57l25.15-25.32a9.84,9.84,0,0,1,14,0l69,69.19a27.48,27.48,0,0,1,.37,38.44h0a27.48,27.48,0,0,1-39.21.47L405.29,516.5A9.85,9.85,0,0,1,405.24,502.57Z"/><circle class="cls-8" cx="310.42" cy="383.24" r="124.41"/><circle class="cls-4" cx="310.76" cy="383.35" r="114.31"/><path class="cls-12" d="M438.56,495C457.7,514,477,532.93,496,552.09c6.29,6.33,9.78,14.61,4,22.6-3,4.18,3.92,8.18,6.91,4,10.81-15-1.12-28.19-11.49-38.49l-39.76-39.52-11.45-11.38c-3.65-3.63-9.31,2-5.65,5.66Z"/><path class="cls-10" d="M224.91,412.49a80.29,80.29,0,0,1-.75-59.76c1.84-4.81-5.9-6.9-7.72-2.13a87,87,0,0,0,.75,64c1.93,4.69,9.67,2.64,7.72-2.13Z"/><path class="cls-10" d="M230.42,340.3a84.25,84.25,0,0,1,15.4-19.17c3.78-3.51-1.88-9.16-5.65-5.65a91.58,91.58,0,0,0-16.66,20.78c-2.61,4.45,4.31,8.48,6.91,4Z"/><path class="cls-13" d="M307.91,332.31l-42.46,75.31a8.74,8.74,0,0,0,7.61,13H358a8.74,8.74,0,0,0,7.61-13l-42.46-75.31A8.74,8.74,0,0,0,307.91,332.31Z"/><path class="cls-4" d="M311.52,361.64v25.23c0,5.15,8,5.16,8,0V361.64c0-5.15-8-5.15-8,0Z"/><circle class="cls-4" cx="315.52" cy="402.37" r="4.53"/></g></g></svg>