<svg width="166" height="166" viewBox="0 0 166 166" fill="none" xmlns="http://www.w3.org/2000/svg">
<circle cx="83" cy="83" r="83" fill="#FAFAFA"/>
<path d="M142.673 78.8517H41.9886C41.6856 78.8516 41.3919 78.9562 41.1572 79.1478C40.9225 79.3394 40.7612 79.6062 40.7006 79.9031L29.0146 135.273H132.406L143.971 80.434C144.012 80.2417 144.01 80.0426 143.963 79.8515C143.917 79.6604 143.828 79.4822 143.703 79.3302C143.578 79.1782 143.421 79.0562 143.243 78.9734C143.064 78.8905 142.87 78.8489 142.673 78.8517Z" fill="#FAC3BC"/>
<path d="M142.673 78.8517H41.9886C41.6856 78.8516 41.3919 78.9562 41.1572 79.1478C40.9225 79.3394 40.7612 79.6062 40.7006 79.9031L29.0146 135.273H132.406L143.971 80.434C144.012 80.2417 144.01 80.0426 143.963 79.8515C143.917 79.6604 143.828 79.4822 143.703 79.3302C143.578 79.1782 143.421 79.0562 143.243 78.9734C143.064 78.8905 142.87 78.8489 142.673 78.8517Z" stroke="#010101" stroke-miterlimit="10"/>
<path d="M74.239 77.9718C76.8306 74.3761 82.6079 72.9147 86.8239 71.569C89.8939 70.5859 92.659 69.9919 95.4294 68.3728C96.0955 68.0609 96.647 67.5479 97.0064 66.9061C97.1957 66.4751 97.243 65.9389 97.6267 65.6708C97.8685 65.5026 98.2365 65.3133 98.4731 65.4868C102.121 68.1152 109.633 67.7788 111.468 65.839C112.519 67.9417 113.755 68.4674 115.332 69.3664C116.32 69.892 128.947 72.8937 132.154 75.1909C133.283 76.0203 134.2 77.1063 134.828 78.3593C135.456 79.6123 135.777 80.9966 135.765 82.3981C135.718 85.1895 135.613 108.682 135.613 108.682H73.4452C73.4452 108.682 72.5673 80.3111 74.239 77.9718Z" fill="#E3E3E3" stroke="#CECECE" stroke-width="0.94" stroke-miterlimit="10"/>
<path d="M100.008 46.3483C99.889 46.4102 99.7958 46.5128 99.7455 46.6375C99.6906 46.7707 99.6795 46.9181 99.714 47.058C99.7348 47.1267 99.7612 47.1935 99.7928 47.2578C99.8302 47.3326 99.8887 47.3947 99.9611 47.4365C100.02 47.4689 100.088 47.4822 100.154 47.4747C100.221 47.4671 100.284 47.4391 100.334 47.3945C100.366 47.3613 100.391 47.3216 100.407 47.2781C100.422 47.2345 100.428 47.1881 100.424 47.1421C100.417 47.0681 100.399 46.9955 100.371 46.9266L100.303 46.7321C100.282 46.6702 100.241 46.6167 100.187 46.5797C100.156 46.5665 100.123 46.5597 100.09 46.5597C100.056 46.5597 100.023 46.5665 99.9926 46.5797C99.93 46.598 99.8772 46.6403 99.8457 46.6974C99.8141 46.7545 99.8065 46.8218 99.8244 46.8845L99.8875 47.0685C99.9081 47.1218 99.9257 47.1762 99.94 47.2315V47.1632V47.1947V47.1316V47.0738L99.9768 47.0212L100.029 46.9844H100.087H100.15H100.213H100.271L100.319 47.0265L100.287 46.9897L100.324 47.0423C100.304 47.0101 100.287 46.9767 100.271 46.9424L100.297 47.0002C100.277 46.9572 100.265 46.9109 100.261 46.8635V46.9581C100.255 46.9198 100.255 46.8809 100.261 46.8425V46.9108C100.255 46.8795 100.255 46.8475 100.261 46.8162V46.874C100.272 46.8478 100.286 46.8231 100.303 46.8004L100.266 46.8478C100.283 46.8259 100.302 46.8065 100.324 46.7899L100.276 46.8267C100.294 46.8115 100.313 46.799 100.334 46.7899C100.363 46.7746 100.387 46.7536 100.407 46.7283C100.427 46.7029 100.442 46.6738 100.45 46.6427C100.466 46.5793 100.457 46.5121 100.425 46.4552C100.392 46.3983 100.339 46.3562 100.276 46.3378C100.214 46.3145 100.145 46.3145 100.082 46.3378L100.008 46.3483Z" fill="#CBCBCB"/>
<path d="M108.824 46.3473C108.702 46.4063 108.608 46.5099 108.561 46.6364C108.506 46.7697 108.495 46.917 108.529 47.057C108.548 47.1264 108.574 47.1934 108.608 47.2567C108.646 47.3315 108.704 47.3937 108.776 47.4355C108.835 47.4678 108.903 47.4811 108.97 47.4736C109.037 47.4661 109.099 47.4381 109.15 47.3934C109.182 47.3603 109.207 47.3206 109.222 47.277C109.237 47.2335 109.243 47.1871 109.239 47.1411C109.23 47.0675 109.212 46.9952 109.187 46.9255L109.113 46.731C109.096 46.6686 109.057 46.6144 109.003 46.5786C108.972 46.5654 108.939 46.5586 108.905 46.5586C108.872 46.5586 108.839 46.5654 108.808 46.5786C108.745 46.597 108.692 46.6391 108.66 46.696C108.627 46.7529 108.618 46.8201 108.635 46.8835L108.703 47.0675C108.724 47.12 108.74 47.1746 108.75 47.2304V47.1936V47.1306V47.0727L108.787 47.0202L108.84 46.9834H108.903H108.971H109.034H109.092L109.139 47.0254C109.126 47.0145 109.113 47.0022 109.102 46.9886L109.144 47.0412C109.123 47.0102 109.105 46.9767 109.092 46.9413V46.9991C109.077 46.9545 109.064 46.9088 109.055 46.8625V46.9308C109.05 46.8924 109.05 46.8535 109.055 46.8152V46.8835C109.061 46.8512 109.07 46.8195 109.081 46.7889L109.055 46.8467C109.068 46.8203 109.084 46.7956 109.102 46.7731L109.06 46.8204L109.123 46.7626L109.076 46.7994C109.093 46.7841 109.113 46.7717 109.134 46.7626C109.162 46.7472 109.187 46.7262 109.207 46.7009C109.227 46.6756 109.241 46.6465 109.25 46.6154C109.266 46.552 109.257 46.4848 109.225 46.4279C109.192 46.371 109.139 46.3289 109.076 46.3105C109.013 46.2871 108.944 46.2871 108.882 46.3105L108.824 46.3473Z" fill="#CBCBCB"/>
<path d="M104.156 46.6702C104.223 47.8932 104.265 49.1198 104.282 50.3499C104.282 50.4155 104.308 50.4783 104.355 50.5246C104.401 50.571 104.464 50.597 104.529 50.597C104.595 50.597 104.658 50.571 104.704 50.5246C104.75 50.4783 104.776 50.4155 104.776 50.3499C104.776 49.1198 104.736 47.8932 104.656 46.6702C104.656 46.3547 104.13 46.3547 104.13 46.6702H104.156Z" fill="#CBCBCB"/>
<path d="M99.0777 44.4826L99.1408 44.451H99.2091L99.3879 44.3932L99.5666 44.3512H99.656H99.7085C99.8326 44.3379 99.9577 44.3379 100.082 44.3512C100.191 44.3551 100.301 44.3692 100.408 44.3932C100.439 44.4018 100.472 44.4042 100.504 44.4002C100.537 44.3961 100.568 44.3857 100.596 44.3696C100.624 44.3535 100.649 44.332 100.669 44.3063C100.689 44.2806 100.704 44.2512 100.713 44.2197C100.721 44.1883 100.724 44.1555 100.72 44.1232C100.715 44.0909 100.705 44.0597 100.689 44.0314C100.673 44.0031 100.651 43.9782 100.626 43.9582C100.6 43.9382 100.571 43.9235 100.539 43.9148C99.9639 43.7863 99.3622 43.8548 98.8306 44.1093C98.8021 44.1257 98.777 44.1475 98.757 44.1736C98.737 44.1997 98.7224 44.2296 98.7141 44.2614C98.7058 44.2932 98.7039 44.3264 98.7086 44.359C98.7132 44.3915 98.7243 44.4228 98.7413 44.451C98.7751 44.5063 98.829 44.5464 98.8916 44.563C98.9542 44.5797 99.0209 44.5716 99.0777 44.5404V44.4826Z" fill="#CBCBCB"/>
<path d="M110.054 44.0516C109.521 43.7958 108.917 43.7273 108.341 43.8571C108.278 43.8766 108.226 43.9188 108.194 43.9754C108.162 44.032 108.152 44.0986 108.167 44.162C108.176 44.1934 108.19 44.2229 108.21 44.2487C108.23 44.2745 108.255 44.2961 108.283 44.3122C108.312 44.3283 108.343 44.3387 108.375 44.3427C108.408 44.3466 108.441 44.3442 108.472 44.3354C108.703 44.2847 108.941 44.2741 109.176 44.3039C109.176 44.3039 109.255 44.3039 109.213 44.3039H109.318L109.497 44.3459L109.67 44.4038H109.744C109.713 44.4038 109.797 44.4038 109.802 44.4353C109.86 44.4655 109.927 44.4731 109.99 44.4566C110.053 44.44 110.108 44.4006 110.144 44.3459C110.176 44.2886 110.185 44.2207 110.169 44.1568C110.152 44.093 110.111 44.0382 110.054 44.0042V44.0516Z" fill="#CBCBCB"/>
<path d="M105.832 53.6175C105.329 53.3577 104.762 53.2448 104.197 53.2916C103.685 53.3127 103.179 53.423 102.704 53.6175C102.657 53.6553 102.625 53.7089 102.614 53.7686C102.603 53.8283 102.613 53.8899 102.644 53.9423C102.675 53.9946 102.723 54.0342 102.781 54.0537C102.838 54.0732 102.901 54.0714 102.957 54.0485C103.353 53.8945 103.772 53.8075 104.197 53.791C104.673 53.7449 105.153 53.8342 105.58 54.0485C105.636 54.0714 105.699 54.0732 105.756 54.0537C105.814 54.0342 105.862 53.9946 105.893 53.9423C105.923 53.8899 105.934 53.8283 105.923 53.7686C105.912 53.7089 105.88 53.6553 105.832 53.6175Z" fill="#CBCBCB"/>
<path d="M95.7288 38.3362C95.4397 40.8384 95.1138 43.3355 94.9298 45.8482L95.3924 45.7221C95.0507 45.1018 94.278 44.2449 93.4737 44.4604C92.6694 44.6759 92.4223 45.6169 92.3802 46.3003C92.3115 47.1256 92.538 47.9485 93.0193 48.6224C93.5007 49.2964 94.2057 49.7775 95.0087 49.9801L94.8247 49.7383C94.872 50.9999 94.9403 52.2668 95.1085 53.5232C95.2083 54.3319 95.4354 55.1196 95.7814 55.8573C96.6815 57.5698 98.1499 58.9156 99.9343 59.6632C101.178 60.2852 102.525 60.6736 103.909 60.8092C105.375 60.8634 106.835 60.5905 108.182 60.0102C110.049 59.2742 111.815 58.1387 112.861 56.3829C113.319 55.5966 113.627 54.7322 113.77 53.8334C113.966 52.4767 114.075 51.1089 114.096 49.7383L113.918 49.9801C114.72 49.7765 115.424 49.2952 115.906 48.6215C116.387 47.9478 116.614 47.1254 116.546 46.3003C116.483 45.6169 116.215 44.6654 115.453 44.4604C114.69 44.2554 113.875 45.1018 113.534 45.7221L113.996 45.8482C113.807 43.3355 113.471 40.8384 113.192 38.3362C113.155 38.0208 112.666 38.0155 112.698 38.3362C112.987 40.8384 113.313 43.3355 113.497 45.8482C113.5 45.9013 113.519 45.9522 113.552 45.9936C113.586 46.035 113.631 46.0649 113.683 46.0788C113.734 46.0928 113.788 46.0903 113.838 46.0715C113.888 46.0527 113.93 46.0188 113.96 45.9744C114.212 45.517 114.958 44.5813 115.537 45.065C116.01 45.4592 116.089 46.2635 116.062 46.8365C116.003 47.456 115.753 48.0417 115.346 48.5126C114.939 48.9835 114.396 49.3163 113.791 49.4649C113.739 49.4795 113.694 49.5104 113.66 49.5529C113.627 49.5955 113.609 49.6476 113.607 49.7015C113.565 50.8895 113.502 52.0828 113.355 53.2604C113.271 54.037 113.067 54.7959 112.751 55.5103C111.909 57.1467 110.522 58.4373 108.829 59.1586C107.622 59.7739 106.309 60.1556 104.96 60.2835C103.575 60.3253 102.199 60.0615 100.928 59.5108C99.1458 58.8221 97.4426 57.7234 96.4648 56.0413C96.0366 55.3063 95.7462 54.4992 95.6079 53.6599C95.4266 52.3567 95.3265 51.0434 95.3083 49.7278C95.3061 49.6741 95.2872 49.6224 95.2543 49.58C95.2213 49.5376 95.1758 49.5065 95.1243 49.4912C94.519 49.3435 93.9747 49.0111 93.5669 48.5401C93.159 48.0692 92.9078 47.483 92.8481 46.8628C92.8037 46.557 92.8223 46.2454 92.9027 45.9471C92.9832 45.6487 93.1238 45.37 93.316 45.128C93.8995 44.5656 94.6827 45.5276 94.9403 46.0007C94.9696 46.045 95.0122 46.079 95.0619 46.0978C95.1116 46.1165 95.166 46.1191 95.2173 46.1051C95.2686 46.0911 95.3142 46.0613 95.3475 46.0199C95.3808 45.9785 95.4002 45.9276 95.4029 45.8745C95.5922 43.3617 95.9286 40.8647 96.2072 38.3625C96.244 38.0471 95.7446 38.0471 95.6815 38.3625L95.7288 38.3362Z" fill="#CECECE"/>
<path d="M97.585 58.1442L97.3748 64.2947C97.3432 65.2724 97.3169 66.2187 96.5599 66.9231C95.9209 67.4732 95.2143 67.9396 94.4572 68.3109C91.4713 69.9616 88.149 70.8815 84.9265 71.9066C81.7041 72.9317 78.4448 74.0093 75.7376 76.0069C75.0784 76.4687 74.5174 77.0565 74.0869 77.7364C73.6675 78.5023 73.3897 79.3375 73.2669 80.2019C73.1687 80.7081 73.1125 81.2215 73.0986 81.7369V89.4855L73.1459 101.392C73.1459 103.784 73.1144 106.176 73.1459 108.568C73.1486 108.605 73.1486 108.641 73.1459 108.678C73.1486 108.744 73.1762 108.806 73.2231 108.852C73.27 108.898 73.3327 108.924 73.3983 108.925H133.069C133.873 108.925 134.677 108.925 135.482 108.925H135.587C135.653 108.925 135.716 108.899 135.763 108.853C135.811 108.807 135.838 108.744 135.839 108.678V82.1312C135.902 80.6042 135.56 79.0877 134.846 77.7364C133.999 76.3066 132.417 75.4024 130.992 74.6454C129.507 73.8768 127.966 73.2214 126.382 72.6846C123.165 71.5596 119.832 70.7448 116.699 69.3938C115.909 69.0557 115.137 68.6767 114.386 68.2583C113.623 67.889 112.915 67.4148 112.283 66.8495C111.568 66.1293 111.574 65.1621 111.542 64.2211L111.437 61.1511L111.337 58.1389C111.337 57.8235 110.811 57.8235 110.838 58.1389L111.048 64.2894C111.079 65.1621 111.085 66.0978 111.616 66.839C112.127 67.4518 112.756 67.9559 113.466 68.3214C116.357 70.072 119.622 71.0708 122.823 72.0696C126.025 73.0684 129.342 74.1092 132.212 75.9544C132.958 76.3888 133.617 76.9573 134.157 77.6313C134.669 78.3765 135.003 79.2288 135.135 80.123C135.248 80.6575 135.311 81.2013 135.324 81.7474V107.727C135.324 108.005 135.298 108.3 135.324 108.578C135.327 108.615 135.327 108.652 135.324 108.689L135.571 108.436H74.3813C74.1079 108.436 73.8188 108.41 73.5507 108.436H73.4456L73.6927 108.689V102.722L73.6506 90.8523L73.6191 82.1417C73.6191 80.5962 73.8451 78.8929 74.7808 77.6313C75.3489 76.9332 76.0402 76.3452 76.8205 75.8965C77.5166 75.4552 78.2381 75.055 78.981 74.698C80.5137 73.9673 82.0944 73.342 83.7122 72.8265C86.9189 71.7752 90.2044 70.913 93.2744 69.4779C94.0546 69.1181 94.8129 68.7126 95.5454 68.2636C96.2541 67.8965 96.8747 67.38 97.3642 66.7496C97.8584 66.0084 97.8479 65.0779 97.8899 64.2211L97.9951 61.1511L98.0949 58.1389C98.0949 57.8235 97.6113 57.8235 97.6008 58.1389L97.585 58.1442Z" fill="#CECECE"/>
<path d="M98.957 58.8503C98.957 58.8503 104.624 63.7181 111.305 64.1071L111.137 59.1447C111.137 59.1447 111.242 57.9882 109.928 58.8923C108.314 60.0068 105.292 61.2264 103.893 61.0266C102.495 60.8269 98.957 58.8503 98.957 58.8503Z" fill="#CECECE" stroke="#CECECE" stroke-width="0.94" stroke-linejoin="round"/>
<path d="M95.3562 45.4583L95.8819 41.4105C95.8852 41.1867 95.9629 40.9703 96.1026 40.7954C96.282 40.6514 96.5036 40.5702 96.7335 40.5641C100.606 40.033 104.401 39.0448 108.041 37.6203C108.244 37.5046 108.477 37.4541 108.709 37.4758C108.942 37.4974 109.162 37.5901 109.339 37.7412L112.325 39.5496C112.572 39.6851 112.792 39.8631 112.977 40.0753C113.181 40.3909 113.304 40.7521 113.335 41.1266L113.913 44.7591C114.302 44.7591 114.475 44.2755 114.538 43.8865L114.948 41.4315C115.145 40.497 115.224 39.5417 115.185 38.5876C115.108 37.7641 114.855 36.9668 114.443 36.2495C114.031 35.5322 113.47 34.9115 112.798 34.4294C112.087 33.9646 111.325 33.5819 110.527 33.2887C109.238 32.7152 107.904 32.2493 106.537 31.8956C104.508 31.4542 102.402 31.5105 100.399 32.0597C98.3961 32.609 96.5559 33.6348 95.0355 35.0497C94.4123 35.6205 93.8804 36.2836 93.4584 37.0158C92.7825 38.3015 92.5662 39.7796 92.8453 41.2051C93.1245 42.6306 93.8824 43.918 94.9934 44.8537" fill="#CECECE"/>
<path d="M95.7183 45.4618L96.0757 42.744C96.1336 42.3025 96.1756 41.8556 96.2492 41.4141C96.2755 41.2564 96.2913 41.0881 96.4437 40.9988C96.6464 40.9265 96.8594 40.8874 97.0745 40.8831C98.7854 40.6399 100.482 40.3065 102.158 39.8843C103.873 39.4505 105.563 38.924 107.22 38.3073C107.593 38.1706 107.967 38.0024 108.35 37.8815C108.734 37.7606 109.123 38.0129 109.491 38.2389L111.815 39.6478C112.193 39.8738 112.651 40.0788 112.829 40.5046C112.967 40.9402 113.055 41.3899 113.092 41.8451L113.565 44.8573C113.587 44.9336 113.633 45.0007 113.697 45.0481C113.761 45.0956 113.838 45.1209 113.917 45.1201C114.59 45.0571 114.811 44.442 114.911 43.8532C115.058 42.9964 115.2 42.1395 115.342 41.2826C115.594 39.7371 115.715 38.2179 115.09 36.746C114.527 35.4207 113.522 34.3318 112.246 33.6655C111.53 33.3074 110.797 32.9863 110.048 32.7035C109.26 32.3828 108.471 32.0726 107.657 31.8203C104.902 30.9807 101.949 31.0638 99.2456 32.0569C97.933 32.5475 96.7055 33.2411 95.6079 34.1123C94.4237 34.984 93.4797 36.1415 92.8638 37.4767C92.3468 38.7849 92.2507 40.2218 92.589 41.5871C92.9273 42.9525 93.6831 44.1783 94.751 45.0939C95.1085 45.3882 95.6236 44.8783 95.2767 44.5682C94.4152 43.8506 93.7699 42.9079 93.4125 41.8452C93.0552 40.7824 92.9999 39.6414 93.2528 38.5491C93.8521 36.0626 96.2124 34.2332 98.4203 33.1766C100.727 32.0751 103.316 31.7081 105.838 32.1252C107.299 32.4243 108.724 32.8827 110.085 33.492C111.378 34.0177 112.661 34.5434 113.586 35.6368C114.518 36.7754 114.964 38.2354 114.827 39.7003C114.759 40.5992 114.58 41.4824 114.433 42.3708C114.359 42.8019 114.291 43.2329 114.217 43.664C114.191 43.8164 114.138 44.3789 113.917 44.3999L114.264 44.6628L113.786 41.6559C113.66 40.8253 113.597 39.9895 112.861 39.4533C112.125 38.9171 111.184 38.4019 110.353 37.9183C109.971 37.659 109.573 37.4254 109.16 37.2191C108.966 37.1426 108.759 37.1069 108.551 37.1141C108.343 37.1213 108.139 37.1714 107.951 37.2611C104.39 38.6364 100.688 39.6131 96.9116 40.1734C96.6947 40.1663 96.4789 40.2074 96.2798 40.2938C96.0808 40.3802 95.9033 40.5096 95.7603 40.6728C95.5715 41.102 95.4731 41.5655 95.4712 42.0344L95.0244 45.4461C94.9613 45.9034 95.6867 45.9034 95.7445 45.4461L95.7183 45.4618Z" fill="#CECECE"/>
<path d="M125.172 89.3867L117.234 129.807L130.781 135.274H132.379L138.404 106.745L125.172 89.3867Z" fill="#F37064"/>
<path d="M125.172 89.3867L117.234 129.807L130.781 135.274H132.379L135.959 118.305L125.172 89.3867Z" fill="#010101"/>
<path d="M31.6484 84.4865C31.6484 81.3324 32.1741 79.9972 33.1887 78.8144C34.2033 77.6316 36.2061 76.5855 37.636 75.9441C41.8415 74.0727 50.4785 71.5757 50.4785 71.5757C50.4785 71.5757 51.4247 71.0815 51.9083 71.255C52.4971 71.4653 53.3014 73.6942 55.7931 75.8022C57.2214 76.9787 58.8936 77.8226 60.6884 78.2727C62.4833 78.7228 64.3558 78.7677 66.1702 78.4043C69.7553 77.6579 73.6822 74.0885 73.7979 70.4297C77.6932 72.2118 87.2396 75.4079 88.1964 75.7864C91.2138 76.985 93.7371 79.2296 94.7464 82.3154C95.1354 83.5087 94.8568 93.4442 94.8568 93.4442L31.6695 93.3285L31.6484 84.4865Z" fill="#E3E3E3" stroke="#CECECE" stroke-width="0.86" stroke-miterlimit="10"/>
<path d="M58.6265 47.5566L58.5687 47.5882C58.5295 47.6168 58.4926 47.6485 58.4583 47.6828C58.3985 47.7425 58.3519 47.8142 58.3216 47.8931C58.2559 48.0459 58.2448 48.2166 58.29 48.3767C58.3088 48.4535 58.3371 48.5277 58.3742 48.5975C58.4211 48.6856 58.4922 48.7586 58.5792 48.8077C58.6546 48.8506 58.7418 48.8682 58.8279 48.8578C58.914 48.8474 58.9945 48.8096 59.0575 48.7499C59.1081 48.7031 59.1446 48.643 59.1627 48.5764C59.1678 48.5293 59.1678 48.4817 59.1627 48.4345C59.1342 48.2832 59.0902 48.1352 59.0313 47.9929C59.0026 47.9106 58.947 47.8402 58.8736 47.7932C58.7957 47.7502 58.7042 47.7387 58.6181 47.7612C58.532 47.7837 58.4578 47.8384 58.411 47.9141C58.3667 47.9943 58.3553 48.0885 58.3794 48.1769L58.4425 48.3662C58.4679 48.4176 58.4856 48.4725 58.4951 48.5291V48.4345V48.4713V48.3819L58.5319 48.3031L58.5897 48.2348L58.658 48.1822L58.7369 48.1454H58.8262H58.9156L58.9945 48.1822L59.0628 48.2348L59.026 48.198L59.0786 48.2663C59.0569 48.2354 59.0392 48.2018 59.026 48.1664L59.0628 48.2505C59.0433 48.2072 59.0308 48.1611 59.026 48.1138V48.2032C59.0207 48.1648 59.0207 48.1259 59.026 48.0876V48.1769C59.0182 48.1459 59.0182 48.1134 59.026 48.0823L58.9892 48.1612C59.0001 48.1349 59.0142 48.1102 59.0313 48.0876L58.9787 48.1559C58.997 48.1323 59.0182 48.1111 59.0418 48.0928L58.9734 48.1454L59.0365 48.1086C59.1095 48.0623 59.1636 47.9914 59.189 47.9088C59.213 47.8204 59.2017 47.7262 59.1574 47.646C59.1124 47.5686 59.0388 47.512 58.9524 47.4883H58.863C58.8037 47.4884 58.7455 47.5048 58.6948 47.5356L58.6265 47.5566Z" fill="#CACACA"/>
<path d="M67.558 47.5566L67.5002 47.5882C67.4611 47.6169 67.4241 47.6485 67.3898 47.6828C67.3318 47.7439 67.2854 47.8152 67.2531 47.8931C67.1903 48.0466 67.1792 48.2164 67.2216 48.3767C67.2427 48.4528 67.2709 48.5267 67.3057 48.5975C67.3542 48.6845 67.425 48.7571 67.5107 48.8078C67.5861 48.8507 67.6733 48.8682 67.7595 48.8578C67.8456 48.8474 67.9261 48.8096 67.9891 48.7499C68.0397 48.7031 68.0761 48.643 68.0942 48.5765C68.102 48.5295 68.102 48.4815 68.0942 48.4345C68.0682 48.2826 68.0241 48.1344 67.9628 47.993C67.9378 47.9101 67.8837 47.8391 67.8104 47.7932C67.7302 47.7489 67.6359 47.7376 67.5475 47.7616C67.464 47.7852 67.3926 47.8398 67.3478 47.9141C67.3017 47.9936 67.2885 48.0879 67.311 48.1769L67.3793 48.3662C67.4 48.4194 67.4175 48.4739 67.4319 48.5291V48.4345C67.434 48.4467 67.434 48.4592 67.4319 48.4713V48.382L67.4634 48.3031L67.516 48.2348L67.5843 48.1822L67.6684 48.1454H67.7631H67.8524L67.9313 48.1822L67.9996 48.2348C67.9848 48.2253 67.9723 48.2128 67.9628 48.198L68.0154 48.2663C67.9899 48.2379 67.9718 48.2036 67.9628 48.1664L67.9944 48.2505C67.9772 48.2064 67.9649 48.1606 67.9576 48.1139V48.2032C67.9523 48.1649 67.9523 48.1259 67.9576 48.0876V48.1769C67.9522 48.1456 67.9522 48.1136 67.9576 48.0823L67.9208 48.1612C67.9334 48.1348 67.9493 48.11 67.9681 48.0876L67.9155 48.1559C67.9309 48.1299 67.9526 48.1082 67.9786 48.0928L67.9102 48.1454C67.9274 48.1301 67.947 48.1177 67.9681 48.1086C68.044 48.0644 68.1004 47.993 68.1258 47.9088C68.1483 47.8198 68.135 47.7255 68.089 47.646C68.0448 47.57 67.9734 47.5137 67.8892 47.4883H67.7999C67.7388 47.4878 67.6787 47.5041 67.6264 47.5356L67.558 47.5566Z" fill="#CACACA"/>
<path d="M62.7846 47.964C62.8512 49.2046 62.8933 50.4452 62.9108 51.6858C62.9108 51.775 62.9463 51.8606 63.0093 51.9237C63.0724 51.9868 63.158 52.0222 63.2472 52.0222C63.3365 52.0222 63.4221 51.9868 63.4851 51.9237C63.5482 51.8606 63.5837 51.775 63.5837 51.6858C63.5837 50.4452 63.5311 49.2046 63.4628 47.964C63.4628 47.5276 62.7636 47.5276 62.7846 47.964Z" fill="#CACACA"/>
<path d="M57.7586 45.8133C57.7586 45.8133 57.8743 45.7555 57.8007 45.8133C57.8237 45.7996 57.8485 45.789 57.8743 45.7817L58.0478 45.7239L58.2317 45.6819H58.3211H58.3737C58.4997 45.674 58.6261 45.674 58.7522 45.6819H58.81C58.81 45.6819 58.9467 45.6819 58.852 45.6819L59.0413 45.7134C59.0841 45.7253 59.1288 45.7287 59.1729 45.7232C59.217 45.7178 59.2596 45.7037 59.2982 45.6817C59.3369 45.6597 59.3707 45.6303 59.3979 45.5951C59.4251 45.5599 59.445 45.5197 59.4566 45.4768C59.4779 45.3905 59.4652 45.2992 59.4212 45.222C59.3772 45.1447 59.3052 45.0873 59.22 45.0615C58.6129 44.928 57.9786 45.0001 57.4169 45.2666C57.3403 45.3125 57.2847 45.3867 57.2621 45.4732C57.2395 45.5597 57.2517 45.6516 57.296 45.7292C57.3429 45.8048 57.4171 45.8595 57.5032 45.882C57.5893 45.9045 57.6807 45.8931 57.7586 45.8501V45.8133Z" fill="#CACACA"/>
<path d="M68.8925 45.2272C68.3307 44.9612 67.6966 44.889 67.0894 45.0222C67.003 45.0459 66.9295 45.103 66.8851 45.1809C66.8408 45.2588 66.8291 45.3511 66.8529 45.4375C66.8766 45.524 66.9336 45.5974 67.0115 45.6418C67.0894 45.6862 67.1817 45.6978 67.2681 45.6741C67.3285 45.6585 67.39 45.6479 67.4521 45.6425C67.3628 45.6425 67.4521 45.6425 67.4994 45.6425H67.5783C67.7043 45.6346 67.8307 45.6346 67.9568 45.6425C67.9918 45.6401 68.0269 45.6401 68.0619 45.6425L68.2459 45.6846L68.4194 45.7424C68.4452 45.7497 68.4699 45.7603 68.493 45.7739C68.4141 45.7319 68.493 45.7739 68.535 45.7739C68.6126 45.8183 68.7045 45.8305 68.791 45.8079C68.8775 45.7853 68.9517 45.7297 68.9976 45.653C69.0407 45.5751 69.0521 45.4837 69.0296 45.3976C69.0071 45.3115 68.9524 45.2373 68.8767 45.1904L68.8925 45.2272Z" fill="#CACACA"/>
<path d="M64.5929 54.9263C64.1019 54.6246 63.5369 54.4648 62.9606 54.4648C62.3844 54.4648 61.8194 54.6246 61.3284 54.9263C61.251 54.9716 61.1948 55.0458 61.1721 55.1326C61.1494 55.2194 61.1622 55.3116 61.2075 55.3889C61.2528 55.4663 61.327 55.5225 61.4137 55.5452C61.5005 55.5679 61.5927 55.5552 61.6701 55.5098C62.0575 55.269 62.5045 55.1414 62.9606 55.1414C63.4168 55.1414 63.8638 55.269 64.2512 55.5098C64.2894 55.5325 64.3318 55.5474 64.3758 55.5535C64.4199 55.5597 64.4647 55.5571 64.5077 55.5459C64.5507 55.5346 64.5911 55.515 64.6265 55.488C64.6618 55.4611 64.6915 55.4274 64.7138 55.3889C64.7568 55.311 64.7683 55.2196 64.7458 55.1335C64.7233 55.0474 64.6685 54.9732 64.5929 54.9263Z" fill="#CACACA"/>
<path d="M54.3572 39.5137C54.0786 42.0475 53.7369 44.5813 53.5529 47.1256L53.9682 47.01C53.6371 46.4054 52.9169 45.5959 52.1441 45.7273C51.3713 45.8587 51.0454 46.8418 50.9718 47.5304C50.8926 48.3657 51.1137 49.2019 51.5954 49.8888C52.0771 50.5757 52.788 51.0685 53.6003 51.2785L53.4373 51.0578C53.4793 52.3299 53.5477 53.6021 53.7159 54.8585C53.8162 55.6731 54.0414 56.4674 54.3835 57.2135C55.2899 58.9565 56.7777 60.3271 58.589 61.0878C59.8307 61.7076 61.1729 62.101 62.5527 62.2496C64.0486 62.3136 65.5397 62.0406 66.9158 61.4505C68.8188 60.7041 70.6324 59.5423 71.6891 57.7392C72.1397 56.9546 72.4426 56.094 72.5827 55.2002C72.7822 53.8279 72.8928 52.4443 72.9139 51.0578L72.7509 51.2785C73.5632 51.0685 74.2741 50.5757 74.7558 49.8888C75.2375 49.2019 75.4586 48.3657 75.3794 47.5304C75.3058 46.8523 75.0219 45.906 74.2492 45.7378C73.4764 45.5696 72.7141 46.4002 72.3777 47.01L72.7983 47.1256C72.609 44.5813 72.2726 42.0475 71.9887 39.5137C71.9519 39.2299 71.5051 39.2246 71.5366 39.5137C71.831 42.0475 72.1569 44.5813 72.3514 47.1256C72.3541 47.1732 72.3718 47.2188 72.4019 47.2557C72.432 47.2927 72.473 47.3192 72.519 47.3314C72.5651 47.3437 72.6139 47.341 72.6584 47.3239C72.7028 47.3068 72.7408 47.276 72.7667 47.236C73.0138 46.7892 73.7287 45.885 74.3438 46.2477C74.9588 46.6105 74.9956 47.4936 74.9588 48.0719C74.9153 48.7204 74.6668 49.3382 74.2491 49.8362C73.8315 50.3342 73.2663 50.6865 72.6353 50.8422C72.5884 50.8563 72.547 50.8846 72.5169 50.9232C72.4868 50.9618 72.4694 51.0088 72.4671 51.0578C72.425 52.2668 72.3619 53.4759 72.2148 54.6745C72.1277 55.4506 71.9239 56.2092 71.6102 56.9244C70.7687 58.5769 69.3785 59.8853 67.6781 60.6252C66.4506 61.2526 65.1173 61.6465 63.746 61.787C62.3027 61.8435 60.8652 61.574 59.5405 60.9985C57.7216 60.2888 55.9921 59.1691 55.0038 57.4396C54.579 56.6846 54.2974 55.8577 54.1732 55.0004C53.9953 53.6879 53.8935 52.3662 53.8684 51.042C53.8672 50.9935 53.8509 50.9466 53.8216 50.908C53.7924 50.8693 53.7517 50.8408 53.7054 50.8265C53.0738 50.6709 52.5079 50.3188 52.0894 49.8209C51.6708 49.323 51.4212 48.705 51.3766 48.0561C51.3713 47.4831 51.4502 46.6262 51.9759 46.2688C52.5804 45.8587 53.3111 46.7945 53.5529 47.236C53.578 47.2783 53.6161 47.3113 53.6616 47.33C53.707 47.3487 53.7573 47.3521 53.8049 47.3396C53.8524 47.3271 53.8946 47.2995 53.925 47.2609C53.9555 47.2223 53.9725 47.1748 53.9735 47.1256C54.1627 44.5813 54.4992 42.0475 54.7883 39.5137C54.8198 39.2246 54.3678 39.2246 54.3362 39.5137H54.3572Z" fill="#CECECE"/>
<path d="M56.234 59.574L56.113 63.2537C56.071 64.4365 56.113 65.6456 55.9764 66.8232C55.9493 67.3732 55.7466 67.9002 55.3981 68.3266C55.0567 68.6922 54.6635 69.0057 54.2311 69.2571C53.3693 69.8035 52.4718 70.2918 51.5448 70.7185C47.865 72.4375 43.833 73.3154 40.0218 74.7347C38.1319 75.4077 36.3229 76.2892 34.6283 77.3631C33.7774 77.8773 33.0462 78.5674 32.4835 79.387C31.9732 80.2768 31.6544 81.2634 31.5478 82.2835C31.4524 82.9802 31.4102 83.6832 31.4216 84.3863V87.5404C31.4216 89.4434 31.3848 91.3516 31.4216 93.2546V93.3597C31.423 93.4193 31.4472 93.476 31.4893 93.5181C31.5314 93.5602 31.5881 93.5844 31.6477 93.5858H37.9559H44.7635H53.0378H62.1321H71.2843H79.8425H87.0811H92.2802C93.1002 93.5858 93.9203 93.5858 94.7404 93.5858C94.7754 93.5831 94.8105 93.5831 94.8455 93.5858C94.9045 93.5844 94.9607 93.56 95.002 93.5177C95.0432 93.4755 95.0663 93.4188 95.0663 93.3597L95.0137 88.4603C95.0137 86.7098 95.04 84.9435 94.9612 83.2035C94.8823 81.4635 94.3776 79.5237 93.0582 78.2831C92.2979 77.6051 91.4575 77.0225 90.5559 76.5483C89.6841 76.0568 88.7835 75.6179 87.8591 75.2341C84.1058 73.6571 80.0948 72.7739 76.2941 71.2547C75.3317 70.8741 74.3926 70.437 73.4817 69.9457C72.5669 69.529 71.7282 68.9622 71.0004 68.2688C70.2224 67.4067 70.3538 66.1135 70.317 65.0358L70.1909 61.356L70.1278 59.5372C70.1278 59.248 69.6705 59.248 69.681 59.5372L69.8019 63.217C69.8439 64.3997 69.8019 65.6036 69.9438 66.7811C69.9824 67.2408 70.1203 67.6867 70.3482 68.0879C70.576 68.4891 70.8882 68.836 71.2633 69.1046C72.0894 69.7096 72.9692 70.2375 73.8917 70.6817C77.54 72.5163 81.5457 73.431 85.3832 74.782C87.3185 75.4287 89.1808 76.2762 90.9397 77.3106C91.8894 77.8191 92.7249 78.5168 93.3946 79.3607C93.9497 80.2428 94.2934 81.2414 94.3987 82.2783C94.4912 82.9753 94.5333 83.678 94.5248 84.381L94.5616 87.593L94.5984 91.1466V92.5134C94.5984 92.771 94.5984 93.0391 94.5984 93.3019C94.6012 93.3369 94.6012 93.372 94.5984 93.407L94.8245 93.181H88.5163H81.6824H73.4081H64.3137H55.1668H46.6034H39.37H34.1657H32.6044C32.3258 93.181 32.0262 93.1494 31.7528 93.181H31.6477L31.8737 93.407V85.0066C31.8737 84.4283 31.8474 83.8448 31.8737 83.2718C31.9233 82.3752 32.1003 81.4902 32.3994 80.6434C32.7721 79.6306 33.4452 78.7558 34.3287 78.1359C36.0038 76.9567 37.8304 76.0089 39.759 75.3182C43.5281 73.8673 47.4971 72.9894 51.2031 71.3651C52.1375 70.9623 53.0452 70.5005 53.9209 69.9825C54.7095 69.5147 55.6031 69.0047 56.0657 68.1794C56.5914 67.2595 56.481 66.0767 56.5178 65.0674L56.6387 61.4296L56.7071 59.574C56.7071 59.2848 56.2655 59.2848 56.255 59.574H56.234Z" fill="#CECECE"/>
<path d="M57.6006 60.3052C57.6006 60.3052 63.3411 65.2361 70.1119 65.6198L69.9437 60.589C69.9437 60.589 70.0488 59.4168 68.7188 60.3367C67.0839 61.4617 64.0192 62.697 62.6051 62.4973C61.191 62.2975 57.6006 60.3052 57.6006 60.3052Z" fill="#CECECE" stroke="#CECECE" stroke-width="0.86" stroke-linejoin="round"/>
<path d="M54.6307 43.9508C55.0793 43.603 55.5894 43.3426 56.1342 43.1833C60.4028 41.6694 64.9552 40.4393 68.3354 37.4008C69.0244 38.5154 69.7865 39.5832 70.6168 40.597C71.1232 41.1557 71.5707 41.7653 71.9521 42.4158C72.5934 43.6302 72.6723 45.0443 72.7406 46.411C72.9666 45.4175 74.2073 45.3597 74.98 46.0063C75.3167 46.3445 75.5578 46.7659 75.6788 47.2276C75.7997 47.6893 75.7962 48.1748 75.6687 48.6347C75.4847 49.6387 74.5121 50.3064 73.7552 50.995C73.4894 51.2139 73.2574 51.4707 73.0665 51.7572C72.8745 52.1381 72.7567 52.552 72.7196 52.9768L71.9521 58.1128C71.9103 58.2537 71.8999 58.402 71.9217 58.5473C71.9435 58.6927 71.9969 58.8315 72.0782 58.9539C72.1934 59.0439 72.3277 59.1064 72.4707 59.1365C72.6138 59.1665 72.7619 59.1634 72.9036 59.1273C74.9496 58.9022 76.9533 58.3871 78.8543 57.5976C79.4123 57.408 79.9144 57.0829 80.3157 56.6514C80.936 55.8786 80.8729 54.7799 80.7468 53.7969C80.2887 50.228 79.4172 46.7244 78.1499 43.3568C77.2037 40.8283 75.9946 38.3313 74.0758 36.4388C72.9351 35.3138 71.4159 34.3886 69.823 34.5674C69.8113 34.3775 69.7581 34.1926 69.6673 34.0255C69.5765 33.8584 69.4502 33.7132 69.2974 33.6001C67.083 31.6094 64.2358 30.4661 61.2596 30.3724C60.2641 30.3108 59.2654 30.4175 58.3053 30.6878C55.9818 31.387 54.2312 33.3162 52.8382 35.2823C48.885 40.8966 46.8664 47.6096 44.9108 54.2069C44.7581 54.5745 44.6881 54.9711 44.7058 55.3687C44.8008 55.7004 44.9671 56.0074 45.1932 56.268C45.4194 56.5286 45.6998 56.7366 46.0148 56.8774C48.843 58.5176 52.2914 58.4808 55.5192 58.9802C54.5498 58.1344 53.9265 56.9608 53.7686 55.6841C53.6187 54.4264 53.5467 53.1606 53.5531 51.8939C53.5578 51.7093 53.5104 51.5272 53.4164 51.3682C53.2639 51.2014 53.0698 51.0781 52.8539 51.0108C51.8026 50.4851 51.3768 49.2602 51.1087 48.1248C50.9247 47.3468 50.7932 46.4583 51.2506 45.796C51.7079 45.1336 53.5531 46.0851 53.7003 46.8474C53.6845 46.8631 53.9368 44.5606 54.6307 43.9508Z" fill="#CECECE"/>
<path d="M54.8621 44.1827C55.2705 43.8769 55.7297 43.6456 56.2184 43.4993L57.6115 43.0157C58.563 42.6898 59.5145 42.3691 60.4607 42.0274C62.341 41.3892 64.1573 40.5761 65.8858 39.5988C66.8394 39.0374 67.7372 38.3861 68.5668 37.6537L68.0411 37.5906C68.4984 38.3213 68.9768 39.031 69.492 39.6934C70.0071 40.3557 70.5854 41.0286 71.1006 41.7173C71.5981 42.3664 71.9479 43.1163 72.1256 43.9146C72.2815 44.7295 72.3694 45.5559 72.3885 46.3853C72.3866 46.4653 72.4142 46.5431 72.466 46.604C72.5178 46.6649 72.5901 46.7047 72.6693 46.7157C72.7485 46.7268 72.829 46.7083 72.8955 46.6639C72.9619 46.6194 73.0098 46.5521 73.0298 46.4747C73.1928 45.8491 73.8551 45.7598 74.3808 45.9963C74.7081 46.1759 74.9768 46.4458 75.1548 46.774C75.3329 47.1021 75.4127 47.4745 75.3849 47.8468C75.3889 48.2321 75.308 48.6136 75.1482 48.9643C74.9883 49.315 74.7532 49.6262 74.4597 49.8759C73.8919 50.4016 73.156 50.8694 72.7565 51.5581C72.5658 51.9256 72.443 52.3245 72.3937 52.7356C72.3149 53.2613 72.2413 53.7554 72.1624 54.2654L71.6946 57.3564C71.5894 58.0608 71.2951 59.1595 72.2203 59.4066C72.5856 59.4628 72.9582 59.4503 73.3189 59.3698C73.8446 59.3014 74.3388 59.2226 74.8382 59.1227C75.7676 58.9337 76.6841 58.6862 77.5822 58.3815C78.4227 58.1434 79.2259 57.7896 79.9689 57.3301C81.4776 56.2787 81.0991 54.2864 80.8625 52.7093C80.3036 48.8959 79.2577 45.1699 77.7505 41.6226C77.0138 39.8138 75.9836 38.1389 74.7015 36.6654C73.4504 35.2881 71.7209 34.037 69.7601 34.2157L70.086 34.5469C70.086 33.6795 69.1818 33.0697 68.5615 32.6019C67.8771 32.0795 67.1386 31.6318 66.3589 31.2667C64.765 30.5316 63.0445 30.1103 61.2913 30.026C59.439 29.88 57.5906 30.3513 56.0344 31.3665C54.6597 32.3626 53.474 33.5963 52.5334 35.0095C50.4342 38.0839 48.7365 41.4139 47.4815 44.9187C46.8139 46.6955 46.2199 48.4986 45.6574 50.307C45.3683 51.2322 45.0897 52.1574 44.8111 53.0878C44.5692 53.8974 44.1172 54.8752 44.4273 55.7163C44.7375 56.5573 45.6679 57.1041 46.4354 57.472C47.358 57.9077 48.3283 58.2341 49.3267 58.4446C51.3401 58.8861 53.4007 58.9702 55.4351 59.3067C55.7138 59.3487 56.0397 58.986 55.7506 58.781C54.842 57.9966 54.2482 56.9098 54.0789 55.7215C53.9624 55.0035 53.9009 54.2778 53.8949 53.5504C53.9266 52.8743 53.8949 52.1967 53.8003 51.5265C53.6583 50.922 53.1116 50.8484 52.6753 50.533C52.2669 50.2049 51.9545 49.7726 51.7711 49.2819C51.5622 48.7611 51.4071 48.2204 51.3085 47.668C51.2523 47.3825 51.2276 47.0916 51.2349 46.8006C51.2224 46.5007 51.3134 46.2056 51.4925 45.9648C51.7448 45.7545 52.2495 45.9648 52.4913 46.1172C52.8225 46.2855 53.2588 46.5588 53.3482 46.9531C53.4375 47.3473 53.9527 47.2054 53.9895 46.8637C54.0349 46.4926 54.0999 46.1241 54.184 45.7598C54.2538 45.1837 54.4812 44.6379 54.8411 44.1827C55.1513 43.8936 54.6887 43.431 54.3785 43.7201C53.9429 44.228 53.662 44.8501 53.569 45.5127C53.4634 45.9577 53.3862 46.409 53.3377 46.8637L53.979 46.7744C53.7845 45.9227 52.6438 45.3024 51.8289 45.2446C50.5042 45.15 50.5042 46.8847 50.6672 47.7889C50.8827 48.9559 51.277 50.3017 52.2442 51.0429C52.4703 51.2164 52.7699 51.29 52.9749 51.4529C53.18 51.6159 53.18 52.2678 53.1905 52.5937C53.1905 53.4243 53.1905 54.2496 53.3061 55.0749C53.4743 56.6204 53.9843 58.229 55.2406 59.2331L55.5613 58.7074C53.8581 58.4393 52.1338 58.3184 50.4359 58.0345C48.7901 57.8321 47.207 57.2781 45.7941 56.4102C45.4757 56.2109 45.2191 55.9269 45.0529 55.5901C44.9318 55.1239 44.9745 54.6303 45.1738 54.1918C45.4314 53.3402 45.6995 52.4885 45.9413 51.6369C46.467 49.9495 46.9926 48.2673 47.5762 46.6061C48.6962 43.2736 50.175 40.0727 51.9867 37.0597C53.6688 34.3524 55.8504 31.3718 59.2148 30.8146C62.0839 30.4611 64.9869 31.1111 67.4313 32.6545C67.8318 32.9087 68.2147 33.1897 68.5773 33.4956C68.9032 33.7689 69.4236 34.1211 69.4236 34.589C69.4236 34.6754 69.458 34.7583 69.5191 34.8194C69.5802 34.8806 69.6631 34.9149 69.7495 34.9149C71.5053 34.7467 73.0193 35.8664 74.1548 37.0912C75.291 38.3686 76.2173 39.8182 76.8989 41.3861C78.4247 44.7916 79.4958 48.383 80.0845 52.068C80.2588 52.9547 80.3729 53.8522 80.4262 54.7542C80.4753 55.1513 80.4197 55.5544 80.2647 55.9233C80.1098 56.2922 79.861 56.6141 79.5431 56.857C78.7646 57.32 77.9261 57.6737 77.0513 57.9084C76.1503 58.2031 75.2299 58.4349 74.2967 58.6023C73.8499 58.6864 73.4031 58.7547 72.951 58.8073C72.792 58.8255 72.6315 58.8255 72.4726 58.8073C72.1782 58.7757 72.1624 58.5655 72.1782 58.2816C72.2571 57.3038 72.4778 56.3103 72.625 55.3378C72.7722 54.3652 72.8511 53.3927 73.0771 52.4517C73.2769 51.6107 73.9813 51.1428 74.5911 50.6013C75.2593 50.1063 75.735 49.3947 75.9369 48.588C76.1114 47.7908 75.984 46.9573 75.5794 46.2487C75.3909 45.9353 75.1263 45.6746 74.8102 45.4908C74.494 45.307 74.1366 45.2061 73.771 45.1973C73.4478 45.1895 73.1316 45.2928 72.8753 45.4898C72.6189 45.6869 72.4378 45.9658 72.3622 46.2802L73.0035 46.3643C72.9247 44.6769 72.7775 42.9789 71.7734 41.5596C71.2477 40.8394 70.6642 40.1875 70.1333 39.4884C69.6024 38.7892 69.0819 37.9954 68.5562 37.2121C68.531 37.1673 68.4956 37.129 68.4529 37.1003C68.4103 37.0715 68.3615 37.0531 68.3105 37.0465C68.2595 37.0398 68.2076 37.0452 68.159 37.0621C68.1104 37.079 68.0665 37.107 68.0306 37.1438C65.0026 39.8248 61.0652 41.0654 57.3118 42.3533C56.3025 42.7003 55.1565 42.9737 54.326 43.6728C54.0789 43.9935 54.5415 44.4508 54.8621 44.1827Z" fill="#CECECE"/>
<path d="M75.5427 89.3792L71.7105 82.4297H23.3107C23.1233 82.4302 22.9382 82.4708 22.7677 82.5487C22.5973 82.6266 22.4455 82.7401 22.3226 82.8815C22.1996 83.0228 22.1083 83.1889 22.0548 83.3685C22.0012 83.548 21.9867 83.737 22.0122 83.9226L29.0143 135.272H132.406L125.199 89.3792H75.5427Z" fill="#FDEAE8"/>
<path d="M88.8741 89.3792H75.5427L71.7105 82.4297H23.3107C23.1233 82.4302 22.9382 82.4708 22.7677 82.5487C22.5973 82.6266 22.4455 82.7401 22.3226 82.8815C22.1996 83.0228 22.1083 83.1889 22.0548 83.3685C22.0012 83.548 21.9867 83.737 22.0122 83.9226L29.0143 135.272H132.406L125.199 89.3792H90.8769" stroke="#010101" stroke-miterlimit="10"/>
<path d="M73.6503 116.773C74.5886 116.773 75.4885 117.146 76.152 117.81C76.8154 118.473 77.1882 119.373 77.1882 120.311H70.0967C70.0967 119.845 70.1887 119.384 70.3675 118.954C70.5463 118.524 70.8083 118.133 71.1385 117.804C71.4687 117.475 71.8605 117.215 72.2916 117.038C72.7226 116.861 73.1844 116.771 73.6503 116.773Z" fill="black"/>
<path d="M63.4883 109.855L66.9368 113.304" stroke="black" stroke-miterlimit="10" stroke-linecap="round"/>
<path d="M63.4883 113.304L66.9368 109.855" stroke="black" stroke-miterlimit="10" stroke-linecap="round"/>
<path d="M79.7539 109.855L83.2024 113.304" stroke="black" stroke-miterlimit="10" stroke-linecap="round"/>
<path d="M79.7539 113.304L83.2024 109.855" stroke="black" stroke-miterlimit="10" stroke-linecap="round"/>
</svg>
