<svg xmlns="http://www.w3.org/2000/svg" viewBox="0 0 327.08 311.19"><defs><style>.cls-1{fill:#fff;}.cls-2{fill:#f1e4c4;}.cls-3{fill:#e8d7b5;}.cls-4{fill:#f2e0b8;}.cls-5{fill:#212121;}.cls-6{fill:#0c8485;}.cls-7{fill:#231f20;}.cls-8{fill:#616161;}.cls-9{fill:#081928;}.cls-10{fill:none;}.cls-11{fill:#eeefef;}.cls-12{fill:#58baf7;}.cls-13{fill:#51abe3;}</style></defs><title>no-result</title><g id="Layer_2" data-name="Layer 2"><g id="Layer_1-2" data-name="Layer 1"><circle class="cls-1" cx="158.54" cy="149.2" r="149.2" transform="translate(-59.06 155.8) rotate(-45)"/><path class="cls-2" d="M165.6,115c0,7.42-3.16,13.44-7.06,13.44s-7.07-6-7.07-13.44,3.17-13.45,7.07-13.45S165.6,107.59,165.6,115Z"/><path class="cls-2" d="M165.6,117.73c0,7.43-3.16,13.45-7.06,13.45s-7.06-6-7.06-13.45,3.16-13.44,7.06-13.44S165.6,110.31,165.6,117.73Z"/><rect class="cls-3" x="133.5" y="167.02" width="50.08" height="56.09"/><path class="cls-4" d="M210.42,115.92c0,33.9-11.53,61.38-51.88,61.38s-51.88-27.48-51.88-61.38,8.1-61.39,51.88-61.39S210.42,82,210.42,115.92Z"/><path class="cls-5" d="M106.43,111.87s-2.26-35.42-.39-46.64,16.9-28.15,16.9-28.15l11.38,7,12.5-7,15.38,6.88,11.68-7.37s6.71,6.75,8.58,8.3S195.23,39,195.23,39s17,17.68,16.54,33.55-1.58,43.42-1.58,43.42,3.06-23.81-16.41-38.64c-7.26-5.53-20.86,3-34.38,2.91-12.19,0-24.31-9.08-31.7-5.53C112.31,82.05,106.43,111.87,106.43,111.87Z"/><path class="cls-1" d="M175,121.32s-1.71,2.72-2.51,3.94c-2.55,3.9-8.57,6.66-13.9,6.66s-11.36-2.77-13.91-6.67c-.8-1.22-2.5-3.93-2.5-3.93s1.87-3.16,2.93-4.53c2.75-3.59,8.42-6.06,13.48-6.06,5.25,0,11.15,2.66,13.78,6.47C173.19,118.46,175,121.32,175,121.32Z"/><path class="cls-6" d="M165.39,121.6a6.86,6.86,0,1,1-6.85-6.85A6.86,6.86,0,0,1,165.39,121.6Z"/><path class="cls-7" d="M161.45,121.6a2.91,2.91,0,1,1-2.91-2.91A2.91,2.91,0,0,1,161.45,121.6Z"/><path class="cls-1" d="M160.2,118.78a1.66,1.66,0,1,1-1.66-1.66A1.66,1.66,0,0,1,160.2,118.78Z"/><path class="cls-4" d="M175,121.6s-1.71,2.72-2.51,3.94c-2.55,3.9-8.57,6.66-13.9,6.66s-11.36-2.76-13.91-6.67c-.8-1.21-2.5-3.93-2.5-3.93s1.87-3.15,2.93-4.53c2.75-3.58,8.42-6.06,13.48-6.06,5.25,0,11.15,2.67,13.78,6.47C173.19,118.75,175,121.6,175,121.6Z"/><path class="cls-6" d="M165.39,121.89a6.86,6.86,0,1,1-6.85-6.86A6.86,6.86,0,0,1,165.39,121.89Z"/><path class="cls-7" d="M161.45,121.89a2.91,2.91,0,1,1-2.91-2.91A2.91,2.91,0,0,1,161.45,121.89Z"/><path class="cls-1" d="M160.2,119.06a1.66,1.66,0,1,1-1.66-1.66A1.66,1.66,0,0,1,160.2,119.06Z"/><path class="cls-8" d="M158.1,160.92a31.79,31.79,0,0,1-9.22-1.38A1.87,1.87,0,0,1,150,156a26.47,26.47,0,0,0,16.93-.31,1.87,1.87,0,0,1,1.51,3.42A27.29,27.29,0,0,1,158.1,160.92Z"/><rect class="cls-9" x="132.56" y="117.6" width="51.96" height="7.62"/><rect class="cls-9" x="132.56" y="119.55" width="51.96" height="7.62"/><path class="cls-5" d="M164.91,110.52c0,2.33-2.74,4.23-6.13,4.23s-6.13-1.9-6.13-4.23,2.75-4.23,6.13-4.23S164.91,108.18,164.91,110.52Z"/><path class="cls-5" d="M128.46,91.18a26,26,0,1,0,26,26A26,26,0,0,0,128.46,91.18Z"/><path class="cls-5" d="M188.62,92.93a26,26,0,1,0,26,26A26,26,0,0,0,188.62,92.93Z"/><rect class="cls-5" x="147.79" y="110.52" width="22.07" height="18.85"/><circle class="cls-10" cx="158.54" cy="149.2" r="149.2" transform="translate(-59.06 155.8) rotate(-45)"/><path class="cls-3" d="M118,102.5s23.8.13,14.94-8.2-28.64.09-37.41,6c-11,7.36-17.77,25.07-20.38,30.28s-18.23,12.7-18.23,12.7l5.6,17S83.79,149.36,88.71,152s31.25,6.65,35.68,6.38,7.39-6.5,3.19-8.59-19-7.83-22.46-22.55S118,102.5,118,102.5Z"/><path class="cls-3" d="M199.07,102.5s-23.8.13-14.94-8.2,28.64.09,37.41,6c11,7.36,17.77,25.07,20.38,30.28s18.23,12.7,18.23,12.7l-5.6,17s-21.26-10.87-26.18-8.21-31.25,6.65-35.68,6.38-7.39-6.5-3.19-8.59S208.45,142,212,127.26,199.07,102.5,199.07,102.5Z"/><path class="cls-11" d="M149.75,125.36a21.3,21.3,0,1,1-21.29-21.29A21.29,21.29,0,0,1,149.75,125.36Z"/><path class="cls-5" d="M128.46,151.34a26,26,0,1,1,26-26A26,26,0,0,1,128.46,151.34Zm0-42.58a16.6,16.6,0,1,0,16.6,16.6A16.63,16.63,0,0,0,128.46,108.76Z"/><path class="cls-11" d="M209.92,125.36a21.3,21.3,0,1,1-21.3-21.29A21.3,21.3,0,0,1,209.92,125.36Z"/><path class="cls-5" d="M188.62,151.34a26,26,0,1,1,26-26A26,26,0,0,1,188.62,151.34Zm0-42.58a16.6,16.6,0,1,0,16.61,16.6A16.62,16.62,0,0,0,188.62,108.76Z"/><path class="cls-12" d="M220.18,311.19H94.29V201.09L113,188.63h20.59S135.32,208,158,208s25.5-19.32,25.5-19.32h36.66Z"/><polygon class="cls-12" points="6.74 186 117.69 188.63 108.54 229.06 21.11 224.57 6.74 186"/><path class="cls-13" d="M62.13,123.36C69.6,120,86.2,156.67,76.56,167S27,224.76,21.11,224.57-12.58,206,6.74,183.51,54.65,126.72,62.13,123.36Z"/><polygon class="cls-12" points="318.97 187.19 208.02 188.56 213.97 229 304.61 224.51 318.97 187.19"/><path class="cls-13" d="M262,127.17c-7.47-3.36-22,34.07-13.33,43s50.63,52.87,56,54.3,37.1-19.06,14.36-41.06S269.44,130.53,262,127.17Z"/></g></g></svg>