<svg width="100" height="80" fill="none" xmlns="http://www.w3.org/2000/svg"><rect width="100" height="80" rx="4" fill="#ECF3FE"/><rect x="6" y="38" width="86" height="2" rx="1" fill="#D3E3FD"/><rect x="6" y="38" width="23" height="2" rx="1" fill="#A8C7FA"/><rect x="7" y="70" width="12" height="3" rx="1.5" fill="#D3E3FD"/><rect x="80" y="70" width="12" height="3" rx="1.5" fill="#D3E3FD"/><rect x="6" y="28" width="86" height="2" rx="1" fill="#D3E3FD"/><rect x="6" y="28" width="39" height="2" rx="1" fill="#A8C7FA"/><rect x="6" y="48" width="86" height="2" rx="1" fill="#D3E3FD"/><rect x="6" y="58" width="86" height="2" rx="1" fill="#D3E3FD"/><rect x="6" y="48" width="55" height="2" rx="1" fill="#A8C7FA"/><rect x="6" y="58" width="16" height="2" rx="1" fill="#A8C7FA"/><rect x="6" y="7" width="9" height="9" rx="2" fill="#D3E3FD"/><rect x="6" y="22" width="13" height="4" rx="2" fill="#D3E3FD"/><rect x="6" y="32" width="13" height="4" rx="2" fill="#D3E3FD"/><rect x="6" y="42" width="13" height="4" rx="2" fill="#D3E3FD"/><rect x="6" y="52" width="13" height="4" rx="2" fill="#D3E3FD"/></svg>