<svg width="23" height="28" viewBox="0 0 23 28" fill="none" xmlns="http://www.w3.org/2000/svg">
<path d="M6.681 18.7197C7.11467 18.9701 6.3146 20.3695 5.59641 20.8658C5.23365 21.1237 5.00319 21.0976 4.62747 21.4945C4.25176 21.8915 4.17762 22.2051 4.07513 22.1974C3.97263 22.1897 3.94831 21.443 4.12516 20.8005C4.25393 20.3338 4.47699 19.8984 4.78056 19.5213C5.08414 19.1441 5.4618 18.8332 5.89022 18.6077C5.97962 18.5544 6.08165 18.5261 6.18571 18.5256C6.28977 18.5251 6.39207 18.5524 6.48199 18.6048L6.68397 18.7214" fill="#FFB55F"/>
<path d="M9.43021 20.308C8.99655 20.0576 8.1846 21.4502 8.11393 22.3203C8.07197 22.7634 8.20982 22.9499 8.05391 23.4738C7.898 23.9976 7.66346 24.2186 7.72137 24.3036C7.77927 24.3885 8.44155 24.0302 8.91247 23.5576C9.25227 23.2127 9.51779 22.8018 9.69262 22.3504C9.86746 21.8989 9.94791 21.4163 9.929 20.9326C9.93041 20.8285 9.90395 20.726 9.85236 20.6356C9.80077 20.5452 9.72594 20.4703 9.63562 20.4186L9.43364 20.302" fill="#FFB55F"/>
<path d="M5.1238 24.6056C5.06736 24.573 5.07426 24.4582 5.12929 24.2325C5.24199 23.7629 5.47439 23.4496 5.5643 23.1292C5.58856 23.0323 5.85303 22.1078 5.86424 22.0746C6.20992 21.1059 6.77295 20.2293 7.51012 19.512C7.57002 19.4557 7.64655 19.4202 7.72826 19.411C7.80998 19.4018 7.89248 19.4193 7.96343 19.4608L8.1565 19.5723C8.22837 19.6125 8.2851 19.6752 8.31803 19.7507C8.35095 19.8262 8.35826 19.9104 8.33884 19.9905C8.08641 20.9851 7.60996 21.9089 6.9459 22.6912C6.93389 22.712 6.25437 23.4088 6.18259 23.4782C5.9501 23.7163 5.79493 24.0742 5.4446 24.4066C5.2767 24.5671 5.18412 24.6246 5.12723 24.5996" fill="#F6921E"/>
<path d="M8.06252 12.6625L8.06641 12.6489L8.06252 12.6625Z" fill="#C1890C"/>
<path d="M6.78486 12.6457L5.4835 12.6429C5.39729 12.6432 5.31264 12.666 5.23787 12.7089C5.16309 12.7518 5.10076 12.8134 5.05699 12.8877L3.46898 15.6382C3.4361 15.6943 3.41467 15.7563 3.40597 15.8207C3.39726 15.8851 3.40143 15.9506 3.41825 16.0134C3.43507 16.0762 3.4642 16.135 3.50395 16.1864C3.54369 16.2378 3.59325 16.2808 3.64976 16.3129L5.77948 17.5425L6.78486 12.6457Z" fill="#334E74"/>
<path d="M15.5249 18.4393L14.7536 17.1068L10.9164 20.5152L13.26 21.8683C13.3162 21.9012 13.3783 21.9228 13.4429 21.9316C13.5074 21.9404 13.5731 21.9364 13.6361 21.9198C13.699 21.9031 13.7581 21.8742 13.8099 21.8346C13.8616 21.7951 13.905 21.7456 13.9376 21.6892L15.529 18.9328C15.571 18.8571 15.5927 18.7719 15.592 18.6855C15.5912 18.599 15.5681 18.5141 15.5249 18.4393Z" fill="#334E74"/>
<path d="M18.4913 9.04726L11.915 5.25044C10.8378 6.15034 9.93138 7.23691 9.2393 8.45812C8.05647 10.5 7.13971 14.5093 6.71214 16.615C6.63458 17.0046 6.68109 17.4088 6.84515 17.7706C7.00921 18.1324 7.28256 18.4337 7.62675 18.6321L9.04359 19.4501C9.38752 19.649 9.78513 19.7351 10.1805 19.6963C10.5759 19.6574 10.9492 19.4956 11.2478 19.2336C12.8537 17.8241 15.8645 15.0238 17.053 12.9654C17.7652 11.7569 18.2525 10.4295 18.4913 9.04726ZM11.1457 14.1766C10.707 13.9241 10.353 13.5471 10.1286 13.0934C9.90416 12.6397 9.81937 12.1296 9.88494 11.6276C9.95051 11.1257 10.1635 10.6545 10.4969 10.2736C10.8304 9.89277 11.2693 9.61937 11.7582 9.48803C12.247 9.35669 12.7639 9.37331 13.2433 9.53578C13.7227 9.69825 14.1431 9.99927 14.4514 10.4008C14.7597 10.8023 14.942 11.2862 14.9752 11.7913C15.0084 12.2964 14.891 12.8 14.6379 13.2384C14.2989 13.8255 13.7407 14.2542 13.0859 14.4301C12.4311 14.606 11.7333 14.5148 11.1457 14.1766Z" fill="#2684FF"/>
<path d="M12.7059 4.65136L18.6079 8.05889C18.7412 6.37899 18.4599 4.69205 17.7887 3.14631C17.7538 3.06663 17.6943 3.00019 17.619 2.9567C17.5436 2.9132 17.4564 2.89491 17.3699 2.9045C15.6956 3.09607 14.0941 3.69593 12.7059 4.65136Z" fill="#334E74"/>
</svg>
