<?xml version="1.0" encoding="utf-8"?>
<!-- Generator: Adobe Illustrator 27.5.0, SVG Export Plug-In . SVG Version: 6.00 Build 0)  -->
<svg version="1.1" xmlns="http://www.w3.org/2000/svg" xmlns:xlink="http://www.w3.org/1999/xlink" x="0px" y="0px"
	 viewBox="0 0 2000 2000" style="enable-background:new 0 0 2000 2000;" xml:space="preserve">
<g id="BACKGROUND">
	<rect style="fill:#FFFFFF;" width="2000" height="2000"/>
</g>
<g id="OBJECTS">
	<g>
		<g>
			<path style="fill:#D2D2D2;" d="M495.989,828.682c-3.24-0.745-6.519-1.602-9.744-2.548l0.703-2.4
				c3.179,0.933,6.409,1.777,9.6,2.511L495.989,828.682z M476.67,823.018c-3.142-1.124-6.298-2.357-9.38-3.663l0.977-2.302
				c3.038,1.289,6.149,2.504,9.246,3.612L476.67,823.018z M458.132,815.166c-2.998-1.475-5.995-3.053-8.907-4.691l1.225-2.18
				c2.874,1.616,5.829,3.173,8.785,4.628L458.132,815.166z M440.587,805.302c-2.813-1.791-5.62-3.687-8.343-5.633l1.455-2.034
				c2.687,1.921,5.457,3.792,8.231,5.558L440.587,805.302z M424.216,793.596c-2.612-2.09-5.199-4.275-7.69-6.494l1.663-1.868
				c2.458,2.191,5.012,4.347,7.59,6.409L424.216,793.596z M409.192,780.205c-2.373-2.353-4.712-4.802-6.953-7.278l1.853-1.677
				c2.211,2.443,4.519,4.858,6.86,7.18L409.192,780.205z M395.686,765.287c-2.108-2.598-4.17-5.286-6.128-7.986l2.024-1.467
				c1.931,2.665,3.965,5.315,6.045,7.879L395.686,765.287z M383.879,748.987c-1.811-2.815-3.564-5.714-5.209-8.616l2.175-1.233
				c1.621,2.861,3.35,5.72,5.136,8.496L383.879,748.987z M373.959,731.471c-1.484-3.009-2.894-6.091-4.189-9.158l2.302-0.974
				c1.278,3.024,2.666,6.061,4.129,9.026L373.959,731.471z M349.919,730.1c-3.359-0.237-6.748-0.724-10.068-1.45l0.532-2.441
				c3.204,0.7,6.472,1.169,9.712,1.399L349.919,730.1z M360.096,730.063l-0.198-2.493c3.285-0.261,6.538-0.779,9.669-1.539
				l0.591,2.429C366.899,729.252,363.514,729.791,360.096,730.063z M330.093,725.775c-3.189-1.195-6.298-2.626-9.242-4.253
				l1.208-2.188c2.838,1.567,5.836,2.947,8.91,4.099L330.093,725.775z M379.833,725.236l-0.991-2.295
				c0.876-0.378,1.746-0.78,2.605-1.204c2.046-1.011,4.053-2.177,5.962-3.463l1.397,2.073c-2.001,1.35-4.105,2.572-6.252,3.632
				C381.654,724.421,380.748,724.84,379.833,725.236z M312.341,715.934c-2.711-2.096-5.245-4.405-7.533-6.865l1.831-1.702
				c2.195,2.36,4.628,4.577,7.23,6.589L312.341,715.934z M396.702,713.845l-1.77-1.765c2.362-2.372,4.404-4.919,6.067-7.573
				l2.119,1.328C401.355,708.646,399.197,711.342,396.702,713.845z M366.127,712.922c-0.508-1.436-0.996-2.877-1.465-4.326
				c-0.568-1.753-1.074-3.556-1.508-5.358l2.432-0.583c0.417,1.739,0.907,3.48,1.454,5.172c0.461,1.427,0.942,2.847,1.443,4.26
				L366.127,712.922z M298.528,701.029c-1.832-2.82-3.447-5.848-4.8-9l2.297-0.986c1.296,3.021,2.844,5.923,4.6,8.624
				L298.528,701.029z M407.388,696.451l-2.4-0.701c0.797-2.728,1.201-5.504,1.202-8.251c0-0.406-0.009-0.815-0.026-1.222
				l2.497-0.107c0.02,0.443,0.028,0.886,0.028,1.329C408.689,690.485,408.251,693.496,407.388,696.451z M361.504,693.192
				c-0.138-1.626-0.208-3.23-0.208-4.767c-0.001-1.885,0.103-3.724,0.31-5.469l2.483,0.296c-0.195,1.646-0.294,3.386-0.293,5.172
				c0,1.469,0.067,3.002,0.198,4.558L361.504,693.192z M290.481,682.373c-0.815-3.258-1.393-6.633-1.713-10.034l2.488-0.234
				c0.31,3.275,0.864,6.526,1.649,9.661L290.481,682.373z M403.724,677.201c-1.396-2.782-3.375-5.409-5.719-7.595l1.704-1.829
				c2.56,2.388,4.72,5.258,6.249,8.303L403.724,677.201z M366.588,674.026l-2.263-1.06c1.572-3.359,3.756-6.13,6.489-8.239
				l1.526,1.98C369.926,668.569,367.991,671.031,366.588,674.026z M390.026,664.486c-2.417-0.957-4.849-1.442-7.225-1.442
				c-0.002,0-0.005,0-0.009,0c-0.653,0-1.306,0.037-1.957,0.112l-0.291-2.483c0.746-0.088,1.497-0.129,2.247-0.129
				c0.003,0,0.006,0,0.01,0c2.693,0,5.432,0.545,8.145,1.618L390.026,664.486z M291.049,662.294l-2.498-0.127
				c0.171-3.375,0.59-6.771,1.243-10.095l2.454,0.483C291.616,655.76,291.213,659.037,291.049,662.294z M294.833,643.093
				l-2.356-0.833c1.138-3.22,2.518-6.354,4.105-9.315l2.205,1.182C297.259,636.976,295.929,639.993,294.833,643.093z
				 M304.087,625.896l-1.985-1.521c2.086-2.721,4.397-5.256,6.871-7.538l1.694,1.838C308.3,620.859,306.085,623.289,304.087,625.896
				z"/>
			<g>
				<path style="fill:#EDEDED;" d="M361.56,632.746H251.756c-15.932,0-28.848-12.916-28.848-28.848v-17.305
					c0-15.932,12.915-28.848,28.848-28.848H361.56c15.932,0,28.848,12.916,28.848,28.848v17.305
					C390.408,619.831,377.493,632.746,361.56,632.746z"/>
				<g>
					
						<ellipse transform="matrix(0.9997 -0.0238 0.0238 0.9997 -14.0848 6.5315)" style="fill:#FFFFFF;" cx="267.477" cy="595.246" rx="11.397" ry="11.397"/>
					
						<ellipse transform="matrix(0.999 -0.0453 0.0453 0.999 -26.6581 14.5074)" style="fill:#FFFFFF;" cx="306.658" cy="595.246" rx="11.397" ry="11.397"/>
					
						<ellipse transform="matrix(0.999 -0.0453 0.0453 0.999 -26.6178 16.2828)" style="fill:#FFFFFF;" cx="345.839" cy="595.246" rx="11.397" ry="11.397"/>
				</g>
			</g>
		</g>
		<g>
			<g>
				<path style="fill:#FFFFFF;" d="M477.881,427.5v545.911c0,34.96,28.34,63.3,63.3,63.3h917.638c34.96,0,63.3-28.34,63.3-63.3
					V427.5H477.881z"/>
				<path style="fill:#D2D2D2;" d="M1458.818,1039.211H541.182c-36.283,0-65.801-29.519-65.801-65.801V425h1049.238v548.411
					C1524.619,1009.692,1495.1,1039.211,1458.818,1039.211z M480.381,430v543.411c0,33.525,27.275,60.801,60.801,60.801h917.637
					c33.525,0,60.801-27.275,60.801-60.801V430H480.381z"/>
			</g>
			<g>
				<g>
					<path style="fill:#D2D2D2;" d="M1522.119,396.319c0-34.96-28.34-63.3-63.3-63.3H541.181c-34.96,0-63.3,28.34-63.3,63.3V427.5
						h1044.238V396.319z"/>
					<path style="fill:#D2D2D2;" d="M1524.619,430H475.381v-33.682c0-36.282,29.518-65.8,65.801-65.8h917.637
						c36.282,0,65.801,29.518,65.801,65.8V430z M480.381,425h1039.238v-28.682c0-33.525-27.275-60.8-60.801-60.8H541.182
						c-33.525,0-60.801,27.274-60.801,60.8V425z"/>
				</g>
				<g>
					
						<ellipse transform="matrix(0.172 -0.9851 0.9851 0.172 115.6867 898.1489)" style="fill:#FFFFFF;" cx="592.1" cy="380.259" rx="22.725" ry="22.725"/>
					
						<ellipse transform="matrix(0.1613 -0.9869 0.9869 0.1613 186.8234 980.3604)" style="fill:#FFFFFF;" cx="670.225" cy="380.259" rx="22.725" ry="22.725"/>
					
						<ellipse transform="matrix(0.1556 -0.9878 0.9878 0.1556 256.2703 1060.3197)" style="fill:#FFFFFF;" cx="748.35" cy="380.259" rx="22.725" ry="22.725"/>
				</g>
				<path style="fill:#FFFFFF;" d="M1375,401.093h-115c-11.506,0-20.833-9.327-20.833-20.833v0c0-11.506,9.328-20.833,20.833-20.833
					h115c11.506,0,20.833,9.327,20.833,20.833v0C1395.833,391.765,1386.506,401.093,1375,401.093z"/>
			</g>
			<g>
				<rect x="860.625" y="498.75" style="fill:#599BFF;" width="278.75" height="30"/>
				<g>
					<g>
						<rect x="666.667" y="880.833" style="fill:#FFFFFF;" width="666.667" height="41.667"/>
						<path style="fill:#D2D2D2;" d="M1334.583,923.75H665.416v-44.166h669.166V923.75z M667.916,921.25h664.166v-39.166H667.916
							V921.25z"/>
					</g>
					<g>
						<rect x="666.667" y="891.781" style="fill:#D2D2D2;" width="354.326" height="19.771"/>
					</g>
				</g>
				<g>
					<g>
						<polygon style="fill:#FFD966;" points="798.04,702.581 798.04,663.206 817.728,682.893 						"/>
						<polygon style="fill:#FFD966;" points="835.52,702.581 835.52,663.206 855.208,682.893 						"/>
					</g>
					<g>
						<polygon style="fill:#FFD966;" points="1159.157,699.538 1159.157,660.163 1178.844,679.85 						"/>
						<polygon style="fill:#FFD966;" points="1196.636,699.538 1196.636,660.163 1216.324,679.85 						"/>
					</g>
					<g>
						<g>
							<path style="fill:#FFFFFF;" d="M726.881,771.37H608.795c-6.236,0-11.291-5.055-11.291-11.291V609.921
								c0-6.236,5.055-11.291,11.291-11.291h118.086c6.236,0,11.291,5.055,11.291,11.291v150.158
								C738.172,766.315,733.117,771.37,726.881,771.37z"/>
							<path d="M726.881,772.621H608.795c-6.915,0-12.542-5.626-12.542-12.542V609.921c0-6.915,5.626-12.542,12.542-12.542h118.086
								c6.915,0,12.542,5.626,12.542,12.542v150.159C739.423,766.995,733.796,772.621,726.881,772.621z M608.795,599.879
								c-5.537,0-10.042,4.504-10.042,10.042v150.159c0,5.537,4.504,10.042,10.042,10.042h118.086
								c5.537,0,10.042-4.504,10.042-10.042V609.921c0-5.537-4.504-10.042-10.042-10.042H608.795z"/>
						</g>
						<g>
							<rect x="618.898" y="618.226" style="fill:#599BFF;" width="22.272" height="9.798"/>
							<rect x="653.479" y="622.188" width="37.413" height="1.875"/>
							<rect x="618.898" y="650.494" width="23.933" height="1.875"/>
							<rect x="618.898" y="664.103" width="47.769" height="1.875"/>
							<rect x="618.898" y="677.711" width="97.881" height="1.875"/>
							<rect x="618.898" y="691.321" width="82.936" height="1.875"/>
							<rect x="618.898" y="704.929" width="41.516" height="1.875"/>
							<rect x="618.898" y="718.538" width="97.881" height="1.875"/>
							<rect x="690.502" y="732.147" width="26.277" height="1.875"/>
						</g>
					</g>
					<g>
						<rect x="914.28" y="649.105" width="186.138" height="117.72"/>
						<g>
							<g>
								<path style="fill:#FFFFFF;" d="M1067.375,756.62H947.323c-5.957,0-10.786-4.829-10.786-10.786V610.827
									c0-5.957,4.829-10.786,10.786-10.786h120.052c5.957,0,10.786,4.829,10.786,10.786v135.006
									C1078.161,751.791,1073.332,756.62,1067.375,756.62z"/>
								<path d="M1067.375,757.87H947.323c-6.637,0-12.037-5.399-12.037-12.036V610.828c0-6.637,5.4-12.036,12.037-12.036h120.052
									c6.636,0,12.036,5.399,12.036,12.036v135.006C1079.412,752.471,1074.011,757.87,1067.375,757.87z M947.323,601.292
									c-5.259,0-9.537,4.277-9.537,9.536v135.006c0,5.259,4.279,9.536,9.537,9.536h120.052c5.259,0,9.536-4.277,9.536-9.536
									V610.828c0-5.259-4.277-9.536-9.536-9.536H947.323z"/>
							</g>
							<g>
								<rect x="965.498" y="633.97" width="82.31" height="1.875"/>
								<rect x="965.498" y="648.723" width="65.293" height="1.875"/>
								<rect x="965.498" y="663.475" width="83.701" height="1.875"/>
							</g>
						</g>
						<polyline style="fill:#FF5970;" points="914.279,649.108 989.476,702.389 914.279,766.824 						"/>
						<polyline style="fill:#FF5970;" points="1100.418,649.108 1024.694,702.916 1100.418,766.824 						"/>
						<polygon style="opacity:0.2;" points="1100.418,750.01 1100.418,766.825 1074.338,766.825 1038.89,692.675 						"/>
						<polygon style="opacity:0.2;" points="914.279,750.01 914.279,766.825 940.359,766.825 975.807,692.675 						"/>
						<path style="fill:#FF5970;" d="M973.861,694.746l-59.582,72.079h186.139l-59.582-72.079
							c-5.607-6.783-13.356-10.618-21.457-10.618h-24.063C987.217,684.128,979.468,687.963,973.861,694.746z"/>
					</g>
					<g>
						<g>
							<g>
								
									<ellipse transform="matrix(0.7071 -0.7071 0.7071 0.7071 -88.3933 1146.3003)" style="fill:#FFFFFF;" cx="1339.51" cy="679.85" rx="64.115" ry="64.115"/>
								<path d="M1339.509,745.215c-36.042,0-65.364-29.323-65.364-65.365c0-36.043,29.321-65.365,65.364-65.365
									s65.366,29.322,65.366,65.365C1404.875,715.892,1375.552,745.215,1339.509,745.215z M1339.509,616.985
									c-34.663,0-62.864,28.201-62.864,62.865c0,34.664,28.201,62.865,62.864,62.865c34.666,0,62.866-28.201,62.866-62.865
									C1402.375,645.185,1374.175,616.985,1339.509,616.985z"/>
							</g>
							<g>
								<ellipse cx="1339.51" cy="664.142" rx="12.805" ry="15.204"/>
								<path d="M1367.259,710.762h-55.498v-0.139c0-12.807,8.502-24.057,20.823-27.553l6.597-1.872l7.085,1.963
									C1358.671,686.598,1367.259,697.889,1367.259,710.762L1367.259,710.762z"/>
								<rect x="1332.064" y="672.899" width="14.892" height="14.523"/>
							</g>
						</g>
						<g>
							<circle style="fill:#FF5970;" cx="1389.837" cy="619.121" r="38.171"/>
							<g>
								<path style="fill:#FFFFFF;" d="M1370.061,627.984c0.784,0.082,1.481,0.082,2.717,0c1.893-0.124,3.826-0.658,5.266-1.645
									c1.729-1.194,2.881-2.921,3.374-4.938l-0.124-0.04c-1.193,1.233-2.921,1.933-5.347,1.933c-4.526,0-8.355-3.168-8.355-8.352
									c0-5.226,4.198-9.628,10.081-9.628c6.871,0,10.124,5.266,10.124,11.521c0,5.555-1.772,9.627-4.694,12.302
									c-2.55,2.303-6.047,3.58-10.201,3.744c-1.072,0.082-2.141,0.042-2.841,0V627.984z M1373.847,614.572
									c0,2.303,1.236,4.278,3.786,4.278c1.689,0,2.881-0.823,3.457-1.769c0.204-0.37,0.328-0.782,0.328-1.563
									c0-2.839-1.069-5.637-3.91-5.637C1375.371,609.882,1373.807,611.773,1373.847,614.572z"/>
								<path style="fill:#FFFFFF;" d="M1403.486,610.622v8.969h8.597v3.868h-8.597v9.052h-4.034v-9.052h-8.6v-3.868h8.6v-8.969
									H1403.486z"/>
							</g>
						</g>
					</g>
				</g>
			</g>
		</g>
		<g>
			<path d="M1384.451,1777.026c-0.237,0-0.479-0.034-0.72-0.105c-1.321-0.398-2.07-1.792-1.675-3.115l114.834-382.153
				c0.398-1.321,1.77-2.073,3.115-1.675c1.321,0.398,2.07,1.792,1.675,3.115l-114.834,382.153
				C1386.519,1776.328,1385.527,1777.026,1384.451,1777.026z"/>
			<path d="M1713.894,1777.026c-1.077,0-2.068-0.698-2.395-1.78l-114.834-382.153c-0.396-1.323,0.354-2.717,1.675-3.115
				c1.338-0.398,2.715,0.354,3.115,1.675l114.834,382.153c0.396,1.323-0.354,2.717-1.675,3.115
				C1714.373,1776.992,1714.131,1777.026,1713.894,1777.026z"/>
			<g>
				<path style="fill:#EDEDED;" d="M1348.311,1409.142l258.613-1.306c47.371-0.239,89.2-30.956,103.608-76.083l52.668-217.984
					l-192.932-73.417L1348.311,1409.142z"/>
				<path d="M1343.875,1411.663l225.33-374.392l1.953,0.745l194.99,74.202l-53.186,220.122
					c-14.832,46.477-57.422,77.751-106.025,77.998L1343.875,1411.663z M1571.333,1043.433l-218.586,363.186l254.165-1.282
					c46.431-0.234,87.114-30.112,101.24-74.343l52.102-215.671L1571.333,1043.433z"/>
			</g>
		</g>
		<g>
			<path style="fill:#D2D2D2;" d="M829.394,1451.86H657.795v-78.142h171.599V1451.86z M662.795,1446.86h161.599v-68.142H662.795
				V1446.86z"/>
			<path style="fill:#D2D2D2;" d="M740,1525H568.402v-78.14H740V1525z M573.402,1520H735v-68.14H573.402V1520z"/>
		</g>
		<g>
			<g>
				<path style="fill:#EDEDED;" d="M1744.959,607.222c-39.744,0-72.279,32.22-71.963,71.963
					c0.129,16.231,4.504,30.398,15.129,43.106c-4.375,9.792-16.411,17.455-29.12,22.866c17.87,4.217,34.537,0.675,45.55-6.42
					c11.519,7.83,25.425,12.41,40.404,12.41c39.744,0,71.963-32.219,71.963-71.963
					C1816.922,639.441,1784.703,607.222,1744.959,607.222z"/>
				<path d="M1745.3,706.473l-24.697-29.99c-0.527-0.64-0.437-1.585,0.203-2.112c0.64-0.525,1.584-0.437,2.112,0.205l21.782,26.45
					l25.291-49.775c0.378-0.74,1.287-1.028,2.017-0.658c0.74,0.376,1.033,1.279,0.659,2.018L1745.3,706.473z"/>
			</g>
			<g>
				<g>
					<g>
						<path style="fill:#929292;" d="M1211.104,1656.5l-37.32,116.919l-148.519-64.884c23.75-31.159,65-38.659,98.125-28.659
							l13.75-54.375L1211.104,1656.5z"/>
						<path style="fill:#FF5970;" d="M1622.943,1189.057l0.758,82.872l-285.636,103.325l-113.333,298.81l-125-50l64.931-290.545
							c4.933-21.819,15.015-42.14,29.405-59.267l0,0c22.403-26.666,53.929-44.04,88.439-48.737l246.374-33.534L1622.943,1189.057z"
							/>
					</g>
					<path style="fill:#D2D2D2;" d="M1262.482,1649.655l-39.683,124.323l-166.786-68.992c28.976-27.137,62.429-34.306,100.146-22.45
						l23.506-66.405L1262.482,1649.655z"/>
					<path style="fill:#FF5970;" d="M1680.565,1264.426c0.45,50.625-39.275,92.525-89.875,94.75l-195.775,8.575l-124.575,323.825
						l-15.925-6.375l-78.875-31.55l-30.2-12.075l83.7-348.75c9.7-35.175,38.7-61.65,74.575-68.175l175.925-32l22.05-4l178.2-7.1
						l0.5,52.625L1680.565,1264.426z"/>
					<polygon style="opacity:0.2;" points="1680.29,1234.176 1479.54,1192.651 1501.59,1188.651 1679.79,1181.551 					"/>
					<path d="M1145.342,1643.066c-0.112,0-0.227-0.015-0.342-0.039c-0.806-0.188-1.309-0.994-1.123-1.802l81.357-350.911
						c3.208-13.831,9.832-26.799,19.158-37.507c12.954-14.875,30.779-24.993,50.188-28.494l46.667-8.416
						c0.825-0.132,1.594,0.396,1.743,1.211c0.146,0.815-0.396,1.594-1.211,1.743l-46.667,8.416
						c-18.74,3.379-35.95,13.147-48.459,27.51c-9.001,10.339-15.398,22.861-18.494,36.216l-81.357,350.911
						C1146.641,1642.598,1146.023,1643.066,1145.342,1643.066z"/>
					<path d="M1172.766,1714.875c-0.889,0-1.748-0.474-2.2-1.309l-16.25-30c-0.659-1.216-0.208-2.732,1.006-3.389
						c1.216-0.657,2.732-0.208,3.389,1.006l16.25,30c0.659,1.216,0.208,2.732-1.006,3.389
						C1173.577,1714.778,1173.169,1714.875,1172.766,1714.875z"/>
					<path style="fill:#FFFFFF;" d="M1257.584,1625.878c-17.186-8.703-31.36-22.076-47.296-32.704
						c-14.728-9.822-31.232-16.504-48.598-19.725l-0.64,2.666c18.469,3.47,36.257,10.896,52.08,22.033
						c16.125,11.349,30.973,25.084,49.385,32.747c9.37,3.9,19.177,5.614,29.028,5.567l1.027-2.669
						C1280.966,1634.059,1269.24,1631.78,1257.584,1625.878z"/>
				</g>
				<g>
					<rect x="1512.265" y="789.501" style="fill:#FF8F78;" width="62.825" height="85"/>
					<path d="M1562.765,822.676c-7.2,15.125-31.15,34.025-50.5,42.175v-48.85L1562.765,822.676z"/>
					<path style="fill:#FF8F78;" d="M1571.925,789.6l-2,8.15l-6.85,27.75c-0.925,0.625-1.9,1.25-2.95,1.85
						c-12.05,6.975-32.325,12.575-47.85,12.125c-7.75-0.225-14.3-1.925-18.1-5.725c-5.175-5.175-8.525-14.825-10.65-25.75
						c-0.975-4.975-1.7-10.2-2.25-15.425c-1.175-11.325-1.45-22.55-1.45-30.6c-0.025-7.175,0.2-11.825,0.2-11.825l42.7-20.75
						l41.875,12.2l3.725,24.45l1.925,12.575l1.65,10.875L1571.925,789.6z"/>
					<path d="M1579.047,778.412c16.774-56.728,1.22-97.901-76.857-68.622c-67.097-34.464-79.907,97.596,39.953,35.989
						c10.951,7.312,19.568,17.556,24.094,32.939L1579.047,778.412z"/>
					
						<ellipse transform="matrix(0.3809 -0.9246 0.9246 0.3809 251.3572 1938.3325)" style="fill:#FF8F78;" cx="1573.151" cy="781.462" rx="16.673" ry="15.453"/>
					<g>
						<path d="M1504.375,801.666c-0.22,0-0.44-0.056-0.64-0.176c-0.352-0.209-0.71-0.405-1.064-0.599
							c-2.161-1.185-5.12-2.808-3.403-6.649c0.569-1.277,1.404-2.143,2.139-2.909c1.14-1.187,2.124-2.211,2.349-4.775
							c0.059-0.687,0.679-1.202,1.353-1.137c0.688,0.06,1.199,0.665,1.138,1.354c-0.3,3.444-1.753,4.956-3.037,6.29
							c-0.679,0.708-1.267,1.318-1.658,2.196c-0.706,1.577-0.19,2.059,2.322,3.438c0.381,0.208,0.767,0.42,1.142,0.643
							c0.593,0.353,0.789,1.121,0.435,1.714C1505.215,801.448,1504.8,801.666,1504.375,801.666z"/>
						<path d="M1512.915,770.316c-0.59,1.828,3.398,2.411,8.725,2.91c5.327,0.5,10.914,1.876,11.032,0.616
							c0.118-1.26-4.785-5.471-10.112-5.97C1517.233,767.373,1513.883,767.315,1512.915,770.316z"/>
						<path d="M1499.32,772.492c0.362,1.843-3.059,2.274-7.609,2.571c-4.549,0.297-9.385,1.459-9.391,0.199
							c-0.005-1.259,4.464-5.269,9.014-5.566C1495.884,769.398,1498.725,769.467,1499.32,772.492z"/>
						<path d="M1508.777,813.827c-2.175,0-4.368-0.433-6.418-1.459c-0.618-0.309-0.867-1.06-0.559-1.677
							c0.31-0.618,1.069-0.862,1.677-0.559c6.128,3.062,14.097-0.349,17.261-3.882c0.464-0.515,1.255-0.555,1.763-0.098
							c0.515,0.46,0.559,1.251,0.098,1.765C1519.878,810.957,1514.38,813.827,1508.777,813.827z"/>
						<ellipse cx="1519.167" cy="783.229" rx="3.125" ry="4.063"/>
						<ellipse cx="1493.542" cy="783.229" rx="3.125" ry="4.063"/>
						<circle style="opacity:0.4;fill:#FF5970;" cx="1536.25" cy="793.75" r="7.813"/>
						<path style="opacity:0.4;fill:#FF5970;" d="M1490,800.3c0,3.875-2.8,7.075-6.475,7.7c-0.975-4.975-1.7-10.2-2.25-15.425
							c0.3-0.05,0.625-0.075,0.925-0.075C1486.5,792.5,1490,796,1490,800.3z"/>
					</g>
					<path d="M1569.688,790.938c-0.571,0-1.084-0.391-1.218-0.969c-1.167-5.061-0.525-9.706,1.763-12.743
						c1.606-2.13,3.879-3.331,6.577-3.474c0.681-0.016,1.279,0.494,1.313,1.183c0.037,0.69-0.493,1.278-1.182,1.315
						c-1.936,0.101-3.564,0.96-4.712,2.48c-1.843,2.446-2.324,6.338-1.323,10.677c0.154,0.673-0.264,1.344-0.938,1.499
						C1569.873,790.928,1569.78,790.938,1569.688,790.938z"/>
				</g>
				<g>
					<path style="fill:#FFD966;" d="M1808.265,1086.601l-108.35-0.45v90.025c0,2.275-0.3,4.475-0.85,6.575
						c-2.925,11.025-13,19.15-24.95,19.075l-236.35-1.775c-13.4-0.1-23.825-11.7-22.475-25.05l8.8-86.35l-57.5-83.75l13.475-48.025
						c9.55-34.025,35.475-61.025,69.075-71.95l63.726-20.673L1545,874.375l22.429-14.443l73.886,9.443
						c37.325,4.775,70.05,27.225,87.95,60.325l67.275,124.45C1802.065,1064.351,1805.99,1075.301,1808.265,1086.601z"/>
					<path d="M1478.923,1044.449l14.549-0.346l125.003-58.269c2.92-1.361,4.184-4.832,2.823-7.752
						c-1.361-2.92-4.832-4.184-7.752-2.823l-125.003,58.269L1478.923,1044.449z"/>
					<g>
						<polygon style="fill:#FFD966;" points="1512.348,855.292 1544.568,874.674 1519.583,897.5 1484.848,874.042 						"/>
						<polygon style="fill:#FFD966;" points="1544.568,874.674 1570.833,894.583 1594.848,863.209 1575.265,849.876 						"/>
					</g>
					<path d="M1519.719,898.545l-35.688-23.245c-0.696-0.453-0.891-1.382-0.439-2.076c0.454-0.692,1.387-0.885,2.075-0.438
						l33.779,22.002l25.034-22.035l26.467,19.336l22.708-29.789c0.503-0.659,1.445-0.786,2.102-0.283
						c0.659,0.502,0.786,1.443,0.286,2.102l-24.49,32.125l-26.897-19.648L1519.719,898.545z"/>
					<path style="opacity:0.2;" d="M1699.915,1094.151v82.025c0,2.275-0.3,4.475-0.85,6.575
						c-40.911-20.134-79.422-51.919-116.65-89.925L1699.915,1094.151z"/>
					<g>
						<path style="fill:#FF8F78;" d="M1614.09,1021.148l-44.26-36.6c-2.692-2.226-6.493-2.516-9.491-0.725l-34.85,20.51
							c-1.304,0.767-2.282,1.984-2.752,3.422l-4.271,13.081c-2.603,4.984-3.518,10.525-3.654,16.323
							c-0.555,2.48,1.135,4.904,3.654,5.24l0,0l-0.643,13.726c-0.165,3.518,2.452,6.549,5.956,6.899l0,0l1.908,8.15
							c0.789,3.372,4.478,5.167,7.619,3.708l16.099-7.483l33.013,25.425l33.862-28.237L1614.09,1021.148z"/>
						<g>
							<path d="M1517.813,1022.627c-0.596,0-1.162-0.359-1.394-0.95c-0.305-0.769,0.071-1.641,0.842-1.946l30.444-12.06
								c0.774-0.308,1.643,0.071,1.946,0.842c0.305,0.769-0.071,1.641-0.842,1.946l-30.444,12.06
								C1518.184,1022.593,1517.996,1022.627,1517.813,1022.627z"/>
							<path d="M1518.464,1043.899c-0.586,0-1.145-0.349-1.384-0.925c-0.32-0.764,0.042-1.643,0.808-1.96l22.5-9.375
								c0.759-0.317,1.643,0.044,1.96,0.808c0.32,0.764-0.042,1.643-0.808,1.96l-22.5,9.375
								C1518.852,1043.86,1518.657,1043.899,1518.464,1043.899z"/>
							<path d="M1523.779,1064.521c-0.505,0-0.996-0.254-1.279-0.713c-0.435-0.706-0.215-1.631,0.491-2.063l18.647-11.458
								c0.715-0.435,1.631-0.21,2.063,0.491c0.434,0.706,0.215,1.631-0.491,2.063l-18.647,11.458
								C1524.316,1064.451,1524.045,1064.521,1523.779,1064.521z"/>
						</g>
					</g>
					<path style="fill:#FFD966;" d="M1810.49,1113.622c-0.4,12.025-4.875,23.15-12.15,31.9c-7.3,8.775-17.425,15.175-29.175,17.775
						c-3.75,0.825-7.525,1.225-11.325,1.225c-7.225,0-14.425-1.475-21.125-4.4l-154.3-67.3l31.675-71.675l194.175,65.45
						C1810.065,1095.447,1810.815,1104.522,1810.49,1113.622z"/>
					<path d="M1759.431,1074.294c-0.166,0-0.337-0.029-0.503-0.088l-145.342-51.646c-0.779-0.278-1.189-1.135-0.911-1.917
						c0.278-0.779,1.13-1.186,1.917-0.911l145.342,51.646c0.779,0.278,1.189,1.135,0.911,1.917
						C1760.625,1073.909,1760.049,1074.294,1759.431,1074.294z"/>
					<path d="M1432.048,1067.703c-0.784,0-1.445-0.61-1.494-1.404l-6.719-106.151c-0.054-0.828,0.576-1.539,1.401-1.592
						c0.803-0.072,1.54,0.575,1.592,1.401l6.719,106.151c0.054,0.828-0.576,1.541-1.401,1.592
						C1432.114,1067.703,1432.08,1067.703,1432.048,1067.703z"/>
					<path d="M1694.331,1050.19c-0.637,0-1.228-0.41-1.431-1.05l-26.875-85.326c-0.249-0.79,0.19-1.632,0.979-1.881
						c0.793-0.258,1.631,0.189,1.882,0.98l26.875,85.323c0.249,0.791-0.19,1.633-0.979,1.882
						C1694.631,1050.166,1694.48,1050.19,1694.331,1050.19z"/>
					<g>
						<polygon style="fill:#599BFF;" points="1284.09,992.398 1429.09,994.898 1526.59,1163.647 1377.84,1161.147 						"/>
						<path d="M1335.409,991.14l5.518,10.465c0.556,1.055,1.639,1.727,2.832,1.758l29.819,0.758
							c2.398,0.061,4.056-2.379,3.116-4.587l-4.354-10.223c-0.503-1.18-1.644-1.961-2.926-2.003l-30.982-0.999
							C1335.903,986.227,1334.229,988.904,1335.409,991.14z"/>
					</g>
					<g>
						<path style="fill:#FF8F78;" d="M1304.723,1068.005c37.202-24.204,78.864-47.183,69.802-19.566
							c10.702-1.89,15.239,4.095,7.907,14.237c11.159-1.021,13.982,5.321-0.177,21.524c21.833-2.674,3.597,18.888-32.85,44.045
							c-5.675,3.917-12.35,6.164-19.239,6.445l-4.116,0.168c-12.93,0.527-25.166-5.856-32.13-16.763l0,0
							c-6.813-10.67-7.585-24.115-2.041-35.495l0.033-0.069C1294.793,1076.619,1299.211,1071.591,1304.723,1068.005z"/>
						<g>
							<path d="M1334.285,1074.805c-0.503,0-0.994-0.251-1.279-0.71c-0.435-0.706-0.217-1.628,0.488-2.065l40.242-24.868
								c0.708-0.435,1.628-0.215,2.065,0.488c0.435,0.706,0.217,1.628-0.488,2.065l-40.242,24.868
								C1334.824,1074.734,1334.553,1074.805,1334.285,1074.805z"/>
							<path d="M1344.312,1087.007c-0.51,0-1.008-0.259-1.289-0.728c-0.425-0.71-0.195-1.633,0.515-2.058l38.123-22.832
								c0.715-0.425,1.633-0.193,2.058,0.515c0.425,0.71,0.195,1.633-0.515,2.058l-38.123,22.832
								C1344.839,1086.938,1344.573,1087.007,1344.312,1087.007z"/>
							<path d="M1348.528,1108.87c-0.479,0-0.947-0.227-1.238-0.649c-0.471-0.684-0.298-1.616,0.386-2.085l33.73-23.171
								c0.683-0.471,1.616-0.293,2.085,0.386c0.471,0.684,0.298,1.616-0.386,2.085l-33.73,23.171
								C1349.116,1108.784,1348.818,1108.87,1348.528,1108.87z"/>
						</g>
					</g>
					<circle cx="1547.188" cy="910.938" r="5.937"/>
				</g>
			</g>
			<g>
				<g>
					<g>
						<path d="M994.164,1164.993c-0.449,0-0.903-0.12-1.314-0.374c-1.174-0.728-1.537-2.268-0.809-3.442l121.809-196.708
							l31.255-2.605c1.406-0.114,2.585,0.909,2.698,2.284c0.115,1.376-0.906,2.584-2.283,2.699l-28.745,2.395l-120.483,194.567
							C995.819,1164.573,995.001,1164.993,994.164,1164.993z"/>
						<polygon style="fill:#D2D2D2;" points="1123.082,865.396 1156.202,841.415 1195.348,1089.862 1157.188,1081.855 						"/>
					</g>
				</g>
				<g>
					<g>
						<path d="M818.245,1772.175c-0.338,0-0.682-0.068-1.011-0.215c-1.262-0.559-1.833-2.034-1.274-3.298l267.4-603.909
							c0.557-1.26,2.031-1.833,3.298-1.272c1.262,0.559,1.831,2.034,1.272,3.298l-267.398,603.909
							C820.118,1771.621,819.204,1772.175,818.245,1772.175z"/>
						<path d="M1585.374,1772.175c-0.959,0-1.875-0.554-2.288-1.487l-267.397-603.909c-0.559-1.265,0.01-2.739,1.272-3.298
							c1.265-0.566,2.739,0.012,3.298,1.272l267.397,603.909c0.559,1.265-0.01,2.739-1.272,3.298
							C1586.055,1772.107,1585.71,1772.175,1585.374,1772.175z"/>
					</g>
					<rect x="829.617" y="1161.816" width="744.383" height="17.906"/>
				</g>
			</g>
		</g>
		<g>
			<g>
				
					<rect x="373.469" y="1227.001" transform="matrix(-1 -1.224647e-16 1.224647e-16 -1 756.298 3002.094)" width="9.36" height="548.092"/>
				<g>
					<path style="fill:#FF5970;" d="M258.519,1278.223h274.388v-110.635c0-25.238-20.459-45.697-45.697-45.697H304.216
						c-25.238,0-45.697,20.459-45.697,45.697V1278.223z"/>
					<path style="fill:#FF5970;" d="M441.514,1278.223h91.394v-110.635c0-25.238-20.459-45.697-45.697-45.697h0
						c-25.238,0-45.697,20.459-45.697,45.697V1278.223z"/>
					<path style="fill:#FFFFFF;" d="M443.855,1278.655h-4.683v-111.067c0-26.489,21.549-48.037,48.038-48.037
						c26.489,0,48.038,21.548,48.038,48.037v110.635h-4.683v-110.635c0-23.906-19.449-43.354-43.356-43.354
						c-23.906,0-43.356,19.448-43.356,43.354V1278.655z"/>
					<g>
						<g>
							
								<rect x="357.692" y="1031.622" transform="matrix(-1 -1.224647e-16 1.224647e-16 -1 728.4246 2206.7761)" width="13.04" height="143.532"/>
							<path style="fill:#FF5970;" d="M338.2,1098.716h32.533v-67.094H338.2c-6.12,0-11.082,4.962-11.082,11.082v44.93
								C327.118,1093.755,332.079,1098.716,338.2,1098.716z"/>
						</g>
						<path d="M351.633,1191.868h25.172c2.351,0,4.258-1.906,4.258-4.258v-27.346c0-2.351-1.906-4.258-4.258-4.258h-25.172
							c-2.351,0-4.258,1.906-4.258,4.258v27.346C347.375,1189.962,349.281,1191.868,351.633,1191.868z"/>
					</g>
				</g>
			</g>
			<g>
				
					<rect x="328.496" y="950.834" transform="matrix(0.294 -0.9558 0.9558 0.294 -655.2775 1019.518)" style="fill:#D2D2D2;" width="68.007" height="4.999"/>
				
					<rect x="307.499" y="899.698" transform="matrix(0.9393 -0.3432 0.3432 0.9393 -305.7834 163.8414)" style="fill:#D2D2D2;" width="5.001" height="92.271"/>
				
					<rect x="271.667" y="944.493" transform="matrix(0.6156 -0.788 0.788 0.6156 -665.5756 592.0854)" style="fill:#D2D2D2;" width="5" height="67.68"/>
			</g>
		</g>
		<rect y="1771.147" width="2000" height="5"/>
	</g>
</g>
</svg>
