<?xml version="1.0" encoding="utf-8"?>
<!-- Generator: Adobe Illustrator 27.5.0, SVG Export Plug-In . SVG Version: 6.00 Build 0)  -->
<svg version="1.1" xmlns="http://www.w3.org/2000/svg" xmlns:xlink="http://www.w3.org/1999/xlink" x="0px" y="0px"
	 viewBox="0 0 500 500" style="enable-background:new 0 0 500 500;" xml:space="preserve">
<g id="BACKGROUND">
</g>
<g id="OBJECTS">
	<path style="fill:#E8E0FE;" d="M259.611,403.983c-0.257-0.093-0.516-0.181-0.772-0.276c-0.075,0.093-0.154,0.183-0.23,0.276H84.33
		c-16.007-19.459-25.704-44.245-25.704-71.054c0-41.47,22.416-77.701,55.792-97.244c25.916-15.175,47.817-36.387,63.231-62.162
		c27.995-46.811,79.421-77.993,138.083-77.336c87.393,0.979,158.026,73.467,156.844,160.857
		c-0.914,67.601-44.103,124.991-104.329,146.939H259.611z"/>
	<g>
		<g>
			<polygon style="fill:#FFCF50;stroke:#1D1D1B;stroke-width:0.5;stroke-miterlimit:10;" points="36.43,241.204 26.43,174.48 
				129.366,174.48 129.366,241.204 			"/>
			<path style="fill:#FFCF50;stroke:#1D1D1B;stroke-width:0.5;stroke-miterlimit:10;" d="M36.43,241.204v-55.221
				c0-6.353,5.15-11.502,11.502-11.502h81.434v66.723H36.43z"/>
		</g>
		
			<rect x="50.898" y="102.821" style="fill:#FFCF50;stroke:#1D1D1B;stroke-width:0.5;stroke-miterlimit:10;" width="42.553" height="44.596"/>
		
			<rect x="140.259" y="82.66" style="fill:#FFCF50;stroke:#1D1D1B;stroke-width:0.5;stroke-miterlimit:10;" width="27.196" height="28.502"/>
	</g>
	<g>
		<polygon style="fill:#FFFFFF;stroke:#1D1D1B;stroke-width:0.5;stroke-miterlimit:10;" points="153.406,226.821 63.579,226.821 
			63.579,284.211 132.184,284.211 142.817,296.617 142.817,284.211 153.406,284.211 		"/>
		<polygon style="fill:#FFFFFF;stroke:#1D1D1B;stroke-width:0.5;stroke-miterlimit:10;" points="154.047,96.353 108.43,96.353 
			108.43,159.331 136.925,159.331 146.489,170.489 146.489,159.331 154.047,159.331 		"/>
	</g>
	<g>
		<g>
			<path style="fill:#8150FE;" d="M235.408,146.395l108.209,2.836c33.537,0.879,60.058,28.697,59.336,62.238l-6.507,192.892
				l-126.315-0.605l7.83-86.128L260.94,208.012l-76.255-9.532L235.408,146.395z"/>
			<polygon style="fill:#01BCFF;" points="278.302,318.991 277.812,319.275 270.132,403.757 396.447,404.362 399.255,319.596 			"/>
			
				<line style="fill:#FFFFFF;stroke:#1D1D1B;stroke-width:0.5;stroke-linecap:round;stroke-miterlimit:10;" x1="351.323" y1="244.012" x2="351.323" y2="207.842"/>
			
				<line style="fill:#FFFFFF;stroke:#1D1D1B;stroke-width:0.5;stroke-linecap:round;stroke-miterlimit:10;" x1="343.834" y1="214.48" x2="351.153" y2="233.204"/>
			<polygon style="fill:#FF9492;" points="232.424,204.448 235.408,146.395 184.685,198.48 			"/>
			<g>
				<path style="fill:#FF9492;" d="M311.289,194.302c17.692,0,32.034-14.342,32.034-32.034c0-4.732-1.034-9.219-2.876-13.261
					l-57.582-1.509c-2.302,4.421-3.611,9.441-3.611,14.77C279.255,179.96,293.598,194.302,311.289,194.302z"/>
				<polyline style="fill:#FF9492;stroke:#1D1D1B;stroke-width:0.5;stroke-miterlimit:10;" points="302.642,153.204 292.6,173.63 
					308.259,189.119 				"/>
				
					<ellipse transform="matrix(0.7071 -0.7071 0.7071 0.7071 -25.6641 246.5769)" style="fill:#FF9492;" cx="284.813" cy="154.268" rx="30.766" ry="30.766"/>
				
					<ellipse transform="matrix(0.7071 -0.7071 0.7071 0.7071 -25.6641 246.5769)" style="fill:none;stroke:#1D1D1B;stroke-width:0.5;stroke-linecap:round;stroke-miterlimit:10;" cx="284.813" cy="154.268" rx="30.766" ry="30.766"/>
				<path style="fill:#FFCF50;" d="M255.834,142.14l58.213,1.277l-12.293-41.767c-3.235-10.991-18.201-12.462-23.514-2.312
					L255.834,142.14z"/>
				<g>
					<path style="fill:#1D1D1B;" d="M267.291,162.53c0.347,1.908-0.243,3.613-1.318,3.808c-1.075,0.196-2.228-1.192-2.576-3.099
						c-0.347-1.908,0.243-3.613,1.318-3.808C265.791,159.235,266.944,160.623,267.291,162.53z"/>
					<path style="fill:#1D1D1B;" d="M284.27,160.998c0.347,1.908-0.243,3.613-1.318,3.808c-1.075,0.196-2.228-1.192-2.576-3.099
						c-0.347-1.908,0.243-3.613,1.318-3.808C282.77,157.703,283.923,159.091,284.27,160.998z"/>
					<path style="fill:none;stroke:#1D1D1B;stroke-width:0.5;stroke-linecap:round;stroke-miterlimit:10;" d="M270.387,154.651
						l2.803,7.009c0.39,0.974,0.449,2.05,0.169,3.061l-1.273,4.594c-0.366,1.318,0.468,2.669,1.81,2.933l3.13,0.617"/>
					
						<line style="fill:none;stroke:#1D1D1B;stroke-width:2;stroke-linecap:round;stroke-miterlimit:10;" x1="259.6" y1="155.289" x2="263.749" y2="150.119"/>
					<path style="fill:none;stroke:#1D1D1B;stroke-width:2;stroke-linecap:round;stroke-miterlimit:10;" d="M278.685,149.736
						c0.191-0.064,7.723,2.553,7.723,2.553"/>
					<path style="fill:none;stroke:#1D1D1B;stroke-width:0.5;stroke-linecap:round;stroke-miterlimit:10;" d="M279.004,176.736
						c0,0,1.915-3.702,6-3.766"/>
				</g>
				<path style="fill:#FF9492;" d="M321.876,149.8c0-5.116-4.426-9.199-9.658-8.627c-4,0.437-7.242,3.705-7.656,7.708
					c-0.123,1.186-0.005,2.328,0.31,3.385c0.392,1.315,1.088,2.5,2.004,3.474c-0.495,0.644-0.866,1.388-1.071,2.199
					c-0.206,0.81-0.247,1.686-0.084,2.592c0.463,2.567,2.627,4.585,5.217,4.887c3.661,0.426,6.768-2.424,6.768-6
					c0-0.094-0.002-0.188-0.007-0.281c-0.052-1.096,0.442-2.119,1.262-2.848C320.75,154.698,321.876,152.381,321.876,149.8z"/>
				<path style="fill:none;stroke:#1D1D1B;stroke-width:0.5;stroke-miterlimit:10;" d="M305.722,160.53
					c0.463,2.567,2.627,4.585,5.217,4.887c3.661,0.426,6.768-2.424,6.768-6c0-0.094-0.002-0.188-0.007-0.281
					c-0.052-1.096,0.442-2.119,1.262-2.848c1.788-1.59,2.915-3.907,2.915-6.488c0-5.116-4.426-9.199-9.658-8.627
					c-4,0.437-7.242,3.705-7.656,7.708c-0.123,1.186-0.005,2.328,0.31,3.385"/>
			</g>
			
				<line style="fill:none;stroke:#1D1D1B;stroke-width:0.5;stroke-miterlimit:10;" x1="258.064" y1="189.894" x2="260.94" y2="208.012"/>
			
				<line style="fill:none;stroke:#1D1D1B;stroke-width:0.5;stroke-miterlimit:10;" x1="376.787" y1="319.34" x2="376.787" y2="404.362"/>
			<g>
				<g>
					<path style="fill:#FF9492;" d="M351.323,228.055l-2.043,50.043l-54.638,66.383l-4.803-0.842
						c-9.741-1.707-19.77,0.187-28.217,5.329h0l-17.212,8.773c-2.989,1.524-4.422,5.156-2.989,8.19
						c1.483,3.139,5.254,4.411,8.325,2.846l21.432-9.944l-14.206,12.438c-2.524,2.21-3.023,6.083-0.889,8.672
						c2.208,2.68,6.175,2.988,8.769,0.717l1.296-1.135c-0.224,1.746,0.295,3.58,1.606,4.976c2.289,2.439,6.179,2.448,8.696,0.244
						l1.098-0.961c-0.527,1.918-0.113,4.055,1.295,5.664h0c2.229,2.546,6.101,2.803,8.647,0.574l11.654-10.204
						c0.488-0.427,0.89-0.916,1.209-1.443l14.027-1.448c7.571-0.782,14.595-4.307,19.745-9.911l57.678-62.76
						c5.644-5.644,8.881-13.254,9.032-21.234l1.611-54.83L351.323,228.055z"/>
					<g>
						<path style="fill:none;stroke:#1D1D1B;stroke-width:0.5;stroke-linecap:round;stroke-miterlimit:10;" d="M299.144,379.819
							l-11.654,10.204c-2.546,2.229-6.417,1.972-8.647-0.574h0c-2.229-2.546-1.972-6.418,0.574-8.647l11.654-10.204"/>
						<path style="fill:none;stroke:#1D1D1B;stroke-width:0.5;stroke-linecap:round;stroke-miterlimit:10;" d="M277.548,383.785
							l-1.292,1.131c-2.546,2.229-6.417,1.973-8.647-0.574l0,0c-2.229-2.546-1.973-6.417,0.574-8.647l16.288-14.261"/>
						<path style="fill:none;stroke:#1D1D1B;stroke-width:0.5;stroke-linecap:round;stroke-miterlimit:10;" d="M266.148,379.526
							l-1.296,1.135c-2.546,2.229-6.418,1.972-8.647-0.574h0c-2.229-2.546-1.972-6.418,0.574-8.647l21.034-18.417"/>
					</g>
				</g>
				
					<line style="fill:none;stroke:#1D1D1B;stroke-width:0.5;stroke-miterlimit:10;" x1="294.642" y1="344.481" x2="358.404" y2="267.128"/>
			</g>
			<g>
				<path style="fill:#FF9492;stroke:#1D1D1B;stroke-width:0.5;stroke-miterlimit:10;" d="M262.185,126.701
					c-0.244-0.141-0.499-0.243-0.754-0.34l0.046-0.079c1.043-1.807,1.108-4.062,0.035-5.851c-0.848-1.414-1.988-1.955-3.156-2.191
					c0.944-2.325,0.076-5.043-2.158-6.333c-1.925-1.111-4.259-0.81-5.858,0.556c-2.422-1.307-5.457-0.47-6.842,1.929l-7.713,13.36
					c-0.178,0.309-0.32,0.629-0.427,0.955l-2.469,4.879c-1.628,3.215-4.673,5.478-8.221,6.109l-44.407,7.892l0.044,0.133
					c-11.76,2.283-20.64,12.631-20.64,25.058c0,14.101,11.431,25.532,25.532,25.532c4.491,0,8.709-1.164,12.376-3.2l45.038-22.201
					c13.735-6.939,15.437-28.216,15.437-28.216l-0.249-0.181l6.256-10.836C265.464,131.234,264.627,128.111,262.185,126.701z"/>
				<g>
					<path style="fill:none;stroke:#1D1D1B;stroke-width:0.5;stroke-linecap:round;stroke-miterlimit:10;" d="M247.869,141.284
						l7.34-12.714c1.41-2.442,4.533-3.279,6.975-1.869l0,0c2.442,1.41,3.279,4.533,1.869,6.975l-7.341,12.714"/>
					<path style="fill:none;stroke:#1D1D1B;stroke-width:0.5;stroke-linecap:round;stroke-miterlimit:10;" d="M244.259,135.672
						l8.665-15.002c1.41-2.442,4.533-3.279,6.975-1.869l0,0c2.442,1.41,3.279,4.533,1.869,6.975"/>
					<path style="fill:none;stroke:#1D1D1B;stroke-width:0.5;stroke-linecap:round;stroke-miterlimit:10;" d="M238.728,132.183
						l10.494-18.406c1.41-2.442,4.533-3.279,6.975-1.869l0,0c2.235,1.291,3.126,4.016,2.18,6.341"/>
				</g>
			</g>
		</g>
		<g>
			<path style="fill:none;stroke:#1D1D1B;stroke-width:0.5;stroke-miterlimit:10;" d="M309.977,158.685c0,0-1.182-9.571,6.653-9.682
				"/>
			<path style="fill:none;stroke:#1D1D1B;stroke-width:0.5;stroke-miterlimit:10;" d="M310.017,155.997c0,0,1.9-3.598,5.163-2.003"
				/>
		</g>
	</g>
	<g>
		<circle style="fill:none;stroke:#1D1D1B;stroke-width:0.5;stroke-miterlimit:10;" cx="410.553" cy="381.076" r="17.019"/>
		<polygon style="fill:#FFCF50;" points="400.776,404.106 368.403,404.106 359.894,358.915 409.285,358.915 		"/>
	</g>
	<g>
		<polygon style="fill:#FFFFFF;stroke:#1D1D1B;stroke-width:0.5;stroke-miterlimit:10;" points="212.94,403.757 107.068,403.757 
			77.068,316.268 182.94,316.268 		"/>
		
			<rect x="105.451" y="399.502" style="fill:#FFFFFF;stroke:#1D1D1B;stroke-width:0.5;stroke-miterlimit:10;" width="175.404" height="4.34"/>
	</g>
	
		<line style="fill:#FFFFFF;stroke:#1D1D1B;stroke-linecap:round;stroke-miterlimit:10;" x1="440.685" y1="404.438" x2="70.302" y2="404.438"/>
</g>
</svg>
