<?xml version="1.0" encoding="utf-8"?>
<!-- Generator: Adobe Illustrator 27.5.0, SVG Export Plug-In . SVG Version: 6.00 Build 0)  -->
<svg version="1.1" xmlns="http://www.w3.org/2000/svg" xmlns:xlink="http://www.w3.org/1999/xlink" x="0px" y="0px"
	 viewBox="0 0 500 500" style="enable-background:new 0 0 500 500;" xml:space="preserve">
<g id="BACKGROUND">
</g>
<g id="OBJECTS">
	<path style="fill:#e3ebeb;" d="M253.257,429.077c0.257-0.094,0.516-0.182,0.772-0.276c0.075,0.093,0.154,0.183,0.23,0.276h174.279
		c16.007-19.459,25.704-44.246,25.704-71.054c0-41.47-22.416-77.701-55.792-97.244c-25.916-15.175-47.817-36.388-63.231-62.162
		c-27.995-46.811-79.421-77.993-138.083-77.336c-87.393,0.979-158.026,73.467-156.844,160.857
		c0.914,67.601,44.103,124.991,104.329,146.939H253.257z"/>
	<g>
		<g>
			<polygon style="fill:#FFCF50;stroke:#1D1D1B;stroke-width:0.5;stroke-miterlimit:10;" points="421.014,243.906 314.858,243.906 
				314.858,167.936 431.014,167.936 			"/>
			<path style="fill:#FFCF50;stroke:#1D1D1B;stroke-width:0.5;stroke-miterlimit:10;" d="M421.014,243.906H314.858v-75.97h82.887
				c12.851,0,23.27,10.418,23.27,23.27V243.906z"/>
		</g>
		<g>
			
				<rect x="376.529" y="64.787" style="fill:#FFCF50;stroke:#1D1D1B;stroke-width:0.5;stroke-miterlimit:10;" width="66.279" height="78.075"/>
			<g>
				
					<line style="fill:none;stroke:#1D1D1B;stroke-width:0.5;stroke-miterlimit:10;" x1="391.796" y1="82.378" x2="427.54" y2="82.378"/>
				
					<line style="fill:none;stroke:#1D1D1B;stroke-width:0.5;stroke-miterlimit:10;" x1="391.796" y1="93.102" x2="427.54" y2="93.102"/>
				
					<line style="fill:none;stroke:#1D1D1B;stroke-width:0.5;stroke-miterlimit:10;" x1="391.796" y1="103.825" x2="427.54" y2="103.825"/>
				
					<line style="fill:none;stroke:#1D1D1B;stroke-width:0.5;stroke-miterlimit:10;" x1="391.796" y1="114.548" x2="427.54" y2="114.548"/>
				
					<line style="fill:none;stroke:#1D1D1B;stroke-width:0.5;stroke-miterlimit:10;" x1="391.796" y1="125.272" x2="427.54" y2="125.272"/>
			</g>
		</g>
	</g>
	<g>
		<polygon style="fill:#FFFFFF;stroke:#1D1D1B;stroke-width:0.5;stroke-miterlimit:10;" points="359.671,130.761 246.956,130.761 
			246.956,189.803 260.872,189.803 260.872,203.34 269.275,189.803 359.671,189.803 		"/>
		<polygon style="fill:#FFFFFF;stroke:#1D1D1B;stroke-width:0.5;stroke-miterlimit:10;" points="441.362,221.043 363.381,221.043 
			363.381,261.889 373.009,261.889 373.009,271.255 378.822,261.889 441.362,261.889 		"/>
	</g>
	<g>
		<g>
			<path style="fill:#454545;" d="M148.786,241.529c-21.767,0.785-39.656,18.273-40.908,40.018
				c-0.018,0.312-0.033,0.623-0.044,0.933c-0.286,7.889-6.111,14.351-13.869,15.812c-22.265,4.194-42.736,25.584-42.736,46.851
				c0,27.055,22.421,48.873,49.696,47.887c24.349-0.88,44.404-20.299,46.032-44.609c0.537-8.018-0.915-15.641-3.889-22.446
				c2.37,0.41,4.804,0.635,7.291,0.635c23.502,0,42.554-19.052,42.554-42.554C192.914,260.031,173.006,240.656,148.786,241.529z"/>
			<path style="fill:#454545;" d="M248.039,229.274c21.766,0.785,39.656,18.273,40.908,40.018c0.018,0.312,0.033,0.623,0.044,0.933
				c0.286,7.889,6.111,14.351,13.869,15.812c22.265,4.194,42.736,25.584,42.736,46.851c0,27.055-22.421,48.873-49.696,47.887
				c-24.349-0.88-44.404-20.299-46.032-44.609c-0.537-8.018,0.915-15.641,3.889-22.446c-2.37,0.41-4.804,0.635-7.291,0.635
				c-23.502,0-42.554-19.052-42.554-42.554C203.91,247.775,223.819,228.401,248.039,229.274z"/>
		</g>
		<g>
			<path style="fill:#42696e;" d="M197.71,330.389c0-26.128-21.181-47.31-47.31-47.31c-18.117,0-33.849,10.189-41.797,25.144
				l-0.31-0.107l-1.298,3.445c-0.615,1.416-1.162,2.867-1.639,4.35L62.404,429.383h134.809l-0.316-90.286
				C197.423,336.273,197.71,333.366,197.71,330.389z"/>
			<polygon style="fill:#fcb99a;" points="127.071,348.192 187.062,300.394 233.64,358.678 169.016,408.914 			"/>
			<polygon style="fill:#42696e;" points="154.188,387.448 216.883,337.71 187.062,300.394 127.071,348.192 			"/>
			<g>
				<defs>
					<path id="SVGID_1_" d="M216.883,337.71l-29.821-37.316l-0.048,0.038c-8.676-10.591-21.854-17.352-36.613-17.352
						c-18.117,0-33.849,10.189-41.797,25.144l-0.31-0.107l-1.298,3.445c-0.615,1.416-1.162,2.867-1.639,4.35L62.404,429.383h134.809
						l-0.344-75.795L216.883,337.71z"/>
				</defs>
				<clipPath id="SVGID_00000058591320475221574210000016696080107301965711_">
					<use xlink:href="#SVGID_1_"  style="overflow:visible;"/>
				</clipPath>
				<g style="clip-path:url(#SVGID_00000058591320475221574210000016696080107301965711_);">
					<path style="fill:none;stroke:#FFFFFF;stroke-width:1;stroke-miterlimit:10;" d="M86.723,388.091
						c-0.006-0.136-0.014-0.272-0.023-0.408c-0.695-10.272-9.551-18.396-19.845-18.211c-10.622,0.191-19.174,8.861-19.174,19.529
						c0,7.138,3.832,13.371,9.551,16.772c4.297,2.555,7.088,6.974,7.321,11.967c0.006,0.136,0.014,0.272,0.023,0.408
						c0.695,10.272,9.55,18.396,19.845,18.211c10.622-0.191,19.174-8.861,19.174-19.529c0-7.138-3.832-13.371-9.551-16.772
						C89.748,397.503,86.957,393.084,86.723,388.091z"/>
					<path style="fill:none;stroke:#FFFFFF;stroke-width:1;stroke-miterlimit:10;" d="M115.56,310.562
						c0.021-0.134,0.041-0.269,0.06-0.405c1.394-10.201-5.639-19.946-15.758-21.844c-10.442-1.959-20.569,4.806-22.724,15.254
						c-1.442,6.991,1.053,13.87,5.967,18.355c3.692,3.37,5.533,8.262,4.753,13.199c-0.021,0.134-0.041,0.269-0.06,0.405
						c-1.394,10.201,5.638,19.946,15.758,21.844c10.442,1.959,20.569-4.806,22.723-15.254c1.442-6.991-1.053-13.87-5.967-18.355
						C116.621,320.392,114.78,315.5,115.56,310.562z"/>
					<path style="fill:none;stroke:#FFFFFF;stroke-width:1;stroke-miterlimit:10;" d="M175.366,386.875
						c0.068-0.118,0.135-0.236,0.201-0.356c4.976-9.014,1.926-20.638-6.829-26.054c-9.035-5.589-20.919-2.928-26.693,6.042
						c-3.864,6.002-4.015,13.318-1.047,19.272c2.23,4.474,2.185,9.701-0.321,14.026c-0.068,0.118-0.135,0.236-0.201,0.356
						c-4.976,9.014-1.926,20.638,6.829,26.054c9.035,5.589,20.919,2.928,26.693-6.042c3.864-6.002,4.015-13.318,1.047-19.272
						C172.815,396.427,172.86,391.2,175.366,386.875z"/>
					<path style="fill:none;stroke:#FFFFFF;stroke-width:1;stroke-miterlimit:10;" d="M192.574,312.291
						c0.136-0.002,0.272-0.006,0.409-0.01c10.289-0.371,18.687-8.967,18.827-19.262c0.144-10.623-8.253-19.444-18.915-19.78
						c-7.135-0.225-13.486,3.41-17.064,9.018c-2.689,4.214-7.194,6.865-12.192,6.941c-0.136,0.002-0.272,0.006-0.409,0.01
						c-10.289,0.371-18.687,8.967-18.827,19.262c-0.144,10.623,8.253,19.444,18.915,19.78c7.135,0.225,13.486-3.41,17.064-9.018
						C183.071,315.018,187.576,312.367,192.574,312.291z"/>
				</g>
			</g>
			<g>
				
					<line style="fill:none;stroke:#1D1D1B;stroke-width:0.5;stroke-miterlimit:10;" x1="127.071" y1="348.192" x2="169.016" y2="408.914"/>
				
					<line style="fill:none;stroke:#1D1D1B;stroke-width:0.5;stroke-miterlimit:10;" x1="131.083" y1="368.686" x2="146.436" y2="376.925"/>
			</g>
		</g>
		<path style="fill:#fcb99a;" d="M329.624,351.215l0.407-0.23l-54.866-65.99c-2.927-3.521-4.899-7.735-5.727-12.238l-6.258-34.045
			c-1.076-5.851-4.591-10.968-9.668-14.069l-17.084-10.438l-13.06,73.405l24.036,95.142c0.474,3.769,1.404,7.368,2.717,10.756
			l0.576,2.282l0.303-0.171c7.932,17.734,26.753,29.002,47.03,26.46c24.847-3.115,42.465-25.783,39.35-50.63
			C336.436,363.911,333.683,357.045,329.624,351.215z"/>
		<g>
			<circle style="fill:#fcb99a;stroke:#1D1D1B;stroke-width:0.5;stroke-miterlimit:10;" cx="211.773" cy="240.729" r="39.587"/>
			<path style="fill:#454545;" d="M222.825,215.522c-0.082-7.519-6.175-13.846-13.686-14.195
				c-8.249-0.383-15.056,6.191-15.056,14.356c0,0.364,0.028,0.72,0.054,1.077c-1.139-0.197-2.304-0.321-3.5-0.321
				c-11.644,0-21.011,9.744-20.394,21.522c0.54,10.309,8.985,18.754,19.294,19.294c11.779,0.618,21.523-8.75,21.523-20.394
				c0-0.024,0-0.048,0-0.072c-0.013-3.612,1.779-6.95,4.864-8.829C220.105,225.413,222.882,220.79,222.825,215.522z"/>
			<g>
				<path style="fill:none;stroke:#1D1D1B;stroke-width:0.5;stroke-miterlimit:10;" d="M233.152,228.82
					c-0.085,0.256-1.9,7.072-2.984,11.147c-0.508,1.912-0.191,3.946,0.873,5.614l2.655,4.164c1.052,1.649,0.586,3.837-1.046,4.916
					l-3.887,2.568"/>
				<ellipse style="fill:#1D1D1B;" cx="217.728" cy="242.66" rx="2.5" ry="4.451"/>
				<ellipse style="fill:#1D1D1B;" cx="237.968" cy="242.66" rx="2.5" ry="4.451"/>
				
					<line style="fill:#FFFFFF;stroke:#1D1D1B;stroke-width:2;stroke-linecap:round;stroke-miterlimit:10;" x1="217.068" y1="230.37" x2="224.255" y2="225.857"/>
				
					<line style="fill:none;stroke:#1D1D1B;stroke-width:2;stroke-linecap:round;stroke-miterlimit:10;" x1="237.176" y1="226.382" x2="243.187" y2="230.651"/>
				<path style="fill:none;stroke:#1D1D1B;stroke-width:0.5;stroke-linecap:round;stroke-miterlimit:10;" d="M223.387,264.025
					l1.611-1.315c1.171-0.956,2.812-1.088,4.121-0.332l0.39,0.225c1.404,0.81,3.15,0.729,4.473-0.207l1.668-1.18"/>
			</g>
			<g>
				<path style="fill:#FFB03C;" d="M242.315,213.704l-72.265,22.842l15.065-56.696c2.67-10.05,15.449-13.09,22.359-5.32
					L242.315,213.704z"/>
				
					<line style="fill:none;stroke:#1D1D1B;stroke-width:0.5;stroke-miterlimit:10;" x1="175.085" y1="216.617" x2="230.234" y2="199.596"/>
			</g>
		</g>
		<g>
			<path style="fill:#fcb99a;stroke:#1D1D1B;stroke-width:0.5;stroke-miterlimit:10;" d="M246.062,385.743l0.015,0.003
				l-6.757-90.504c-0.822-11.013-6.23-21.175-14.906-28.009l-21.988-17.32V235.66c0-4.029-2.946-7.588-6.952-8.014
				c-3.207-0.341-6.064,1.269-7.558,3.783v-0.744c0-4.077-3.008-7.674-7.067-8.049c-2.316-0.214-4.438,0.593-5.992,2.013
				c-1.295-2.517-3.913-4.242-6.938-4.242l0,0c-3.676,0-6.75,2.545-7.577,5.966c-1.389-0.704-3.011-1.016-4.728-0.752
				c-3.846,0.591-6.594,4.064-6.594,7.955v18.655c0,0.81,0.124,1.592,0.353,2.326l0.27,1.836c0.92,6.254,4.542,11.788,9.906,15.134
				l27.514,17.161l-19.265,80.719c0,0-4.227,12.191-4.227,19.021c0,22.806,18.488,41.294,41.294,41.294s41.294-18.488,41.294-41.294
				C246.158,387.526,246.119,386.632,246.062,385.743z"/>
			<g>
				<path style="fill:none;stroke:#1D1D1B;stroke-width:0.5;stroke-miterlimit:10;" d="M160.115,250.89V228.21
					c0-4.31,3.494-7.804,7.804-7.804l0,0c3.025,0,5.649,1.722,6.944,4.239"/>
				<path style="fill:none;stroke:#1D1D1B;stroke-width:0.5;stroke-miterlimit:10;" d="M172.308,250.89v-20.485
					c0-4.31,3.494-7.804,7.804-7.804l0,0c4.31,0,7.804,3.494,7.804,7.804v1.023"/>
				<path style="fill:none;stroke:#1D1D1B;stroke-width:0.5;stroke-miterlimit:10;" d="M186.818,250.89v-15.485
					c0-4.31,3.494-7.804,7.804-7.804l0,0c4.31,0,7.804,3.494,7.804,7.804v15.485"/>
			</g>
		</g>
	</g>
	<g>
		
			<rect x="192.831" y="423.511" style="fill:#FFFFFF;stroke:#1D1D1B;stroke-width:0.5;stroke-miterlimit:10;" width="215.901" height="6.178"/>
		<path style="fill:#FFFFFF;stroke:#1D1D1B;stroke-width:0.5;stroke-miterlimit:10;" d="M406.41,423.511H275.998
			c-2.451,0-4.121-2.483-3.197-4.753l44.948-110.476c0.529-1.301,1.793-2.151,3.197-2.151h130.411c2.451,0,4.121,2.483,3.197,4.753
			L409.607,421.36C409.078,422.66,407.814,423.511,406.41,423.511z"/>
		<path style="fill:#FFFFFF;stroke:#1D1D1B;stroke-width:0.5;stroke-miterlimit:10;" d="M413.15,423.511H282.739
			c-2.451,0-4.121-2.483-3.197-4.753l44.948-110.476c0.529-1.301,1.793-2.151,3.197-2.151h130.411c2.451,0,4.121,2.483,3.197,4.753
			L416.347,421.36C415.818,422.66,414.554,423.511,413.15,423.511z"/>
	</g>
	<line style="fill:none;stroke:#1D1D1B;stroke-miterlimit:10;" x1="55.294" y1="429.383" x2="437.977" y2="429.383"/>
</g>
</svg>
