<?xml version="1.0" encoding="utf-8"?>
<!-- Generator: Adobe Illustrator 27.5.0, SVG Export Plug-In . SVG Version: 6.00 Build 0)  -->
<svg version="1.1" xmlns="http://www.w3.org/2000/svg" xmlns:xlink="http://www.w3.org/1999/xlink" x="0px" y="0px"
	 viewBox="0 0 500 500" style="enable-background:new 0 0 500 500;" xml:space="preserve">
<g id="BACKGROUND">
</g>
<g id="OBJECTS">
	<path style="fill:#e0e0e0;" d="M85.772,344.935c0,37.259,13.619,71.447,36.122,97.856h230.315
		c15.611-18.371,26.91-40.522,32.328-64.889c3.784-17.016,11.835-32.794,23.057-46.132c18.865-22.423,30.231-51.364,30.231-82.961
		c0-57.241-37.296-105.768-88.913-122.613c-20.568-6.712-39.066-18.435-54.723-33.367c-23.309-22.229-54.931-35.817-89.73-35.617
		C133.124,57.62,75.255,116.714,76.275,188.045c0.22,15.381,3.134,30.11,8.291,43.737c9.518,25.152,11.191,52.673,5.113,78.87
		C87.123,321.666,85.772,333.142,85.772,344.935z"/>
	<g>
		<g>
			<g>
				<path style="fill:#fcb99a;" d="M350.552,439.848l-31.828-13.939c-3.31-1.45-5.6-4.551-6.01-8.141l-10.659-93.188l3.941-9.968
					c1.02-2.579,1.318-5.388,0.863-8.124l-18.391-118.42l-2.852-18.074l11.478,29.504l28.683-45.72l-31.102-32.403
					c-10.917-11.374-28.104-14.013-41.931-6.44l-12.913,7.073l-11.122-6.358c-12.745-7.285-28.848-4.67-38.631,6.275l-44.376,49.645
					l37.059,36.861l17.233-40.743l-2.103,20.38l-12.323,118.301c-0.403,3.87,0.274,7.776,1.955,11.286l4.869,10.161l-0.609,89.761
					c-0.023,3.463-2.035,6.604-5.169,8.075l-29.545,13.863c-1.758,0.825-1.17,3.462,0.772,3.462h69.164l16.821-171.125
					l30.084,171.125h75.986C351.666,442.976,352.172,440.557,350.552,439.848z"/>
				<path style="fill:#FFFFFF;" d="M288.469,188.067l-2.852-18.074l11.478,29.504l28.683-45.72l-31.102-32.403
					c-10.917-11.374-28.104-14.013-41.931-6.44l-12.913,7.073l-11.122-6.358c-12.745-7.285-28.848-4.67-38.631,6.275l-44.376,49.645
					l37.059,36.861l17.233-40.743l-2.103,20.38l-8.271,79.403H300.8L288.469,188.067z"/>
				<polygon style="fill:#03363d;" points="297.919,248.917 191.554,248.917 186.234,299.981 241.062,299.981 243.828,271.851 
					248.773,299.981 305.849,299.981 				"/>
				<g>
					
						<line style="fill:none;stroke:#1D1D1B;stroke-width:0.5;stroke-miterlimit:10;" x1="202.575" y1="146.674" x2="199.889" y2="168.716"/>
					
						<line style="fill:none;stroke:#1D1D1B;stroke-width:0.5;stroke-miterlimit:10;" x1="281.856" y1="143.519" x2="286.167" y2="171.408"/>
					
						<line style="fill:none;stroke:#1D1D1B;stroke-width:0.5;stroke-miterlimit:10;" x1="283.71" y1="155.512" x2="294.676" y2="121.374"/>
					
						<line style="fill:none;stroke:#1D1D1B;stroke-width:0.5;stroke-miterlimit:10;" x1="201.089" y1="158.869" x2="189.078" y2="123.044"/>
					
						<line style="fill:none;stroke:#1D1D1B;stroke-width:0.5;stroke-miterlimit:10;" x1="191.554" y1="248.917" x2="297.919" y2="248.917"/>
				</g>
			</g>
			<g>
				<path style="fill:none;stroke:#1D1D1B;stroke-width:0.5;stroke-miterlimit:10;" d="M180.696,111.239L180.696,111.239
					c6.712-6.341,15.3-10.333,24.474-11.378l1.568-0.178"/>
				<path style="fill:none;stroke:#1D1D1B;stroke-width:0.5;stroke-miterlimit:10;" d="M179.135,101.011l0.056-0.053
					c5.021-4.743,11.446-7.73,18.309-8.511l1.258-0.143"/>
			</g>
			<g>
				<path style="fill:none;stroke:#1D1D1B;stroke-width:0.5;stroke-miterlimit:10;" d="M301.433,111.239L301.433,111.239
					c-6.712-6.341-15.3-10.333-24.474-11.378l-1.568-0.178"/>
				<path style="fill:none;stroke:#1D1D1B;stroke-width:0.5;stroke-miterlimit:10;" d="M302.995,101.011l-0.056-0.053
					c-5.021-4.743-11.445-7.73-18.309-8.511l-1.258-0.143"/>
			</g>
			<g>
				<path style="fill:#fcb99a;" d="M388.482,105.562c-0.181-0.141-0.368-0.269-0.559-0.387c-0.182-1.614-0.988-3.157-2.372-4.232
					c-2.723-2.117-6.647-1.625-8.764,1.098l-9.856,12.679l-13.807-2.504l6.651-7.741c2.077-2.417,1.801-6.059-0.616-8.135h0
					c-2.417-2.076-6.059-1.801-8.135,0.616l-10.903,12.689c-0.052,0.061-0.102,0.123-0.151,0.186l-0.272-0.049l-15.817,21.773
					l-26.461,43.06c-1.367,2.106-2.42,4.466-3.077,7.033c-3.251,12.692,4.403,25.616,17.095,28.867
					c11.715,3,23.628-3.29,27.948-14.257l0.169,0.087l12.307-48.05l19.001-7.877c0.547-0.133,1.075-0.35,1.564-0.648l0.002-0.001v0
					c0.551-0.337,1.052-0.777,1.473-1.317l7.147-9.195c0.015-0.019,0.028-0.038,0.042-0.057l6.52-8.388
					c1.215-1.563,1.542-3.536,1.055-5.309l0.913-1.175C391.697,111.603,391.205,107.679,388.482,105.562z"/>
				<g>
					<path style="fill:none;stroke:#1D1D1B;stroke-width:0.5;stroke-miterlimit:10;" d="M353.125,112.216
						c0,0,8.721,5.339,1.699,14.786"/>
					<g>
						<path style="fill:none;stroke:#1D1D1B;stroke-width:0.5;stroke-miterlimit:10;" d="M387.924,105.175
							c-0.182-1.614-0.989-3.156-2.373-4.232l0,0c-2.723-2.117-6.647-1.625-8.764,1.098l-10.479,13.481"/>
						<path style="fill:none;stroke:#1D1D1B;stroke-width:0.5;stroke-miterlimit:10;" d="M388.667,115.501l0.913-1.175
							c2.117-2.723,1.625-6.647-1.098-8.764l0,0c-2.723-2.117-6.647-1.625-8.764,1.098l-11.958,13.721"/>
						<path style="fill:none;stroke:#1D1D1B;stroke-width:0.5;stroke-miterlimit:10;" d="M376.88,134.615l10.731-13.805
							c2.047-2.634,1.572-6.428-1.062-8.475l0,0c-2.634-2.047-6.428-1.572-8.475,1.062l-10.731,12.142"/>
						<path style="fill:none;stroke:#1D1D1B;stroke-width:0.5;stroke-miterlimit:10;" d="M373.902,138.45l7.147-9.195
							c1.864-2.398,1.431-5.853-0.967-7.717l0,0c-2.398-1.864-5.853-1.431-7.717,0.967l-7.147,9.195"/>
					</g>
				</g>
			</g>
			<g>
				<path style="fill:#fcb99a;" d="M241.335,133.708c9.049,0,16.385-7.336,16.385-16.385c0-1.285-0.153-2.534-0.432-3.733
					c-2.745,0.421-5.451,1.314-7.993,2.706l-9.008,4.934l-7.758-4.435c-2.308-1.32-4.775-2.169-7.281-2.577
					c-0.193,1.006-0.298,2.043-0.298,3.105C224.95,126.372,232.286,133.708,241.335,133.708z"/>
				<g>
					
						<ellipse transform="matrix(0.967 -0.2548 0.2548 0.967 -18.0291 64.8602)" style="fill:#fcb99a;" cx="241.382" cy="102.032" rx="21.929" ry="21.929"/>
					<path style="fill:#454545;" d="M232.102,80.629c0,5.847-4.74,10.588-10.588,10.588c-5.847,0-10.588-4.74-10.588-10.588
						c0-5.847,4.74-10.587,10.588-10.587C227.361,70.041,232.102,74.781,232.102,80.629z"/>
					<path style="fill:#454545;" d="M270.309,80.629c0,5.847-4.74,10.588-10.587,10.588s-10.587-4.74-10.587-10.588
						c0-5.847,4.74-10.587,10.587-10.587S270.309,74.781,270.309,80.629z"/>
					<path style="fill:#fcb99a;" d="M221.175,107.884c0.613-0.946,0.951-2.086,0.889-3.311c-0.143-2.824-2.453-5.136-5.277-5.279
						c-3.209-0.162-5.861,2.392-5.861,5.565c0,2.258,1.344,4.2,3.276,5.074c0.832,0.377,1.411,1.126,1.608,2.018
						c0.003,0.012,0.006,0.025,0.008,0.038c0.398,1.715,1.969,2.966,3.73,2.921c2.013-0.051,3.63-1.699,3.63-3.725
						C223.178,109.751,222.365,108.507,221.175,107.884z"/>
					<path style="fill:#fcb99a;" d="M261.725,107.884c-0.613-0.946-0.951-2.086-0.889-3.311c0.143-2.824,2.453-5.136,5.277-5.279
						c3.209-0.162,5.861,2.392,5.861,5.565c0,2.258-1.344,4.2-3.276,5.074c-0.832,0.377-1.411,1.126-1.608,2.018
						c-0.003,0.012-0.006,0.025-0.008,0.038c-0.399,1.715-1.969,2.966-3.73,2.921c-2.013-0.051-3.63-1.699-3.63-3.725
						C259.721,109.751,260.535,108.507,261.725,107.884z"/>
					<path style="fill:#1D1D1B;" d="M234.432,105.806c0,1.026-0.605,1.858-1.351,1.858c-0.746,0-1.351-0.832-1.351-1.858
						c0-1.026,0.605-1.857,1.351-1.857C233.827,103.948,234.432,104.78,234.432,105.806z"/>
					<path style="fill:#1D1D1B;" d="M249.134,105.806c0,1.026-0.605,1.858-1.351,1.858c-0.746,0-1.351-0.832-1.351-1.858
						c0-1.026,0.605-1.857,1.351-1.857C248.529,103.948,249.134,104.78,249.134,105.806z"/>
					<path style="fill:none;stroke:#1D1D1B;stroke-width:0.5;stroke-linecap:round;stroke-miterlimit:10;" d="M238.755,102.665
						c0.049,0.147,0.487,2.698,0.725,4.097c0.097,0.568-0.082,1.146-0.482,1.561l-1.375,1.428c-0.795,0.826-0.679,2.163,0.246,2.839
						l1.763,1.288"/>
					
						<line style="fill:#FFFFFF;stroke:#1D1D1B;stroke-width:2;stroke-linecap:round;stroke-miterlimit:10;" x1="230.92" y1="100.774" x2="235.648" y2="97.869"/>
					
						<line style="fill:#FFFFFF;stroke:#1D1D1B;stroke-width:2;stroke-linecap:round;stroke-miterlimit:10;" x1="245.239" y1="97.599" x2="248.748" y2="100.301"/>
					<path style="fill:none;stroke:#1D1D1B;stroke-width:0.5;stroke-linecap:round;stroke-miterlimit:10;" d="M238.363,118.538
						c0,0,1.742-1.891,4.309-0.676"/>
					<path style="fill:#454545;" d="M262.565,96.356c-2.502-9.359-11.036-16.254-21.183-16.254
						c-10.554,0-19.364,7.456-21.456,17.388c0.657,0.268,1.361,0.441,2.098,0.486c3.937,0.244,7.206-2.876,7.206-6.761
						c0-0.002,0-0.004,0-0.007c0-0.284,0.285-0.476,0.544-0.357c1.593,0.733,3.365,1.143,5.234,1.143
						c3.922,0,7.422-1.799,9.723-4.617c0.522-0.639,1.56-0.419,1.777,0.376c1.453,5.324,6.321,9.238,12.106,9.238
						C259.995,96.994,261.322,96.768,262.565,96.356z"/>
					<path style="fill:none;stroke:#1D1D1B;stroke-width:0.5;stroke-miterlimit:10;" d="M260.122,113.426
						c-3.849,6.317-10.802,10.535-18.74,10.535c-8.034,0-15.058-4.32-18.877-10.763"/>
				</g>
			</g>
			<g>
				<g>
					<path style="fill:#d7d7d7;" d="M273.912,442.976h75.985c1.768,0,2.275-2.419,0.655-3.128l-31.828-13.939
						c-3.31-1.45-5.6-4.551-6.01-8.141l-3.719-32.51h-45.231L273.912,442.976z"/>
					<path style="fill:#d7d7d7;" d="M157.842,442.976h69.164l5.674-57.719h-40.676l-0.219,32.318
						c-0.023,3.463-2.035,6.604-5.169,8.075l-29.545,13.863C155.312,440.339,155.9,442.976,157.842,442.976z"/>
				</g>
				<g>
					<path style="fill:#FFB03C;" d="M196.008,425.777c0.484-1.143,0.752-2.4,0.752-3.72c0-3.605-2-6.742-4.949-8.365l-0.026,3.884
						c-0.023,3.463-2.035,6.604-5.169,8.075l-29.545,13.863c-1.758,0.825-1.17,3.462,0.772,3.462h69.164l1.691-17.199H196.008z"/>
					<path style="fill:#FFB03C;" d="M350.552,439.848l-31.828-13.939c-3.31-1.45-5.6-4.551-6.01-8.141l-0.542-4.741
						c-3.757,1.282-6.46,4.84-6.46,9.031c0,1.32,0.268,2.577,0.752,3.72h-35.576l3.024,17.199h75.986
						C351.666,442.976,352.172,440.557,350.552,439.848z"/>
					<g>
						<path style="fill:#454545;" d="M273.912,442.976h75.985c1.768,0,2.275-2.419,0.655-3.128l-1.057-0.463h-76.215
							L273.912,442.976z"/>
						<path style="fill:#454545;" d="M157.842,442.976h69.164l0.353-3.591h-70.014l-0.275,0.129
							C155.312,440.339,155.9,442.976,157.842,442.976z"/>
					</g>
				</g>
				<g>
					
						<line style="fill:none;stroke:#1D1D1B;stroke-width:0.5;stroke-linecap:round;stroke-miterlimit:10;" x1="184.143" y1="420.619" x2="190.654" y2="430.066"/>
					
						<line style="fill:none;stroke:#1D1D1B;stroke-width:0.5;stroke-linecap:round;stroke-miterlimit:10;" x1="179.164" y1="424.193" x2="185.675" y2="433.64"/>
				</g>
				<g>
					
						<line style="fill:none;stroke:#1D1D1B;stroke-width:0.5;stroke-linecap:round;stroke-miterlimit:10;" x1="318.782" y1="420.619" x2="312.271" y2="430.066"/>
					
						<line style="fill:none;stroke:#1D1D1B;stroke-width:0.5;stroke-linecap:round;stroke-miterlimit:10;" x1="323.76" y1="424.193" x2="317.25" y2="433.64"/>
				</g>
			</g>
			<g>
				<path style="fill:#fcb99a;" d="M183.943,190.411l-14.95-48.28l-9.986-24.491c-0.085-0.258-0.187-0.512-0.311-0.763
					l-7.414-14.997c-1.412-2.856-4.872-4.027-7.728-2.615c-2.856,1.412-4.027,4.872-2.615,7.728l4.467,9.037l-13.941-0.889
					l-6.402-14.728c-1.375-3.163-5.054-4.613-8.217-3.238c-1.607,0.699-2.771,1.993-3.348,3.511
					c-0.214,0.067-0.427,0.145-0.637,0.236c-3.163,1.375-4.613,5.054-3.238,8.217l0.462,1.062c-0.962,1.613-1.161,3.65-0.355,5.504
					l6.97,16.036c0.143,0.329,0.313,0.637,0.503,0.926l1.622,3.731c0.273,0.628,0.649,1.178,1.1,1.641l0,0l0.002,0.001
					c0.399,0.41,0.857,0.751,1.354,1.016l16.453,12.346v47.445l0.017-0.003c0.453,12.703,10.892,22.863,23.705,22.863
					c13.102,0,23.723-10.621,23.723-23.722C185.179,195.338,184.745,192.791,183.943,190.411z"/>
				<g>
					<g>
						<path style="fill:none;stroke:#1D1D1B;stroke-width:0.5;stroke-miterlimit:10;" d="M113.499,100.688
							c0.577-1.519,1.742-2.812,3.349-3.511l0,0c3.163-1.375,6.842,0.075,8.217,3.238l6.806,15.659"/>
						<path style="fill:none;stroke:#1D1D1B;stroke-width:0.5;stroke-miterlimit:10;" d="M110.086,110.204l-0.462-1.062
							c-1.375-3.163,0.075-6.842,3.238-8.217h0c3.163-1.375,6.842,0.075,8.217,3.238l7.834,15.339"/>
						<path style="fill:none;stroke:#1D1D1B;stroke-width:0.5;stroke-miterlimit:10;" d="M116.701,131.744l-6.97-16.036
							c-1.33-3.059,0.072-6.617,3.132-7.947h0c3.059-1.33,6.617,0.072,7.947,3.132l6.97,14.646"/>
						<path style="fill:none;stroke:#1D1D1B;stroke-width:0.5;stroke-miterlimit:10;" d="M118.827,136.401l-4.642-10.68
							c-1.211-2.785,0.066-6.025,2.851-7.236l0,0c2.785-1.211,6.025,0.066,7.236,2.851l4.642,10.68"/>
					</g>
					<path style="fill:none;stroke:#1D1D1B;stroke-width:0.5;stroke-miterlimit:10;" d="M145.408,116.031
						c0,0-5.946,5.354-1.095,14.417"/>
				</g>
			</g>
		</g>
		<g>
			<path style="fill:none;stroke:#1D1D1B;stroke-width:0.4588;stroke-miterlimit:10;" d="M261.185,111.601
				c0,0-1.085-8.783,6.105-8.885"/>
			<path style="fill:none;stroke:#1D1D1B;stroke-width:0.4588;stroke-miterlimit:10;" d="M261.223,109.134
				c0,0,1.744-3.302,4.737-1.838"/>
		</g>
		<g>
			<path style="fill:none;stroke:#1D1D1B;stroke-width:0.4588;stroke-miterlimit:10;" d="M220.808,110.858
				c0,0,1.085-8.783-6.105-8.885"/>
			<path style="fill:none;stroke:#1D1D1B;stroke-width:0.4588;stroke-miterlimit:10;" d="M220.77,108.391
				c0,0-1.744-3.302-4.738-1.838"/>
		</g>
	</g>
	
		<line style="fill:none;stroke:#1D1D1B;stroke-width:1.152;stroke-miterlimit:10;" x1="75.271" y1="442.976" x2="416.478" y2="442.976"/>
</g>
</svg>
