<svg xmlns="http://www.w3.org/2000/svg" width="241" height="240" fill="none">
  <g clip-path="url(#a)">
    <path fill="#fff" d="M121 220c55.228 0 100-44.772 100-100S176.228 20 121 20 21 64.772 21 120s44.772 100 100 100Z" opacity=".5"/>
    <path fill="#384248" stroke="#384248" stroke-width=".8" d="M23.7 27.28h170.32v104.8H23.7a3.6 3.6 0 0 1-3.6-3.6v-97.6a3.6 3.6 0 0 1 3.6-3.6Z"/>
    <path fill="#fff" stroke="#384248" stroke-width=".8" d="M29.7 132.08V27.28h170.32a3.6 3.6 0 0 1 3.6 3.6v97.6a3.6 3.6 0 0 1-3.6 3.6H29.7Z"/>
    <path fill="#FAE380" stroke="#384248" stroke-miterlimit="10" stroke-width=".8" d="M44.976 46.08h-4.57a.595.595 0 0 0-.594.595v4.57c0 .329.266.595.595.595h4.57a.595.595 0 0 0 .595-.595v-4.57a.595.595 0 0 0-.596-.595ZM44.976 66.816h-4.57a.595.595 0 0 0-.594.596v4.57c0 .328.266.594.595.594h4.57a.595.595 0 0 0 .595-.595v-4.57a.595.595 0 0 0-.596-.595ZM44.976 86.976h-4.57a.595.595 0 0 0-.594.595v4.57c0 .329.266.595.595.595h4.57a.595.595 0 0 0 .595-.595v-4.57a.595.595 0 0 0-.596-.595ZM44.976 107.136h-4.57a.596.596 0 0 0-.594.595v4.57c0 .329.266.595.595.595h4.57a.595.595 0 0 0 .595-.595v-4.57a.596.596 0 0 0-.596-.595Z"/>
    <path stroke="#384248" stroke-miterlimit="10" stroke-width=".8" d="M50.536 49.458h136.5M50.536 69.696h34.552M50.536 89.856h75.059M50.536 110.016h65.526"/>
    <path fill="#384248" d="M180.399 106.645c-.222-1.705.199-3.505 1.245-4.873 1.046-1.368 2.726-2.268 4.456-2.282 1.304-.009 2.563.455 3.858.567.67.054 1.44-.031 1.834-.576.19-.26.254-.59.385-.886.453-1.022 1.703-1.548 2.812-1.373 1.109.176 2.06.932 2.694 1.85.372.535.657 1.134 1.123 1.588.467.455 1.196.729 1.78.437.512-.257.747-.855 1.191-1.22.67-.553 1.802-.391 2.296.32.271.396.362.918.724 1.237.408.356 1.033.338 1.544.153.512-.184.965-.499 1.472-.688 1.585-.59 3.469.229 4.424 1.624.951 1.395 1.092 3.209.757 4.86-.535 2.646-2.351 5.112-4.914 6.017-1.72.607-3.722.531-5.189 1.611-1.254.927-1.961 2.614-3.451 3.091-1.874.599-3.776-1.075-5.737-.94-.566.04-1.105.225-1.662.324-1.526.27-2.907-.18-4.089-1.179-3.346-2.534-6.104-5.558-7.549-9.666l-.004.004Z"/>
    <path fill="#fff" stroke="#384248" stroke-linecap="round" stroke-linejoin="round" stroke-width=".6" d="M186.305 110.737h-6.039v9.452c0 .933 1.266 1.691 2.825 1.691 1.559 0 3.21-.758 3.21-1.691v-.023h.008v-9.429h-.004Z"/>
    <path fill="#fff" d="M185.925 111.571c-.112.478-.543 1.718-1.112 2.142l-2.167 1.526c-1.282.456-2.776.337-3.638-.34-1.836-1.438-1.339-4.25-1.024-6.17.147-.891.316-1.79.566-2.666.404-1.411 1.908-2.508 3.914-2.267.269.019.565.065.881.142 3.312.783 3.252 3.125 2.85 4.59-.096.429.078.538.177.538.311-.13.708-.107.962.103.177.142.269.36.285.578a1.31 1.31 0 0 1-.143.635c-.281.585-.874 1.044-1.551 1.189Z"/>
    <path fill="#384248" d="M187.006 109.735c-.061-.088-.234-.057-.319-.034a.887.887 0 0 0-.497.367 1.493 1.493 0 0 0-.215.497c-.012.05.061.069.077.023.065-.252.177-.505.389-.673a.665.665 0 0 1 .411-.157c.027 0 .043 0 .07.008.015 0 .007 0 .019.007 0 0 .015.008 0 0 0 0 .008.012 0 0 .027.042.096 0 .069-.042l-.004.004Z"/>
    <path stroke="#384248" stroke-linecap="round" stroke-linejoin="round" stroke-width=".6" d="M185.921 111.571c.678-.145 1.27-.604 1.551-1.189a1.31 1.31 0 0 0 .143-.635.811.811 0 0 0-.285-.578c-.254-.21-.651-.233-.962-.103-.2-.028-.161-.575-.117-.845.192-.928.194-2.108-.61-3.048-1.063-1.244-3.413-1.693-4.99-1.225a3.106 3.106 0 0 0-2.105 2.115c-.25.876-.419 1.775-.565 2.666-.316 1.921-.813 4.732 1.023 6.17.863.677 2.356.796 3.638.341"/>
    <path fill="#384248" d="m180.128 117.462.054-1.986c.72.153 1.532.027 2.379-.214-.724 1.014-1.513 1.825-2.433 2.2ZM180.779 108.951a8.918 8.918 0 0 0-.427 1.729c-.012.084.023.168.108.191.073.019.18-.026.192-.107.081-.593.227-1.17.427-1.729.066-.191-.235-.271-.3-.084ZM183.739 107.892a1.306 1.306 0 0 0-.801-.298.166.166 0 0 0-.158.157c0 .08.07.153.158.156.031 0 .062 0 .092.008h.024-.008c.015 0 .031.008.046.008.058.011.112.026.166.046.015.007.03.007.042.015-.039-.019.008 0 .015.008.027.011.046.026.073.038.027.015.054.03.077.046.012.007.027.015.039.026-.027-.03.008 0 .011.008.062.054.158.065.224 0 .054-.057.069-.164 0-.222v.008-.004ZM180.155 107.624a1.306 1.306 0 0 0-.801-.298.166.166 0 0 0-.158.157c0 .08.07.153.158.156.031 0 .062 0 .092.008h.024-.008c.015 0 .031.008.046.008.058.011.112.026.166.046.015.007.03.007.042.015-.039-.019.008 0 .015.007.027.012.046.027.073.039.027.015.054.03.077.046.012.007.027.015.039.026-.027-.03.008 0 .011.008.062.054.158.065.224 0 .054-.057.069-.164 0-.222v.008-.004ZM183.05 109.434c.023-.226-.111-.425-.296-.44-.185-.019-.354.153-.377.378-.023.226.111.425.296.44.185.019.354-.153.377-.378ZM179.613 109.108c.023-.226-.112-.425-.297-.44-.184-.019-.354.153-.377.379-.023.225.112.424.296.44.185.019.355-.153.378-.379ZM181.318 112.126c0 .203-.231.367-.516.367-.285 0-.516-.164-.516-.367 0-.203.146-.509.431-.509.285 0 .601.31.601.509Z"/>
    <path fill="#384248" d="M185.349 105.914c-.5 2.18-.051 3.417.186 3.877.045.084.17.087.215.002.879-.471 1.562-.66 1.623-.379 1.011-2.22 1.074-3.715.237-4.387 0 0-.231-3.388-6.095-2.669 0 0-2.881.277-3.661 2.069-.786 1.79 7.492 1.489 7.492 1.489l.003-.002Z"/>
    <path stroke="#384248" stroke-linecap="round" stroke-linejoin="round" stroke-width=".2" d="M178.914 110.365c.797 0 1.44-.708 1.44-1.58 0-.872-.647-1.58-1.44-1.58-.793 0-1.439.708-1.439 1.58 0 .872.646 1.58 1.439 1.58ZM183.044 110.709c.877 0 1.589-.708 1.589-1.58 0-.872-.712-1.58-1.589-1.58-.878 0-1.59.708-1.59 1.58 0 .872.712 1.58 1.59 1.58Z"/>
    <path stroke="#384248" stroke-linecap="round" stroke-linejoin="round" stroke-width=".2" d="M180.343 109.003s.512-.188 1.112.126M184.634 109.129l1.447-.409"/>
    <path fill="#fff" d="M169.856 125.405c.783 2.102 3.138 3.177 5.253 2.394 2.115-.778 3.197-3.118 2.409-5.22a4.094 4.094 0 0 0-5.253-2.394c-2.115.779-3.197 3.119-2.409 5.22Z"/>
    <path fill="#fff" stroke="#384248" stroke-linecap="round" stroke-linejoin="round" stroke-width=".8" d="M175.48 127.642c.249-.121.485-.265.698-.427.312-.221.539-.437.67-.648a4.051 4.051 0 0 0 .675-3.987 4.07 4.07 0 0 0-2.568-2.448v-.014c-.321-.139-.738-.193-1.227-.184-.227 0-.457.013-.684.049-3.292.387-13.947 4.649-19.485 7.02-1.807.765-2.713 2.808-2.024 4.658a3.698 3.698 0 0 0 4.41 2.272c6.39-1.593 16.932-4.869 19.535-6.291Z"/>
    <path fill="#fff" d="M151.734 132.142c-1.304-1.994-5.796-12.092-8.115-17.321l4.623-2.461c3.093 4.824 9.089 14.076 9.958 16.339l-6.462 3.443h-.004Z"/>
    <path stroke="#384248" stroke-linecap="round" stroke-linejoin="round" stroke-width=".8" d="M143.618 114.822c2.237 5.049 6.462 14.553 7.966 17.077.05.117.108.23.172.342M158.177 128.61a3.862 3.862 0 0 0-.055-.081c-1.1-2.565-6.864-11.453-9.885-16.164"/>
    <g clip-path="url(#b)">
      <path fill="#fff" d="M144.938 112.412a2.566 2.566 0 0 1 3.492.93 2.531 2.531 0 0 1-.936 3.47 2.564 2.564 0 0 1-3.492-.929 2.532 2.532 0 0 1 .936-3.471Z"/>
      <path fill="#fff" d="M144.503 116.532c-.933-.47-2.012-1.88-2.954-2.627a5.52 5.52 0 0 1-.353-.302c-.534-.351-1.093-.762-1.314-.968a13.669 13.669 0 0 1-1.562-1.709 8.323 8.323 0 0 1-.925-1.6c-.343-.879.721-.964 1.2-.183.129.213.436.628.849 1.103.36.419.877.88 1.27 1.154-.349-.426-.668-.844-.802-1.065a15.351 15.351 0 0 1-1.144-2.276c-.243-.619-.451-1.529-.494-1.969-.097-1.024 1.03-.808 1.319.137-.102-.517-.17-1.063-.171-1.371-.011-1.024 1.107-.701 1.292.274.051.263.202.802.438 1.445.226.617.621 1.349.929 1.774.094.127.299.384.549.674a14.959 14.959 0 0 1-.798-2.414c-.15-.652-.224-1.584-.2-2.032.05-1.043 1.166-.643 1.295.358.037.272.157.829.355 1.493.16.539 1.652 2.677 2.405 3.659.207.269.642.248.797-.054.125-.238.179-.557.094-.983-.28-1.374-.08-2.508.456-2.906.698-.512.745 1.283 1.063 2.757.404 1.894.996 3.821.635 5.229"/>
      <path fill="#fff" d="M139.554 106.159c.478 1.462 1.075 2.831 2.087 3.846l-2.087-3.846Z"/>
      <path stroke="#384248" stroke-linecap="round" stroke-linejoin="round" stroke-width=".6" d="M144.478 116.505c-.933-.469-2.018-1.926-2.962-2.667a5.216 5.216 0 0 1-.353-.302c-.534-.351-1.093-.762-1.314-.968a13.669 13.669 0 0 1-1.562-1.709 8.27 8.27 0 0 1-.925-1.6c-.343-.879.72-.964 1.199-.183.13.213.436.628.85 1.103.36.419.877.88 1.27 1.154-.349-.426-.668-.843-.802-1.065a15.322 15.322 0 0 1-1.145-2.276c-.242-.618-.451-1.529-.493-1.969-.097-1.024 1.029-.808 1.319.137-.102-.517-.171-1.063-.171-1.371-.011-1.024 1.106-.701 1.291.274.052.263.203.803.439 1.445.226.617.621 1.35.929 1.774.094.127.299.384.549.674a14.959 14.959 0 0 1-.798-2.414c-.15-.652-.224-1.584-.2-2.032.05-1.043 1.166-.643 1.295.358.036.272.157.829.355 1.493.16.539 1.651 2.677 2.405 3.659.207.27.641.248.797-.054.125-.238.179-.557.094-.983-.28-1.374-.08-2.508.455-2.906.699-.512.746 1.283 1.064 2.757.404 1.894.933 3.075.703 5.251"/>
      <path stroke="#384248" stroke-linecap="round" stroke-linejoin="round" stroke-width=".6" d="M139.554 106.159c.478 1.462 1.075 2.831 2.087 3.846M143.005 112.115c2.457.242 3.062 1.005 3.062 1.005"/>
    </g>
    <path fill="#fff" d="m165.151 155.11-.607 1.805c-1.141 3.379.693 7.038 4.089 8.167l13.345 4.446c3.397 1.13 7.078-.688 8.215-4.068l.606-1.804c.576-1.71.779-3.452.648-5.148a13.084 13.084 0 0 0-8.934-11.39l-.72-.238a13.19 13.19 0 0 0-11.009 1.228 12.996 12.996 0 0 0-5.633 7.007v-.005Z"/>
    <path fill="#fff" stroke="#384248" stroke-width=".8" d="m170.216 189.848 8.38-28.203-13.885-4.624-10.065 27.643 15.57 5.184Z"/>
    <path fill="#fff" d="M171.844 166.445c-4.257 0-7.708-3.429-7.708-7.659s3.451-7.659 7.708-7.659c4.256 0 7.707 3.429 7.707 7.659s-3.451 7.659-7.707 7.659Z"/>
    <path stroke="#384248" stroke-linecap="round" stroke-linejoin="round" stroke-width=".8" d="m170.907 189.117 8.183-27.729"/>
    <path fill="#fff" stroke="#384248" stroke-linecap="round" stroke-linejoin="round" stroke-width=".8" d="m152.336 235.813.357.022c2.228.149 4.239-1.413 4.746-3.681l.217-.994c.426-1.773.834-3.825 1.264-5.958.471-2.327.969-4.748 1.553-7.002l.054-.198-9.477-1.845a838.131 838.131 0 0 1-1.295 6.948c-.662 3.46-1.164 5.922-1.386 6.696-.847 2.889 1.087 5.814 3.971 6.007l-.004.005Z"/>
    <path fill="#BFE7FF" stroke="#384248" stroke-linecap="round" stroke-linejoin="round" stroke-width=".6" d="M147.807 225.705c-.048.134-.643 3.835-.696 3.973-1.425 3.836-4.409 2.92-7.256 3.746-3.192.924-3.275 2.268-3.275 2.268l20.911 3.162c.96-1.78.762-6.258 1.329-10.833 0 0-7.234-1.362-8.345-.151-.323-.914-.922-2.083-2.668-2.165Z"/>
    <path fill="#fff" stroke="#384248" stroke-linecap="round" stroke-linejoin="round" stroke-width=".6" d="m157.491 238.854-.365 1.52-20.911-3.163.365-1.519 20.911 3.162Z"/>
    <path stroke="#384248" stroke-linecap="round" stroke-linejoin="round" stroke-width=".6" d="M142.941 232.716c1.334.948 2.054 2.227 1.727 4.094M150.499 227.956s-1.041 6.078-5.666 6.731"/>
    <path stroke="#384248" stroke-linecap="round" stroke-linejoin="round" stroke-width=".6" d="M150.845 229.733c-1.597-.314-3.033-.686-3.854-1.275M149.78 232.348c-1.891-.541-2.687-1.148-3.508-1.736"/>
    <path fill="#FAE380" d="M155.645 234.1a2.161 2.161 0 0 1-1.821-2.46 2.171 2.171 0 0 1 2.475-1.811 2.162 2.162 0 0 1 1.822 2.461 2.171 2.171 0 0 1-2.476 1.81Z"/>
    <path stroke="#384248" stroke-linecap="round" stroke-linejoin="round" stroke-width=".6" d="M158.26 234.914c-1.484.804-2.995 1.582-3.381 3.44M145.013 231.591l2.843 2.97"/>
    <path fill="#384248" stroke="#384248" stroke-linecap="round" stroke-linejoin="round" stroke-width=".8" d="M151.049 216.162a838.131 838.131 0 0 1-1.295 6.948l9.17 2.097c.471-2.327.969-4.748 1.553-7.002l.054-.198-9.477-1.845h-.005Z"/>
    <path fill="#fff" d="M162.347 196.091c-4.751 0-8.603-3.828-8.603-8.55 0-4.722 3.852-8.55 8.603-8.55 4.752 0 8.604 3.828 8.604 8.55 0 4.722-3.852 8.55-8.604 8.55Z"/>
    <path fill="#fff" d="m146.131 220.702 7.73-34.704 16.927 3.294-5.574 35.127-19.083-3.717Z"/>
    <path stroke="#384248" stroke-linecap="round" stroke-linejoin="round" stroke-width=".8" d="m152.29 193.936-6.159 26.766 19.082 3.717 4.646-29.52"/>
    <path stroke="#BFE7FF" stroke-linecap="round" stroke-miterlimit="10" stroke-width=".8" d="m165.784 218.388-4.265 2.84-2.876-4.226-4.266 2.835-2.871-4.225-4.27 2.835"/>
    <path stroke="#BFE7FF" stroke-linecap="round" stroke-miterlimit="10" stroke-width=".8" d="m166.337 214.906-4.261 2.839-2.876-4.23-4.265 2.84-2.871-4.23-4.27 2.839"/>
    <path fill="#fff" d="m175.62 160.235 14.622 4.869-8.608 28.967-16.352-5.445 10.338-28.391Z"/>
    <path fill="#fff" d="M182.997 170.158c-4.257 0-7.707-3.429-7.707-7.659s3.45-7.659 7.707-7.659c4.256 0 7.707 3.429 7.707 7.659s-3.451 7.659-7.707 7.659Z"/>
    <path stroke="#384248" stroke-linecap="round" stroke-linejoin="round" stroke-width=".8" d="m174.506 163.111-9.17 25.421"/>
    <path fill="#fff" stroke="#384248" stroke-linecap="round" stroke-linejoin="round" stroke-width=".8" d="m223.258 190.785-.054-.356c-.34-2.191-2.314-3.802-4.651-3.798h-1.023c-1.834-.018-3.94.036-6.127.086-2.387.049-4.873.099-7.214.027l-.204-.009.263 9.594c2.626-.108 5.036-.198 7.105-.261 3.546-.117 6.068-.167 6.878-.122 3.021.189 5.475-2.326 5.031-5.161h-.004Z"/>
    <path fill="#384248" stroke="#384248" stroke-linecap="round" stroke-linejoin="round" stroke-width=".8" d="M204.244 196.334c2.626-.108 5.036-.198 7.105-.261l.054-9.351c-2.386.049-4.872.099-7.213.027l-.204-.009.263 9.594h-.005Z"/>
    <path fill="#BFE7FF" stroke="#384248" stroke-linecap="round" stroke-linejoin="round" stroke-width=".6" d="M218.132 197.212c.143.013 3.899-.329 4.046-.312 4.093.425 3.937 3.524 5.446 6.062 1.689 2.846 3.02 2.593 3.02 2.593l-2.083-20.918c-1.973-.484-6.289.813-10.891 1.397 0 0 .459 7.303 1.914 8.073-.811.537-1.803 1.403-1.452 3.105Z"/>
    <path fill="#fff" stroke="#384248" stroke-linecap="round" stroke-linejoin="round" stroke-width=".6" d="m228.562 184.637 1.572-.023 2.082 20.917-1.572.024-2.082-20.918Z"/>
    <path stroke="#384248" stroke-linecap="round" stroke-linejoin="round" stroke-width=".6" d="M226.172 200.166c.595-1.519 1.664-2.529 3.565-2.675M219.662 194.063s6.184-.499 7.963 3.794"/>
    <path stroke="#384248" stroke-linecap="round" stroke-linejoin="round" stroke-width=".6" d="M221.31 193.291c.088 1.615.08 3.09-.291 4.026M224.123 193.67c-.06 1.955-.456 2.871-.827 3.808"/>
    <path fill="#FAE380" d="M224.382 187.59a2.164 2.164 0 0 1-1.949 2.362 2.17 2.17 0 0 1-2.377-1.937 2.163 2.163 0 0 1 1.949-2.362 2.17 2.17 0 0 1 2.377 1.937Z"/>
    <path stroke="#384248" stroke-linecap="round" stroke-linejoin="round" stroke-width=".6" d="M224.53 184.871c1.151 1.23 2.283 2.493 4.19 2.405M224.562 198.447l2.194-3.471"/>
    <path fill="#fff" d="M173.674 200.181c-4.752 0-8.604-3.828-8.604-8.55 0-4.722 3.852-8.55 8.604-8.55 4.751 0 8.603 3.828 8.603 8.55 0 4.722-3.852 8.55-8.603 8.55Z"/>
    <path fill="#fff" d="m209.782 200.109-35.773.09-.462-17.131 35.71-2.277.525 19.318Z"/>
    <path stroke="#384248" stroke-linecap="round" stroke-linejoin="round" stroke-width=".8" d="m174.013 200.208 35.769-.099-.525-19.318M165.07 191.865c.126 4.72 4.084 8.446 8.834 8.316"/>
    <path stroke="#BFE7FF" stroke-linecap="round" stroke-miterlimit="10" stroke-width=".8" d="m203.212 181.556 3.717 3.514-3.523 3.713 3.723 3.514-3.523 3.713 3.717 3.519"/>
    <path stroke="#BFE7FF" stroke-linecap="round" stroke-miterlimit="10" stroke-width=".8" d="m199.666 181.781 3.722 3.514-3.523 3.708 3.718 3.515-3.523 3.712 3.722 3.519"/>
    <path stroke="#384248" stroke-linecap="round" stroke-linejoin="round" stroke-width=".8" d="m176.413 154.885 2.482-7.353M176.672 146.794l-1.694 5.018M174.452 163.003l-1.897-2.182M186.271 151.083c-.842 4.167-.081 7.596 2.894 10.008"/>
    <path fill="#384248" stroke="#384248" stroke-linecap="round" stroke-linejoin="round" stroke-width=".8" d="M169.544 148.918s17.501 3.514 21.713 8.761c.353-2.686.86-9.157.86-9.157l-18.281-6.435-4.297 6.831h.005Z"/>
    <path fill="#BFE7FF" stroke="#384248" stroke-linecap="round" stroke-linejoin="round" stroke-width=".8" d="m168.231 148.661 25.544 1.904c.38-2.741 3.17-19.728 3.301-22.14.199-3.627-.439-6.921-5.131-7.385-18.077-1.413-21.133-2.745-22.532 5.391-.739 4.289-.508 11.219-1.182 22.23Z"/>
    <path fill="#BFE7FF" d="M196.795 130.94c-7.97 2.003-4.633-4.599-7.58-7.254-3.324-1.687-8.26.162-10.66-3.609"/>
    <path stroke="#384248" stroke-miterlimit="10" stroke-width=".4" d="M196.795 130.94c-7.97 2.003-4.633-4.599-7.58-7.254-3.324-1.687-8.26.162-10.66-3.609"/>
    <path fill="#BFE7FF" d="M168.756 136.403c1.929.419 3.283 2.381 5.339 2.412 5.547-1.264-2.128-5.944 3.03-6.759 4.822-.166 7.408 6.638 14.042 6.813 1.281.185 2.789-.306 2.346-1.723-2.976-8.235-15.872-10.031-19.563-16.911-.031-.059-.063-.113-.09-.171"/>
    <path stroke="#384248" stroke-miterlimit="10" stroke-width=".4" d="M168.756 136.403c1.929.419 3.283 2.381 5.339 2.412 5.547-1.264-2.128-5.944 3.03-6.759 4.822-.166 7.408 6.638 14.042 6.813 1.281.185 2.789-.306 2.346-1.723-2.976-8.235-15.872-10.031-19.563-16.911-.031-.059-.063-.113-.09-.171"/>
    <path fill="#BFE7FF" d="M170.993 121.945c1.933 1.723 3.948 2.862 3.736 4.999-.222 2.219-3.623 2.768-5.643 2.295"/>
    <path stroke="#384248" stroke-miterlimit="10" stroke-width=".4" d="M170.993 121.945c1.933 1.723 3.948 2.862 3.736 4.999-.222 2.219-3.623 2.768-5.643 2.295"/>
    <path fill="#BFE7FF" d="M194.703 144.553c-3.115-1.976-6.43-4.194-10.243-4.082-1.526.014-2.445 1.247-1.227 2.358 2.676 3.096 7.617 4.208 10.003 7.637"/>
    <path stroke="#384248" stroke-miterlimit="10" stroke-width=".4" d="M194.703 144.553c-3.115-1.976-6.43-4.194-10.243-4.082-1.526.014-2.445 1.247-1.227 2.358 2.676 3.096 7.617 4.208 10.003 7.637"/>
    <path fill="#BFE7FF" d="M168.398 145.7c3.999-.054 4.338-5.157.249-5.913l-.249 5.913Z"/>
    <path stroke="#384248" stroke-miterlimit="10" stroke-width=".4" d="M168.398 145.7c3.999-.054 4.338-5.157.249-5.913"/>
    <path fill="#BFE7FF" d="M183.763 149.782c-2.174-2.165-1.667-5.805-4.175-7.56-1.594-.918-5.086.022-4.275 2.281.376.905 1.884 1.238 2.083 2.264-1.214 2.272-4.777 1.759-7.06 2.047"/>
    <path stroke="#384248" stroke-miterlimit="10" stroke-width=".4" d="M183.763 149.782c-2.174-2.165-1.667-5.805-4.175-7.56-1.594-.918-5.086.022-4.275 2.281.376.905 1.884 1.238 2.083 2.264-1.214 2.272-4.777 1.759-7.06 2.047"/>
    <path fill="#BFE7FF" d="m179.765 119.689-2.445.303v-.004s-1.069 1.836 4.134 2.34c3.967.387 7.671-1.476 7.671-1.476l-2.568-.488c-2.747-.737-4.221-.804-6.792-.675Z"/>
    <path stroke="#384248" stroke-linecap="round" stroke-linejoin="round" stroke-width=".8" d="m179.538 119.689-2.218.303v-.004s-1.069 1.836 4.134 2.34c3.967.387 7.671-1.476 7.671-1.476l-2.342-.488"/>
    <path fill="#fff" d="M195.564 129.708c-2.065.909-4.478-.013-5.393-2.061a4.05 4.05 0 0 1 2.074-5.359c2.06-.909 4.478.013 5.393 2.061a4.051 4.051 0 0 1-2.074 5.359Z"/>
    <path fill="#fff" stroke="#384248" stroke-linecap="round" stroke-linejoin="round" stroke-width=".8" d="M190.026 127.273a4.161 4.161 0 0 1-.182-.796c-.058-.378-.058-.689 0-.932a4.06 4.06 0 0 1 2.4-3.262 4.109 4.109 0 0 1 3.555.117h.014c.321.126.652.378.987.733.158.162.312.333.444.522 2.019 2.61 6.394 13.163 8.554 18.761a3.66 3.66 0 0 1-1.938 4.689 3.703 3.703 0 0 1-4.714-1.548c-3.315-5.657-8.319-15.44-9.116-18.288l-.004.004Z"/>
    <path fill="#fff" d="M187.977 159.409a2.598 2.598 0 0 1 1.321-3.443 2.627 2.627 0 0 1 3.464 1.312 2.598 2.598 0 0 1-1.321 3.443 2.627 2.627 0 0 1-3.464-1.312Z"/>
    <path fill="#fff" d="M199.567 141.273c-1.662 1.715-8.002 10.778-11.271 15.476l4.066 3.285c3.953-4.154 11.611-12.11 12.897-14.166l-5.692-4.595Z"/>
    <path stroke="#384248" stroke-linecap="round" stroke-linejoin="round" stroke-width=".8" d="M188.291 156.753c3.161-4.536 9.12-13.073 11.076-15.264.073-.104.15-.207.236-.306M205.218 145.957c-.023.027-.046.045-.068.072-1.571 2.309-8.925 9.954-12.793 14.009"/>
    <g clip-path="url(#c)">
      <path fill="#fff" d="M189.274 158.875a2.641 2.641 0 0 0 3.666.629 2.606 2.606 0 0 0 .645-3.642 2.64 2.64 0 0 0-3.666-.63 2.607 2.607 0 0 0-.645 3.643Z"/>
      <path fill="#fff" d="M190.077 155.124s-5.363 2.261-6.908 3.291c-.644.428-1.758 1.103-2.566 1.794-1.129.959-1.73 2.242-1.73 2.242s.346.818.788.636c.442-.183 2.03-1.887 2.03-1.887l.934-.263c-.24.218-.461.713-.461.713-.453.393-1.122 4.322.105 4.107a.661.661 0 0 0 .264-.184c.136.459.782.409 1.14-.253.092-.279.163-1.235.764-1.633-.611.877-.571 1.756-.259 2.213.439.644 1.513-1.552 1.513-1.552s.646-.286 1.584-.887c0 0 2.198-.811 3.121-1.457.924-.646 2.784-2.594 2.784-2.594"/>
      <path fill="#fff" d="M182.557 165.6s-.038-2.045.696-3.124c.54-.789 2.189-1.92 2.189-1.92M184.465 163.712s1.325-1.223 2.377-2.063l-2.377 2.063ZM182.647 160.961s.591-.748.815-1.059c.224-.31-.037-.49-.037-.49"/>
      <path stroke="#384248" stroke-linecap="round" stroke-linejoin="round" stroke-width=".6" d="M190.136 155.067s-5.404 2.343-6.951 3.37c-.645.428-1.759 1.103-2.567 1.794-1.129.959-1.729 2.242-1.729 2.242s.345.818.787.636c.442-.183 2.031-1.887 2.031-1.887l.934-.262c-.24.217-.461.712-.461.712-.453.393-1.123 4.322.105 4.107a.642.642 0 0 0 .263-.184c.137.459.783.409 1.14-.253.092-.279.164-1.235.764-1.633-.61.877-.571 1.756-.259 2.214.439.643 1.514-1.552 1.514-1.552s.748-.557 1.687-1.158c0 0 2.083-.627 3.007-1.273.924-.645 2.799-2.61 2.799-2.61"/>
      <path stroke="#384248" stroke-linecap="round" stroke-linejoin="round" stroke-width=".6" d="M182.557 165.599s-.037-2.044.696-3.123c.54-.789 2.002-1.888 2.002-1.888M184.464 163.711s.8-1.009 1.848-1.846M182.647 160.961s.591-.748.815-1.059c.224-.31-.037-.49-.037-.49"/>
    </g>
    <path fill="#384248" d="M212.986 127.633a16.547 16.547 0 0 1 2.305 10.475c-.041.347.507.347.547 0a17.063 17.063 0 0 0-2.417-10.717c-.185-.298-.653 0-.467.274l.032-.032ZM217.114 128.826c.541 1.664.837 3.399.879 5.148 0 .347.556.347.54 0a18.785 18.785 0 0 0-.887-5.294c-.113-.33-.636-.185-.532.146ZM166.785 90a13.303 13.303 0 0 1 2.281 2.95.273.273 0 0 0 .351.063.276.276 0 0 0 .116-.337 13.601 13.601 0 0 0-2.361-3.062c-.258-.242-.645.145-.387.386ZM171.306 87.486a29.665 29.665 0 0 1 2.167 4.392c.121.322.653.185.524-.145a29.718 29.718 0 0 0-2.224-4.52.272.272 0 0 0-.351-.064.271.271 0 0 0-.116.337ZM179.582 84.263l.298 5.64c0 .347.564.347.548 0l-.306-5.64c0-.347-.564-.355-.54 0ZM187.373 85.415a19.89 19.89 0 0 1-.911 3.546c-.121.33.403.475.524.145.412-1.151.717-2.338.911-3.546a.292.292 0 0 0-.194-.338.272.272 0 0 0-.33.193Z"/>
  </g>
  <defs>
    <clipPath id="a">
      <path fill="#fff" d="M.5 0h240v240H.5z"/>
    </clipPath>
    <clipPath id="b">
      <path fill="#fff" d="m140.088 121.062 15.242-8.745-8.8-15.146-15.242 8.745z"/>
    </clipPath>
    <clipPath id="c">
      <path fill="#fff" d="m199.336 163.996-10.398-14.706L174.1 159.66l10.399 14.707z"/>
    </clipPath>
  </defs>
</svg>
