<?xml version="1.0" encoding="UTF-8"?><svg id="Layer_1" xmlns="http://www.w3.org/2000/svg" viewBox="0 0 142.9459 121.49144"><defs><style>.cls-1,.cls-2,.cls-3,.cls-4{fill:none;stroke:#000;}.cls-1,.cls-2,.cls-4{stroke-linecap:round;}.cls-1,.cls-4{stroke-linejoin:round;}.cls-5{opacity:.09;}.cls-2,.cls-3{stroke-miterlimit:10;}.cls-6{fill:#b4cef3;}.cls-6,.cls-7,.cls-8,.cls-9{stroke-width:0px;}.cls-7{fill:#f3f2f2;}.cls-8{fill:#cecccc;}.cls-4{stroke-dasharray:0 3;}.cls-9{fill:#fff;}</style></defs><circle class="cls-9" cx="66.26507" cy="60.18281" r="60.05379"/><circle class="cls-6" cx="67.42988" cy="62.5155" r="58.97593"/><circle class="cls-3" cx="69.80124" cy="58.93846" r="58.43846"/><path class="cls-9" d="M74.93033,46.42322c.31246,0,.54185-.00001.77123,0,5.78364.00019,11.56731.0081,17.35093-.00357,2.06128-.00416,3.67346.82558,4.78731,2.54509,1.40121,2.16309,1.06336,4.66748-.8183,6.43406-.28108.26388-.5825.50608-.92208.79939,2.18008,1.23033,3.47672,2.97317,3.19204,5.53445-.27892,2.50961-1.81001,4.01391-4.21472,4.77708,1.27755,1.72936,1.65243,3.58941.86288,5.58906-.79892,2.02337-2.41318,3.03562-4.4377,3.41813.25358.77321.5954,1.50377.72653,2.27038.50937,2.97795-2.01561,6.01606-5.03775,6.03035-6.13524.02901-12.27228.08824-18.40564-.02448-5.01659-.0922-9.79991-1.34323-14.3394-3.49928-.34609-.16438-.47645-.37587-.47602-.76488.01035-9.35943.00844-18.71886.00798-28.0783-.00001-.27627-.0225-.5249.34964-.63062,2.78908-.79237,4.78365-2.65088,6.43326-4.92143,2.0965-2.88566,3.70925-6.03589,4.43239-9.53654.38037-1.84133.37424-3.76508.50803-5.65406.14076-1.9874.25348-3.97709.34747-5.96725.02091-.44279.31164-.56494.61185-.67872,2.16097-.81905,4.1417-.51357,5.89715,1.01371,1.41176,1.22827,2.20965,2.86353,2.90149,4.54974,1.16665,2.84347,1.36065,5.79318.8403,8.80013-.42584,2.46076-.87989,4.91664-1.3177,7.37535-.03022.16974-.02936.34502-.05117.62222Z"/><rect class="cls-9" x="39.23286" y="49.82943" width="14.65044" height="31.61686" rx="2.14273" ry="2.14273"/><path class="cls-1" d="M73.57236,47.85374c.31246,0,.54185-.00001.77123,0,5.78364.00019,11.56731.0081,17.35093-.00357,2.06128-.00416,3.67346.82558,4.78731,2.54509,1.40121,2.16309,1.06336,4.66748-.8183,6.43406-.28108.26388-.5825.50608-.92208.79939,2.18008,1.23033,3.47672,2.97317,3.19204,5.53445-.27892,2.50961-1.81001,4.01391-4.21472,4.77708,1.27755,1.72936,1.65243,3.58941.86288,5.58906-.79892,2.02337-2.41318,3.03562-4.4377,3.41813.25358.77321.5954,1.50377.72653,2.27038.50937,2.97795-2.01561,6.01606-5.03775,6.03035-6.13524.02901-12.27228.08824-18.40564-.02448-5.01659-.0922-9.79991-1.34323-14.3394-3.49928-.34609-.16438-.47645-.37587-.47602-.76488.01035-9.35943.00844-18.71886.00798-28.0783-.00001-.27627-.0225-.5249.34964-.63062,2.78908-.79237,4.78365-2.65088,6.43326-4.92143,2.0965-2.88566,3.70925-6.03589,4.43239-9.53654.38037-1.84133.37424-3.76508.50803-5.65406.14076-1.9874.25348-3.97709.34747-5.96725.02091-.44279.31164-.56494.61185-.67872,2.16097-.81905,4.1417-.51357,5.89715,1.01371,1.41176,1.22827,2.20965,2.86353,2.90149,4.54974,1.16665,2.84347,1.36065,5.79318.8403,8.80013-.42584,2.46076-.87989,4.91664-1.3177,7.37535-.03022.16974-.02936.34502-.05117.62222Z"/><rect class="cls-1" x="37.87489" y="51.25995" width="14.65044" height="31.61686" rx="2.14273" ry="2.14273"/><g class="cls-5"><line class="cls-2" x1="4.44121" y1="8.66109" x2="4.44121" y2="16.5435"/><line class="cls-2" x1="8.38241" y1="12.60229" x2=".5" y2="12.60229"/></g><g class="cls-5"><line class="cls-2" x1="122.36591" y1="107.97106" x2="122.36591" y2="116.70484"/><line class="cls-2" x1="126.7328" y1="112.33795" x2="117.99902" y2="112.33795"/></g><g class="cls-5"><line class="cls-2" x1="139.07524" y1="40.98044" x2="139.07524" y2="47.72177"/><line class="cls-2" x1="142.4459" y1="44.3511" x2="135.70457" y2="44.3511"/></g><polygon class="cls-7" points="140.1272 71.44244 126.96777 95.58456 119.7944 90.24163 117.12293 88.2133 140.1272 71.44244"/><polygon class="cls-7" points="140.1272 71.44244 117.12293 88.2133 117.02399 88.31224 115.73773 94.44671 113.26415 86.08602 113.31362 86.08602 140.1272 71.44244"/><polygon class="cls-7" points="140.1272 71.44244 113.31362 86.08602 104.90346 81.83147 140.1272 71.44244"/><polygon class="cls-8" points="119.7944 90.24163 119.74492 90.2911 115.73773 94.44671 117.02399 88.31224 117.12293 88.2133 119.7944 90.24163"/><polyline class="cls-1" points="113.31362 86.08602 104.90346 81.83147 140.1272 71.44244"/><polyline class="cls-1" points="140.1272 71.44244 126.96777 95.58456 119.7944 90.24163 117.12293 88.2133"/><polygon class="cls-1" points="140.00049 71.59947 117.12293 88.2133 117.02399 88.31224 115.73773 94.44671 113.26415 86.08602 113.31362 86.08602 140.00049 71.59947"/><line class="cls-1" x1="119.74492" y1="90.2911" x2="115.73773" y2="94.44671"/><path class="cls-4" d="M108.3108,90.83956c-5.49133,2.97969-11.29638,5.89002-17.35192,8.67637C47.46601,119.52837,7.52153,125.56645,1.7404,113.00236c-2.65639-5.77312,2.36248-14.46926,12.78347-24.12481"/></svg>