<svg width="250" height="250" viewBox="0 0 250 250" fill="none" xmlns="http://www.w3.org/2000/svg">
<circle cx="125" cy="125" r="125" fill="#FAFAFA"/>
<path d="M226.468 76.8096L228.91 74.3671L228.02 71.0348L224.68 70.1367L222.237 72.5792L223.135 75.9199L226.468 76.8096Z" fill="#FCEC70"/>
<path d="M204.258 20.4395H22V129.766H204.258V20.4395Z" fill="#7BD3FF"/>
<path d="M204.258 20.4395H22V129.766H204.258V20.4395Z" stroke="black" stroke-width="0.75" stroke-miterlimit="10"/>
<path d="M211.728 20.4395H29.4697V129.766H211.728V20.4395Z" fill="#E9F7FF"/>
<path d="M211.728 20.4395H29.4697V129.766H211.728V20.4395Z" stroke="black" stroke-width="0.75" stroke-miterlimit="10"/>
<path d="M126.374 17.4087L135.808 27.6237C135.908 27.7185 136.029 27.7873 136.162 27.8241C136.294 27.8609 136.434 27.8645 136.568 27.8346C136.703 27.8048 136.828 27.7424 136.932 27.6529C137.037 27.5634 137.117 27.4496 137.168 27.3215L141.297 14.0345C141.329 13.9002 141.328 13.7601 141.293 13.6266C141.258 13.4931 141.191 13.3703 141.097 13.269C141.003 13.1677 140.886 13.0912 140.755 13.0461C140.625 13.001 140.485 12.9887 140.349 13.0105L126.785 16.0825C126.654 16.1225 126.535 16.1939 126.438 16.2905C126.341 16.3871 126.269 16.5059 126.228 16.6367C126.188 16.7675 126.18 16.9062 126.205 17.0408C126.23 17.1753 126.288 17.3016 126.374 17.4087Z" fill="#FFA766"/>
<path d="M40.2945 207.255L33.5938 200.555L26.893 207.255L33.5937 213.956L40.2945 207.255Z" fill="#FCEB4D"/>
<path d="M150.262 135.742L147.786 136.397L143.194 133.04L148.793 128.406L151.311 130.278C151.787 130.619 152.155 131.089 152.372 131.633C152.589 132.177 152.645 132.771 152.535 133.346C152.425 133.921 152.152 134.452 151.749 134.877C151.346 135.301 150.83 135.602 150.262 135.742Z" fill="white"/>
<path d="M195.436 142.281L177.65 145.881L173.353 135.188L168.971 142.843C167.981 143.942 163.717 144.597 162.256 144.203C141.382 138.327 148.457 134.323 151.664 131.293L157.925 133.081L162.122 134.483L167.779 119.484C168.268 117.719 169.38 116.192 170.91 115.186L177.189 112.399L177.424 110.654L185.993 108.463L187.37 111.51C196.041 110.133 196.788 110.771 199.516 117.981L197.635 125.208L200.858 138.411C201.513 142.239 199.314 141.903 195.436 142.281Z" fill="white"/>
<path d="M177.759 144.999C177.688 147.289 177.264 149.554 176.5 151.714C170.489 171.034 165.977 190.79 163.003 210.804C161.879 218.359 160.72 226.333 160.779 233.996C160.779 234.346 160.661 234.686 160.443 234.961C159.749 235.78 159.118 236.65 158.555 237.563H166.453C166.946 237.562 167.425 237.397 167.812 237.093C168.2 236.788 168.475 236.363 168.593 235.884C169.852 230.731 173.764 215.06 176.357 208.354C178.157 203.269 179.189 197.945 179.421 192.557C179.482 191.435 179.788 190.34 180.319 189.35C182.686 184.969 202.277 151.504 202.277 151.504C202.277 151.504 200.598 137.184 193.287 140.508C193.287 140.508 188.251 141.213 187.11 141.709C185.968 142.204 179.01 144.386 179.01 144.386" fill="white"/>
<path d="M142.523 238H179.455C179.566 238 179.673 237.955 179.752 237.877C179.83 237.798 179.875 237.691 179.875 237.58C179.875 237.469 179.83 237.362 179.752 237.283C179.673 237.204 179.566 237.16 179.455 237.16H142.523C142.412 237.16 142.305 237.204 142.226 237.283C142.148 237.362 142.104 237.469 142.104 237.58C142.104 237.691 142.148 237.798 142.226 237.877C142.305 237.955 142.412 238 142.523 238Z" fill="black"/>
<path d="M183.618 103.871C183.82 104.753 184.029 105.626 184.315 106.473C184.541 107.162 184.81 107.833 185.062 108.513C185.154 108.765 185.557 108.656 185.465 108.404C185.213 107.724 184.944 107.052 184.718 106.364C184.432 105.525 184.222 104.635 184.021 103.762C183.962 103.502 183.559 103.611 183.618 103.871Z" fill="black"/>
<path d="M173.638 94.3105C173.29 96.0938 173.077 97.9007 173 99.716V99.9007C172.888 100.597 172.737 101.286 172.547 101.965C172.491 102.174 172.518 102.395 172.621 102.584C172.724 102.773 172.896 102.915 173.101 102.981C173.101 103.115 173.101 103.258 173.101 103.392C173.361 105.474 173.428 109.461 178.33 107.413" stroke="black" stroke-width="0.49" stroke-miterlimit="10"/>
<path d="M173.345 94.5968L175.133 96.2167C175.274 96.3283 175.393 96.4648 175.485 96.6196C175.588 96.8545 175.634 97.1105 175.619 97.3666C175.609 98.2946 175.654 99.2223 175.754 100.145C175.893 99.676 176.094 99.2274 176.35 98.8103C176.394 98.7555 176.453 98.714 176.52 98.6903C176.586 98.6666 176.658 98.6617 176.727 98.676C176.946 98.676 177.197 99.0537 177.273 99.2636C177.383 99.6331 177.41 100.022 177.354 100.404C177.297 100.785 177.158 101.149 176.946 101.471C177.7 102.084 178.367 102.799 178.926 103.595C179.361 104.411 180.007 105.096 180.798 105.576C181.504 105.804 182.258 105.836 182.981 105.668C183.39 105.615 183.794 105.528 184.189 105.408C184.248 105.408 184.441 105.357 184.483 105.307C184.525 105.257 184.407 105.206 184.416 105.139C184.71 103.351 185.129 101.563 185.415 99.7756C185.582 98.9643 185.65 98.1356 185.616 97.3079C185.57 96.4733 185.225 95.6834 184.642 95.0836C184.5 94.977 184.387 94.8353 184.315 94.6723C184.306 94.5858 184.306 94.4986 184.315 94.4121C184.28 94.1671 184.194 93.9319 184.064 93.7212C183.934 93.5104 183.763 93.3285 183.56 93.1866C183.054 92.8096 182.486 92.5254 181.881 92.3473C180.47 91.8781 178.97 91.7355 177.496 91.9303C176.022 92.1252 174.611 92.6523 173.37 93.472C173.041 93.659 172.768 93.9316 172.581 94.261C172.502 94.4512 172.461 94.6552 172.461 94.8612C172.461 95.0672 172.502 95.2711 172.581 95.4613C172.729 95.8443 172.933 96.2034 173.185 96.5273C173.227 95.8928 173.351 95.2664 173.555 94.6639" fill="black"/>
<path d="M173.193 94.7379L174.536 95.955C174.834 96.166 175.094 96.424 175.309 96.7188C175.405 96.9876 175.442 97.2738 175.418 97.5581C175.402 98.4445 175.45 99.3309 175.56 100.211C175.56 100.429 175.896 100.387 175.955 100.211C176.014 100.034 176.089 99.8244 176.165 99.6314C176.215 99.4934 176.274 99.3589 176.341 99.2285C176.442 99.0186 176.433 98.9683 176.677 98.9851C177.13 98.9851 177.197 99.7069 177.18 100.059C177.145 100.524 177.005 100.975 176.769 101.377C176.74 101.413 176.725 101.457 176.725 101.503C176.725 101.549 176.74 101.593 176.769 101.629C177.506 102.232 178.161 102.929 178.716 103.702C179.098 104.345 179.57 104.931 180.118 105.44C180.751 105.888 181.533 106.075 182.3 105.96C183.075 105.944 183.84 105.787 184.558 105.498C184.59 105.48 184.617 105.453 184.635 105.42C184.652 105.388 184.661 105.351 184.659 105.314C184.696 104.335 184.845 103.363 185.104 102.418C185.322 101.327 185.54 100.227 185.691 99.1194C185.882 98.1519 185.836 97.1526 185.557 96.2068C185.436 95.862 185.26 95.539 185.037 95.2499C184.902 95.082 184.709 94.9478 184.583 94.7715C184.484 94.5418 184.419 94.2985 184.39 94.0496C183.878 92.4549 181.503 91.9009 180.076 91.7078C178.302 91.4742 176.498 91.7146 174.847 92.4045C173.91 92.6985 173.075 93.2513 172.438 93.9993C171.876 94.8806 172.438 95.871 172.925 96.6181C172.949 96.6558 172.985 96.6847 173.027 96.7006C173.069 96.7165 173.115 96.7184 173.158 96.7062C173.201 96.694 173.24 96.6683 173.267 96.6327C173.295 96.5972 173.31 96.5538 173.311 96.509C173.363 95.8922 173.487 95.2837 173.68 94.6959C173.764 94.4441 173.361 94.335 173.277 94.5868C173.077 95.2106 172.95 95.8557 172.9 96.509L173.286 96.4082C172.872 95.9446 172.635 95.3505 172.614 94.7295C172.673 93.9909 173.454 93.588 173.999 93.2606C174.96 92.7168 176.008 92.3447 177.096 92.1611C178.207 91.9636 179.343 91.9636 180.454 92.1611C181.608 92.2869 182.695 92.7646 183.568 93.5292C183.782 93.7344 183.934 93.9965 184.004 94.2847C184.01 94.4857 184.05 94.6844 184.122 94.8722C184.212 94.996 184.316 95.1087 184.432 95.2079C184.685 95.4472 184.89 95.732 185.037 96.0473C185.582 97.2812 185.314 98.6829 185.104 99.9587C184.894 101.235 184.634 102.41 184.399 103.635C184.288 104.139 184.209 104.649 184.164 105.163C184.164 105.347 184.281 105.112 184.164 105.163C184.068 105.173 183.974 105.198 183.887 105.238C183.61 105.305 183.324 105.364 183.047 105.415C182.271 105.619 181.451 105.581 180.697 105.305C180.2 105.011 179.782 104.599 179.48 104.105C178.794 103.061 177.966 102.118 177.021 101.302V101.553C177.449 100.714 177.927 99.0354 176.828 98.4982C175.988 98.0869 175.636 99.5474 175.46 100.068H175.854C175.695 99.0354 175.854 97.9862 175.703 96.9538C175.609 96.4987 175.341 96.0983 174.956 95.8375L173.386 94.4189C173.193 94.2427 172.9 94.5365 173.093 94.7127L173.193 94.7379Z" fill="black"/>
<path d="M176.727 99.6488C176.575 99.6908 176.525 99.8419 176.483 99.9678C176.427 100.139 176.39 100.317 176.374 100.497C176.374 100.564 176.475 100.564 176.483 100.497C176.493 100.343 176.521 100.191 176.567 100.043C176.567 99.9426 176.634 99.7831 176.752 99.7495C176.869 99.716 176.752 99.6236 176.752 99.6488H176.727Z" fill="black"/>
<path d="M176.727 100.143C176.689 100.125 176.647 100.115 176.605 100.115C176.563 100.115 176.521 100.125 176.484 100.143C176.475 100.153 176.471 100.165 176.471 100.177C176.471 100.189 176.475 100.201 176.484 100.211C176.494 100.219 176.507 100.224 176.521 100.224C176.535 100.224 176.548 100.219 176.559 100.211H176.761L176.727 100.143Z" fill="black"/>
<path d="M175.695 99.4297C174.787 99.4493 173.882 99.5278 172.984 99.6647C172.925 99.6647 172.984 99.7822 172.984 99.7654C173.871 99.6309 174.765 99.5552 175.662 99.5388C175.673 99.5344 175.682 99.5269 175.689 99.5172C175.695 99.5075 175.699 99.496 175.699 99.4842C175.699 99.4725 175.695 99.461 175.689 99.4513C175.682 99.4416 175.673 99.434 175.662 99.4297H175.695Z" fill="black"/>
<path d="M172.883 99.3046C172.832 99.1116 172.622 98.8514 172.396 98.9521C172.291 99.0196 172.205 99.1113 172.143 99.2195C172.082 99.3276 172.048 99.449 172.043 99.5732C172.009 99.8342 172.027 100.099 172.094 100.354C172.108 100.474 172.161 100.586 172.244 100.674C172.327 100.761 172.436 100.82 172.555 100.841C172.622 100.841 172.622 100.748 172.555 100.74C172.329 100.74 172.219 100.48 172.177 100.278C172.14 100.088 172.123 99.8934 172.127 99.6991C172.14 99.5081 172.2 99.3232 172.303 99.1619C172.379 99.0612 172.48 98.9941 172.606 99.0696C172.695 99.1309 172.758 99.2239 172.782 99.3298C172.782 99.3432 172.787 99.356 172.797 99.3654C172.806 99.3749 172.819 99.3802 172.832 99.3802C172.846 99.3802 172.858 99.3749 172.868 99.3654C172.877 99.356 172.883 99.3432 172.883 99.3298V99.3046Z" fill="black"/>
<path d="M177.029 107.975C177.306 108.697 177.541 109.436 177.742 110.174C177.761 110.223 177.797 110.262 177.843 110.286C177.889 110.309 177.943 110.315 177.993 110.301C178.043 110.288 178.086 110.256 178.114 110.212C178.142 110.169 178.153 110.116 178.145 110.065C177.944 109.318 177.7 108.588 177.432 107.866C177.414 107.814 177.378 107.77 177.33 107.744C177.281 107.717 177.225 107.71 177.171 107.723C177.12 107.739 177.076 107.774 177.05 107.821C177.023 107.868 177.016 107.923 177.029 107.975Z" fill="black"/>
<path d="M177.491 112.398L177.583 111.416C177.581 111.213 177.649 111.015 177.774 110.855C177.899 110.695 178.074 110.582 178.272 110.535C178.8 110.375 179.329 110.232 179.866 110.081C180.999 109.771 182.149 109.485 183.299 109.242L184.978 108.848C185.267 108.751 185.565 108.686 185.868 108.654C186.279 108.654 186.413 108.999 186.522 109.326C186.735 110.108 186.987 110.878 187.278 111.634C187.395 111.878 187.748 111.634 187.639 111.424C187.453 110.956 187.296 110.477 187.169 109.989C187.083 109.485 186.898 109.002 186.623 108.571C186.254 108.151 185.784 108.252 185.28 108.352L183.182 108.839C181.755 109.175 180.336 109.536 178.935 109.939C178.481 110.065 177.684 110.14 177.365 110.526C177.265 110.682 177.21 110.862 177.206 111.047C177.138 111.5 177.113 111.97 177.071 112.423C177.071 112.692 177.457 112.692 177.483 112.423L177.491 112.398Z" fill="black"/>
<path d="M179.757 112.18C175.35 112.306 170.524 113.59 168.073 117.594C166.89 119.532 166.478 121.79 165.908 123.922C165.4 125.709 164.8 127.468 164.111 129.193C163.381 131.132 162.601 133.063 161.988 135.069C161.912 135.321 162.315 135.43 162.391 135.178C163.432 131.77 164.909 128.522 166 125.106C166.596 123.2 166.898 121.22 167.679 119.365C168.523 117.286 170.051 115.557 172.01 114.463C174.411 113.219 177.079 112.58 179.782 112.599C179.83 112.59 179.872 112.564 179.903 112.527C179.934 112.489 179.95 112.442 179.95 112.394C179.95 112.345 179.934 112.298 179.903 112.261C179.872 112.223 179.83 112.198 179.782 112.188L179.757 112.18Z" fill="black"/>
<path d="M148.231 137.521C150.15 139.212 152.254 140.681 154.501 141.902C156.723 143.153 159.103 144.098 161.577 144.714C163.868 145.235 166.37 145.226 168.292 143.732C169.185 142.986 169.96 142.108 170.592 141.13C171.243 140.188 171.805 139.188 172.27 138.142C173.278 135.909 173.857 133.517 174.788 131.243C174.889 130.991 174.486 130.89 174.394 131.133C173.638 133.039 173.101 135.028 172.363 136.942C171.578 139.054 170.389 140.993 168.862 142.649C167.049 144.555 164.599 144.899 162.148 144.404C159.753 143.874 157.444 143.009 155.29 141.835C152.872 140.58 150.616 139.032 148.575 137.227C148.374 137.051 148.08 137.345 148.281 137.521H148.231Z" fill="black"/>
<path d="M148.525 137.21C148.334 135.946 148.497 134.653 148.995 133.475C149.549 132.25 150.976 131.192 152.352 131.612C152.923 131.788 153.46 132.065 154.031 132.241C154.962 132.518 155.919 132.753 156.859 133.005L159.495 133.719L160.905 134.096C161.327 134.161 161.721 134.348 162.038 134.634C162.215 134.835 162.508 134.541 162.332 134.34C161.778 133.727 160.762 133.626 160.007 133.425L156.767 132.585C155.827 132.325 154.853 132.124 153.93 131.805C153.286 131.497 152.607 131.269 151.907 131.125C151.23 131.128 150.568 131.322 149.998 131.686C149.427 132.05 148.972 132.569 148.684 133.181C148.102 134.451 147.898 135.861 148.097 137.244C148.097 137.504 148.55 137.512 148.516 137.244L148.525 137.21Z" fill="black"/>
<path d="M148.114 136.287C147.988 136.287 147.845 136.203 147.744 136.145C147.644 136.086 147.509 136.002 147.392 135.927C147.167 135.766 146.956 135.586 146.762 135.389C146.376 134.987 146.066 134.517 145.847 134.004C145.817 133.962 145.772 133.933 145.721 133.922C145.67 133.912 145.617 133.92 145.572 133.946C145.527 133.973 145.494 134.014 145.478 134.064C145.462 134.113 145.465 134.167 145.486 134.214C145.741 134.794 146.103 135.321 146.552 135.767C146.782 135.988 147.033 136.188 147.299 136.363C147.425 136.476 147.573 136.563 147.733 136.617C147.893 136.672 148.062 136.694 148.231 136.682C148.483 136.623 148.374 136.22 148.114 136.287Z" fill="black"/>
<path d="M143.807 133.585C143.818 133.208 143.926 132.841 144.122 132.518C144.318 132.196 144.594 131.93 144.923 131.747C144.976 131.73 145.019 131.693 145.046 131.645C145.072 131.597 145.079 131.54 145.066 131.487C145.059 131.461 145.047 131.436 145.031 131.415C145.014 131.393 144.994 131.375 144.97 131.362C144.947 131.349 144.921 131.34 144.894 131.337C144.867 131.334 144.84 131.337 144.814 131.344C144.41 131.541 144.066 131.843 143.818 132.218C143.571 132.593 143.427 133.027 143.404 133.476C143.396 133.527 143.407 133.58 143.435 133.623C143.463 133.667 143.506 133.699 143.556 133.712C143.606 133.726 143.66 133.72 143.706 133.697C143.752 133.673 143.788 133.634 143.807 133.585Z" fill="black"/>
<path d="M145.528 130.301H145.654H145.596H145.747H145.822C145.864 130.301 145.78 130.301 145.822 130.301L145.956 130.368L146.015 130.41C146.052 130.45 146.103 130.474 146.158 130.477C146.186 130.477 146.214 130.471 146.24 130.459C146.266 130.448 146.29 130.431 146.309 130.41C146.346 130.37 146.366 130.318 146.366 130.263C146.366 130.209 146.346 130.157 146.309 130.116C146.074 129.916 145.778 129.8 145.47 129.789C145.415 129.791 145.362 129.814 145.324 129.853C145.285 129.892 145.262 129.944 145.26 129.999C145.262 130.053 145.285 130.104 145.324 130.142C145.363 130.179 145.415 130.2 145.47 130.2L145.528 130.301Z" fill="black"/>
<path d="M146.879 129.212L147.072 129.346C147.072 129.346 147.072 129.346 147.072 129.388L147.164 129.463L147.324 129.623L147.399 129.715C147.426 129.759 147.468 129.792 147.517 129.808C147.557 129.822 147.6 129.823 147.641 129.811C147.682 129.8 147.718 129.775 147.744 129.742C147.77 129.708 147.785 129.667 147.786 129.625C147.788 129.582 147.776 129.541 147.752 129.505C147.545 129.218 147.283 128.975 146.98 128.792C146.933 128.767 146.878 128.761 146.826 128.775C146.775 128.789 146.731 128.822 146.703 128.868C146.675 128.915 146.668 128.972 146.682 129.026C146.696 129.079 146.731 129.125 146.778 129.153L146.879 129.212Z" fill="black"/>
<path d="M148.735 128.631C148.798 128.649 148.854 128.687 148.894 128.74L149.095 128.959C149.23 129.118 149.356 129.286 149.49 129.454L150.271 130.461C150.311 130.498 150.363 130.518 150.417 130.518C150.472 130.518 150.524 130.498 150.564 130.461C150.603 130.422 150.624 130.369 150.624 130.314C150.624 130.259 150.603 130.206 150.564 130.167L149.725 129.101C149.591 128.933 149.465 128.765 149.322 128.606C149.206 128.431 149.035 128.301 148.835 128.237C148.809 128.229 148.782 128.227 148.755 128.23C148.729 128.233 148.703 128.241 148.679 128.255C148.656 128.268 148.635 128.286 148.619 128.307C148.602 128.329 148.59 128.353 148.583 128.379C148.57 128.432 148.578 128.487 148.604 128.534C148.631 128.581 148.675 128.616 148.726 128.631H148.735Z" fill="black"/>
<path d="M150.884 129.757L151.068 129.849L151.245 129.975C151.357 130.075 151.451 130.195 151.522 130.328C151.603 130.453 151.66 130.593 151.689 130.739C151.695 130.806 151.695 130.874 151.689 130.941V131.067C151.693 131.086 151.693 131.106 151.689 131.125C151.689 131.125 151.689 131.192 151.689 131.125C151.676 131.179 151.683 131.235 151.71 131.283C151.736 131.332 151.78 131.368 151.832 131.386C151.859 131.393 151.887 131.395 151.915 131.392C151.943 131.388 151.97 131.379 151.994 131.365C152.018 131.351 152.04 131.332 152.056 131.31C152.073 131.287 152.086 131.262 152.092 131.234C152.147 130.837 152.067 130.432 151.864 130.085C151.662 129.738 151.349 129.469 150.976 129.321C150.95 129.313 150.923 129.311 150.896 129.314C150.869 129.317 150.843 129.325 150.82 129.339C150.796 129.352 150.776 129.37 150.759 129.391C150.743 129.413 150.731 129.437 150.724 129.463C150.709 129.517 150.715 129.574 150.742 129.623C150.768 129.672 150.813 129.708 150.867 129.724L150.884 129.757Z" fill="black"/>
<path d="M173.152 135.246C174.188 137.573 174.916 140.025 175.317 142.54C175.51 144.102 175.863 145.654 177.6 146.083C177.852 146.141 177.969 145.747 177.709 145.68C175.905 145.243 175.871 143.422 175.653 141.903C175.225 139.572 174.52 137.301 173.554 135.137C173.454 134.894 173.059 134.995 173.152 135.246Z" fill="black"/>
<path d="M177.6 145.26C184.526 142.32 191.864 140.468 199.356 139.77C199.624 139.77 199.624 139.325 199.356 139.351C191.79 140.055 184.38 141.929 177.39 144.907C177.146 145.008 177.39 145.369 177.6 145.26Z" fill="black"/>
<path d="M187.487 111.425C188.888 111.17 190.304 111.016 191.726 110.963C193.117 110.848 194.51 111.14 195.738 111.802C198.256 113.389 199.356 116.494 199.163 119.356C199.028 121.396 198.164 123.276 197.434 125.156C197.341 125.4 197.736 125.509 197.837 125.266C198.64 123.502 199.204 121.639 199.515 119.726C199.678 118.217 199.486 116.69 198.953 115.269C198.448 113.911 197.576 112.72 196.435 111.827C195.274 110.986 193.873 110.541 192.44 110.56C190.719 110.542 189.001 110.696 187.311 111.022C187.051 111.022 187.16 111.467 187.42 111.425H187.487Z" fill="black"/>
<path d="M196.099 120.18L199.037 131.385C199.515 133.215 200.061 135.045 200.464 136.891C200.695 137.7 200.695 138.558 200.464 139.367C200.256 140.056 199.9 140.692 199.423 141.231C199.238 141.415 199.532 141.709 199.717 141.516C200.183 141.025 200.541 140.442 200.77 139.805C200.998 139.168 201.091 138.49 201.043 137.814C200.912 136.865 200.704 135.927 200.422 135.011L199.658 132.082L196.502 120.079C196.487 120.025 196.45 119.98 196.402 119.954C196.353 119.927 196.295 119.921 196.242 119.936C196.188 119.952 196.143 119.988 196.117 120.037C196.09 120.085 196.084 120.143 196.099 120.196V120.18Z" fill="black"/>
<path d="M168.484 117.451L167.124 114.421C166.906 113.926 166.646 113.439 166.47 112.927C166.363 112.699 166.316 112.448 166.333 112.196C166.351 111.945 166.433 111.703 166.57 111.492C166.738 111.29 166.453 110.988 166.277 111.198C165.555 112.088 166.117 113.179 166.52 114.077L168.123 117.661C168.232 117.904 168.593 117.661 168.484 117.451Z" fill="black"/>
<path d="M170.34 109.469C170.692 109.083 171.179 109.519 171.464 109.779C171.876 110.149 172.304 110.526 172.681 110.904L175.082 113.128C175.275 113.313 175.569 113.019 175.376 112.835L172.539 110.199C171.993 109.696 170.86 108.294 170.021 109.175C169.836 109.377 170.13 109.67 170.314 109.469H170.34Z" fill="black"/>
<path d="M170.306 109.511C170.579 108.323 170.695 107.104 170.65 105.885C170.661 105.343 170.531 104.808 170.272 104.332C170.011 103.943 169.677 103.606 169.29 103.342C168.89 103.035 168.453 102.781 167.989 102.586C167.645 102.461 166.998 102.276 166.696 102.586C166.394 102.897 166.554 103.426 166.696 103.703C166.93 104.167 167.255 104.578 167.653 104.911V104.618C167.224 105.092 166.908 105.656 166.726 106.269C166.544 106.883 166.503 107.529 166.604 108.16C166.646 108.42 167.049 108.311 167.007 108.051C166.921 107.49 166.961 106.918 167.124 106.375C167.287 105.833 167.568 105.332 167.947 104.911C167.984 104.871 168.004 104.819 168.004 104.765C168.004 104.71 167.984 104.658 167.947 104.618C167.62 104.35 167.337 104.032 167.108 103.678C167.003 103.502 166.942 103.303 166.931 103.098C166.931 102.788 167.158 102.813 167.41 102.855C168.228 103.059 168.968 103.496 169.542 104.114C169.818 104.457 170.02 104.853 170.136 105.278C170.251 105.702 170.278 106.146 170.213 106.582C170.2 107.529 170.084 108.471 169.869 109.394C169.81 109.654 170.213 109.763 170.272 109.503L170.306 109.511Z" fill="black"/>
<path d="M177.491 145C177.493 146.818 177.21 148.625 176.652 150.355C176.106 152.294 175.485 154.208 174.906 156.13C173.686 160.22 172.536 164.322 171.456 168.435C169.302 176.644 167.41 184.917 165.782 193.255C164.154 201.592 162.797 209.896 161.711 218.167C161.165 222.364 160.712 226.56 160.578 230.833C160.578 231.899 160.578 232.965 160.536 234.022C160.536 234.769 159.806 235.407 159.361 235.978C159.168 236.238 157.749 237.715 158.614 237.875C159.192 237.921 159.773 237.921 160.351 237.875H166.067C166.476 237.913 166.888 237.863 167.274 237.726C167.661 237.59 168.014 237.372 168.308 237.086C168.98 236.364 169.089 235.256 169.316 234.333C169.584 233.242 169.861 232.159 170.155 231.068C170.86 228.306 171.573 225.553 172.321 222.8C173.068 220.047 173.89 217.084 174.755 214.255C175.141 212.996 175.535 211.737 175.963 210.495C176.391 209.253 176.912 207.977 177.331 206.668C178.416 203.235 179.142 199.699 179.497 196.117C179.631 194.85 179.682 193.599 179.791 192.306C179.993 190.942 180.473 189.633 181.201 188.462C183.509 184.114 185.683 179.691 187.664 175.175C189.88 170.139 192.071 164.817 193.019 159.336C193.21 158.317 193.322 157.284 193.355 156.248C193.355 156.172 193.325 156.099 193.271 156.046C193.218 155.992 193.145 155.962 193.069 155.962C192.994 155.962 192.921 155.992 192.868 156.046C192.814 156.099 192.784 156.172 192.784 156.248C192.606 159.183 192.018 162.079 191.038 164.851C189.933 168.239 188.652 171.567 187.202 174.822C185.876 177.844 184.477 180.829 183.006 183.778C182.446 184.931 181.858 186.075 181.243 187.211C180.618 188.264 180.076 189.364 179.623 190.502C179.086 192.096 179.178 193.859 179.01 195.538C178.809 197.595 178.498 199.641 178.078 201.665C177.613 203.952 176.965 206.197 176.14 208.38C175.644 209.673 175.208 210.982 174.788 212.3C172.698 218.847 170.986 225.52 169.316 232.184C169.022 233.326 168.745 234.467 168.476 235.609C168.402 236.067 168.171 236.486 167.821 236.792C167.472 237.099 167.027 237.274 166.563 237.287H159.26C159.109 237.287 158.966 237.287 158.824 237.287C158.681 237.287 158.647 237.229 158.824 237.287L158.966 237.531C158.966 237.674 158.966 237.531 158.966 237.531C159.018 237.473 159.06 237.408 159.092 237.338L159.478 236.809C159.814 236.356 160.158 235.911 160.511 235.458C160.846 235.096 161.068 234.643 161.149 234.157C161.233 233.317 161.149 232.478 161.149 231.697C161.224 228.441 161.493 225.192 161.854 221.952C162.567 215.498 163.574 209.06 164.666 202.647C166.848 189.844 169.646 177.17 173.059 164.624C174.022 161.11 175.034 157.602 176.098 154.099C176.987 151.169 178.196 148.081 178.078 144.958C178.078 144.597 177.499 144.597 177.516 144.958L177.491 145Z" fill="black"/>
<path d="M198.769 139.67C199.969 143.766 201.287 147.837 202.126 152.025C202.902 156.231 203.139 160.518 202.831 164.783C202.621 168.275 202.185 171.741 201.664 175.191C201.614 175.552 202.16 175.703 202.218 175.342C203.16 169.883 203.584 164.346 203.486 158.807C203.276 154.805 202.611 150.84 201.505 146.989C200.825 144.471 200.061 142.011 199.331 139.519C199.304 139.455 199.255 139.403 199.192 139.372C199.13 139.342 199.059 139.336 198.992 139.354C198.925 139.373 198.867 139.415 198.829 139.473C198.791 139.531 198.775 139.601 198.785 139.67H198.769Z" fill="black"/>
<path d="M186.908 175.477C187.513 178.834 187.882 182.259 188.511 185.633C188.911 188.479 189.981 191.189 191.634 193.54C192.371 194.592 193.381 195.426 194.554 195.95C195.728 196.475 197.022 196.672 198.298 196.519C199.589 196.261 200.807 195.723 201.866 194.941C204.946 192.826 207.439 189.838 209.722 186.909C212.352 183.48 214.807 179.919 217.075 176.24C218.888 173.336 220.634 170.365 222.312 167.385C222.455 167.142 222.589 166.898 222.724 166.655C222.858 166.412 222.413 166.051 222.237 166.37C218.765 172.717 214.902 178.842 210.67 184.71C208.478 187.858 205.926 190.739 203.066 193.296C201.993 194.262 200.767 195.045 199.44 195.613C198.438 195.986 197.355 196.09 196.3 195.913C195.245 195.736 194.256 195.285 193.43 194.606C190.971 192.616 189.829 189.259 189.233 186.262C188.486 182.645 188.134 178.952 187.479 175.351C187.42 174.99 186.875 175.141 186.933 175.502L186.908 175.477Z" fill="black"/>
<path d="M199.826 179.338C200.958 176.907 202.578 174.736 204.585 172.959C206.617 171.087 208.958 169.601 211.141 167.923C213.323 166.244 215.522 164.272 217.612 162.333C218.133 161.846 218.645 161.359 219.173 160.881C219.332 160.69 219.553 160.561 219.796 160.517C220.04 160.472 220.292 160.515 220.508 160.637C220.823 160.774 221.128 160.931 221.423 161.107C222.626 161.819 223.767 162.634 224.831 163.541C225.393 164.011 225.947 164.49 226.509 164.968C226.751 165.161 226.976 165.374 227.181 165.606C227.338 165.761 227.436 165.966 227.458 166.185C227.458 166.58 227.063 166.613 226.761 166.63C225.234 166.689 223.664 166.286 222.136 166.202C221.775 166.202 221.775 166.748 222.136 166.773C223.695 166.996 225.264 167.136 226.837 167.192C227.082 167.209 227.326 167.145 227.533 167.013C227.74 166.88 227.899 166.684 227.987 166.454C228.024 166.188 227.991 165.917 227.893 165.667C227.794 165.417 227.633 165.196 227.424 165.027C226.372 164.013 225.25 163.074 224.067 162.215C223.462 161.753 222.85 161.309 222.212 160.914C221.621 160.497 220.97 160.171 220.281 159.949C219.989 159.893 219.687 159.919 219.408 160.024C219.13 160.129 218.886 160.309 218.703 160.545L216.865 162.223C215.64 163.357 214.414 164.473 213.147 165.581C211.879 166.689 210.536 167.713 209.151 168.687C207.926 169.526 206.701 170.365 205.534 171.347C202.898 173.385 200.776 176.013 199.339 179.019C199.197 179.346 199.684 179.64 199.826 179.304V179.338Z" fill="black"/>
<path d="M177.86 145.074L178.163 146.476C185.331 147.458 192.818 147.71 199.633 145.251C199.797 145.204 199.947 145.117 200.07 144.999C200.148 144.859 200.194 144.704 200.205 144.544C200.215 144.384 200.189 144.224 200.129 144.075L199.121 140.214C199.098 140.09 199.046 139.972 198.97 139.87C198.893 139.805 198.803 139.757 198.706 139.728C198.61 139.699 198.508 139.691 198.408 139.702C197.641 139.722 196.877 139.809 196.125 139.963C194.194 140.298 192.264 140.651 190.358 141.104C188.453 141.557 186.531 142.103 184.634 142.657L183.064 143.119C181.212 143.594 179.409 144.241 177.676 145.049" fill="black"/>
<path d="M177.659 145.134L177.961 146.535C177.97 146.57 177.987 146.602 178.012 146.627C178.038 146.652 178.069 146.67 178.104 146.678C184.743 147.576 191.651 147.895 198.139 145.956L199.323 145.578C199.622 145.513 199.906 145.393 200.162 145.226C200.599 144.865 200.439 144.286 200.313 143.816C200.078 142.901 199.843 141.986 199.6 141.079C199.474 140.576 199.449 139.762 198.878 139.56C198.146 139.425 197.393 139.462 196.679 139.669C195.789 139.812 194.908 139.98 194.018 140.139C192.247 140.467 190.493 140.844 188.755 141.298C186.816 141.801 184.886 142.38 182.964 142.976C181.125 143.459 179.333 144.105 177.609 144.907C177.374 145.024 177.609 145.377 177.819 145.259C179.303 144.568 180.845 144.006 182.427 143.581C183.979 143.128 185.532 142.666 187.093 142.229C190.282 141.341 193.519 140.635 196.788 140.114C197.21 140.042 197.636 139.994 198.064 139.972C198.484 139.972 198.761 139.904 198.962 140.324C199.106 140.719 199.213 141.126 199.281 141.541L199.65 142.96C199.759 143.371 199.877 143.799 199.969 144.177C200.034 144.362 200.054 144.561 200.028 144.756C199.944 145.033 199.659 145.083 199.432 145.159C198.714 145.423 197.983 145.65 197.241 145.839C194.148 146.606 190.969 146.975 187.782 146.938C186.044 146.938 184.307 146.871 182.569 146.728C181.671 146.653 180.773 146.56 179.883 146.451C179.432 146.437 178.983 146.383 178.54 146.292C178.238 146.2 178.289 146.057 178.23 145.788L178.062 144.991C178.003 144.731 177.6 144.84 177.659 145.1V145.134Z" fill="black"/>
<path d="M192.499 160.922C192.606 164.948 192.146 168.969 191.131 172.866C190.855 174.007 190.504 175.128 190.081 176.223C189.498 177.588 188.833 178.916 188.092 180.202C187.74 178.834 187.429 176.777 187.253 175.602C187.253 175.3 187.127 176.148 187.186 175.854C187.239 175.615 187.324 175.383 187.437 175.166C188.722 172.354 189.905 169.492 190.996 166.604C191.659 164.984 192.138 163.295 192.423 161.568" fill="black"/>
<path d="M192.288 160.921C192.389 164.287 192.079 167.652 191.365 170.943C191.049 172.538 190.623 174.108 190.089 175.644C189.479 177.188 188.752 178.683 187.915 180.117L188.293 180.168C188.075 179.328 187.907 178.43 187.764 177.549C187.689 177.129 187.63 176.709 187.563 176.298C187.563 176.072 187.563 175.643 187.412 175.459C187.392 175.434 187.367 175.415 187.339 175.401C187.31 175.387 187.279 175.38 187.248 175.38C187.216 175.38 187.185 175.387 187.157 175.401C187.129 175.415 187.104 175.434 187.084 175.459C186.976 175.631 186.934 175.837 186.967 176.038C187.009 176.265 187.302 176.206 187.37 176.038C187.588 175.501 187.789 174.955 188.033 174.418L188.872 172.571C189.367 171.413 189.854 170.246 190.316 169.071C191.386 166.719 192.172 164.248 192.658 161.71C192.658 161.45 192.288 161.341 192.255 161.601C191.767 164.137 190.984 166.608 189.921 168.962C189.418 170.23 188.897 171.48 188.352 172.731C188.091 173.344 187.814 173.965 187.512 174.578C187.311 175.022 187.16 175.484 186.975 175.929H187.378C187.378 175.929 187.462 175.669 187.378 175.753L187.051 175.711C187.185 175.879 187.16 176.449 187.193 176.668C187.26 177.07 187.319 177.465 187.395 177.868C187.529 178.707 187.689 179.547 187.89 180.319C187.902 180.357 187.924 180.391 187.955 180.417C187.986 180.443 188.023 180.459 188.063 180.465C188.102 180.47 188.143 180.464 188.179 180.447C188.216 180.43 188.246 180.403 188.268 180.369C189.09 178.959 189.811 177.492 190.425 175.979C190.992 174.387 191.438 172.754 191.759 171.094C192.482 167.768 192.8 164.366 192.708 160.963C192.708 160.695 192.28 160.695 192.288 160.963V160.921Z" fill="black"/>
<path d="M180.991 112.382L183.601 112.122C184.353 112.1 185.095 111.944 185.792 111.66C185.851 111.66 185.792 111.543 185.733 111.568C184.995 111.863 184.211 112.022 183.416 112.038L180.991 112.281C180.932 112.281 180.923 112.391 180.991 112.382Z" fill="black"/>
<path d="M191.76 137.36L192.104 137.251C192.113 137.242 192.117 137.23 192.117 137.217C192.117 137.205 192.113 137.193 192.104 137.184C192.104 137.184 192.104 137.184 192.046 137.184L191.693 137.301C191.687 137.31 191.684 137.32 191.684 137.33C191.684 137.341 191.687 137.351 191.693 137.36C191.702 137.368 191.714 137.373 191.727 137.373C191.739 137.373 191.751 137.368 191.76 137.36Z" fill="black"/>
<path d="M217.873 162.886C219.021 164.069 220.231 165.19 221.499 166.243C221.776 166.47 222.179 166.076 221.902 165.841C220.63 164.791 219.419 163.67 218.276 162.483C218.024 162.215 217.621 162.617 217.873 162.886Z" fill="black"/>
<path d="M221.65 166.629L221.725 166.705C221.751 166.732 221.782 166.752 221.818 166.763C221.852 166.78 221.889 166.788 221.927 166.788C221.965 166.788 222.002 166.78 222.036 166.763C222.071 166.752 222.103 166.732 222.128 166.705L222.17 166.646C222.182 166.599 222.182 166.55 222.17 166.503V166.428C222.155 166.38 222.129 166.337 222.095 166.302L222.019 166.226C221.994 166.199 221.962 166.179 221.927 166.167C221.893 166.151 221.855 166.143 221.818 166.143C221.78 166.143 221.743 166.151 221.708 166.167C221.673 166.179 221.641 166.199 221.616 166.226L221.574 166.285C221.548 166.328 221.533 166.377 221.532 166.428V166.503C221.547 166.55 221.573 166.594 221.608 166.629H221.65Z" fill="black"/>
<path d="M219.618 161.106C221.309 162.565 223.123 163.873 225.04 165.018C225.098 165.032 225.159 165.028 225.214 165.007C225.27 164.985 225.317 164.946 225.349 164.896C225.381 164.846 225.397 164.787 225.395 164.728C225.392 164.669 225.371 164.611 225.334 164.565C223.458 163.445 221.683 162.164 220.029 160.737C219.752 160.502 219.349 160.905 219.626 161.14L219.618 161.106Z" fill="black"/>
<path d="M161.148 234.819C162.466 234.643 163.792 234.475 165.119 234.316C165.415 234.259 165.715 234.231 166.017 234.232C166.277 234.232 166.487 234.442 166.747 234.425C166.962 234.391 167.165 234.301 167.334 234.165C167.459 234.089 167.598 234.039 167.742 234.019C167.886 233.999 168.033 234.008 168.174 234.047C168.247 234.067 168.326 234.057 168.392 234.019C168.458 233.982 168.506 233.919 168.526 233.846C168.546 233.772 168.536 233.694 168.499 233.628C168.461 233.562 168.398 233.513 168.325 233.493C168.062 233.435 167.79 233.435 167.528 233.493C167.305 233.575 167.091 233.679 166.89 233.804C166.621 233.93 166.319 233.695 166.05 233.678C165.749 233.688 165.449 233.719 165.152 233.77C163.776 233.93 162.399 234.106 161.031 234.291C160.67 234.341 160.821 234.887 161.182 234.836L161.148 234.819Z" fill="black"/>
<path d="M174.704 129.094C174.754 129.057 174.812 129.032 174.873 129.02C174.934 129.008 174.997 129.011 175.057 129.027C175.066 129.033 175.076 129.036 175.086 129.036C175.097 129.036 175.107 129.033 175.116 129.027C175.123 129.017 175.126 129.005 175.126 128.993C175.126 128.981 175.123 128.97 175.116 128.96C175.043 128.943 174.968 128.941 174.894 128.954C174.82 128.967 174.75 128.994 174.688 129.035C174.682 129.039 174.678 129.044 174.675 129.05C174.672 129.056 174.671 129.062 174.671 129.069C174.671 129.075 174.672 129.082 174.675 129.088C174.678 129.093 174.682 129.098 174.688 129.102C174.698 129.109 174.709 129.113 174.721 129.113C174.733 129.113 174.745 129.109 174.755 129.102L174.704 129.094Z" fill="black"/>
<path d="M178.171 107.59C178.003 107.968 177.852 108.362 177.709 108.757C177.625 108.62 177.565 108.469 177.533 108.312L177.44 108.001C177.44 108.001 177.44 108.001 177.44 107.959C177.454 107.956 177.469 107.956 177.482 107.959L177.919 107.791" fill="black"/>
<path d="M177.995 107.488C177.818 107.891 177.659 108.328 177.508 108.706L177.885 108.655L177.81 108.529V108.454C177.81 108.361 177.751 108.261 177.726 108.168C177.701 108.076 177.726 108.059 177.684 108.009C177.642 107.959 177.625 108.009 177.575 108.16H177.617H177.684L178.003 108.034C178.056 108.017 178.1 107.981 178.128 107.933C178.156 107.885 178.165 107.828 178.154 107.774C178.137 107.722 178.1 107.678 178.052 107.651C178.004 107.625 177.947 107.618 177.894 107.631L177.508 107.782C177.424 107.782 177.34 107.841 177.298 107.925C177.279 107.969 177.27 108.016 177.27 108.063C177.27 108.111 177.279 108.158 177.298 108.202C177.346 108.457 177.434 108.704 177.558 108.932C177.58 108.966 177.61 108.993 177.647 109.01C177.683 109.027 177.723 109.033 177.763 109.028C177.803 109.023 177.84 109.006 177.871 108.98C177.901 108.954 177.924 108.92 177.936 108.882L178.162 108.311C178.162 108.219 178.23 108.126 178.272 108.034L178.33 107.883V107.799C178.356 107.751 178.362 107.694 178.348 107.642C178.334 107.589 178.301 107.543 178.255 107.514C178.232 107.5 178.206 107.492 178.18 107.488C178.153 107.485 178.126 107.486 178.1 107.493C178.075 107.5 178.051 107.513 178.029 107.529C178.008 107.545 177.991 107.566 177.978 107.589L177.995 107.488Z" fill="black"/>
<path d="M168.258 117.335C169.079 114.98 170.758 113.02 172.958 111.845C173.07 111.778 173.197 111.74 173.328 111.736C173.484 111.774 173.623 111.862 173.722 111.988C174.074 112.333 174.453 112.651 174.855 112.937C173.62 113.242 172.432 113.71 171.321 114.33C170.209 114.958 169.287 115.874 168.652 116.982" fill="black"/>
<path d="M168.476 117.393C168.98 115.951 169.817 114.649 170.919 113.591C171.463 113.06 172.072 112.6 172.732 112.223C172.88 112.116 173.04 112.029 173.21 111.962C173.453 111.912 173.646 112.181 173.798 112.332C174.107 112.61 174.432 112.871 174.771 113.112L174.822 112.735C172.345 113.414 169.785 114.522 168.493 116.881C168.471 116.928 168.468 116.982 168.484 117.031C168.5 117.081 168.534 117.123 168.579 117.149C168.623 117.175 168.677 117.183 168.727 117.173C168.778 117.162 168.823 117.133 168.854 117.091C170.096 114.833 172.555 113.784 174.931 113.137C174.969 113.126 175.003 113.103 175.029 113.072C175.055 113.042 175.071 113.004 175.077 112.965C175.082 112.925 175.076 112.885 175.059 112.848C175.042 112.812 175.015 112.781 174.981 112.76C174.575 112.45 174.186 112.12 173.814 111.769C173.701 111.65 173.55 111.573 173.387 111.55C173.224 111.527 173.058 111.56 172.916 111.643C172.161 112.029 171.463 112.517 170.843 113.095C169.586 114.243 168.634 115.685 168.073 117.292C167.989 117.552 168.384 117.653 168.476 117.41V117.393Z" fill="black"/>
<path d="M207.028 142.985C209.018 146.254 209.863 150.093 209.429 153.896C209.387 154.257 209.958 154.257 210 153.896C210.414 149.999 209.528 146.075 207.481 142.733C207.288 142.422 206.802 142.733 206.995 143.018L207.028 142.985Z" fill="black"/>
<path d="M211.325 144.227C211.888 145.961 212.196 147.767 212.24 149.59C212.24 149.951 212.819 149.951 212.802 149.59C212.76 147.717 212.449 145.86 211.879 144.075C211.761 143.731 211.216 143.882 211.325 144.227Z" fill="black"/>
<path d="M163.776 88.2834C164.708 89.1909 165.508 90.2251 166.151 91.3554C166.194 91.4085 166.255 91.4444 166.322 91.4566C166.389 91.4688 166.459 91.4566 166.518 91.422C166.576 91.3875 166.621 91.333 166.643 91.2684C166.665 91.2038 166.664 91.1335 166.638 91.0701C165.974 89.8954 165.146 88.8214 164.179 87.8805C163.91 87.6287 163.507 88.0316 163.776 88.2834Z" fill="black"/>
<path d="M168.484 85.6646C169.362 87.1245 170.117 88.6546 170.742 90.2391C170.868 90.5748 171.422 90.4321 171.288 90.088C170.65 88.4558 169.875 86.8805 168.971 85.3792C168.928 85.3262 168.867 85.2903 168.8 85.278C168.733 85.2658 168.664 85.2781 168.605 85.3126C168.546 85.3472 168.501 85.4016 168.479 85.4662C168.457 85.5308 168.459 85.6012 168.484 85.6646Z" fill="black"/>
<path d="M177.104 82.3071L177.415 88.1825C177.415 88.5435 178.002 88.5435 177.986 88.1825L177.667 82.3071C177.667 81.9461 177.079 81.9377 177.104 82.3071Z" fill="black"/>
<path d="M185.221 83.5087C185.019 84.7663 184.702 86.0026 184.273 87.2019C184.147 87.546 184.692 87.6971 184.818 87.353C185.247 86.1537 185.565 84.9174 185.767 83.6598C185.783 83.5865 185.771 83.5098 185.734 83.4447C185.697 83.3795 185.637 83.3305 185.565 83.3073C185.493 83.2893 185.416 83.3003 185.352 83.3379C185.288 83.3756 185.241 83.4369 185.221 83.5087Z" fill="black"/>
<path d="M162.777 107.396C163.407 107.868 164.088 108.268 164.808 108.588C164.873 108.623 164.949 108.632 165.021 108.613C165.092 108.595 165.154 108.55 165.194 108.487C165.214 108.455 165.226 108.42 165.232 108.383C165.237 108.346 165.235 108.309 165.226 108.273C165.216 108.237 165.2 108.203 165.177 108.173C165.154 108.144 165.126 108.119 165.093 108.101C164.372 107.782 163.69 107.379 163.062 106.901C162.997 106.864 162.921 106.854 162.849 106.873C162.776 106.891 162.715 106.938 162.676 107.002C162.641 107.068 162.631 107.145 162.65 107.218C162.669 107.291 162.714 107.355 162.777 107.396Z" fill="black"/>
<path d="M163.826 105.634L164.497 105.97C164.568 105.995 164.645 105.995 164.716 105.97C164.785 105.944 164.844 105.897 164.883 105.835C164.908 105.765 164.908 105.688 164.883 105.617C164.862 105.546 164.814 105.486 164.749 105.449L164.078 105.113C164.008 105.085 163.929 105.085 163.859 105.113C163.791 105.135 163.731 105.179 163.692 105.239C163.663 105.309 163.663 105.388 163.692 105.458C163.699 105.493 163.715 105.526 163.736 105.555C163.758 105.584 163.786 105.608 163.818 105.625L163.826 105.634Z" fill="black"/>
<path d="M164.607 103.854L165.572 104.694C165.628 104.743 165.699 104.77 165.773 104.769C165.848 104.771 165.92 104.744 165.975 104.694C166.028 104.64 166.058 104.568 166.058 104.492C166.058 104.417 166.028 104.344 165.975 104.291L165.001 103.451C164.95 103.399 164.881 103.369 164.808 103.368C164.771 103.366 164.733 103.372 164.698 103.387C164.663 103.401 164.632 103.423 164.607 103.451C164.58 103.477 164.558 103.507 164.543 103.541C164.528 103.575 164.521 103.612 164.521 103.649C164.521 103.686 164.528 103.722 164.543 103.756C164.558 103.79 164.58 103.821 164.607 103.846V103.854Z" fill="black"/>
<path d="M47.4659 37.8379H43.4706C43.1832 37.8379 42.9502 38.0709 42.9502 38.3583V42.3536C42.9502 42.641 43.1832 42.874 43.4706 42.874H47.4659C47.7533 42.874 47.9863 42.641 47.9863 42.3536V38.3583C47.9863 38.0709 47.7533 37.8379 47.4659 37.8379Z" fill="#BDE9FF" stroke="black" stroke-miterlimit="10"/>
<path d="M47.4659 59.082H43.4706C43.1832 59.082 42.9502 59.315 42.9502 59.6024V63.5978C42.9502 63.8852 43.1832 64.1182 43.4706 64.1182H47.4659C47.7533 64.1182 47.9863 63.8852 47.9863 63.5978V59.6024C47.9863 59.315 47.7533 59.082 47.4659 59.082Z" fill="#BDE9FF" stroke="black" stroke-miterlimit="10"/>
<path d="M47.4659 80.3262H43.4706C43.1832 80.3262 42.9502 80.5592 42.9502 80.8466V84.8419C42.9502 85.1293 43.1832 85.3623 43.4706 85.3623H47.4659C47.7533 85.3623 47.9863 85.1293 47.9863 84.8419V80.8466C47.9863 80.5592 47.7533 80.3262 47.4659 80.3262Z" fill="#BDE9FF" stroke="black" stroke-miterlimit="10"/>
<path d="M47.4659 101.57H43.4706C43.1832 101.57 42.9502 101.803 42.9502 102.091V106.086C42.9502 106.373 43.1832 106.606 43.4706 106.606H47.4659C47.7533 106.606 47.9863 106.373 47.9863 106.086V102.091C47.9863 101.803 47.7533 101.57 47.4659 101.57Z" fill="#BDE9FF" stroke="black" stroke-miterlimit="10"/>
<path d="M54.1221 40.3574H196.309" stroke="black" stroke-width="0.75" stroke-miterlimit="10"/>
<path d="M54.1221 61.6016H90.1137" stroke="black" stroke-width="0.75" stroke-miterlimit="10"/>
<path d="M54.1221 82.8457H132.308" stroke="black" stroke-width="0.75" stroke-miterlimit="10"/>
<path d="M54.1221 104.09H122.379" stroke="black" stroke-width="0.75" stroke-miterlimit="10"/>
</svg>
