<?xml version="1.0" encoding="utf-8"?>
<!-- Generator: Adobe Illustrator 24.0.3, SVG Export Plug-In . SVG Version: 6.00 Build 0)  -->
<svg version="1.1" id="Layer_1" xmlns="http://www.w3.org/2000/svg" xmlns:xlink="http://www.w3.org/1999/xlink" x="0px" y="0px"
	 viewBox="0 0 130 140" style="enable-background:new 0 0 130 140;" xml:space="preserve">
<style type="text/css">
	.st0{fill:#121212;}
</style>
<title>No charts Available 01 copy</title>
<g id="Layer_2_1_">
	<path class="st0" d="M60,102.3L60,102.3c0,0.4,0.3,0.8,0.8,0.8h30c0.4-0.5,0.8-1,1.2-1.5H60.7C60.3,101.6,60,101.9,60,102.3z"/>
	<path class="st0" d="M53.9,121.6h-3.3c-0.1,0-0.2,0-0.2,0c-0.3,0.1-0.5,0.4-0.5,0.7c0,0.4,0.3,0.7,0.7,0.8c0,0,0,0,0,0h3.3
		c0.4,0,0.7-0.3,0.8-0.7c0,0,0,0,0,0l0,0C54.6,121.9,54.3,121.6,53.9,121.6z"/>
	<path class="st0" d="M86.5,121.6H57c-0.4,0-0.7,0.3-0.8,0.8l0,0c0,0.4,0.3,0.8,0.8,0.8h29.8C86.7,122.6,86.6,122.1,86.5,121.6z"/>
	<path class="st0" d="M51,103.1h6.6c0.4,0,0.7-0.3,0.8-0.7c0,0,0,0,0,0l0,0c0-0.4-0.3-0.8-0.8-0.8h-7.4c-0.4,0-0.7,0.3-0.8,0.8v8.3
		c0,6.1-4.9,11-11,11s-11-4.9-11-11v-9.9c0-0.4-0.3-0.8-0.8-0.8l0,0c-0.4,0-0.7,0.3-0.8,0.7c0,0,0,0,0,0v9.9
		c0,6.9,5.6,12.5,12.5,12.5s12.5-5.6,12.5-12.5L51,103.1z"/>
	<path class="st0" d="M27.5,97.6V30.3c0-5.9-4.8-10.8-10.8-10.8S6,24.4,6,30.3v10.1c0,0.4,0.3,0.7,0.7,0.8c0,0,0,0,0,0h16
		c0.1,0,0.2,0,0.2,0c0.3-0.1,0.5-0.4,0.5-0.7c0-0.4-0.3-0.8-0.8-0.8H7.5v-9.4c0-5.1,4.1-9.2,9.2-9.2s9.2,4.1,9.2,9.2v67.3
		c0,0.4,0.3,0.7,0.7,0.8c0,0,0,0,0,0l0,0C27.2,98.3,27.5,98,27.5,97.6z"/>
	<path class="st0" d="M95.5,82.5v15.9c0.5-0.4,1-0.7,1.5-1V82.5c0-0.4-0.3-0.7-0.7-0.8c0,0,0,0,0,0l0,0
		C95.8,81.7,95.5,82.1,95.5,82.5z"/>
	<path class="st0" d="M95.5,30.3v49.1c0,0.4,0.3,0.7,0.8,0.8l0,0c0.4,0,0.8-0.3,0.8-0.8v-49c0-5.9-4.8-10.7-10.8-10.8H26.2
		c-0.4,0-0.8,0.3-0.8,0.8s0.3,0.8,0.8,0.8h60.1C91.3,21.1,95.4,25.2,95.5,30.3z"/>
	<path class="st0" d="M77.9,52.9c0-0.5,0.1-1,0.1-1.5c0-9.4-7.6-17-17-17l0,0h-0.3c-1.1,0.1-2,1-2,2.1v12c0,0.3-0.3,0.6-0.6,0.6
		H46.2c-1.1,0-2,0.9-2.1,2l0,0v0.3c0,9.4,7.6,17,17,17c0.5,0,1,0,1.5-0.1c1.3-0.1,2.7-0.4,3.9-0.8C72.8,65.3,77.3,59.6,77.9,52.9z
		 M45.6,51.4v-0.3l0,0c0-0.3,0.3-0.6,0.6-0.6h11.9c1.2,0,2.1-0.9,2.1-2.1v-12c0-0.3,0.3-0.6,0.6-0.6H61c8.5,0,15.5,6.9,15.5,15.5
		c0,0.4,0,0.9-0.1,1.4c-0.8,8.5-8.3,14.8-16.8,14.1C51.7,66.1,45.6,59.4,45.6,51.4L45.6,51.4z"/>
	<path class="st0" d="M56.5,44.8v-8.3c0-1.2-0.9-2.1-2.1-2.1c-0.2,0-0.4,0-0.5,0.1c-4,1.1-7.3,3.9-9,7.7c-0.3,0.7-0.6,1.4-0.7,2.1
		c0,0.2-0.1,0.4-0.1,0.5c0,1.2,0.9,2.1,2.1,2.1h8.3C55.6,46.8,56.5,45.9,56.5,44.8z M45.5,44.8c0-0.1,0-0.1,0-0.2
		c1.1-4.2,4.5-7.5,8.7-8.7h0.2c0.3,0,0.6,0.3,0.6,0.6v8.3c0,0.3-0.2,0.6-0.6,0.6c0,0,0,0,0,0h-8.2C45.8,45.4,45.6,45.1,45.5,44.8
		C45.6,44.8,45.6,44.8,45.5,44.8L45.5,44.8z"/>
	<path class="st0" d="M73.5,78.3c0.4,0,0.8-0.3,0.8-0.8s-0.3-0.8-0.8-0.8H48.6c-0.4,0-0.8,0.3-0.8,0.8s0.3,0.8,0.8,0.8H73.5z"/>
	<path class="st0" d="M37.9,87.5c0,0.4,0.3,0.7,0.8,0.8h44.9c0.2,0,0.4-0.1,0.6-0.2c0.1-0.1,0.2-0.3,0.2-0.5c0-0.4-0.3-0.8-0.8-0.8
		l0,0h-45C38.2,86.8,37.9,87.1,37.9,87.5z"/>
	<path class="st0" d="M5.7,66l-4.8,1.8c-0.4,0.1-0.6,0.6-0.4,1c0.1,0.3,0.4,0.5,0.7,0.5c0.1,0,0.2,0,0.3,0l4.9-1.8
		c0.4-0.1,0.6-0.6,0.4-1C6.6,66.1,6.1,65.9,5.7,66L5.7,66L5.7,66z"/>
	<path class="st0" d="M108.3,16.7l3-3.7c0.3-0.3,0.2-0.8-0.1-1.1c-0.3-0.3-0.8-0.2-1.1,0.1l0,0l-3,3.7c-0.3,0.3-0.2,0.8,0.1,1.1
		c0.1,0.1,0.3,0.2,0.4,0.2C107.9,16.9,108.2,16.8,108.3,16.7z"/>
	<path class="st0" d="M19.1,5.9c0.1,0,0.3,0,0.4-0.1c0.3-0.2,0.4-0.7,0.2-1l-1.1-1.7c-0.2-0.4-0.6-0.5-1-0.3c-0.4,0.2-0.5,0.6-0.3,1
		c0,0,0.1,0.1,0.1,0.1l1.1,1.7C18.6,5.8,18.8,5.9,19.1,5.9z"/>
	<path class="st0" d="M128.5,76.9h0.2c0.4,0,0.8-0.3,0.8-0.7c0-0.4-0.2-0.7-0.6-0.7l-4.6-1.2c-0.4-0.1-0.8,0.1-0.9,0.5
		c-0.1,0.4,0.1,0.8,0.5,0.9L128.5,76.9z"/>
	<path class="st0" d="M16.3,122.2l-3.2,3c-0.3,0.3-0.3,0.8,0,1.1c0.1,0.2,0.3,0.2,0.6,0.2c0.2,0,0.4-0.1,0.5-0.2l3.2-3
		c0.3-0.3,0.3-0.8,0-1.1C17.1,122,16.6,121.9,16.3,122.2z"/>
	<path class="st0" d="M109.4,97c-11.1,0-20.2,9-20.2,20.1c0,11.1,9,20.2,20.1,20.2s20.2-9,20.2-20.1l0,0
		C129.6,106,120.6,97,109.4,97z M90.8,117.1c0-10.3,8.3-18.7,18.6-18.7c10.3,0,18.7,8.3,18.7,18.6s-8.3,18.7-18.6,18.7c0,0,0,0,0,0
		C99.1,135.7,90.8,127.4,90.8,117.1z"/>
	<path class="st0" d="M107.9,119.1c0,0.8,0.7,1.5,1.5,1.5s1.5-0.7,1.5-1.5v-10c0-0.8-0.7-1.5-1.5-1.5s-1.5,0.7-1.5,1.5V119.1z"/>
	<path class="st0" d="M110.9,125.1L110.9,125.1c0-0.8-0.7-1.5-1.5-1.5c0,0,0,0,0,0c-0.8,0-1.5,0.7-1.5,1.5c0,0.8,0.7,1.5,1.5,1.5
		S110.9,126,110.9,125.1L110.9,125.1z"/>
</g>
</svg>
