<svg width="151" height="150" viewBox="0 0 151 150" fill="none" xmlns="http://www.w3.org/2000/svg">
<g clip-path="url(#clip0_6_9853)">
<path d="M75.4722 149.661C116.787 149.661 150.28 116.168 150.28 74.8525C150.28 33.5372 116.787 0.0445557 75.4722 0.0445557C34.1569 0.0445557 0.664185 33.5372 0.664185 74.8525C0.664185 116.168 34.1569 149.661 75.4722 149.661Z" fill="#FFF7F7"/>
<path d="M137.166 120.601C137.166 119.548 134.955 110.425 134.636 109.422L133.638 102.739C133.553 90.0426 134.376 84.8921 133.298 82.1273L132.674 80.5153L118.7 80.2807C118.7 80.2807 113.824 91.954 112.771 95.0932L107.057 117.012L102.495 143.114L109.647 144.182C112.771 135.513 118.95 120.686 119.259 118.804L120.352 112.161L120.941 101.022L122.114 101.876L124.984 119.069C125.707 125.292 127.679 131.136 131.821 144.022L138.583 144.212L137.166 120.601Z" fill="white"/>
<path d="M3.99353 28.6617H91.3312V75.4248C91.3312 75.9039 91.1408 76.3634 90.802 76.7022C90.4632 77.0411 90.0037 77.2314 89.5245 77.2314H5.80017C5.32102 77.2314 4.86149 77.0411 4.52268 76.7022C4.18387 76.3634 3.99353 75.9039 3.99353 75.4248V28.6617Z" fill="white"/>
<path d="M91.3312 25.9218H3.99353V28.6617H91.3312V25.9218Z" fill="#E3E3E3"/>
<path d="M89.5245 18.7052H5.80017C4.80239 18.7052 3.99353 19.5141 3.99353 20.5118V75.4248C3.99353 76.4226 4.80239 77.2314 5.80017 77.2314H89.5245C90.5223 77.2314 91.3312 76.4226 91.3312 75.4248V20.5118C91.3312 19.5141 90.5223 18.7052 89.5245 18.7052Z" stroke="black" stroke-width="0.75" stroke-miterlimit="10"/>
<path d="M57.6388 40.9789H37.6759C37.1246 40.9789 36.6777 41.4258 36.6777 41.977V59.9436C36.6777 60.4949 37.1246 60.9418 37.6759 60.9418H57.6388C58.19 60.9418 58.6369 60.4949 58.6369 59.9436V41.977C58.6369 41.4258 58.19 40.9789 57.6388 40.9789Z" stroke="#808080" stroke-width="0.75" stroke-miterlimit="10" stroke-dasharray="2.49 2.49"/>
<path d="M43.6748 50.9603H51.645" stroke="black" stroke-width="4" stroke-miterlimit="10"/>
<path d="M47.6623 54.9478L47.6573 46.9776" stroke="black" stroke-width="4" stroke-miterlimit="10"/>
<path d="M5.80017 18.7052H89.5245C90.0037 18.7052 90.4632 18.8955 90.802 19.2344C91.1408 19.5732 91.3312 20.0327 91.3312 20.5118V25.9218H3.99353V20.5118C3.99353 20.0327 4.18387 19.5732 4.52268 19.2344C4.86149 18.8955 5.32102 18.7052 5.80017 18.7052Z" fill="black"/>
<path d="M5.80017 18.7052H89.5245C90.0037 18.7052 90.4632 18.8955 90.802 19.2344C91.1408 19.5732 91.3312 20.0327 91.3312 20.5118V25.9218H3.99353V20.5118C3.99353 20.0327 4.18387 19.5732 4.52268 19.2344C4.86149 18.8955 5.32102 18.7052 5.80017 18.7052V18.7052Z" stroke="black" stroke-width="0.653895" stroke-miterlimit="10"/>
<path d="M139.067 147.121C138.903 147.621 138.853 147.87 138.309 147.85H131.641L131.342 147.506C130.873 146.867 132.12 146.273 132.44 145.609L131.821 144.032L133.019 143.843C134.177 143.907 135.828 143.818 137.011 144.102L138.568 144.222L139.067 147.121Z" fill="#D6F0FB"/>
<path d="M108.709 147.122C108.539 147.621 108.494 147.87 107.945 147.85L101.058 147.76L100.759 147.416C100.289 146.772 101.991 145.824 102.311 145.16L102.5 143.114L104.192 143.194C105.392 143.255 106.585 143.422 107.756 143.693L109.652 144.192L108.709 147.122Z" fill="#D6F0FB"/>
<path d="M135.379 64.59C134.517 63.3231 133.286 62.3527 131.853 61.8106C130.419 61.2686 128.854 61.1813 127.369 61.5606L127.474 62.0846L123.187 65.2687C122.359 65.7678 120.078 65.5432 119.619 64.6848L118.855 63.2624L119.249 61.9199C118.82 61.2761 116.639 60.5774 114.408 61.7053L111.469 63.2026L113.43 69.6905L116.155 68.5327C116.026 68.8982 116.004 69.2928 116.09 69.6705L118.111 74.4866C118.113 74.4948 118.113 74.5033 118.111 74.5115L117.812 77.6757C117.81 77.6888 117.813 77.7021 117.821 77.7131C117.828 77.7241 117.839 77.7321 117.852 77.7356C122.553 79.2328 128.547 78.4293 131.701 75.5546L131.741 75.5247C131.747 75.5158 131.75 75.5054 131.75 75.4947C131.75 75.4841 131.747 75.4737 131.741 75.4648L131.112 73.0393L130.823 69.7005L130.788 69.5907L132.944 71.5321L134.007 70.3842C135.086 69.2166 135.963 67.8774 136.602 66.4216L135.379 64.59Z" fill="#FDF194"/>
<path d="M106.782 51.7588L92.0648 47.337C91.8602 47.2754 91.6873 47.1372 91.5823 46.9513C91.4772 46.7653 91.448 46.5459 91.5008 46.3389C91.9999 44.2478 93.8215 38.4485 98.4878 35.6687C98.6451 35.5769 98.8284 35.5399 99.009 35.5633C99.1896 35.5868 99.3574 35.6695 99.486 35.7985L116.265 52.6971C116.384 52.8163 116.464 52.9693 116.493 53.1353C116.523 53.3013 116.5 53.4724 116.429 53.6253C116.349 53.8048 116.208 53.9497 116.03 54.0339C115.853 54.1181 115.651 54.1361 115.461 54.0845L108.859 52.3028" fill="#FBD6D2"/>
<path d="M108.779 52.3477L106.638 51.8486L106.997 50.6109C107.032 50.4877 107.106 50.3791 107.208 50.301C107.309 50.2228 107.433 50.1793 107.561 50.1767L108.884 51.3945L108.779 52.3477Z" fill="white"/>
<path d="M118.785 59.1101C118.89 59.2849 118.966 59.4753 119.01 59.6741C119.095 59.9735 119.164 60.2829 119.229 60.5874C119.369 61.2312 119.489 61.88 119.679 62.5138C119.69 62.5548 119.718 62.5895 119.756 62.61C119.793 62.6306 119.837 62.6355 119.878 62.6236C119.919 62.6117 119.954 62.584 119.974 62.5465C119.995 62.5091 120 62.465 119.988 62.424C119.798 61.7802 119.679 61.1114 119.534 60.4277C119.464 60.1232 119.394 59.8138 119.304 59.5094C119.257 59.3013 119.176 59.1024 119.065 58.9205C118.95 58.7508 118.67 58.9205 118.785 59.0852V59.1101Z" fill="black"/>
<path d="M119.399 58.8705C116.504 59.9934 116.704 57.3733 116.869 56.2055C116.869 56.1206 116.869 56.0408 116.909 55.9559C116.801 55.8862 116.725 55.7779 116.695 55.6534C116.666 55.529 116.685 55.3979 116.749 55.2872C116.838 55.1494 116.918 55.0061 116.989 54.858C117.107 54.6692 117.201 54.4663 117.268 54.2541C117.597 53.2909 118.171 51.8935 118.581 51.0002" stroke="black" stroke-width="0.65" stroke-miterlimit="10"/>
<path d="M120.846 54.6834C120.797 54.6693 120.744 54.6688 120.694 54.682C120.644 54.6951 120.598 54.7215 120.562 54.7582C120.501 54.8168 120.449 54.884 120.407 54.9578C120.318 55.1094 120.268 55.281 120.262 55.4569C120.262 55.49 120.276 55.5217 120.299 55.5451C120.322 55.5685 120.354 55.5817 120.387 55.5817C120.42 55.5804 120.451 55.5669 120.474 55.5438C120.497 55.5206 120.511 55.4896 120.512 55.4569C120.51 55.4404 120.51 55.4236 120.512 55.407C120.512 55.3771 120.512 55.3471 120.512 55.3172C120.519 55.2847 120.529 55.2529 120.542 55.2224V55.1774C120.556 55.1491 120.572 55.1223 120.592 55.0976L120.622 55.0577L120.657 55.0227C120.657 55.0227 120.682 55.0227 120.657 55.0227C120.627 55.0227 120.657 55.0227 120.657 55.0227C120.672 55.0273 120.689 55.0288 120.705 55.027C120.722 55.0252 120.737 55.0202 120.752 55.0123C120.766 55.0045 120.779 54.9938 120.789 54.9811C120.799 54.9683 120.807 54.9536 120.811 54.9379C120.818 54.9056 120.812 54.872 120.796 54.8435C120.779 54.815 120.753 54.7935 120.722 54.7832L120.846 54.6834Z" fill="black"/>
<path d="M120.717 55.0776C120.691 55.0609 120.662 55.0491 120.632 55.0427C120.602 55.0353 120.571 55.0353 120.542 55.0427C120.512 55.0379 120.482 55.0379 120.452 55.0427H120.397C120.378 55.0532 120.362 55.0667 120.347 55.0826C120.335 55.0932 120.326 55.1063 120.32 55.121C120.314 55.1357 120.311 55.1516 120.312 55.1675C120.312 55.184 120.314 55.2006 120.32 55.216C120.326 55.2315 120.336 55.2455 120.347 55.2573C120.359 55.269 120.373 55.2782 120.389 55.2842C120.404 55.2902 120.421 55.2929 120.437 55.2922H120.467C120.488 55.2884 120.507 55.2779 120.522 55.2623H120.567H120.537H120.582H120.632H120.602C120.633 55.2722 120.666 55.2722 120.697 55.2623C120.727 55.2511 120.754 55.23 120.771 55.2024C120.784 55.172 120.784 55.138 120.771 55.1076C120.768 55.0918 120.762 55.077 120.752 55.0641C120.743 55.0511 120.731 55.0404 120.717 55.0327V55.0776Z" fill="black"/>
<path d="M122.952 58.3416C123.151 59.4052 123.433 60.4516 123.796 61.4708C123.846 61.6105 124.07 61.5506 124.015 61.4109C123.657 60.3902 123.375 59.3443 123.172 58.2817C123.142 58.137 122.922 58.1969 122.952 58.3416Z" fill="black"/>
<path d="M118.131 54.4637C118.134 54.4753 118.134 54.4871 118.131 54.4987V54.4587C118.136 54.4851 118.136 54.5122 118.131 54.5386V54.4937C118.134 54.5152 118.134 54.537 118.131 54.5586C118.126 54.5799 118.126 54.6021 118.131 54.6234C118.124 54.6427 118.124 54.664 118.131 54.6833C118.139 54.7024 118.153 54.7183 118.171 54.7282C118.187 54.7429 118.206 54.7532 118.226 54.7582H118.261C118.287 54.7657 118.315 54.7657 118.341 54.7582H118.376C118.395 54.7368 118.409 54.7111 118.416 54.6833C118.429 54.6412 118.438 54.5977 118.441 54.5536V54.5037V54.4188C118.426 54.379 118.4 54.3443 118.366 54.319H118.306C118.285 54.3139 118.263 54.3139 118.241 54.319C118.2 54.3304 118.164 54.3571 118.141 54.3939C118.127 54.4341 118.127 54.4784 118.141 54.5186L118.131 54.4637Z" fill="black"/>
<path d="M118.306 56.2804H118.261H118.221H118.191L118.166 56.2454V56.2105V56.1656C118.169 56.1821 118.169 56.1989 118.166 56.2155V56.1756C118.16 56.2077 118.152 56.2394 118.141 56.2704V56.2305C118.132 56.2529 118.119 56.2733 118.101 56.2903V56.2604C118.082 56.286 118.061 56.3095 118.036 56.3303L118.066 56.3003C118.046 56.3198 118.023 56.3351 117.997 56.3452H118.036H117.972H118.017C117.997 56.3478 117.977 56.3478 117.957 56.3452H118.002C117.984 56.3504 117.965 56.3504 117.947 56.3452H117.982C117.962 56.3383 117.943 56.3282 117.927 56.3153H117.957L117.922 56.2754V56.3103V56.2704V56.3103V56.2704V56.3153C117.919 56.3021 117.919 56.2886 117.922 56.2754V56.3203V56.3602V56.3952H117.892H117.922H117.882C117.932 56.3952 117.982 56.3952 118.031 56.3552C118.081 56.3153 118.186 56.3053 118.266 56.2903C118.302 56.2745 118.331 56.2462 118.348 56.2107C118.365 56.1752 118.369 56.1347 118.359 56.0967C118.349 56.0586 118.325 56.0255 118.292 56.0034C118.26 55.9812 118.22 55.9715 118.181 55.9759C118.106 55.9759 118.041 56.0208 117.972 56.0358C117.926 56.0482 117.879 56.0582 117.832 56.0658C117.756 56.0874 117.69 56.1329 117.642 56.1955C117.619 56.2385 117.607 56.2865 117.607 56.3353C117.607 56.384 117.619 56.4321 117.642 56.475C117.684 56.5494 117.749 56.6081 117.828 56.6423C117.906 56.6765 117.993 56.6844 118.076 56.6647C118.152 56.6438 118.222 56.6054 118.28 56.5525C118.338 56.4996 118.383 56.4337 118.411 56.3602C118.433 56.3048 118.443 56.2452 118.441 56.1855C118.445 56.1386 118.432 56.0917 118.404 56.0534C118.377 56.015 118.337 55.9876 118.291 55.9759C118.254 55.9634 118.213 55.9634 118.176 55.9759C118.155 55.9805 118.135 55.9896 118.118 56.0025C118.101 56.0154 118.087 56.0319 118.076 56.0508C118.068 56.0705 118.063 56.0917 118.063 56.1132C118.063 56.1347 118.068 56.1559 118.076 56.1756C118.088 56.2158 118.115 56.2498 118.151 56.2704C118.175 56.2835 118.201 56.2912 118.227 56.2929C118.254 56.2947 118.281 56.2904 118.306 56.2804Z" fill="black"/>
<path d="M118.635 53.4756C118.604 53.4498 118.569 53.4296 118.531 53.4157C118.483 53.3898 118.433 53.3697 118.381 53.3558C118.361 53.3474 118.34 53.3431 118.318 53.3431C118.297 53.3431 118.276 53.3474 118.256 53.3558C118.238 53.3649 118.222 53.3787 118.211 53.3957C118.197 53.411 118.186 53.43 118.181 53.4506C118.172 53.4922 118.178 53.5359 118.2 53.5729C118.221 53.6099 118.255 53.6375 118.296 53.6502L118.381 53.6802H118.346C118.392 53.6985 118.435 53.7219 118.476 53.7501C118.495 53.7578 118.516 53.7578 118.536 53.7501C118.557 53.7551 118.579 53.7551 118.6 53.7501C118.621 53.7451 118.64 53.7348 118.655 53.7201L118.695 53.6752C118.704 53.6555 118.708 53.6343 118.708 53.6128C118.708 53.5914 118.704 53.5702 118.695 53.5504V53.5105C118.681 53.4858 118.66 53.4652 118.635 53.4506V53.4756Z" fill="black"/>
<path d="M117.622 53.2061C118.656 53.2499 119.687 53.08 120.652 52.707C120.436 53.2494 120.287 53.8158 120.207 54.3939C120.206 54.4204 120.213 54.4468 120.227 54.4693C120.241 54.4918 120.262 54.5095 120.287 54.5198C120.311 54.5302 120.338 54.5327 120.364 54.5272C120.39 54.5216 120.414 54.5082 120.432 54.4887C120.468 54.4355 120.516 54.3909 120.571 54.3579C120.627 54.325 120.689 54.3045 120.753 54.2978C120.817 54.2912 120.882 54.2985 120.943 54.3194C121.004 54.3403 121.059 54.3742 121.106 54.4188C121.495 54.7432 121.32 55.3271 120.961 55.7513C120.818 55.9333 120.721 56.1478 120.68 56.3758C120.64 56.6039 120.655 56.8384 120.726 57.0589C121.305 58.9304 123.137 60.0534 123.392 62.0496C123.461 62.9701 123.431 63.8955 123.302 64.8095C122.997 68.0585 126.965 68.8021 127.793 66.4914C127.867 66.2942 128.007 66.1287 128.189 66.0231C128.371 65.9175 128.584 65.8784 128.792 65.9125C129.163 65.9794 129.546 65.9167 129.877 65.735C130.207 65.5533 130.465 65.2636 130.608 64.9143C130.811 64.5348 130.911 64.1086 130.897 63.6784C130.883 63.2482 130.756 62.8293 130.528 62.4639C130.408 62.2459 130.374 61.9911 130.432 61.7492C130.49 61.5073 130.637 61.2959 130.843 61.1563C131.001 61.0582 131.146 60.939 131.272 60.802C131.466 60.5782 131.612 60.3159 131.698 60.0322C131.785 59.7485 131.81 59.4497 131.774 59.1555C131.737 58.8612 131.638 58.5779 131.485 58.3242C131.331 58.0704 131.126 57.8519 130.883 57.6828C129.949 57.0539 128.737 56.9491 127.659 56.7445C126.581 56.5399 126.271 55.6066 125.897 54.6534C125.667 53.9647 125.33 53.3163 124.899 52.732C124.652 52.4272 124.353 52.1687 124.015 51.9684C123.791 51.8336 122.902 51.6689 122.798 51.5142C122.566 51.175 122.268 50.8866 121.921 50.6666C121.574 50.4466 121.187 50.2996 120.781 50.2347C120.376 50.1698 119.961 50.1882 119.563 50.289C119.165 50.3897 118.791 50.5706 118.466 50.8205C117.901 51.1592 117.423 51.6238 117.068 52.178C117.004 52.2784 116.968 52.394 116.964 52.5129C116.96 52.6319 116.987 52.7498 117.044 52.8546C117.1 52.9594 117.183 53.0472 117.285 53.109C117.387 53.1708 117.503 53.2043 117.622 53.2061Z" fill="black"/>
<path d="M119.674 61.8451C119.061 61.5157 118.39 61.3104 117.698 61.2411C117.006 61.1717 116.307 61.2396 115.641 61.4408C113.245 62.0896 107.391 65.1838 107.391 65.1838C107.391 65.1838 107.501 64.5351 107.252 61.356C107.174 58.8871 107.24 56.4158 107.451 53.9547C107.451 53.9547 109.348 52.6571 108.849 51.5093C108.35 50.3614 106.992 49.7376 107.077 50.586C107.122 51.0002 107.651 51.4094 107.651 51.4094" stroke="black" stroke-width="0.65" stroke-miterlimit="10"/>
<path d="M106.782 51.7588L92.0648 47.337C91.8602 47.2754 91.6873 47.1372 91.5823 46.9513C91.4772 46.7653 91.448 46.5459 91.5008 46.3389C91.9999 44.2478 93.8215 38.4485 98.4878 35.6687C98.6451 35.5769 98.8284 35.5399 99.009 35.5633C99.1896 35.5868 99.3574 35.6695 99.486 35.7985L116.265 52.6971C116.384 52.8163 116.464 52.9693 116.493 53.1353C116.523 53.3013 116.5 53.4724 116.429 53.6253V53.6253C116.349 53.8048 116.208 53.9497 116.03 54.0339C115.853 54.1181 115.651 54.1361 115.461 54.0845L108.859 52.3028" stroke="black" stroke-width="0.460503" stroke-miterlimit="10"/>
<path d="M98.483 37.9844C98.1087 39.4817 96.7961 43.6988 93.4274 45.7101" stroke="black" stroke-width="0.460503" stroke-miterlimit="10"/>
<path d="M97.2103 39.9257C96.1927 40.826 95.4201 41.9696 94.9645 43.2496C94.675 44.0481 94.4105 44.8216 94.3257 45.0862C94.675 44.8067 96.292 43.015 96.5915 42.6956L97.4748 40.864C97.7471 40.2646 97.9838 39.6497 98.1835 39.0224C97.838 39.3 97.5128 39.6019 97.2103 39.9257Z" fill="black"/>
<path d="M103.144 50.6708C103.144 50.6708 103.384 51.4094 103.998 53.1063C103.998 53.1063 99.8652 65.4982 102.635 69.915C105.405 74.3318 116.11 68.5775 116.11 68.5775" stroke="black" stroke-width="0.65" stroke-miterlimit="10"/>
<path d="M116.514 66.6811C116.514 66.6811 115.152 68.6774 117.288 72.8197C117.898 73.9776 118.148 75.2915 118.007 76.5927C117.978 76.9069 117.912 77.2168 117.812 77.516C117.438 78.4642 128.293 79.6121 131.786 75.5197V75.4648C131.193 73.789 130.926 72.0155 130.998 70.2395V69.5458" stroke="black" stroke-width="0.65" stroke-miterlimit="10"/>
<path d="M128.268 63.6367C128.268 63.6367 130.264 58.3715 135.205 64.5849C140.146 70.7984 141.124 72.1209 141.124 75.4148C141.124 78.0649 140.47 83.0107 140.21 84.8523C140.162 85.2019 140.243 85.5572 140.44 85.8504C140.69 86.2664 140.823 86.7424 140.824 87.2278C140.899 88.6502 140.749 89.7232 141.124 90.0725" stroke="black" stroke-width="0.65" stroke-miterlimit="10"/>
<path d="M130.264 68.8271L135.09 73.5134C135.326 73.7415 135.468 74.0494 135.489 74.3768C135.564 75.4149 135.764 77.9003 136.103 80.2459C136.383 82.1374 136.657 83.984 136.832 85.1269C136.945 85.883 136.873 86.6554 136.622 87.3777C136.393 88.0414 136.123 88.8399 135.953 89.2691" stroke="black" stroke-width="0.65" stroke-miterlimit="10"/>
<path d="M107.077 67.0704C107.276 66.2035 107.389 65.3192 107.416 64.4303" stroke="black" stroke-width="0.65" stroke-miterlimit="10"/>
<path d="M136.872 89.5436C136.928 90.1869 137.02 90.8267 137.146 91.46C137.186 91.6646 137.5 91.5748 137.46 91.3702C137.34 90.7665 137.252 90.1567 137.196 89.5436C137.195 89.5003 137.177 89.4592 137.146 89.4285C137.116 89.3979 137.075 89.3802 137.031 89.3789C137.01 89.3789 136.989 89.3832 136.969 89.3915C136.949 89.3999 136.931 89.4121 136.917 89.4274C136.902 89.4428 136.89 89.461 136.882 89.481C136.875 89.5009 136.871 89.5222 136.872 89.5436Z" fill="black"/>
<path d="M138.169 90.0875L138.379 90.7064C138.384 90.7267 138.394 90.7457 138.407 90.7624C138.42 90.779 138.436 90.7929 138.454 90.8034C138.472 90.8138 138.493 90.8205 138.513 90.8231C138.534 90.8258 138.556 90.8243 138.576 90.8187C138.596 90.8131 138.615 90.8036 138.632 90.7907C138.649 90.7778 138.662 90.7617 138.673 90.7434C138.683 90.7251 138.69 90.7049 138.693 90.684C138.695 90.6631 138.694 90.6419 138.688 90.6216L138.484 89.9977C138.468 89.9606 138.439 89.9305 138.403 89.9131C138.367 89.8957 138.325 89.8923 138.287 89.9033C138.248 89.9144 138.215 89.9392 138.193 89.9732C138.171 90.0071 138.163 90.0478 138.169 90.0875Z" fill="black"/>
<path d="M139.257 89.8929C139.27 89.994 139.29 90.0941 139.317 90.1923C139.349 90.2897 139.387 90.3847 139.432 90.4768C139.455 90.5127 139.492 90.5383 139.533 90.5484C139.575 90.5586 139.619 90.5526 139.656 90.5317C139.674 90.5209 139.69 90.5067 139.703 90.4898C139.715 90.4729 139.724 90.4537 139.729 90.4333C139.734 90.4129 139.735 90.3917 139.732 90.3709C139.729 90.3501 139.722 90.3301 139.711 90.3121L139.666 90.2123V90.2522C139.613 90.1295 139.576 90.0003 139.556 89.868V89.9129C139.554 89.8708 139.539 89.8305 139.512 89.7981C139.497 89.7826 139.479 89.7706 139.459 89.7628C139.439 89.755 139.418 89.7517 139.397 89.7532C139.376 89.7527 139.355 89.7564 139.335 89.7641C139.315 89.7718 139.297 89.7834 139.282 89.7981C139.266 89.8125 139.253 89.8302 139.244 89.85C139.236 89.8698 139.232 89.8913 139.232 89.9129L139.257 89.8929Z" fill="black"/>
<path d="M111.314 63.2275C111.896 65.4201 112.55 67.591 113.275 69.7404C113.34 69.935 113.655 69.8551 113.59 69.6555C112.868 67.5029 112.214 65.3402 111.628 63.1676C111.613 63.1315 111.584 63.1023 111.549 63.0853C111.513 63.0683 111.473 63.0646 111.435 63.0748C111.397 63.0851 111.364 63.1087 111.341 63.1412C111.319 63.1738 111.31 63.2133 111.314 63.2524V63.2275Z" fill="black"/>
<path d="M133.168 71.4921C134.586 69.9949 135.993 68.4228 136.792 66.4714C136.872 66.2818 136.557 66.1969 136.477 66.3866C135.704 68.2781 134.311 69.7853 132.939 71.2625C132.799 71.4172 133.029 71.6468 133.168 71.4921Z" fill="black"/>
<path d="M118.925 61.6405C118.87 62.434 118.69 63.1926 118.99 63.9611C119.212 64.5488 119.614 65.0517 120.138 65.3985C120.696 65.7492 121.357 65.901 122.013 65.8295C122.669 65.7579 123.281 65.4671 123.751 65.0042C123.901 64.8595 123.671 64.6299 123.521 64.7796C123.096 65.1968 122.541 65.4555 121.947 65.5128C121.354 65.57 120.76 65.4222 120.262 65.094C119.785 64.7509 119.434 64.2596 119.264 63.6966C119.137 63.0205 119.137 62.3266 119.264 61.6504C119.264 61.4408 118.955 61.4408 118.94 61.6504L118.925 61.6405Z" fill="black"/>
<path d="M130.738 76.4828L132.065 79.058C132.065 79.058 133.952 82.6164 133.732 85.9103C133.568 88.3508 133.648 98.8163 133.697 104.077C133.712 105.898 134.03 107.704 134.636 109.422C136.061 113.478 136.956 117.702 137.301 121.988C137.984 130.173 138.299 143.294 138.983 147.037C139.002 147.136 138.999 147.238 138.974 147.336C138.949 147.434 138.902 147.525 138.838 147.603C138.773 147.68 138.693 147.743 138.601 147.786C138.51 147.829 138.41 147.851 138.309 147.85H131.981C131.841 147.85 131.705 147.808 131.59 147.729C131.474 147.65 131.386 147.538 131.336 147.407C131.287 147.277 131.278 147.134 131.311 146.998C131.344 146.863 131.417 146.74 131.521 146.647L132.16 146.073C132.263 145.98 132.336 145.857 132.368 145.722C132.4 145.587 132.39 145.445 132.34 145.315C130.843 141.322 119.629 111.138 122.359 88.1461" stroke="black" stroke-width="0.65" stroke-miterlimit="10"/>
<path d="M118.965 78.1048C118.965 79.3969 118.655 80.6702 118.061 81.8179C115.446 86.8535 107.726 104.461 102.311 145.16C102.29 145.319 102.214 145.466 102.096 145.574L100.933 146.652C100.831 146.746 100.759 146.868 100.727 147.004C100.695 147.139 100.705 147.281 100.755 147.41C100.805 147.54 100.893 147.651 101.008 147.73C101.123 147.808 101.259 147.85 101.397 147.85H107.945C108.095 147.85 108.24 147.802 108.359 147.711C108.478 147.621 108.564 147.495 108.604 147.351C109.602 144.107 115.886 126.709 118.536 120.481C120.467 115.929 120.507 110.31 120.437 108.104C120.412 107.44 120.507 106.778 120.717 106.148L122.114 101.866" stroke="black" stroke-width="0.65" stroke-miterlimit="10"/>
<path d="M129.141 81.0943C129.64 81.6783 130.139 82.2422 130.638 82.7862C130.783 82.9409 131.012 82.7113 130.868 82.5566C130.369 82.0126 129.87 81.4487 129.37 80.8648C129.356 80.8494 129.338 80.8371 129.318 80.8288C129.298 80.8204 129.277 80.8161 129.256 80.8161C129.234 80.8161 129.213 80.8204 129.193 80.8288C129.174 80.8371 129.156 80.8494 129.141 80.8648C129.112 80.8961 129.096 80.937 129.096 80.9796C129.096 81.0221 129.112 81.063 129.141 81.0943Z" fill="black"/>
<path d="M119.06 82.4717C119.369 82.0233 119.715 81.601 120.093 81.209C120.238 81.0593 120.008 80.8297 119.863 80.9794C119.466 81.3909 119.103 81.8349 118.78 82.307C118.77 82.3253 118.763 82.3455 118.76 82.3665C118.757 82.3875 118.759 82.4089 118.764 82.4293C118.77 82.4497 118.779 82.4689 118.792 82.4855C118.805 82.5022 118.822 82.5162 118.84 82.5265C118.858 82.5374 118.878 82.5446 118.899 82.5477C118.92 82.5508 118.941 82.5498 118.961 82.5447C118.982 82.5396 119.001 82.5305 119.018 82.518C119.035 82.5055 119.049 82.4897 119.06 82.4717Z" fill="black"/>
<path d="M102.501 143.274C104.909 143.291 107.303 143.655 109.607 144.357C109.628 144.363 109.649 144.364 109.67 144.362C109.691 144.36 109.711 144.353 109.73 144.343C109.748 144.333 109.765 144.319 109.778 144.303C109.791 144.286 109.801 144.267 109.807 144.247C109.813 144.227 109.815 144.205 109.812 144.184C109.81 144.163 109.804 144.143 109.793 144.124C109.783 144.106 109.769 144.089 109.753 144.076C109.736 144.063 109.717 144.053 109.697 144.047C107.363 143.343 104.939 142.98 102.501 142.969C102.462 142.976 102.428 142.996 102.403 143.026C102.378 143.055 102.364 143.093 102.364 143.131C102.364 143.17 102.378 143.208 102.403 143.237C102.428 143.267 102.462 143.287 102.501 143.294V143.274Z" fill="black"/>
<path d="M131.866 144.172C132.405 144.017 132.969 143.962 133.528 144.012C134.082 144.012 134.641 144.042 135.195 144.067C136.328 144.127 137.46 144.232 138.583 144.372C138.718 144.372 138.768 144.222 138.723 144.127C138.692 144.048 138.632 143.983 138.555 143.946C138.478 143.909 138.39 143.903 138.309 143.927C138.099 143.962 138.189 144.272 138.394 144.237L138.444 144.292L138.583 144.047C137.416 143.898 136.248 143.798 135.09 143.738C134.511 143.708 133.932 143.693 133.358 143.688C132.83 143.652 132.299 143.709 131.791 143.858C131.596 143.927 131.681 144.242 131.881 144.172H131.866Z" fill="black"/>
<path d="M121.5 73.8028C120.944 73.3867 120.441 72.904 120.003 72.3654C119.517 71.8247 119.145 71.1916 118.91 70.5039C118.857 70.3489 118.845 70.1826 118.876 70.0215C118.907 69.8605 118.979 69.7105 119.087 69.5863C119.194 69.4621 119.331 69.3681 119.486 69.3137C119.641 69.2593 119.807 69.2463 119.968 69.2762C120.682 69.3411 121.176 69.9799 121.54 70.5289C121.559 70.5588 121.586 70.5819 121.619 70.5949C121.652 70.608 121.688 70.6102 121.722 70.6012C121.756 70.5923 121.786 70.5727 121.808 70.5453C121.83 70.5179 121.843 70.4842 121.845 70.449C121.894 69.7753 122.279 68.9917 123.002 68.847C123.886 68.6673 124.579 69.5108 124.664 70.3143C124.686 71.1669 124.409 72.0002 123.881 72.6699C123.486 73.2538 122.733 74.5963 121.85 74.1671C121.665 74.0723 121.5 74.3518 121.685 74.4466C122.438 74.8309 123.117 74.2619 123.556 73.688C124.151 73.0046 124.605 72.211 124.894 71.3523C125.01 70.9826 125.037 70.5903 124.971 70.2083C124.905 69.8263 124.748 69.4657 124.515 69.1564C124.296 68.8839 123.996 68.6884 123.658 68.5986C123.321 68.5088 122.963 68.5294 122.638 68.6573C122.306 68.834 122.028 69.096 121.832 69.4162C121.635 69.7364 121.528 70.1033 121.52 70.479L121.82 70.3941C121.41 69.7753 120.871 69.1115 120.083 68.9967C119.754 68.9261 119.41 68.9867 119.125 69.1656C118.839 69.3446 118.635 69.6278 118.556 69.9549C118.411 70.7784 119.055 71.6618 119.514 72.2856C120.028 72.9808 120.642 73.5964 121.335 74.1122C121.5 74.237 121.665 73.9525 121.495 73.8327L121.5 73.8028Z" fill="black"/>
<path d="M121.7 74.2221L121.755 74.1272C121.759 74.1075 121.759 74.0871 121.755 74.0674C121.76 74.046 121.76 74.0238 121.755 74.0025C121.741 73.9632 121.715 73.9297 121.68 73.9077H121.64C121.612 73.9026 121.583 73.9026 121.555 73.9077H121.515C121.493 73.922 121.475 73.9407 121.46 73.9626L121.4 74.0574C121.396 74.0771 121.396 74.0976 121.4 74.1173C121.395 74.1386 121.395 74.1608 121.4 74.1821C121.405 74.2028 121.416 74.2217 121.43 74.237C121.44 74.2565 121.456 74.2723 121.475 74.282H121.515H121.6H121.64C121.665 74.2674 121.685 74.2468 121.7 74.2221Z" fill="black"/>
<path d="M122.019 73.4884C121.225 72.8379 120.549 72.0544 120.023 71.1727C119.918 71.003 119.718 70.6736 119.908 70.5089C120.098 70.3442 120.472 70.6686 120.622 70.7684C121.054 71.053 121.451 71.3881 121.805 71.7666C121.825 71.7868 121.85 71.8014 121.877 71.809C121.905 71.8165 121.934 71.8168 121.962 71.8098C121.989 71.8027 122.015 71.7886 122.035 71.7688C122.056 71.7489 122.071 71.7241 122.079 71.6967C122.212 71.1922 122.457 70.7246 122.798 70.3292C122.873 70.2337 122.98 70.1689 123.1 70.1469C123.219 70.1248 123.342 70.1471 123.447 70.2095C123.549 70.2905 123.628 70.3976 123.676 70.5196C123.723 70.6416 123.737 70.774 123.716 70.9032C123.627 71.429 123.419 71.9275 123.107 72.3605C122.83 72.8085 122.494 73.218 122.109 73.5782C121.954 73.7179 122.184 73.9475 122.339 73.8078C122.831 73.3485 123.245 72.8126 123.566 72.2207C123.851 71.6967 124.21 70.993 123.971 70.3891C123.932 70.2658 123.865 70.1534 123.775 70.0611C123.685 69.9689 123.574 69.8994 123.452 69.8584C123.329 69.8175 123.199 69.8062 123.071 69.8256C122.944 69.845 122.823 69.8944 122.718 69.9699C122.245 70.4112 121.914 70.9825 121.765 71.6119L122.034 71.537C121.604 71.0755 121.114 70.6742 120.577 70.3442C120.347 70.2095 120.078 70.0398 119.793 70.1845C119.697 70.2432 119.619 70.3285 119.569 70.4303C119.52 70.5321 119.5 70.646 119.514 70.7584C119.57 71.0444 119.693 71.3129 119.873 71.542C120.043 71.8057 120.226 72.0605 120.422 72.3056C120.832 72.8225 121.297 73.2928 121.81 73.708C121.969 73.8427 122.199 73.6131 122.039 73.4784L122.019 73.4884Z" fill="black"/>
<path d="M121.929 71.2974L121.974 71.3323V71.3623C121.974 71.3373 121.974 71.3623 121.974 71.3623C121.974 71.3872 121.974 71.3623 121.974 71.3872C121.974 71.4122 121.974 71.4172 121.974 71.3872C121.974 71.3573 121.974 71.3872 121.974 71.3872V71.4421C121.974 71.4072 121.974 71.4671 121.974 71.4771C121.965 71.5209 121.953 71.5642 121.939 71.6068C121.874 71.7765 121.78 71.9512 121.72 72.1458C121.685 72.2426 121.674 72.3466 121.689 72.4484C121.704 72.5503 121.743 72.647 121.805 72.7297C121.833 72.7662 121.871 72.794 121.914 72.8099C121.957 72.8258 122.004 72.8292 122.049 72.8196C122.131 72.7879 122.198 72.7252 122.234 72.6449L122.518 72.1708L123.162 71.1077C123.176 71.0715 123.176 71.0316 123.163 70.9951C123.15 70.9586 123.125 70.9278 123.091 70.9081C123.058 70.8885 123.019 70.8812 122.981 70.8876C122.942 70.894 122.908 70.9136 122.883 70.943L122.383 71.7615L122.139 72.1608L122.024 72.3554L121.959 72.4652L121.924 72.5201C121.924 72.5501 121.924 72.5451 121.949 72.5201H122.034V72.4802C122.034 72.4303 122.034 72.4802 122.034 72.4802C122.024 72.4258 122.024 72.3699 122.034 72.3155C122.074 72.1799 122.126 72.048 122.189 71.9212C122.299 71.6617 122.423 71.3124 122.154 71.0978C122.123 71.0679 122.082 71.0512 122.039 71.0512C121.996 71.0512 121.955 71.0679 121.924 71.0978C121.896 71.1291 121.88 71.17 121.88 71.2126C121.88 71.2551 121.896 71.296 121.924 71.3273L121.929 71.2974Z" fill="black"/>
<path d="M123.142 70.9931C123.18 70.9864 123.215 70.9664 123.24 70.9368C123.264 70.9071 123.278 70.8696 123.278 70.8309C123.278 70.7922 123.264 70.7547 123.24 70.725C123.215 70.6954 123.18 70.6754 123.142 70.6687C123.104 70.6754 123.069 70.6954 123.044 70.725C123.02 70.7547 123.006 70.7922 123.006 70.8309C123.006 70.8696 123.02 70.9071 123.044 70.9368C123.069 70.9664 123.104 70.9864 123.142 70.9931Z" fill="black"/>
<path d="M113.829 69.4959C113.884 69.441 115.152 67.4297 116.325 67.0504C116.184 67.2909 116.1 67.5608 116.08 67.8389C116.08 68.1783 116.08 68.5676 115.686 68.7622" fill="black"/>
<path d="M130.443 68.9967C130.381 69.3119 130.391 69.6369 130.471 69.9478C130.552 70.2588 130.701 70.5477 130.908 70.7934C130.908 70.7934 130.982 69.915 130.982 69.8951C130.957 69.707 130.9 69.5246 130.813 69.3561" fill="black"/>
<path d="M118.7 80.2808C118.7 80.2808 129.865 82.4518 132.674 80.5154L131.297 77.6507C131.297 77.6507 130.798 76.2383 130.244 76.7623C129.69 77.2864 126.805 78.4841 123.017 78.4193L120.547 78.3344L119.429 78.1947C119.429 78.1947 118.825 77.8803 118.93 78.6538" fill="black"/>
<path d="M122.114 90.4818C122.114 90.4818 118.276 98.9661 120.522 106.951L121.62 103.408C121.937 102.578 122.091 101.696 122.074 100.808C122.004 99.4801 122.114 90.4818 122.114 90.4818Z" fill="black"/>
<path d="M117.672 42.7256C117.942 43.9168 118.165 45.1195 118.341 46.3339C118.371 46.5385 118.685 46.4537 118.655 46.2491C118.479 45.0347 118.256 43.8302 117.987 42.6358C117.942 42.4312 117.627 42.521 117.672 42.7256Z" fill="black"/>
<path d="M121.914 45.1411C121.795 45.71 121.66 46.2789 121.51 46.8429C121.506 46.882 121.515 46.9215 121.538 46.9541C121.56 46.9866 121.593 47.0102 121.631 47.0205C121.669 47.0307 121.709 47.027 121.745 47.01C121.78 46.993 121.809 46.9638 121.825 46.9277C121.974 46.3638 122.109 45.7948 122.229 45.2259C122.274 45.0213 121.959 44.9364 121.914 45.1411Z" fill="black"/>
<path d="M122.428 42.0968C122.428 42.2215 122.393 42.3463 122.379 42.4711C122.379 42.4361 122.379 42.4711 122.379 42.4711V42.516V42.6058L122.349 42.8005C122.334 42.8407 122.334 42.885 122.349 42.9252C122.369 42.9616 122.403 42.9885 122.443 43.0001C122.485 43.0108 122.529 43.0048 122.567 42.9834C122.604 42.9619 122.631 42.9267 122.643 42.8853C122.683 42.6158 122.718 42.3463 122.753 42.0768C122.757 42.0531 122.756 42.0288 122.75 42.0056C122.743 41.9824 122.732 41.9608 122.717 41.9424C122.701 41.9239 122.682 41.9091 122.66 41.899C122.638 41.8888 122.615 41.8835 122.591 41.8835C122.567 41.8835 122.543 41.8888 122.521 41.899C122.499 41.9091 122.48 41.9239 122.464 41.9424C122.449 41.9608 122.438 41.9824 122.432 42.0056C122.425 42.0288 122.424 42.0531 122.428 42.0768V42.0968Z" fill="black"/>
<path d="M127.244 43.8135L125.178 48.3052C125.093 48.4948 125.373 48.6595 125.458 48.4699L127.524 43.9782C127.609 43.7886 127.329 43.6239 127.244 43.8135Z" fill="black"/>
<path d="M142.541 69.406C143.518 71.3392 144.03 73.4735 144.038 75.6394C144.045 75.6775 144.065 75.7121 144.094 75.737C144.124 75.7619 144.162 75.7755 144.2 75.7755C144.239 75.7755 144.277 75.7619 144.306 75.737C144.336 75.7121 144.356 75.6775 144.363 75.6394C144.352 73.4159 143.824 71.2254 142.82 69.2413C142.726 69.0566 142.446 69.2413 142.541 69.406Z" fill="black"/>
<path d="M145.665 70.0498C146.063 71.3544 146.352 72.6898 146.529 74.0424C146.553 74.247 146.878 74.252 146.853 74.0424C146.68 72.6541 146.387 71.2833 145.98 69.945C145.92 69.7454 145.605 69.8302 145.665 70.0298V70.0498Z" fill="black"/>
<path d="M13.9051 99.021H19.839C19.9052 99.021 19.9687 98.9947 20.0155 98.9479C20.0623 98.9011 20.0886 98.8377 20.0886 98.7715C20.0886 98.7053 20.0623 98.6418 20.0155 98.595C19.9687 98.5482 19.9052 98.5219 19.839 98.5219H13.9051C13.8389 98.5219 13.7754 98.5482 13.7286 98.595C13.6818 98.6418 13.6555 98.7053 13.6555 98.7715C13.6555 98.8377 13.6818 98.9011 13.7286 98.9479C13.7754 98.9947 13.8389 99.021 13.9051 99.021Z" fill="black"/>
<path d="M19.879 98.6217C19.7583 98.4592 19.6898 98.2638 19.6826 98.0614C19.6755 97.8591 19.7301 97.6594 19.8391 97.4888C19.8944 97.407 19.9665 97.3381 20.0507 97.2866C20.1349 97.2352 20.2292 97.2025 20.3272 97.1906C20.4251 97.1788 20.5245 97.1882 20.6185 97.2181C20.7126 97.248 20.7991 97.2978 20.8722 97.364C20.9031 97.3942 20.9413 97.4158 20.983 97.4268C21.0248 97.4378 21.0687 97.4378 21.1105 97.4267C21.1522 97.4156 21.1904 97.3939 21.2212 97.3637C21.2521 97.3334 21.2745 97.2957 21.2864 97.2542C21.3173 96.9773 21.3985 96.7084 21.526 96.4607C21.6457 96.266 21.9502 96.0764 22.0999 96.3459C22.1314 96.3958 22.1795 96.433 22.2357 96.4508C22.292 96.4686 22.3527 96.4659 22.4072 96.4432C22.4616 96.4204 22.5063 96.3791 22.5332 96.3266C22.56 96.2741 22.5674 96.2137 22.5541 96.1562C22.2796 95.42 22.2499 94.615 22.4692 93.8605C22.6738 93.3315 23.2827 92.7276 23.8966 92.9921C24.1942 93.161 24.4501 93.3947 24.6452 93.6759C24.8847 93.9654 25.1048 94.2705 25.3039 94.5892C25.7079 95.2252 26.0346 95.9071 26.2771 96.6204C26.367 96.8749 26.7762 96.85 26.7762 96.5555C26.7775 96.4257 26.8134 96.2986 26.8802 96.1874C26.947 96.0761 27.0423 95.9847 27.1563 95.9227C27.2703 95.8606 27.3988 95.8301 27.5285 95.8343C27.6582 95.8385 27.7844 95.8773 27.8941 95.9466C28.4681 96.316 28.6427 97.1344 28.7725 97.7533C28.8374 98.0477 29.2366 97.9479 29.2716 97.6884C29.2815 97.5958 29.3118 97.5064 29.3602 97.4268C29.4086 97.3472 29.474 97.2792 29.5517 97.2278C29.6294 97.1763 29.7174 97.1426 29.8096 97.1291C29.9018 97.1155 29.9959 97.1225 30.0851 97.1494C30.3196 97.2442 30.4095 97.5387 30.4993 97.7533C30.5879 97.9969 30.7334 98.2159 30.9235 98.3921C31.3223 98.6695 31.7952 98.8208 32.281 98.8263C32.9683 98.9061 33.6605 98.9361 34.3521 98.9161C34.4183 98.9161 34.4818 98.8898 34.5286 98.843C34.5754 98.7962 34.6017 98.7328 34.6017 98.6666C34.6017 98.6004 34.5754 98.5369 34.5286 98.4901C34.4818 98.4433 34.4183 98.417 34.3521 98.417C33.5428 98.4521 32.732 98.407 31.9316 98.2823C31.6297 98.2568 31.3475 98.1219 31.1381 97.903C30.9385 97.6385 30.8836 97.2941 30.6889 97.0246C30.0851 96.1762 28.8623 96.7701 28.7725 97.6884L29.2716 97.6185C29.0919 96.805 28.7725 95.6222 27.8492 95.3727C27.6678 95.3205 27.4768 95.3108 27.291 95.3445C27.1052 95.3781 26.9297 95.4541 26.7781 95.5666C26.6265 95.6791 26.5029 95.8251 26.4169 95.9931C26.3309 96.1612 26.2847 96.3468 26.2821 96.5355L26.7812 96.4657C26.4796 95.5796 26.0563 94.7398 25.5235 93.9703C25.1043 93.3664 24.5254 92.4731 23.7369 92.4182C23.3745 92.4168 23.0204 92.526 22.7217 92.7311C22.4229 92.9361 22.1939 93.2274 22.065 93.5661C21.7611 94.4422 21.7717 95.3968 22.0949 96.266L22.5491 96.0764C22.4986 95.9879 22.4308 95.9104 22.3498 95.8487C22.2687 95.7869 22.176 95.7421 22.0773 95.717C21.9785 95.6918 21.8757 95.6868 21.775 95.7023C21.6743 95.7177 21.5777 95.7533 21.491 95.8069C21.2934 95.9614 21.1316 96.157 21.017 96.3802C20.9024 96.6034 20.8377 96.8488 20.8273 97.0995L21.2415 96.9897C21.1232 96.8793 20.9836 96.7941 20.8313 96.7394C20.679 96.6847 20.5171 96.6615 20.3556 96.6713C20.1941 96.6811 20.0362 96.7237 19.8916 96.7964C19.7471 96.8692 19.6188 96.9706 19.5147 97.0945C19.3088 97.3626 19.1997 97.6925 19.2051 98.0305C19.2106 98.3685 19.3302 98.6947 19.5447 98.956C19.7443 99.2106 20.0936 98.8562 19.899 98.6017L19.879 98.6217Z" fill="black"/>
<path d="M123.711 6.84722H127.948C128.014 6.84722 128.078 6.82093 128.125 6.77413C128.171 6.72733 128.198 6.66386 128.198 6.59768C128.198 6.5315 128.171 6.46803 128.125 6.42123C128.078 6.37444 128.014 6.34814 127.948 6.34814H123.711C123.645 6.34814 123.581 6.37444 123.535 6.42123C123.488 6.46803 123.462 6.5315 123.462 6.59768C123.462 6.66386 123.488 6.72733 123.535 6.77413C123.581 6.82093 123.645 6.84722 123.711 6.84722Z" fill="black"/>
<path d="M128.063 6.49293C127.984 6.39583 127.933 6.27868 127.916 6.15447C127.899 6.03027 127.917 5.90385 127.968 5.78924C127.995 5.72847 128.035 5.67485 128.086 5.6328C128.138 5.59074 128.198 5.56145 128.263 5.54732C128.328 5.5332 128.395 5.53464 128.459 5.55154C128.523 5.56843 128.582 5.60029 128.632 5.64451C128.663 5.67451 128.702 5.69597 128.744 5.70684C128.786 5.71772 128.83 5.71765 128.872 5.70665C128.914 5.69564 128.953 5.67406 128.984 5.64397C129.015 5.61387 129.038 5.57626 129.051 5.53471C129.051 5.42991 129.296 4.56152 129.495 4.90588C129.528 4.95418 129.577 4.98951 129.634 5.00591C129.69 5.0223 129.75 5.01876 129.804 4.99587C129.858 4.97299 129.903 4.93217 129.93 4.8803C129.957 4.82844 129.966 4.76872 129.954 4.71124C129.76 4.19986 129.739 3.63873 129.894 3.11421C130.054 2.70996 130.503 2.32069 130.928 2.61514C131.3 2.92528 131.609 3.30499 131.836 3.73306C132.097 4.15973 132.311 4.61316 132.475 5.08555C132.479 5.11832 132.49 5.14993 132.506 5.17857C132.523 5.20722 132.545 5.23233 132.571 5.25249C132.597 5.27265 132.627 5.28746 132.659 5.29606C132.691 5.30467 132.724 5.3069 132.757 5.30264C132.789 5.29838 132.821 5.28771 132.85 5.27123C132.878 5.25476 132.903 5.2328 132.924 5.20662C132.944 5.18043 132.959 5.15054 132.967 5.11863C132.976 5.08672 132.978 5.05344 132.974 5.02067C132.977 4.93671 133.004 4.85541 133.052 4.78602C133.099 4.71663 133.165 4.66194 133.242 4.62814C133.319 4.59435 133.404 4.58282 133.487 4.59487C133.57 4.60691 133.648 4.64204 133.712 4.69627C134.028 5.02712 134.223 5.45416 134.266 5.90902C134.326 6.20846 134.726 6.10365 134.765 5.84414C134.769 5.77545 134.792 5.7093 134.834 5.65423C134.875 5.59915 134.932 5.55766 134.996 5.53511C135.061 5.51256 135.132 5.50998 135.198 5.5277C135.265 5.54542 135.324 5.58262 135.369 5.63453C135.589 5.92399 135.594 6.25837 135.918 6.47297C136.225 6.63995 136.567 6.73067 136.916 6.73748C137.387 6.78824 137.861 6.80659 138.334 6.79237C138.4 6.79237 138.463 6.76608 138.51 6.71929C138.557 6.67249 138.583 6.60902 138.583 6.54284C138.583 6.47666 138.557 6.41319 138.51 6.36639C138.463 6.31959 138.4 6.2933 138.334 6.2933C137.744 6.32328 137.154 6.28813 136.572 6.1885C136.456 6.17924 136.344 6.14046 136.247 6.07582C136.15 6.01119 136.071 5.92285 136.018 5.81918C135.941 5.61 135.833 5.41328 135.699 5.23527C135.17 4.68629 134.351 5.19534 134.281 5.84414L134.78 5.77926C134.646 5.15542 134.396 4.28204 133.677 4.11735C133.54 4.08254 133.396 4.07955 133.256 4.10858C133.117 4.13761 132.986 4.19791 132.874 4.28493C132.761 4.37194 132.67 4.48339 132.607 4.61085C132.544 4.73832 132.511 4.87845 132.51 5.02067L133.009 4.95579C132.773 4.30159 132.447 3.68346 132.04 3.1192C131.726 2.67503 131.312 2.0462 130.713 1.99629C130.447 1.99513 130.187 2.07334 129.965 2.22091C129.744 2.36849 129.572 2.57873 129.47 2.82475C129.234 3.46928 129.234 4.17651 129.47 4.82104L129.929 4.6264C129.847 4.48511 129.712 4.38218 129.554 4.34009C129.396 4.29801 129.228 4.3202 129.086 4.40182C128.934 4.52083 128.81 4.67211 128.724 4.84474C128.638 5.01736 128.591 5.20701 128.587 5.39996L129.006 5.29017C128.916 5.2066 128.81 5.1417 128.695 5.09921C128.579 5.05672 128.456 5.03748 128.333 5.04258C128.211 5.04768 128.09 5.07703 127.978 5.12894C127.867 5.18085 127.767 5.2543 127.684 5.34506C127.525 5.54299 127.436 5.78766 127.431 6.04118C127.425 6.29471 127.504 6.54295 127.654 6.74746C127.843 6.99699 128.277 6.74746 128.083 6.49293H128.063Z" fill="black"/>
<path d="M29.1219 32.3948H7.31243C7.0368 32.3948 6.81335 32.6183 6.81335 32.8939V41.8523C6.81335 42.1279 7.0368 42.3513 7.31243 42.3513H29.1219C29.3975 42.3513 29.621 42.1279 29.621 41.8523V32.8939C29.621 32.6183 29.3975 32.3948 29.1219 32.3948Z" fill="white"/>
<path d="M29.1219 32.3948H7.31243C7.0368 32.3948 6.81335 32.6183 6.81335 32.8939V41.8523C6.81335 42.1279 7.0368 42.3513 7.31243 42.3513H29.1219C29.3975 42.3513 29.621 42.1279 29.621 41.8523V32.8939C29.621 32.6183 29.3975 32.3948 29.1219 32.3948Z" stroke="#A7E1FF" stroke-width="0.75" stroke-miterlimit="10"/>
<path d="M13.4559 36.562H26.3619" stroke="#A7E1FF" stroke-width="0.75" stroke-miterlimit="10"/>
<path d="M13.4559 38.0593H22.3594" stroke="#A7E1FF" stroke-width="0.75" stroke-miterlimit="10"/>
<path d="M26.6814 40.355H27.8792" stroke="#A7E1FF" stroke-width="0.75" stroke-miterlimit="10"/>
<path d="M27.2803 40.9539V39.7562" stroke="#A7E1FF" stroke-width="0.75" stroke-miterlimit="10"/>
<path d="M11.4896 33.7123H8.58001C8.30437 33.7123 8.08093 33.9358 8.08093 34.2114V40.9339C8.08093 41.2095 8.30437 41.433 8.58001 41.433H11.4896C11.7652 41.433 11.9887 41.2095 11.9887 40.9339V34.2114C11.9887 33.9358 11.7652 33.7123 11.4896 33.7123Z" fill="#D6F0FB"/>
<path d="M29.1219 46.9278H7.31243C7.0368 46.9278 6.81335 47.1512 6.81335 47.4268V56.3852C6.81335 56.6608 7.0368 56.8843 7.31243 56.8843H29.1219C29.3975 56.8843 29.621 56.6608 29.621 56.3852V47.4268C29.621 47.1512 29.3975 46.9278 29.1219 46.9278Z" fill="white"/>
<path d="M29.1219 46.9278H7.31243C7.0368 46.9278 6.81335 47.1512 6.81335 47.4268V56.3852C6.81335 56.6608 7.0368 56.8843 7.31243 56.8843H29.1219C29.3975 56.8843 29.621 56.6608 29.621 56.3852V47.4268C29.621 47.1512 29.3975 46.9278 29.1219 46.9278Z" stroke="#A7E1FF" stroke-width="0.75" stroke-miterlimit="10"/>
<path d="M13.4559 51.095H26.3619" stroke="#A7E1FF" stroke-width="0.75" stroke-miterlimit="10"/>
<path d="M13.4559 52.5922H22.3594" stroke="#A7E1FF" stroke-width="0.75" stroke-miterlimit="10"/>
<path d="M26.6814 54.8879H27.8792" stroke="#A7E1FF" stroke-width="0.75" stroke-miterlimit="10"/>
<path d="M27.2803 55.4869V54.2891" stroke="#A7E1FF" stroke-width="0.75" stroke-miterlimit="10"/>
<path d="M11.4896 48.2453H8.58001C8.30437 48.2453 8.08093 48.4687 8.08093 48.7443V55.4668C8.08093 55.7425 8.30437 55.9659 8.58001 55.9659H11.4896C11.7652 55.9659 11.9887 55.7425 11.9887 55.4668V48.7443C11.9887 48.4687 11.7652 48.2453 11.4896 48.2453Z" fill="#D6F0FB"/>
<path d="M29.1219 61.4607H7.31243C7.0368 61.4607 6.81335 61.6841 6.81335 61.9598V70.9181C6.81335 71.1937 7.0368 71.4172 7.31243 71.4172H29.1219C29.3975 71.4172 29.621 71.1937 29.621 70.9181V61.9598C29.621 61.6841 29.3975 61.4607 29.1219 61.4607Z" fill="white"/>
<path d="M29.1219 61.4607H7.31243C7.0368 61.4607 6.81335 61.6841 6.81335 61.9598V70.9181C6.81335 71.1937 7.0368 71.4172 7.31243 71.4172H29.1219C29.3975 71.4172 29.621 71.1937 29.621 70.9181V61.9598C29.621 61.6841 29.3975 61.4607 29.1219 61.4607Z" stroke="#A7E1FF" stroke-width="0.75" stroke-miterlimit="10"/>
<path d="M13.4559 65.628H26.3619" stroke="#A7E1FF" stroke-width="0.75" stroke-miterlimit="10"/>
<path d="M13.4559 67.1252H22.3594" stroke="#A7E1FF" stroke-width="0.75" stroke-miterlimit="10"/>
<path d="M26.6814 69.421H27.8792" stroke="#A7E1FF" stroke-width="0.75" stroke-miterlimit="10"/>
<path d="M27.2803 70.0199V68.8271" stroke="#A7E1FF" stroke-width="0.75" stroke-miterlimit="10"/>
<path d="M11.4896 62.7783H8.58001C8.30437 62.7783 8.08093 63.0018 8.08093 63.2774V69.9999C8.08093 70.2755 8.30437 70.499 8.58001 70.499H11.4896C11.7652 70.499 11.9887 70.2755 11.9887 69.9999V63.2774C11.9887 63.0018 11.7652 62.7783 11.4896 62.7783Z" fill="#D6F0FB"/>
<path d="M86.6249 61.4607H64.8155C64.5398 61.4607 64.3164 61.6841 64.3164 61.9598V70.9181C64.3164 71.1937 64.5398 71.4172 64.8155 71.4172H86.6249C86.9006 71.4172 87.124 71.1937 87.124 70.9181V61.9598C87.124 61.6841 86.9006 61.4607 86.6249 61.4607Z" fill="white"/>
<path d="M86.6249 61.4607H64.8155C64.5398 61.4607 64.3164 61.6841 64.3164 61.9598V70.9181C64.3164 71.1937 64.5398 71.4172 64.8155 71.4172H86.6249C86.9006 71.4172 87.124 71.1937 87.124 70.9181V61.9598C87.124 61.6841 86.9006 61.4607 86.6249 61.4607Z" stroke="#FDEAE8" stroke-width="0.75" stroke-miterlimit="10"/>
<path d="M70.9541 65.628H83.8601" stroke="#FDEAE8" stroke-width="0.75" stroke-miterlimit="10"/>
<path d="M70.9541 67.1252H79.8625" stroke="#FDEAE8" stroke-width="0.75" stroke-miterlimit="10"/>
<path d="M84.1844 69.421H85.3772" stroke="#FDEAE8" stroke-width="0.75" stroke-miterlimit="10"/>
<path d="M84.7833 70.0199V68.8271" stroke="#FDEAE8" stroke-width="0.75" stroke-miterlimit="10"/>
<path d="M68.9928 62.7783H66.0832C65.8075 62.7783 65.5841 63.0018 65.5841 63.2774V69.9999C65.5841 70.2755 65.8075 70.499 66.0832 70.499H68.9928C69.2684 70.499 69.4918 70.2755 69.4918 69.9999V63.2774C69.4918 63.0018 69.2684 62.7783 68.9928 62.7783Z" fill="#FDEAE8"/>
<path d="M86.6249 46.9278H64.8155C64.5398 46.9278 64.3164 47.1512 64.3164 47.4268V56.3852C64.3164 56.6608 64.5398 56.8843 64.8155 56.8843H86.6249C86.9006 56.8843 87.124 56.6608 87.124 56.3852V47.4268C87.124 47.1512 86.9006 46.9278 86.6249 46.9278Z" fill="white"/>
<path d="M86.6249 46.9278H64.8155C64.5398 46.9278 64.3164 47.1512 64.3164 47.4268V56.3852C64.3164 56.6608 64.5398 56.8843 64.8155 56.8843H86.6249C86.9006 56.8843 87.124 56.6608 87.124 56.3852V47.4268C87.124 47.1512 86.9006 46.9278 86.6249 46.9278Z" stroke="#FDEAE8" stroke-width="0.75" stroke-miterlimit="10"/>
<path d="M70.9541 51.095H83.8601" stroke="#FDEAE8" stroke-width="0.75" stroke-miterlimit="10"/>
<path d="M70.9541 52.5922H79.8625" stroke="#FDEAE8" stroke-width="0.75" stroke-miterlimit="10"/>
<path d="M84.1844 54.8879H85.3772" stroke="#FDEAE8" stroke-width="0.75" stroke-miterlimit="10"/>
<path d="M84.7833 55.4869V54.2891" stroke="#FDEAE8" stroke-width="0.75" stroke-miterlimit="10"/>
<path d="M68.9928 48.2453H66.0832C65.8075 48.2453 65.5841 48.4687 65.5841 48.7443V55.4668C65.5841 55.7425 65.8075 55.9659 66.0832 55.9659H68.9928C69.2684 55.9659 69.4918 55.7425 69.4918 55.4668V48.7443C69.4918 48.4687 69.2684 48.2453 68.9928 48.2453Z" fill="#FDEAE8"/>
<path d="M86.6249 32.3948H64.8155C64.5398 32.3948 64.3164 32.6183 64.3164 32.8939V41.8523C64.3164 42.1279 64.5398 42.3513 64.8155 42.3513H86.6249C86.9006 42.3513 87.124 42.1279 87.124 41.8523V32.8939C87.124 32.6183 86.9006 32.3948 86.6249 32.3948Z" fill="white"/>
<path d="M86.6249 32.3948H64.8155C64.5398 32.3948 64.3164 32.6183 64.3164 32.8939V41.8523C64.3164 42.1279 64.5398 42.3513 64.8155 42.3513H86.6249C86.9006 42.3513 87.124 42.1279 87.124 41.8523V32.8939C87.124 32.6183 86.9006 32.3948 86.6249 32.3948Z" stroke="#FDEAE8" stroke-width="0.75" stroke-miterlimit="10"/>
<path d="M70.9541 36.562H83.8601" stroke="#FDEAE8" stroke-width="0.75" stroke-miterlimit="10"/>
<path d="M70.9541 38.0593H79.8625" stroke="#FDEAE8" stroke-width="0.75" stroke-miterlimit="10"/>
<path d="M84.1844 40.355H85.3772" stroke="#FDEAE8" stroke-width="0.75" stroke-miterlimit="10"/>
<path d="M84.7833 40.9539V39.7562" stroke="#FDEAE8" stroke-width="0.75" stroke-miterlimit="10"/>
<path d="M68.9928 33.7123H66.0832C65.8075 33.7123 65.5841 33.9358 65.5841 34.2114V40.9339C65.5841 41.2095 65.8075 41.433 66.0832 41.433H68.9928C69.2684 41.433 69.4918 41.2095 69.4918 40.9339V34.2114C69.4918 33.9358 69.2684 33.7123 68.9928 33.7123Z" fill="#FDEAE8"/>
<path d="M103.993 12.1724C104.72 12.1724 105.31 11.5825 105.31 10.8548C105.31 10.1272 104.72 9.53729 103.993 9.53729C103.265 9.53729 102.675 10.1272 102.675 10.8548C102.675 11.5825 103.265 12.1724 103.993 12.1724Z" fill="#73CBF2"/>
<path d="M37.4165 5.91398C38.2323 5.91398 38.8937 5.25259 38.8937 4.43673C38.8937 3.62086 38.2323 2.95947 37.4165 2.95947C36.6006 2.95947 35.9392 3.62086 35.9392 4.43673C35.9392 5.25259 36.6006 5.91398 37.4165 5.91398Z" fill="#FEFADB"/>
<path d="M94.8995 17.8318C95.1862 17.8318 95.4186 17.5994 95.4186 17.3127C95.4186 17.0261 95.1862 16.7937 94.8995 16.7937C94.6129 16.7937 94.3805 17.0261 94.3805 17.3127C94.3805 17.5994 94.6129 17.8318 94.8995 17.8318Z" fill="#F4857A"/>
<path d="M92.5938 8.10988L89.6643 17.7869C89.658 17.8266 89.6664 17.8673 89.688 17.9013C89.7097 17.9352 89.743 17.9601 89.7817 17.9711C89.8204 17.9822 89.8618 17.9787 89.8981 17.9613C89.9344 17.9439 89.9631 17.9138 89.9787 17.8767L92.9033 8.2097C92.9681 8.01007 92.6537 7.92523 92.5938 8.12486V8.10988Z" fill="black"/>
<path d="M95.8029 6.39307L93.6968 12.6015C93.627 12.8012 93.9414 12.886 94.0063 12.6864L96.1024 6.4879C96.1672 6.28827 95.8578 6.20343 95.7879 6.39807L95.8029 6.39307Z" fill="black"/>
<path d="M104.577 15.062C100.983 17.1116 97.4332 19.2343 93.9264 21.4302C93.7517 21.545 93.9264 21.8245 94.0911 21.7097C97.5946 19.5138 101.145 17.391 104.741 15.3415C104.771 15.3164 104.79 15.2816 104.797 15.2434C104.803 15.2052 104.796 15.166 104.776 15.1327C104.757 15.0993 104.726 15.0739 104.689 15.061C104.653 15.0481 104.613 15.0485 104.577 15.062Z" fill="black"/>
</g>
<defs>
<clipPath id="clip0_6_9853">
<rect width="150" height="149.722" fill="white" transform="translate(0.5)"/>
</clipPath>
</defs>
</svg>
