<?xml version="1.0" encoding="UTF-8"?><svg id="Layer_1" xmlns="http://www.w3.org/2000/svg" viewBox="0 0 93.84597 100"><defs><style>.cls-1{fill:#e0e0e0;}.cls-1,.cls-2,.cls-3,.cls-4{stroke-width:0px;}.cls-2{fill:#000;}.cls-3{fill:#d3d3d3;}.cls-4{fill:#f3f2f2;}</style></defs><path class="cls-4" d="M41.98609,59.93783c8.73895,1.38288,16.93792-4.58105,18.32362-13.31361,1.3828-8.73891-4.57775-16.9471-13.31369-18.32358-3.20463-.50568-6.31826-.02787-9.07208,1.21011-.1501.06954-.30645.14199-.45365.21779-4.475,2.17974-7.86712,6.41787-8.76738,11.68926-.00424.03999-.01142.07373-.02192.11661-.00385.02451-.00477.05535-.00859.07984-.00046.01542-.00718.03374-.00764.04916-.47599,3.03893-.05567,6.01208,1.05891,8.66358,2.07976,4.93153,6.58083,8.7108,12.26242,9.61084Z"/><path class="cls-1" d="M29.72367,50.32699l14.76906-6.21234-15.81174-2.58024c-.00385.02451-.00477.05535-.00859.07984-.00046.01542-.00718.03374-.00764.04916-.47599,3.03893-.05567,6.01208,1.05891,8.66358Z"/><path class="cls-3" d="M28.66477,41.66341l15.82797,2.45124-7.02244-14.38612c-4.475,2.17974-7.86712,6.41787-8.76738,11.68926-.00424.03999-.01142.07373-.02192.11661-.00385.02451-.00477.05535-.00859.07984-.00046.01542-.00718.03374-.00764.04916Z"/><path class="cls-2" d="M67.48939,99.34738h-4c-.27637,0-.5-.22363-.5-.5s.22363-.5.5-.5h4c.27637,0,.5.22363.5.5s-.22363.5-.5.5ZM59.48939,99.34738h-4c-.27637,0-.5-.22363-.5-.5s.22363-.5.5-.5h4c.27637,0,.5.22363.5.5s-.22363.5-.5.5ZM51.48939,99.34738h-4.00049c-.27637,0-.5-.22363-.5-.5s.22363-.5.5-.5h4.00049c.27637,0,.5.22363.5.5s-.22363.5-.5.5ZM43.4889,99.34738h-4c-.27637,0-.5-.22363-.5-.5s.22363-.5.5-.5h4c.27637,0,.5.22363.5.5s-.22363.5-.5.5ZM35.4889,99.34738h-4c-.27637,0-.5-.22363-.5-.5s.22363-.5.5-.5h4c.27637,0,.5.22363.5.5s-.22363.5-.5.5ZM27.4889,99.34738h-4c-.27637,0-.5-.22363-.5-.5s.22363-.5.5-.5h4c.27637,0,.5.22363.5.5s-.22363.5-.5.5ZM19.50062,99.19113c-.03369,0-.06738-.00293-.10156-.01074-1.396-.28809-2.69434-.95117-3.75439-1.91602-.20459-.18652-.21924-.50293-.0332-.70703.18652-.2041.50244-.21777.70605-.0332.92822.8457,2.06348,1.4248,3.28369,1.67773.27051.05566.44434.32031.38867.59082-.04883.23633-.25684.39844-.48926.39844ZM71.47083,99.13449c-.22559,0-.42969-.15332-.48535-.38184-.06543-.26758.09863-.53809.36719-.60352,1.21094-.2959,2.3252-.91504,3.22461-1.79199.19629-.19141.5127-.1875.70703.00977.19238.19727.18848.51367-.00977.70703-1.02637,1.00098-2.30078,1.70801-3.68555,2.0459-.03906.00977-.0791.01465-.11816.01465ZM13.86097,94.05929c-.21387,0-.41162-.1377-.47803-.35254-.23438-.75977-.35303-1.55371-.35303-2.35742v-1.75586c0-.27637.22363-.5.5-.5s.5.22363.5.5v1.75586c0,.7041.104,1.39844.30908,2.0625.08105.26367-.06689.54395-.33057.625-.04932.01562-.09863.02246-.14746.02246ZM76.92787,93.80636c-.04297,0-.08594-.00586-.12988-.01758-.2666-.07129-.4248-.3457-.35254-.6123.15918-.59375.24023-1.20801.24023-1.82715v-2.01855c0-.27637.22363-.5.5-.5s.5.22363.5.5v2.01855c0,.70703-.09277,1.40918-.27539,2.08691-.05957.22363-.26172.37012-.48242.37012ZM13.52992,86.09347c-.27637,0-.5-.22363-.5-.5v-4c0-.27637.22363-.5.5-.5s.5.22363.5.5v4c0,.27637-.22363.5-.5.5ZM77.18568,85.83078c-.27637,0-.5-.22363-.5-.5v-4c0-.27637.22363-.5.5-.5s.5.22363.5.5v4c0,.27637-.22363.5-.5.5ZM13.52992,78.09347c-.27637,0-.5-.22363-.5-.5v-4c0-.27637.22363-.5.5-.5s.5.22363.5.5v4c0,.27637-.22363.5-.5.5ZM13.52992,70.09347c-.27637,0-.5-.22363-.5-.5v-4c0-.27637.22363-.5.5-.5s.5.22363.5.5v4c0,.27637-.22363.5-.5.5ZM13.52992,62.09347c-.27637,0-.5-.22363-.5-.5v-4c0-.27637.22363-.5.5-.5s.5.22363.5.5v4c0,.27637-.22363.5-.5.5ZM13.52992,54.09347c-.27637,0-.5-.22363-.5-.5v-4.00049c0-.27637.22363-.5.5-.5s.5.22363.5.5v4.00049c0,.27637-.22363.5-.5.5ZM13.52992,46.09298c-.27637,0-.5-.22363-.5-.5v-4c0-.27637.22363-.5.5-.5s.5.22363.5.5v4c0,.27637-.22363.5-.5.5ZM77.18568,44.90695c-.27637,0-.5-.22363-.5-.5v-4c0-.27637.22363-.5.5-.5s.5.22363.5.5v4c0,.27637-.22363.5-.5.5ZM13.52992,38.09298c-.27637,0-.5-.22363-.5-.5v-4c0-.27637.22363-.5.5-.5s.5.22363.5.5v4c0,.27637-.22363.5-.5.5ZM77.18568,36.90695c-.27637,0-.5-.22363-.5-.5v-4c0-.27637.22363-.5.5-.5s.5.22363.5.5v4c0,.27637-.22363.5-.5.5ZM13.52992,30.09298c-.27637,0-.5-.22363-.5-.5v-4c0-.27637.22363-.5.5-.5s.5.22363.5.5v4c0,.27637-.22363.5-.5.5ZM77.18568,28.90695c-.27637,0-.5-.22363-.5-.5v-4c0-.27637.22363-.5.5-.5s.5.22363.5.5v4c0,.27637-.22363.5-.5.5ZM13.68226,22.10421c-.0332,0-.06689-.00342-.10059-.01025-.27051-.05518-.44482-.31934-.38965-.58984.28516-1.39746.94482-2.69775,1.90674-3.75977.18457-.20703.50098-.22021.70605-.03516.20508.18555.2207.50146.03516.70605-.8418.92969-1.41895,2.06689-1.66846,3.28906-.04834.23682-.25635.3999-.48926.3999ZM76.70521,20.96505c-.20215,0-.39258-.12305-.46777-.32324-.44043-1.16699-1.19043-2.19922-2.16699-2.98535-.21484-.17334-.24902-.48779-.07617-.70312.17285-.21582.48828-.24756.70312-.07617,1.11621.89795,1.97168,2.07764,2.47559,3.41113.09766.2583-.0332.54688-.29102.64453-.05859.02197-.11816.03223-.17676.03223ZM18.79896,16.45089c-.21338,0-.41113-.13721-.47754-.35156-.08203-.26367.06543-.54395.3291-.62598.7666-.23828,1.56641-.35889,2.37695-.35889h1.73682c.27637,0,.5.22363.5.5s-.22363.5-.5.5h-1.73682c-.70996,0-1.40967.10547-2.08008.31396-.04932.01514-.09961.02246-.14844.02246ZM70.76185,16.19064c-.02441,0-.04785-.00146-.07227-.00488-.32812-.04736-.66504-.07129-1.00098-.07129h-2.92383c-.27637,0-.5-.22363-.5-.5s.22363-.5.5-.5h2.92383c.38379,0,.76855.02734,1.14355.08105.27344.03955.46289.29297.42383.56641-.03613.24902-.25.42871-.49414.42871ZM62.76478,16.11447h-4c-.27637,0-.5-.22363-.5-.5s.22363-.5.5-.5h4c.27637,0,.5.22363.5.5s-.22363.5-.5.5ZM54.76478,16.11447h-4c-.27637,0-.5-.22363-.5-.5s.22363-.5.5-.5h4c.27637,0,.5.22363.5.5s-.22363.5-.5.5ZM46.76429,16.11447h-4c-.27637,0-.5-.22363-.5-.5s.22363-.5.5-.5h4c.27637,0,.5.22363.5.5s-.22363.5-.5.5ZM38.76429,16.11447h-4c-.27637,0-.5-.22363-.5-.5s.22363-.5.5-.5h4c.27637,0,.5.22363.5.5s-.22363.5-.5.5ZM30.76429,16.11447h-4c-.27637,0-.5-.22363-.5-.5s.22363-.5.5-.5h4c.27637,0,.5.22363.5.5s-.22363.5-.5.5Z"/><path class="cls-2" d="M51.43372,76.46652h-4c-.27637,0-.5-.22363-.5-.5s.22363-.5.5-.5h4c.27637,0,.5.22363.5.5s-.22363.5-.5.5ZM43.43372,76.46652h-4c-.27637,0-.5-.22363-.5-.5s.22363-.5.5-.5h4c.27637,0,.5.22363.5.5s-.22363.5-.5.5ZM35.43372,76.46652h-4c-.27637,0-.5-.22363-.5-.5s.22363-.5.5-.5h4c.27637,0,.5.22363.5.5s-.22363.5-.5.5ZM27.43372,76.46652h-3.48828c-.27637,0-.5-.22363-.5-.5s.22363-.5.5-.5h3.48828c.27637,0,.5.22363.5.5s-.22363.5-.5.5Z"/><path class="cls-2" d="M60.90052,85.61593h-4c-.27637,0-.5-.22363-.5-.5s.22363-.5.5-.5h4c.27637,0,.5.22363.5.5s-.22363.5-.5.5ZM52.90052,85.61593h-4c-.27637,0-.5-.22363-.5-.5s.22363-.5.5-.5h4c.27637,0,.5.22363.5.5s-.22363.5-.5.5ZM44.90052,85.61593h-4c-.27637,0-.5-.22363-.5-.5s.22363-.5.5-.5h4c.27637,0,.5.22363.5.5s-.22363.5-.5.5ZM36.90052,85.61593h-4c-.27637,0-.5-.22363-.5-.5s.22363-.5.5-.5h4c.27637,0,.5.22363.5.5s-.22363.5-.5.5ZM28.90052,85.61593h-4c-.27637,0-.5-.22363-.5-.5s.22363-.5.5-.5h4c.27637,0,.5.22363.5.5s-.22363.5-.5.5Z"/><path class="cls-2" d="M88.6974,82.49191l-5.30859-6.75781c-.21021-.26807-.53003-.38147-.84717-.36194l-2.26306-2.91711c1.69019-1.53003,3.03235-3.48877,3.81824-5.79517,2.4707-7.25391-1.41992-15.16504-8.67188-17.63525-7.25488-2.47168-15.16309,1.41846-17.63574,8.67139-2.4707,7.25293,1.41992,15.16504,8.67285,17.63574,1.47949.50391,2.9873.74316,4.46973.74316,3.13428,0,6.15405-1.07642,8.58093-2.97424l2.1947,2.82898c-.15527.3313-.13281.73315.10913,1.04077l5.30859,6.75781c.19727.25098.49023.38184.78711.38184.21582,0,.43359-.06934.61719-.21387.43359-.34082.50977-.96973.16797-1.4043ZM66.78431,74.38449c-6.73047-2.29297-10.34082-9.63477-8.04785-16.36621,1.8252-5.35742,6.84961-8.7373,12.21777-8.7373,1.37598,0,2.77539.22217,4.14844.68994,6.73047,2.29346,10.33984,9.63525,8.04688,16.3667-2.29297,6.73047-9.63477,10.3418-16.36523,8.04688Z"/><path class="cls-4" d="M91.85413,44.13229l1.46338-1.46313c.19531-.19531.19531-.51172,0-.70703s-.51172-.19531-.70703,0l-1.46338,1.46313-1.46338-1.46313c-.19531-.19531-.51172-.19531-.70703,0s-.19531.51172,0,.70703l1.46338,1.46313-1.46338,1.46313c-.19531.19531-.19531.51172,0,.70703.09766.09766.22559.14648.35352.14648s.25586-.04883.35352-.14648l1.46338-1.46313,1.46338,1.46313c.09766.09766.22559.14648.35352.14648s.25586-.04883.35352-.14648c.19531-.19531.19531-.51172,0-.70703l-1.46338-1.46313Z"/><path class="cls-4" d="M4.86878,82.64621c-.19531-.19531-.51172-.19531-.70703,0l-1.46313,1.46338-1.46313-1.46338c-.19531-.19531-.51172-.19531-.70703,0s-.19531.51172,0,.70703l1.46313,1.46338-1.46313,1.46338c-.19531.19531-.19531.51172,0,.70703.09766.09766.22559.14648.35352.14648s.25586-.04883.35352-.14648l1.46313-1.46338,1.46313,1.46338c.09766.09766.22559.14648.35352.14648s.25586-.04883.35352-.14648c.19531-.19531.19531-.51172,0-.70703l-1.46313-1.46338,1.46313-1.46338c.19531-.19531.19531-.51172,0-.70703Z"/><path class="cls-4" d="M50.16126.30831c-.19531-.19531-.51172-.19531-.70703,0l-1.53906,1.53931-1.53906-1.53931c-.19531-.19531-.51172-.19531-.70703,0s-.19531.51172,0,.70703l1.53906,1.53931-1.53906,1.53931c-.19531.19531-.19531.51172,0,.70703.09766.09766.22559.14648.35352.14648s.25586-.04883.35352-.14648l1.53906-1.53931,1.53906,1.53931c.09766.09766.22559.14648.35352.14648s.25586-.04883.35352-.14648c.19531-.19531.19531-.51172,0-.70703l-1.53906-1.53931,1.53906-1.53931c.19531-.19531.19531-.51172,0-.70703Z"/></svg>