<?xml version="1.0" encoding="utf-8"?>
<!-- Generator: Adobe Illustrator 27.5.0, SVG Export Plug-In . SVG Version: 6.00 Build 0)  -->
<svg version="1.1" xmlns="http://www.w3.org/2000/svg" xmlns:xlink="http://www.w3.org/1999/xlink" x="0px" y="0px"
	 viewBox="0 0 450 500" style="enable-background:new 0 0 450 500;" xml:space="preserve">
<g id="BACKGROUND">
	<rect style="fill:#ffffff00;" width="500" height="450"/>
	<path style="fill:#EBF7FE;" d="M328.873,130.859c0.225-1.206,0.348-2.447,0.348-3.718c0-4.185-1.276-8.072-3.459-11.294
		c0.719-2.809,1.102-5.752,1.102-8.785c0-15.195-9.593-28.147-23.051-33.138c0.233-1.226,0.36-2.489,0.36-3.783
		c0-11.134-9.026-20.159-20.159-20.159c-7.217,0-13.544,3.795-17.106,9.495c-7.087-4.845-15.655-7.683-24.887-7.683
		c-24.386,0-44.155,19.769-44.155,44.155c0,1.136,0.057,2.258,0.141,3.372c-2.156,2.402-3.884,5.192-5.079,8.25
		c-1.454-0.329-2.965-0.509-4.519-0.509c-11.259,0-20.386,9.127-20.386,20.386c0,0.36,0.01,0.718,0.028,1.074h-1.218
		c-5.855,0-10.646,4.791-10.646,10.646v2.469c0,5.855,4.791,10.646,10.646,10.646h155.415c5.855,0,10.646-4.791,10.646-10.646
		v-2.469C332.893,135.813,331.317,132.814,328.873,130.859z"/>
	<path style="fill:#EBF7FE;" d="M177.233,261.267c0.153-0.823,0.237-1.67,0.237-2.537c0-2.856-0.871-5.508-2.36-7.706
		c0.49-1.917,0.752-3.925,0.752-5.995c0-10.368-6.545-19.206-15.729-22.611c0.159-0.836,0.245-1.699,0.245-2.581
		c0-7.597-6.158-13.755-13.755-13.755c-4.924,0-9.242,2.589-11.672,6.479c-4.835-3.306-10.682-5.242-16.981-5.242
		c-16.64,0-30.128,13.489-30.128,30.128c0,0.775,0.039,1.54,0.096,2.301c-1.471,1.639-2.65,3.543-3.466,5.629
		c-0.992-0.225-2.023-0.347-3.083-0.347c-7.682,0-13.91,6.228-13.91,13.91c0,0.246,0.007,0.49,0.019,0.733h-0.831
		c-3.995,0-7.264,3.269-7.264,7.264v1.685c0,3.995,3.269,7.264,7.264,7.264h106.044c3.995,0,7.264-3.269,7.264-7.264v-1.685
		C179.976,264.648,178.9,262.601,177.233,261.267z"/>
	<path style="fill:#EBF7FE;" d="M437.853,238.995c0.153-0.823,0.237-1.67,0.237-2.537c0-2.856-0.871-5.508-2.36-7.706
		c0.49-1.917,0.752-3.925,0.752-5.995c0-10.368-6.545-19.206-15.729-22.611c0.159-0.836,0.245-1.699,0.245-2.581
		c0-7.597-6.159-13.755-13.755-13.755c-4.924,0-9.242,2.589-11.672,6.479c-4.836-3.306-10.682-5.242-16.981-5.242
		c-16.639,0-30.128,13.489-30.128,30.128c0,0.775,0.039,1.54,0.096,2.301c-1.471,1.639-2.651,3.542-3.466,5.629
		c-0.992-0.225-2.023-0.347-3.083-0.347c-7.682,0-13.91,6.228-13.91,13.91c0,0.246,0.007,0.49,0.019,0.733h-0.831
		c-3.995,0-7.264,3.269-7.264,7.264v1.685c0,3.995,3.269,7.264,7.264,7.264h106.044c3.995,0,7.264-3.269,7.264-7.264v-1.685
		C440.596,242.376,439.521,240.329,437.853,238.995z"/>
</g>
<g id="OBJECTS">
	<g>
		<ellipse style="fill:#EFF1FA;" cx="234.915" cy="432.664" rx="181.532" ry="7.4"/>
		<g>
			<g>
				<path style="fill:#F7E4B5;" d="M387.032,432.039h-191.48c-5.666,0-10.302-4.636-10.302-10.302V133.564
					c0-5.666,4.636-10.302,10.302-10.302h191.48c5.666,0,10.302,4.636,10.302,10.302v288.174
					C397.334,427.404,392.698,432.039,387.032,432.039z"/>
				
					<rect x="154.949" y="190.07" transform="matrix(-1.836970e-16 1 -1 -1.836970e-16 577.9783 -13.2265)" style="opacity:0.31;fill:#BDC1D4;" width="281.306" height="184.612"/>
				
					<rect x="150.639" y="185.345" transform="matrix(-1.836970e-16 1 -1 -1.836970e-16 568.943 -13.6414)" style="fill:#FFFFFF;" width="281.306" height="184.612"/>
				<g>
					<path style="fill:#D8DDF2;" d="M245.764,318.681h-12.413c-5.232,0-9.514-4.281-9.514-9.514v-12.413
						c0-5.233,4.281-9.514,9.514-9.514h12.413c5.232,0,9.514,4.281,9.514,9.514v12.413
						C255.278,314.4,250.997,318.681,245.764,318.681z"/>
				</g>
				<g>
					<path style="fill:#D8DDF2;" d="M245.764,369.923h-12.413c-5.232,0-9.514-4.281-9.514-9.514v-12.413
						c0-5.232,4.281-9.514,9.514-9.514h12.413c5.232,0,9.514,4.281,9.514,9.514v12.413
						C255.278,365.642,250.997,369.923,245.764,369.923z"/>
				</g>
				<g>
					<path style="fill:#D8DDF2;" d="M245.764,216.197h-12.413c-5.232,0-9.514-4.281-9.514-9.514V194.27
						c0-5.232,4.281-9.514,9.514-9.514h12.413c5.232,0,9.514,4.281,9.514,9.514v12.413
						C255.278,211.915,250.997,216.197,245.764,216.197z"/>
				</g>
				<g>
					<path style="fill:#D8DDF2;" d="M245.764,267.439h-12.413c-5.232,0-9.514-4.281-9.514-9.514v-12.413
						c0-5.232,4.281-9.514,9.514-9.514h12.413c5.232,0,9.514,4.281,9.514,9.514v12.413
						C255.278,263.158,250.997,267.439,245.764,267.439z"/>
				</g>
				<path style="fill:#D8DDF2;" d="M351.378,192.031h-84.72c-1.828,0-3.323-1.495-3.323-3.323l0,0c0-1.828,1.495-3.323,3.323-3.323
					h84.72c1.828,0,3.323,1.495,3.323,3.323l0,0C354.702,190.536,353.206,192.031,351.378,192.031z"/>
				<path style="fill:#D8DDF2;" d="M351.378,202.55h-84.72c-1.828,0-3.323-1.495-3.323-3.323l0,0c0-1.828,1.495-3.323,3.323-3.323
					h84.72c1.828,0,3.323,1.495,3.323,3.323l0,0C354.702,201.054,353.206,202.55,351.378,202.55z"/>
				<path style="fill:#D8DDF2;" d="M351.378,213.069h-84.72c-1.828,0-3.323-1.495-3.323-3.323l0,0c0-1.828,1.495-3.323,3.323-3.323
					h84.72c1.828,0,3.323,1.495,3.323,3.323l0,0C354.702,211.573,353.206,213.069,351.378,213.069z"/>
				<path style="fill:#D8DDF2;" d="M351.378,244.523h-84.72c-1.828,0-3.323-1.495-3.323-3.323l0,0c0-1.828,1.495-3.323,3.323-3.323
					h84.72c1.828,0,3.323,1.495,3.323,3.323l0,0C354.702,243.028,353.206,244.523,351.378,244.523z"/>
				<path style="fill:#D8DDF2;" d="M351.378,255.042h-84.72c-1.828,0-3.323-1.495-3.323-3.323l0,0c0-1.828,1.495-3.323,3.323-3.323
					h84.72c1.828,0,3.323,1.495,3.323,3.323l0,0C354.702,253.546,353.206,255.042,351.378,255.042z"/>
				<path style="fill:#D8DDF2;" d="M351.378,265.561h-84.72c-1.828,0-3.323-1.495-3.323-3.323l0,0c0-1.828,1.495-3.323,3.323-3.323
					h84.72c1.828,0,3.323,1.495,3.323,3.323l0,0C354.702,264.065,353.206,265.561,351.378,265.561z"/>
				<path style="fill:#D8DDF2;" d="M351.378,297.015h-84.72c-1.828,0-3.323-1.495-3.323-3.323l0,0c0-1.828,1.495-3.323,3.323-3.323
					h84.72c1.828,0,3.323,1.495,3.323,3.323l0,0C354.702,295.52,353.206,297.015,351.378,297.015z"/>
				<path style="fill:#D8DDF2;" d="M351.378,307.534h-84.72c-1.828,0-3.323-1.495-3.323-3.323l0,0c0-1.828,1.495-3.323,3.323-3.323
					h84.72c1.828,0,3.323,1.495,3.323,3.323l0,0C354.702,306.039,353.206,307.534,351.378,307.534z"/>
				<path style="fill:#D8DDF2;" d="M351.378,318.053h-84.72c-1.828,0-3.323-1.495-3.323-3.323l0,0c0-1.828,1.495-3.323,3.323-3.323
					h84.72c1.828,0,3.323,1.495,3.323,3.323l0,0C354.702,316.557,353.206,318.053,351.378,318.053z"/>
				<path style="fill:#D8DDF2;" d="M351.378,349.507h-84.72c-1.828,0-3.323-1.495-3.323-3.323l0,0c0-1.828,1.495-3.323,3.323-3.323
					h84.72c1.828,0,3.323,1.495,3.323,3.323l0,0C354.702,348.012,353.206,349.507,351.378,349.507z"/>
				<path style="fill:#D8DDF2;" d="M351.378,360.026h-84.72c-1.828,0-3.323-1.495-3.323-3.323l0,0c0-1.828,1.495-3.323,3.323-3.323
					h84.72c1.828,0,3.323,1.495,3.323,3.323l0,0C354.702,358.531,353.206,360.026,351.378,360.026z"/>
				<path style="fill:#D8DDF2;" d="M351.378,370.545h-84.72c-1.828,0-3.323-1.495-3.323-3.323l0,0c0-1.828,1.495-3.323,3.323-3.323
					h84.72c1.828,0,3.323,1.495,3.323,3.323l0,0C354.702,369.049,353.206,370.545,351.378,370.545z"/>
			</g>
			<g>
				<path style="fill:#BDC1D4;" d="M258.598,143.723h-48.288c-1.366,0-2.484-1.118-2.484-2.484v-24.697
					c0-1.366,1.118-2.484,2.484-2.484h48.288c1.366,0,2.484,1.118,2.484,2.484v24.697
					C261.081,142.606,259.964,143.723,258.598,143.723z"/>
				<path style="fill:none;stroke:#D8DDF2;stroke-width:3.2689;stroke-linecap:round;stroke-miterlimit:10;" d="M255.521,141.747
					L245.117,121.3c-1.572-3.089-1.551-6.753,0.081-9.81c1.718-3.218,3.423-7.528,2.456-10.717c-1.256-4.146-7.57-4.59-11.022-4.511
					c-1.509,0.034-3.018,0.034-4.527,0c-3.452-0.078-9.765,0.365-11.021,4.511c-0.966,3.189,0.738,7.5,2.456,10.717
					c1.632,3.057,1.653,6.721,0.081,9.81l-10.403,20.447"/>
				<path style="fill:#ABAEBF;" d="M259.926,144.007h-51.064c-1.243,0-2.26-1.017-2.26-2.26l0,0c0-1.243,1.017-2.26,2.26-2.26
					h51.064c1.243,0,2.26,1.017,2.26,2.26l0,0C262.186,142.99,261.169,144.007,259.926,144.007z"/>
			</g>
			<g>
				<path style="fill:#BDC1D4;" d="M372.02,143.723h-48.288c-1.366,0-2.484-1.118-2.484-2.484v-24.697
					c0-1.366,1.118-2.484,2.484-2.484h48.288c1.366,0,2.484,1.118,2.484,2.484v24.697
					C374.504,142.606,373.387,143.723,372.02,143.723z"/>
				<path style="fill:none;stroke:#D8DDF2;stroke-width:3.2689;stroke-linecap:round;stroke-miterlimit:10;" d="M368.944,141.747
					L358.54,121.3c-1.572-3.089-1.551-6.753,0.081-9.81c1.718-3.218,3.423-7.528,2.456-10.717c-1.256-4.146-7.57-4.59-11.022-4.511
					c-1.509,0.034-3.018,0.034-4.527,0c-3.452-0.078-9.765,0.365-11.021,4.511c-0.966,3.189,0.738,7.5,2.456,10.717
					c1.632,3.057,1.653,6.721,0.081,9.81l-10.403,20.447"/>
				<path style="fill:#ABAEBF;" d="M373.349,144.007h-51.065c-1.243,0-2.26-1.017-2.26-2.26l0,0c0-1.243,1.017-2.26,2.26-2.26
					h51.065c1.243,0,2.26,1.017,2.26,2.26l0,0C375.609,142.99,374.592,144.007,373.349,144.007z"/>
			</g>
		</g>
		<g>
			<polygon style="fill:#FD9C7F;" points="113.638,415.17 112.277,422.915 116.617,423.264 119.34,413.979 			"/>
			<polygon style="fill:#FD9C7F;" points="177.128,418.304 177.128,425.264 182.193,425.264 182.915,417.637 			"/>
			<path style="fill:#475778;" d="M132.297,285.284c-0.743,0.045-1.349,0.612-1.444,1.35l-9.209,71.77l-9.442,55.375
				c-0.151,0.886,0.481,1.715,1.375,1.803l4.829,0.479c0.723,0.072,1.399-0.368,1.626-1.059l18.035-54.904
				c0.016-0.048,0.029-0.098,0.04-0.148l10.934-49.224c0.332-1.496,2.403-1.654,2.958-0.226l17.902,46.004
				c0.051,0.131,0.084,0.269,0.098,0.409l5.972,60.198c0.082,0.824,0.796,1.438,1.623,1.395l4.953-0.256
				c0.783-0.04,1.413-0.66,1.467-1.443l4.225-61.757c0.012-0.175-0.006-0.351-0.053-0.52l-19.485-70.23
				c-0.196-0.705-0.858-1.177-1.588-1.133L132.297,285.284z"/>
			<path style="fill:#4694C4;" d="M182.221,234.536l-16.486-13.325c-3.354-2.711-3.88-7.673-1.169-11.027l0,0
				c2.711-3.354,7.673-3.88,11.027-1.169l16.486,13.325c3.354,2.711,3.88,7.673,1.169,11.027l0,0
				C190.537,236.72,185.575,237.246,182.221,234.536z"/>
			<g>
				<path style="fill:#FD9C7F;" d="M94.751,428.115c1.451,0.026,2.835,0.306,4.126,0.778l1.415-2.239l5.461-8.643l-5.306-0.094
					l-9.627-0.171l-6.133-0.109l5.954,10.207l0.437,0.749C92.244,428.263,93.476,428.092,94.751,428.115z"/>
				<polygon style="fill:#FEC424;" points="90.82,417.745 100.447,417.916 105.753,418.01 105.974,405.571 106.044,401.648 
					107.674,309.762 107.739,306.117 102.432,306.023 92.805,305.852 86.671,305.743 86.607,309.388 84.977,401.275 84.907,405.197 
					84.687,417.637 				"/>
				<g>
					<g>
						<polygon style="fill:#F2A32C;" points="90.82,417.745 91.04,405.306 91.11,401.383 92.74,309.497 86.607,309.388 
							84.977,401.275 84.907,405.197 84.687,417.637 						"/>
						<polygon style="fill:#F2A32C;" points="100.668,405.477 100.447,417.916 105.753,418.01 105.974,405.571 106.044,401.648 
							107.674,309.762 102.368,309.668 100.737,401.554 						"/>
					</g>
				</g>
				<path style="fill:#FC5954;" d="M107.676,309.762l0.177-10.129c0.056-3.164-2.19-5.827-5.195-6.407
					c-0.359-0.069-0.728-0.115-1.106-0.122l-8.238-0.146c-0.095-0.002-0.188,0.007-0.281,0.009
					c-3.414,0.088-6.186,2.844-6.247,6.292l-0.177,10.129L107.676,309.762z"/>
				<path style="fill:#F05550;" d="M102.411,293.183c-0.002,0.002-0.003,0.002-0.004,0.004l0,0c-0.086,4.888-4.118,8.78-9.006,8.694
					l-6.659-0.118l-0.133,7.626l21.067,0.374l0.177-10.129C107.911,296.382,105.539,293.66,102.411,293.183z"/>
				
					<rect x="95.42" y="297.287" transform="matrix(0.0175 -0.9998 0.9998 0.0175 -212.3002 399.5992)" style="fill:#ACBFBC;" width="3.506" height="21.07"/>
				<path style="fill:#245C73;" d="M94.751,428.115c-1.275-0.023-2.507,0.148-3.674,0.478l3.835,6.574l3.965-6.274
					C97.586,428.421,96.202,428.14,94.751,428.115z"/>
				<path style="fill:#FC9895;" d="M94.419,297.85l-3.106-0.019c-0.793-0.005-1.438-0.658-1.433-1.451l0,0
					c0.005-0.793,0.658-1.438,1.451-1.433l3.106,0.019c0.793,0.005,1.438,0.658,1.433,1.451l0,0
					C95.865,297.21,95.212,297.855,94.419,297.85z"/>
			</g>
			<path style="fill:#51ABE3;" d="M130.234,273.371c0,0-1.88,3.267,0,5.847c1.88,2.58-0.836,3.875-0.836,3.875
				s-0.382,2.964,9.492,4.125c9.873,1.161,28.846-0.387,29.233-2.517c0.387-2.13,0.581-4.579,0-5.484
				c-0.581-0.905,2.863-3.238,0.367-5.847C165.994,270.763,142.874,276.947,130.234,273.371z"/>
			<path style="fill:#FD8865;" d="M98.755,288.073l-4.005,3.033c0,0-10.648,0.774-11.422,2.323
				c-0.774,1.549,9.172,2.517,15.427,1.742c6.256-0.774,7.804-1.549,7.804-1.549s-5.227,6.002-0.968,7.938
				c4.259,1.936,1.936-2.323,3.872-4.259c1.936-1.936,4.538-6.475,0.323-10.444C105.57,282.888,98.755,288.073,98.755,288.073z"/>
			<path style="fill:#58BAF7;" d="M98.755,282.063c0,0-1.351,2.024,0,3.057c1.351,1.033-1.222,3.872,0,3.872
				c1.222,0,6.901,2.473,11.031-1.216c0,0,1.936-0.514,0-1.843c-1.936-1.329-1.42-6.555-1.42-6.555L98.755,282.063z"/>
			<path style="fill:#58BAF7;" d="M153.555,193.969c0,0,14.6,2.839,19.045,6.453c4.445,3.614,3.267,69.824-3.791,74.987
				c-7.058,5.162-31.868,6.582-38.145-0.129c-6.277-6.711-13.763-71.402-8.858-76.227
				C126.709,194.227,150.974,192.162,153.555,193.969z"/>
			<path style="fill:#ED9277;" d="M144.098,177.32v15.278c0,0,5.407,6.389,11.021,2.904l2.13-16.843
				C157.25,178.659,145.467,169.206,144.098,177.32z"/>
			<path style="fill:#51ABE3;" d="M177.546,189.104c0,0,22.765,30.9,19.476,40.298c-3.29,9.398-8.974,9.919-14.157,5.075
				c-5.183-4.844-10.223-35.668-10.223-35.668S174.103,189.236,177.546,189.104z"/>
			<path style="fill:#FD9C7F;" d="M145.303,129.187c0,0-15.165,3.033-12.89,23.506c2.275,20.473,7.067,29.197,16.682,31.847
				c6.894,1.9,16.72,5.499,21.989-6.066c4.971-10.91,6.824-25.781,1.516-37.913S156.677,126.912,145.303,129.187z"/>
			<path style="fill:#393663;" d="M160.382,155.346c0,1.078-0.471,1.952-1.051,1.952c-0.581,0-1.051-0.874-1.051-1.952
				c0-1.078,0.471-1.952,1.051-1.952C159.911,153.394,160.382,154.268,160.382,155.346z"/>
			<path style="fill:#393663;" d="M172.046,155.346c0,1.078-0.471,1.952-1.051,1.952c-0.581,0-1.051-0.874-1.051-1.952
				c0-1.078,0.471-1.952,1.051-1.952C171.575,153.394,172.046,154.268,172.046,155.346z"/>
			<path style="fill:none;stroke:#D97A5A;stroke-width:1.5165;stroke-linecap:round;stroke-miterlimit:10;" d="M166.534,159.517
				c0,0,3.791,4.55,3.791,6.066s-3.791,2.275-4.549,0.758"/>
			<path style="fill:none;stroke:#D97A5A;stroke-width:1.5165;stroke-linecap:round;stroke-miterlimit:10;" d="M167.292,172.407
				c0,0-5.308,3.033-11.374-1.516"/>
			<path style="fill:none;stroke:#D97A5A;stroke-width:1.5165;stroke-linecap:round;stroke-miterlimit:10;" d="M160.468,175.44
				c0,0,2.275,2.275,6.066,0"/>
			<path style="fill:#393663;" d="M140.089,158.759c0,0,4.334-5.961,4.076,0.758c-0.258,6.719,3.356,3.057,3.227,0.758
				c-0.129-2.299,0-8.494,1.807-10.817c1.807-2.323,4.848-3.872,4.618-6.453c-0.23-2.581,6.433-5.679,6.651-5.679
				c0.218,0,5.171,2.345,9.857-0.893c0,0,2.966,4.633,3.791,8.426c0,0,4.509-1.726,4.122-12.309l-2.784,1.033
				c0,0,3.817-7.744,0.977-14.197c0,0-5.082,6.711-12.931,4.517c0,0,1.654-0.645,3.033-2.968c0,0-9.72,2.581-11.527,1.936
				c-1.807-0.645-12.519-0.761-16.778,5.427c0,0-0.549-1.846,0.807-4.556c0,0-3.678,1.852-4.84,4.556l-1.161-2.426
				c0,0-1.514,3.872-0.854,5.324c0,0-3.502,0.968-3.502,3.388l2.323-0.29c0,0-2.614,3.581-2.323,7.937l2.807-1.936
				c0,0-3.581,9.308-1.355,17.044l2.283-4.646c0,0-0.54,11.801,2.46,20.223c3.001,8.422,2.713,8.422,2.713,8.422l3.828-0.636
				c0,0-3.001-3.91-2.319-8.155c0.144-0.899,1.022-8.742,0.238-9.204c-1.111-0.654-1.178-0.321-1.747-6.004
				C137.586,157.339,136.326,154.452,140.089,158.759z"/>
			<path style="fill:none;stroke:#393663;stroke-width:1.5165;stroke-linecap:round;stroke-miterlimit:10;" d="M154.217,152.355
				c0,0,2.371-3.614,7.388-3.614"/>
			<path style="fill:none;stroke:#393663;stroke-width:1.5165;stroke-linecap:round;stroke-miterlimit:10;" d="M168.809,148.225
				c0.653,0,4.053,0.178,5.308,3.614"/>
			<path style="fill:#51ABE3;" d="M143.34,185.286c0,0,0.373-1.455-0.982,0c-1.355,1.455,1.868,6.36,0.514,9.328
				c-1.353,2.968,9.36,6.582,13.619,2.839c0,0,0.858-2.507,0-4.259c-0.858-1.752,1.518-2.578,1.29-4.517
				C157.554,186.738,151.743,191.446,143.34,185.286z"/>
			<path style="fill:#ED9277;" d="M177.271,182.224c0,0,2.46,14.812-3.872,14.842c-6.332,0.031-9.035-3.102-8.389-3.745
				s-0.532-3.612,0.766-5.031c1.299-1.42-9.285-2.71-10.704-4.775c-1.42-2.065,12.89-0.387,14.189-0.387s3.88,0.29,3.622-1.791
				c-0.258-2.081-2.08-6.441,0.186-7.939C175.335,171.899,177.271,182.224,177.271,182.224z"/>
			<path style="fill:#51ABE3;" d="M121.921,199.455c0,0-22.848,52.609-22.59,55.449c0.258,2.839-3.876,24.264-0.002,26.845
				c3.874,2.581,9.825,1.422,10.463-3.29c0.638-4.712,7.35-30.009,7.35-30.009s18.844-23.49,16.52-35.88
				C131.34,200.18,121.921,199.455,121.921,199.455z"/>
			<path style="fill:#58BAF7;" d="M171.81,196.022c0,0,3.801-4.472,4.955-7.887c0,0,1.089-0.434,2.385,1.964
				c1.296,2.398,1.01,2.155,1.868,3.983c0.859,1.828-6.096,10.549-7.728,8.276c-1.632-2.273-0.434-3.316-0.851-4.514
				C172.021,196.645,170.96,196.126,171.81,196.022z"/>
			<path style="fill:#FD9C7F;" d="M143.028,157.103c0,0-3.089-6.178-6.178-5.148c-3.089,1.03,0,19.563,6.178,16.474"/>
			<path style="fill:#FD8865;" d="M159.42,160.993c0,1.711-1.991,3.098-4.447,3.098s-4.447-1.387-4.447-3.098
				c0-1.711,1.991-3.098,4.447-3.098S159.42,159.282,159.42,160.993z"/>
			<path style="fill:#FD8865;" d="M175.326,160.904c0,1.381-1.119,2.5-2.5,2.5c-1.381,0-2.5-1.12-2.5-2.5c0-1.381,1.119-2.5,2.5-2.5
				C174.207,158.404,175.326,159.524,175.326,160.904z"/>
			<path style="fill:#475778;" d="M176.809,424.404h6.373c0.132,0,0.263,0.029,0.384,0.084l17.164,7.858
				c0.9,0.412,0.606,1.76-0.384,1.76h-24.365c-0.547,0-0.974-0.474-0.917-1.018l0.827-7.858
				C175.941,424.76,176.337,424.404,176.809,424.404z"/>
			<path style="fill:#475778;" d="M117.046,422.991l-6.07-0.306c-0.305-0.015-0.597,0.121-0.781,0.364l-7.265,9.58
				c-0.46,0.607-0.027,1.479,0.735,1.479h14.618c0.559,0,0.99-0.494,0.913-1.048l-1.282-9.273
				C117.852,423.346,117.488,423.013,117.046,422.991z"/>
		</g>
		
			<polyline style="fill:none;stroke:#58BAF7;stroke-width:6.066;stroke-linecap:round;stroke-linejoin:round;stroke-miterlimit:10;" points="
			235.756,193.478 243.244,200.966 265.936,178.273 		"/>
		
			<polyline style="fill:none;stroke:#58BAF7;stroke-width:6.066;stroke-linecap:round;stroke-linejoin:round;stroke-miterlimit:10;" points="
			235.756,295.892 243.244,303.38 265.936,280.687 		"/>
		<g>
			<path style="fill:#A4CC80;" d="M408.092,326.779c0,0-9.965-4.411-12.131,4.904c-2.166,9.315,4.766,13.452,4.982,17.558
				c0.217,4.105-9.532,7.336-7.365,22.077c2.166,14.74,16.031,3.259,20.797,5.858c4.766,2.6,20.58,5.416,21.88-2.166
				s-3.683-17.114-6.932-23.18c-3.249-6.066,16.97-17.39,9.676-25.051c-7.293-7.661-17.908-4.195-17.908-4.195
				S410.691,314.943,408.092,326.779z"/>
			<polygon style="fill:#B2A58E;" points="423.632,331.25 413.413,346.312 413.413,346.312 402.329,334.023 411.398,351.751 
				410.873,365.204 399.441,360.876 410.697,369.704 409.551,399.055 415.617,399.633 413.883,349.132 			"/>
			<path style="fill:#CE7152;" d="M431.864,399.633h-40.727c-2.939,0-5.344-2.405-5.344-5.344l0,0c0-2.939,2.405-5.343,5.344-5.343
				h40.727c2.939,0,5.344,2.405,5.344,5.343l0,0C437.207,397.228,434.803,399.633,431.864,399.633z"/>
			<path style="fill:#CE7152;" d="M427.332,430.664h-31.664c-1.589,0-2.888-1.3-2.888-2.888l-4.242-32.475
				c0-1.589,1.3-2.888,2.888-2.888h40.149c1.589,0,2.888,1.3,2.888,2.888l-4.242,32.475
				C430.221,429.364,428.921,430.664,427.332,430.664z"/>
		</g>
	</g>
</g>
</svg>
