<svg width="284" height="284" viewBox="0 0 284 284" fill="none" xmlns="http://www.w3.org/2000/svg">
<g clip-path="url(#clip0_3192_94191)">
<circle cx="142" cy="142" r="142" fill="white"/>
<path d="M221.779 43.6813C163.549 -22.8047 90.9816 24.9964 88.8089 58.0221C86.5435 68.583 96.6308 88.006 117.055 80.6186C135.806 73.8362 132.264 55.4148 132.264 55.4148C127.918 23.2582 39.4948 10.9901 13.1963 73.6659C2.94024 98.1086 3.48353 197.076 126.895 171.004" stroke="#384248" stroke-width="0.6" stroke-dasharray="4 2"/>
<path d="M261 58L261.973 61.9407C262.592 64.4492 264.551 66.4079 267.059 67.0272L271 68L267.059 68.9728C264.551 69.5921 262.592 71.5508 261.973 74.0593L261 78L260.027 74.0593C259.408 71.5508 257.449 69.5921 254.941 68.9728L251 68L254.941 67.0272C257.449 66.4079 259.408 64.4492 260.027 61.9407L261 58Z" fill="#384248"/>
<path d="M259.5 150L260.035 152.167C260.376 153.547 261.453 154.624 262.833 154.965L265 155.5L262.833 156.035C261.453 156.376 260.376 157.453 260.035 158.833L259.5 161L258.965 158.833C258.624 157.453 257.547 156.376 256.167 156.035L254 155.5L256.167 154.965C257.547 154.624 258.624 153.547 258.965 152.167L259.5 150Z" fill="#384248"/>
<path d="M114.835 121.12C112.745 121.12 111.051 119.434 111.051 117.355C111.051 115.275 112.745 113.59 114.835 113.59C116.925 113.59 118.619 115.275 118.619 117.355C118.619 119.434 116.925 121.12 114.835 121.12Z" fill="white"/>
<path d="M111.265 116.166L108.198 124.814L115.339 127.326L118.406 118.678" fill="white"/>
<path d="M111.265 116.166L108.198 124.814L115.339 127.326L118.406 118.678" stroke="#384248" stroke-width="0.8" stroke-linecap="round" stroke-linejoin="round"/>
<g clip-path="url(#clip1_3192_94191)">
<path d="M118.461 118.566L112.651 113.86" stroke="white" stroke-width="0.25" stroke-miterlimit="10"/>
<path d="M113.215 119.104L117.897 113.322" stroke="white" stroke-width="0.25" stroke-miterlimit="10"/>
<path d="M111.168 115.804C111.168 115.804 111.183 109.987 111.88 107.054C112.337 105.134 112.898 104.381 113.195 103.1C113.333 102.509 114.051 102.248 114.524 102.639C114.806 102.875 115.192 103.188 115.258 104.102C115.5 107.457 114.323 110.48 119.951 105.571C119.92 105.62 125.291 100.115 126.219 101.247C127.2 102.456 120.982 108.341 120.982 108.341C120.982 108.341 122.243 107.502 122.785 107.992C124.099 109.18 122.588 110.329 122.588 110.329L123.029 110.174C124.057 109.807 125.042 110.828 124.643 111.844C125.928 112.216 126.259 113.881 125.216 114.707C125.216 114.707 117.761 119.831 116.859 120.299" fill="white"/>
<path d="M111.159 115.855C111.159 115.855 111.177 109.983 111.874 107.05C112.332 105.13 112.892 104.377 113.189 103.096C113.327 102.505 114.045 102.244 114.518 102.635C114.8 102.872 115.186 103.184 115.253 104.098C115.494 107.453 114.317 110.476 119.945 105.568C119.914 105.617 125.285 100.111 126.213 101.243C127.195 102.452 120.976 108.337 120.976 108.337C120.976 108.337 122.237 107.498 122.779 107.988C124.094 109.176 122.582 110.325 122.582 110.325L123.023 110.17C124.051 109.803 125.036 110.824 124.637 111.84C125.923 112.212 126.253 113.877 125.21 114.703C125.21 114.703 117.784 119.833 116.89 120.3" stroke="#384248" stroke-width="0.8" stroke-linecap="round" stroke-linejoin="round"/>
<path d="M120.976 108.337C120.976 108.337 117.373 110.52 117.665 111.832C118.004 113.363 120.548 111.719 120.548 111.719C120.548 111.719 118.33 113.197 118.975 114.34C119.62 115.482 121.927 114.284 121.927 114.284C121.927 114.284 120.233 115.218 120.714 116.162C121.359 117.429 122.974 116.43 123.64 115.945C123.64 115.945 125.047 114.926 125.366 114.531" stroke="#384248" stroke-width="0.8" stroke-linecap="round" stroke-linejoin="round"/>
<path d="M120.548 111.719L122.583 110.334" stroke="#384248" stroke-width="0.8" stroke-linecap="round" stroke-linejoin="round"/>
<path d="M121.927 114.284C121.999 114.268 123.329 113.302 123.62 113.034" stroke="#384248" stroke-width="0.8" stroke-linecap="round" stroke-linejoin="round"/>
<path d="M115.505 107.891C115.505 107.891 118.321 110.222 116.477 113.002" stroke="#384248" stroke-width="0.8" stroke-linecap="round" stroke-linejoin="round"/>
</g>
<path d="M87.8954 133.603C86.0099 136.199 82.3681 136.784 79.7594 134.908C77.1507 133.032 76.5631 129.408 78.4486 126.812C80.3341 124.217 83.9759 123.632 86.5846 125.508C89.1933 127.384 89.7809 131.008 87.8954 133.603Z" fill="#C4CCFD"/>
<path d="M102.095 150.116V150.103C104.658 151.619 107.997 150.964 109.779 148.522C111.613 145.997 111.09 142.496 108.655 140.594V140.581C104.872 137.542 99.9512 133.809 95.3731 130.699C94.2302 129.922 93.1002 129.177 92.0219 128.496C89.8264 127.114 87.8183 125.971 86.1846 125.245C86.1007 125.193 86.0167 125.148 85.9457 125.103C85.2677 124.743 84.5509 124.525 83.8213 124.448C83.4791 124.39 83.182 124.364 82.9302 124.403V124.416C82.4136 124.435 81.91 124.525 81.4257 124.686C80.2699 125.045 79.2174 125.759 78.4554 126.812C77.1963 128.541 77.0413 130.725 77.8484 132.543C77.9001 132.723 78.0099 132.929 78.1648 133.154C78.5394 133.79 79.0495 134.368 79.6823 134.837C83.7761 138.718 93.8557 145.451 102.108 150.116H102.095Z" fill="#C4CCFD"/>
<path d="M100.364 141.744C102.243 139.155 105.872 138.576 108.474 140.446C111.077 142.316 111.658 145.927 109.779 148.516C107.9 151.105 104.264 151.683 101.669 149.814C99.0663 147.944 98.4851 144.327 100.364 141.744Z" fill="#C4CCFD"/>
<path d="M78.4486 126.806C79.5334 125.315 81.1994 124.493 82.917 124.416L82.9299 124.403C83.1817 124.371 83.4787 124.39 83.821 124.448C84.641 124.538 85.4482 124.801 86.1843 125.251C91.8343 127.763 101.998 135.242 108.662 140.581L108.649 140.594C111.089 142.502 111.606 145.997 109.772 148.522C107.997 150.964 104.658 151.619 102.101 150.103V150.116C96.7223 147.083 90.5816 143.17 85.8162 139.739" fill="#C4CCFD"/>
<path d="M78.4486 126.806C79.5334 125.315 81.1994 124.493 82.917 124.416L82.9299 124.403C83.1817 124.371 83.4787 124.39 83.821 124.448C84.641 124.538 85.4482 124.801 86.1843 125.251C91.8343 127.763 101.998 135.242 108.662 140.581L108.649 140.594C111.089 142.502 111.606 145.997 109.772 148.522C107.997 150.964 104.658 151.619 102.101 150.103V150.116C96.7223 147.083 90.5816 143.17 85.8162 139.739" stroke="#384248" stroke-width="0.8" stroke-linecap="round" stroke-linejoin="round"/>
<path d="M102.05 142.958C103.257 141.301 105.588 140.928 107.254 142.123C108.92 143.325 109.295 145.644 108.094 147.302C106.886 148.959 104.555 149.332 102.889 148.137C101.223 146.935 100.849 144.616 102.056 142.958H102.05Z" fill="#C4CCFD"/>
<path d="M110.696 146.627L116.017 127.705L107.209 124.204L99.7446 142.785L110.696 146.627Z" fill="#C4CCFD"/>
<path d="M110.696 146.627L116.017 127.705L107.209 124.204L99.7446 142.785" stroke="#384248" stroke-width="0.8" stroke-linecap="round" stroke-linejoin="round"/>
<path d="M105.04 125.635L105.704 123.907C106.039 123.035 107.021 122.599 107.897 122.932L117.215 126.476C118.092 126.81 118.53 127.786 118.195 128.658L117.531 130.387C117.196 131.258 116.215 131.695 115.339 131.362L106.02 127.817C105.144 127.484 104.705 126.507 105.04 125.635Z" fill="white" stroke="#384248" stroke-width="0.8" stroke-linecap="round" stroke-linejoin="round"/>
<path d="M64.9775 197.834H83.8646C89.3144 197.834 93.7311 193.433 93.7311 188.017V184.958C93.7311 174.351 85.0786 165.741 74.4178 165.741C63.7571 165.741 55.1045 174.351 55.1045 184.958V188.017C55.1045 193.439 59.5276 197.834 64.971 197.834H64.9775Z" fill="white" stroke="#384248" stroke-width="0.8" stroke-linecap="round" stroke-linejoin="round"/>
<path d="M92.4652 166.834C81.6753 166.307 58.0035 180.853 52.6247 177.814C51.7659 173.188 51.2687 164.424 49.9256 154.022L49.8739 153.649C49.8545 153.45 49.8287 153.257 49.7964 153.052L49.7448 152.666C49.112 147.745 48.4469 142.515 47.7818 137.253C47.2523 132.999 50.2549 129.106 54.5295 128.534L77.2587 125.495C81.2815 124.955 85.046 127.557 85.9564 131.483C87.2156 136.906 88.2487 141.834 89.1527 146.396C89.2173 146.691 89.2689 146.987 89.327 147.282C89.3529 147.404 89.3787 147.533 89.3981 147.655C89.4885 148.098 89.5724 148.542 89.6564 148.972C89.7274 149.325 89.792 149.679 89.863 150.032C91.4579 158.41 91.1673 159.927 92.4717 166.84L92.4652 166.834Z" fill="#C4CCFD"/>
<path d="M74.0039 125.919L77.7426 125.437C77.7426 125.437 79.7895 125.2 80.7129 125.296" stroke="#384248" stroke-width="0.8" stroke-linecap="round" stroke-linejoin="round"/>
<path d="M61.8516 127.686L56.7181 128.232" stroke="#384248" stroke-width="0.8" stroke-linecap="round" stroke-linejoin="round"/>
<path d="M86.8278 135.409C90.4502 152.287 90.4631 156.175 92.4648 166.827C84.5161 166.23 71.6535 173.284 56.5438 178.135" stroke="#384248" stroke-width="0.8" stroke-linecap="round" stroke-linejoin="round"/>
<path d="M74.9668 126.472C75.3284 129.138 72.1902 131.76 67.9543 132.325C63.7249 132.89 59.9991 131.188 59.6375 128.521C59.5923 128.2 59.5988 127.879 59.6569 127.564C59.6698 127.487 74.6116 125.386 74.6439 125.457C74.8053 125.778 74.9151 126.112 74.9603 126.472H74.9668Z" fill="#C4CCFD"/>
<path d="M52.5928 177.692L48.7056 144.083" stroke="#384248" stroke-width="0.8" stroke-linecap="round" stroke-linejoin="round"/>
<path d="M74.6611 106.148C74.306 103.72 73.0275 101.407 71.058 99.9289C69.0886 98.4512 66.4347 97.8601 64.0585 98.5026C62.2699 98.9909 60.7202 100.115 58.9767 100.764C58.0792 101.098 56.9815 101.272 56.2389 100.674C55.8773 100.385 55.6578 99.9611 55.3672 99.6077C54.347 98.3805 52.4292 98.1364 50.9763 98.7981C49.5235 99.4599 48.5097 100.867 47.9931 102.377C47.6961 103.251 47.5347 104.189 47.0698 104.992C46.6048 105.795 45.7073 106.45 44.7968 106.277C43.9962 106.123 43.4408 105.39 42.6918 105.056C41.5618 104.555 40.0638 105.21 39.6699 106.38C39.4503 107.029 39.5278 107.78 39.1533 108.359C38.7336 109.007 37.8683 109.219 37.0935 109.162C36.3186 109.104 35.576 108.847 34.8076 108.783C32.3991 108.577 30.1327 110.434 29.3707 112.715C28.6088 114.996 29.1189 117.546 30.2166 119.686C31.9794 123.117 35.4275 125.809 39.2954 126.066C41.8911 126.239 44.616 125.366 47.0439 126.291C49.1296 127.087 50.7503 129.131 52.978 129.214C55.7804 129.317 57.7434 126.291 60.4877 125.719C61.2755 125.558 62.0955 125.603 62.8962 125.526C65.0981 125.314 66.8222 124.158 68.049 122.333C71.6586 117.566 74.2672 112.348 74.6547 106.148H74.6611Z" fill="#384248"/>
<path d="M70.5252 143.138L70.8223 144.507" stroke="#384248" stroke-width="0.8" stroke-linecap="round" stroke-linejoin="round"/>
<path d="M79.049 148.432L79.4688 149.859" stroke="#384248" stroke-width="0.8" stroke-linecap="round" stroke-linejoin="round"/>
<path d="M54.4409 129.138C54.4409 129.138 53.4788 127.005 56.236 124.306C58.9932 121.608 71.5136 120.316 75.9949 123.381C80.4762 126.439 76.35 129.273 76.35 129.273L71.9656 132.742C64.146 133.166 57.1594 133.063 54.4409 129.138Z" fill="white" stroke="#384248" stroke-width="0.8" stroke-linecap="round" stroke-linejoin="round"/>
<path d="M70.0166 143.806L71.1465 143.597L69.0354 132.329C68.9774 132.019 68.6761 131.814 68.3651 131.871C68.0541 131.929 67.8475 132.229 67.9055 132.538L70.0166 143.806Z" fill="#FFF6D7"/>
<path d="M78.7246 149.154L79.8405 148.88L75.081 129.686C75.0052 129.38 74.6925 129.192 74.3854 129.268C74.0782 129.343 73.8893 129.654 73.9651 129.96L78.7246 149.154Z" fill="#FFF6D7"/>
<path d="M62.9998 112.856H71.6113V126.308C71.6113 126.308 71.6113 126.335 71.6113 126.351C71.6113 127.684 69.8056 128.765 67.5827 128.765C65.3598 128.765 63.0053 127.684 63.0053 126.351C63.0053 126.34 63.0053 126.329 63.0053 126.318H62.9943V112.856H62.9998Z" fill="white" stroke="#384248" stroke-width="0.8" stroke-linecap="round" stroke-linejoin="round"/>
<path d="M71.8262 122.256V118.784C70.7998 119.003 70.2579 119.057 70.2579 119.057C71.0811 121.515 71.3556 121.515 71.8262 122.256Z" fill="#384248"/>
<path d="M63.8239 116.411C64.2681 116.956 65.6011 118.28 66.5979 118.472L70.334 119.087C72.2618 118.876 74.0989 117.797 74.776 116.392C76.22 113.405 73.8125 110.103 72.1982 107.832C71.4493 106.778 70.666 105.729 69.7936 104.759C68.3867 103.197 65.7701 102.722 63.3548 104.276C63.0219 104.467 62.6714 104.71 62.3156 105.005C58.5697 108.065 60.1219 111.037 61.5598 112.669C61.9542 113.161 61.7998 113.408 61.6733 113.47C61.1922 113.496 60.6991 113.772 60.5065 114.2C60.369 114.491 60.3882 114.829 60.5059 115.118C60.6236 115.408 60.8447 115.647 61.0884 115.845C61.8169 116.423 62.865 116.644 63.8239 116.411Z" fill="white"/>
<path d="M61.2752 114.728C61.2986 114.577 61.5397 114.509 61.6626 114.486C61.9625 114.426 62.2685 114.502 62.5298 114.649C62.7569 114.776 62.9566 114.96 63.1193 115.154C63.1654 115.211 63.0838 115.281 63.0352 115.232C62.7922 114.948 62.4902 114.693 62.113 114.608C61.9122 114.559 61.679 114.569 61.4868 114.662C61.4523 114.679 61.4326 114.689 61.4029 114.715C61.3832 114.725 61.3931 114.72 61.3831 114.737C61.3831 114.737 61.3682 114.756 61.3831 114.737C61.3831 114.737 61.3805 114.756 61.3831 114.737C61.3751 114.808 61.2599 114.797 61.2679 114.726L61.2752 114.728Z" fill="#384248"/>
<path d="M63.8283 116.408C62.8695 116.642 61.8214 116.42 61.0928 115.843C60.8492 115.645 60.628 115.405 60.5103 115.116C60.3926 114.826 60.3735 114.489 60.5109 114.197C60.7036 113.769 61.1966 113.494 61.6777 113.467C61.9149 113.307 61.5209 112.629 61.2942 112.309C60.463 111.237 59.7182 109.722 60.1542 108.017C60.7314 105.759 63.4569 103.723 65.7709 103.345C67.2307 103.107 68.7642 103.609 69.7981 104.757C70.6704 105.726 71.4537 106.776 72.2027 107.83C73.8169 110.1 76.2244 113.403 74.7804 116.39C74.1034 117.794 72.2662 118.874 70.3385 119.084" stroke="#384248" stroke-width="0.8" stroke-linecap="round" stroke-linejoin="round"/>
<path d="M64.4419 110.362C64.612 109.98 64.9029 109.668 65.2707 109.472C65.3749 109.423 65.5231 109.466 65.5725 109.57C65.6219 109.674 65.5835 109.81 65.4737 109.871C65.4353 109.892 65.3914 109.909 65.3585 109.936L65.331 109.952C65.3585 109.936 65.364 109.936 65.3365 109.952C65.3146 109.963 65.2981 109.98 65.2816 109.996C65.2158 110.045 65.1554 110.105 65.1005 110.16C65.084 110.176 65.0676 110.193 65.0566 110.209C65.095 110.16 65.0511 110.215 65.0401 110.225C65.0182 110.258 64.9962 110.286 64.9743 110.318C64.9523 110.357 64.9249 110.389 64.9029 110.428C64.8919 110.449 64.8755 110.466 64.87 110.482C64.8865 110.422 64.8645 110.488 64.859 110.504C64.8151 110.613 64.6998 110.69 64.5736 110.646C64.4693 110.608 64.3815 110.477 64.4309 110.362H64.4364H64.4419Z" fill="#384248"/>
<path d="M68.8335 107.631C69.0036 107.249 69.2945 106.938 69.6623 106.741C69.7665 106.692 69.9147 106.736 69.9641 106.839C70.0135 106.943 69.9751 107.08 69.8653 107.14C69.8269 107.162 69.783 107.178 69.7501 107.205L69.7226 107.222C69.7501 107.205 69.7556 107.205 69.7281 107.222C69.7062 107.233 69.6897 107.249 69.6732 107.265C69.6074 107.315 69.547 107.375 69.4921 107.429C69.4756 107.446 69.4592 107.462 69.4482 107.478C69.4866 107.429 69.4427 107.484 69.4317 107.495C69.4098 107.528 69.3878 107.555 69.3659 107.588C69.3439 107.626 69.3165 107.659 69.2945 107.697C69.2835 107.719 69.2671 107.735 69.2616 107.751C69.2781 107.691 69.2561 107.757 69.2506 107.773C69.2067 107.883 69.0914 107.959 68.9652 107.915C68.8609 107.877 68.7731 107.746 68.8225 107.631H68.828H68.8335Z" fill="#384248"/>
<path d="M66.7163 111.906C66.5461 111.633 66.5901 111.294 66.8151 111.152C67.0401 111.01 67.364 111.119 67.5341 111.398C67.7042 111.671 67.6603 112.009 67.4353 112.151C67.2103 112.293 66.8864 112.184 66.7163 111.906Z" fill="#384248"/>
<path d="M70.5601 109.175C70.3899 108.902 70.4283 108.564 70.6588 108.422C70.8839 108.28 71.2077 108.389 71.3778 108.667C71.548 108.94 71.5041 109.279 71.2791 109.421C71.054 109.563 70.7302 109.454 70.5601 109.175Z" fill="#384248"/>
<path d="M68.614 108.936C69.3549 109.356 69.4263 109.296 69.8763 109.744C69.9696 109.826 70.008 109.946 69.9367 110.055C69.8763 110.142 69.7172 110.197 69.6239 110.115C69.1518 109.662 69.1024 109.727 68.3615 109.307C68.1145 109.165 68.3615 108.799 68.6085 108.936H68.614Z" fill="#384248"/>
<path d="M70.4541 113.078C70.6297 113.307 71.0358 113.291 71.3597 113.045C71.6835 112.799 71.7988 112.412 71.6231 112.182" stroke="#384248" stroke-width="0.8" stroke-linecap="round" stroke-linejoin="round"/>
<path d="M58.4606 108.259C57.8103 109.64 57.7718 111.666 60.4552 113.894C60.5773 113.794 62.1431 113.008 63.1565 113.876C63.1565 113.876 63.6097 111.693 60.9933 108.44C60.9933 108.44 60.739 107.405 63.6323 106.766C63.6323 106.766 67.3273 105.631 66.9639 103.255C66.9639 103.255 68.0004 103.222 68.7772 103.724C68.7772 103.724 71.6459 99.3132 63.8512 101.843C56.5875 104.198 58.4703 108.267 58.4703 108.267L58.4606 108.259Z" fill="#384248"/>
<path d="M73.2467 124.571C71.9926 124.878 70.939 127.341 70.5689 128.535C67.8604 126.992 61.8316 124.122 59.3852 124.985C58.6245 125.943 57.3837 128.188 58.5062 129.501C59.9093 131.143 69.6181 131.414 71.1857 131.03C72.4397 130.723 74.4094 127.485 75.3534 126.372C75.0964 125.332 74.5008 124.264 73.2467 124.571Z" fill="white"/>
<path d="M59.3857 124.986C61.8322 124.122 67.8609 126.992 70.5695 128.535C70.9396 127.341 71.9932 124.878 73.2473 124.571" stroke="#384248" stroke-width="0.8" stroke-linecap="round" stroke-linejoin="round"/>
<path d="M157.125 234.176C157.201 234.38 157.262 234.588 157.313 234.786C158.272 238.6 155.824 242.441 151.999 242.892L151.498 242.953C148.391 243.325 145.452 241.262 144.578 238.118L144.191 236.736L140.697 224.934L137.765 215.046L151.762 211.665C151.762 211.665 152.7 216.421 153.872 221.679C154.944 226.535 156.216 231.818 157.125 234.176Z" fill="white" stroke="#384248" stroke-width="0.8" stroke-linecap="round" stroke-linejoin="round"/>
<path d="M157.313 234.786C158.272 238.6 155.824 242.441 151.999 242.892L151.498 242.953C148.391 243.325 145.452 241.262 144.579 238.118L144.191 236.736L142.27 230.239L141.86 228.866L141.583 227.923L141.173 226.549L140.697 224.934L153.873 221.673C153.992 222.212 154.115 222.759 154.237 223.312C154.341 223.775 154.451 224.24 154.562 224.705C154.634 225.027 154.707 225.35 154.789 225.662C154.898 226.132 155.008 226.597 155.122 227.049C155.837 230.028 156.553 232.683 157.127 234.17C157.202 234.374 157.264 234.582 157.314 234.78L157.313 234.786Z" fill="white" stroke="#384248" stroke-width="0.8" stroke-linecap="round" stroke-linejoin="round"/>
<path d="M167.736 243.912C164.193 240.639 158.157 240.216 158.427 233.549C158.435 233.305 158.45 233.084 158.462 232.849L158.212 232.786C156.395 232.334 153.108 232.224 151.429 233.037C150.06 233.697 148.232 234.301 146.397 234.082C144.413 233.847 144.454 232.215 143.679 231.293C142.204 229.549 139.167 241.387 139.167 241.387L171.233 249.371C171.233 249.371 171.28 247.178 167.736 243.912Z" fill="#C4CCFD"/>
<path d="M139.167 241.387L138.762 243.895L170.827 251.879L171.226 249.37L139.167 241.387Z" fill="#384248" stroke="#384248" stroke-width="0.8" stroke-linecap="round" stroke-linejoin="round"/>
<path d="M154.435 236.753C154.435 236.753 157.716 235.523 159.364 236.093L154.435 236.753Z" fill="#384248"/>
<path d="M154.435 236.753C154.435 236.753 157.716 235.523 159.364 236.093" stroke="#384248" stroke-width="0.8" stroke-linecap="round" stroke-linejoin="round"/>
<path d="M157.086 241.253C157.086 241.253 160.279 238.963 161.927 239.532" stroke="#384248" stroke-width="0.8" stroke-linecap="round" stroke-linejoin="round"/>
<path d="M86.2137 177.333L128.043 159.864L135.764 177.023C134.722 177.466 133.672 177.913 132.601 178.394C129.624 179.712 121.737 183.298 118.657 184.789C108.051 189.916 99.9671 194.452 95.1022 196.591C94.9896 196.642 94.8848 196.689 94.7737 196.734C94.4389 196.876 94.1073 197.005 93.7787 197.122C93.7256 197.149 93.6755 197.163 93.6239 197.183C80.757 201.661 73.6175 182.541 86.2058 177.338L86.2137 177.333Z" fill="white"/>
<path d="M128.314 159.821C133.08 157.783 138.614 159.982 140.671 164.732C142.728 169.482 140.531 174.987 135.764 177.025C130.998 179.063 125.464 176.864 123.407 172.114C121.35 167.364 123.547 161.859 128.314 159.821Z" fill="white"/>
<path d="M93.6262 197.177C93.6841 197.159 93.7279 197.143 93.781 197.117C94.2191 196.961 94.654 196.791 95.103 196.592C99.9662 194.458 108.044 189.921 118.65 184.794C122.82 182.773 131.808 178.694 135.713 177.044C135.728 177.035 135.742 177.032 135.764 177.024C140.531 174.986 142.727 169.481 140.671 164.731" stroke="#384248" stroke-width="0.8" stroke-linecap="round" stroke-linejoin="round"/>
<path d="M92.0685 175.064L128.388 159.732" stroke="#384248" stroke-width="0.8" stroke-linecap="round" stroke-linejoin="round"/>
<path d="M142.445 230.913L123.922 172.003L141.95 166.705L159.603 225.875C157.561 226.565 144.283 230.265 142.445 230.913Z" fill="white"/>
<path d="M128.148 176.955L127.188 182.113L142.444 230.906C142.444 230.906 158.449 226.356 159.602 225.868L142.449 168.107" stroke="#384248" stroke-width="0.8" stroke-linecap="round" stroke-linejoin="round"/>
<path d="M116.404 220.001L118.404 226.999L140.403 226.999L139.403 223.998C126.604 223.999 118.737 221.334 116.404 220.001Z" fill="#384248"/>
<path d="M140.95 225.998C146.815 224.438 153.685 222.507 157.967 220.997" stroke="#384248" stroke-width="0.8" stroke-linecap="round" stroke-linejoin="round"/>
<path d="M82.0684 170.42L77.7191 172.038" stroke="#384248" stroke-width="0.8" stroke-linecap="round" stroke-linejoin="round"/>
<path d="M47.6055 242.759H225.605V276.759H47.6055C38.2166 276.759 30.6055 269.148 30.6055 259.759C30.6055 250.37 38.2166 242.759 47.6055 242.759Z" fill="white" stroke="#384248"/>
<path d="M142.73 243.375L52.5176 247.605C42.9452 248.054 35.415 255.945 35.415 265.528C35.415 268.165 35.9841 270.669 37.0059 272.925C33.1706 269.714 30.7305 264.892 30.7305 259.5C30.7305 249.835 38.5655 242 48.2305 242H142.73V243.375Z" fill="#384248"/>
<path d="M28.4414 259.841C28.4414 248.474 37.6559 239.26 49.0226 239.26H231.14V243.833H49.0226C40.1818 243.833 33.015 251 33.015 259.841C33.015 268.681 40.1818 275.848 49.0226 275.848H231.14V280.422H49.0226C37.6559 280.422 28.4414 271.207 28.4414 259.841Z" fill="#BFE7FF" stroke="#384248"/>
<path d="M47.6055 201.76H197.605V235.76H47.6055C38.2166 235.76 30.6055 228.148 30.6055 218.76C30.6055 209.371 38.2166 201.76 47.6055 201.76Z" fill="white" stroke="#384248"/>
<path d="M161.981 201.426L51.9072 206.461C42.3318 206.899 34.7939 214.79 34.7939 224.375C34.794 227.237 35.4658 229.942 36.6582 232.342C32.6652 229.129 30.1094 224.201 30.1094 218.677C30.1096 208.994 37.959 201.146 47.6416 201.146H161.981V201.426Z" fill="#384248"/>
<path d="M27.8203 218.678C27.8203 207.311 37.0348 198.097 48.4015 198.097H202.651V202.671H48.4015C39.5607 202.671 32.3939 209.837 32.3939 218.678C32.3939 227.519 39.5607 234.686 48.4015 234.686H202.651V239.259H48.4015C37.0348 239.259 27.8203 230.045 27.8203 218.678Z" fill="#EAF5FB" stroke="#384248"/>
<path d="M130.378 227.371C130.449 227.577 130.514 227.783 130.565 227.983C131.528 231.797 129.079 235.65 125.246 236.113L124.749 236.171C121.64 236.55 118.693 234.498 117.814 231.347L117.426 229.964L113.923 218.167L110.982 208.281L124.994 204.859C124.994 204.859 125.931 209.612 127.108 214.874C128.187 219.73 129.46 225.017 130.372 227.378L130.378 227.371Z" fill="white" stroke="#384248" stroke-width="0.8" stroke-linecap="round" stroke-linejoin="round"/>
<path d="M130.565 227.982C131.528 231.796 129.079 235.649 125.246 236.112L124.749 236.17C121.64 236.55 118.693 234.498 117.814 231.346L117.426 229.963L115.5 223.46L115.086 222.09L114.809 221.144L114.395 219.774L113.917 218.16L127.108 214.86C127.231 215.4 127.347 215.947 127.476 216.5C127.58 216.963 127.689 217.427 127.799 217.89C127.87 218.211 127.948 218.533 128.025 218.848C128.135 219.318 128.245 219.787 128.362 220.237C129.079 223.216 129.803 225.872 130.378 227.358C130.449 227.564 130.514 227.77 130.565 227.969V227.982Z" fill="white" stroke="#384248" stroke-width="0.8" stroke-linecap="round" stroke-linejoin="round"/>
<path d="M127.484 216.513C127.588 216.976 127.698 217.439 127.808 217.902L114.817 221.15L114.403 219.78L127.478 216.513H127.484Z" fill="white" stroke="#384248" stroke-width="0.8" stroke-linejoin="round"/>
<g clip-path="url(#clip2_3192_94191)">
<path d="M142.878 232.266C138.644 229.944 132.679 230.992 131.328 224.45C131.276 224.212 131.237 223.994 131.192 223.762H130.934C129.059 223.762 125.841 224.45 124.406 225.647C123.236 226.618 121.608 227.647 119.772 227.879C117.788 228.13 117.432 226.534 116.457 225.827C114.602 224.489 114.518 236.723 114.518 236.723H147.596C147.596 236.723 147.111 234.581 142.878 232.266Z" fill="#C4CCFD"/>
<path d="M114.518 236.723L114.731 239.257H147.809L147.589 236.723H114.518Z" fill="#384248" stroke="#384248" stroke-width="0.8" stroke-linecap="round" stroke-linejoin="round"/>
<path d="M128.226 228.529C128.226 228.529 131.115 226.541 132.853 226.695L128.226 228.529Z" fill="#384248"/>
<path d="M128.226 228.529C128.226 228.529 131.115 226.541 132.853 226.695" stroke="#384248" stroke-width="0.8" stroke-linecap="round" stroke-linejoin="round"/>
<path d="M131.891 232.259C131.891 232.259 134.437 229.262 136.176 229.416" stroke="#384248" stroke-width="0.8" stroke-linecap="round" stroke-linejoin="round"/>
</g>
<path d="M61.7632 177.133L101.742 155.677L111.098 172.027C110.103 172.568 109.101 173.116 108.08 173.699C105.242 175.301 97.7326 179.637 94.8089 181.42C84.7393 187.555 77.1255 192.858 72.4863 195.46C72.3791 195.522 72.2792 195.579 72.1729 195.635C71.8532 195.808 71.5353 195.969 71.2193 196.118C71.1689 196.149 71.1204 196.168 71.0709 196.193C58.6864 201.9 49.7191 183.541 61.7559 177.139L61.7632 177.133Z" fill="white"/>
<path d="M102.014 155.607C106.565 153.115 112.292 154.77 114.802 159.304C117.312 163.837 115.657 169.535 111.106 172.028C106.555 174.52 100.828 172.864 98.3185 168.331C95.8086 163.797 97.4635 158.099 102.014 155.607Z" fill="white"/>
<path d="M79.3997 195.46C92.5184 188.118 97.809 179.233 111.055 172.052C111.07 172.041 111.084 172.037 111.105 172.027C115.656 169.535 117.31 163.837 114.801 159.303" stroke="#384248" stroke-width="0.8" stroke-linecap="round" stroke-linejoin="round"/>
<path d="M67.3818 174.305L102.078 155.512" stroke="#384248" stroke-width="0.8" stroke-linecap="round" stroke-linejoin="round"/>
<path d="M115.695 220.985L115.688 225.013C118.296 222.168 120.738 220.717 127.741 218.895L128.605 221.054C131.161 220.424 132.554 220.06 132.861 219.056C133.168 218.051 131.71 216.077 131.71 216.077L122.561 216.305L115.695 220.985Z" fill="#384248"/>
<path d="M115.689 224.149L97.1011 165.236L115.152 159.885L132.674 218.708C130.762 216.305 123.423 215.442 115.689 224.143V224.149Z" fill="white"/>
<path d="M101.335 170.189L100.378 175.354L115.683 224.149C123.423 214.577 133.294 216.745 132.855 219.054L115.644 161.293" stroke="#384248" stroke-width="0.8" stroke-linecap="round" stroke-linejoin="round"/>
<path d="M114.184 219.236C117.38 215.011 127.308 209.399 131.221 214.187" stroke="#384248" stroke-width="0.8" stroke-linecap="round" stroke-linejoin="round"/>
<path d="M50.7992 141.588C53.9661 142.16 57.0038 140.07 57.579 136.912C58.1542 133.76 56.0537 130.737 52.8803 130.164C49.707 129.592 46.6758 131.682 46.1006 134.84C45.5254 137.992 47.6259 141.015 50.7992 141.588Z" fill="#C4CCFD"/>
<path d="M52.0461 163.316H52.0332C51.2447 166.172 48.3751 168.006 45.3892 167.465C42.3063 166.906 40.2445 164.018 40.6776 160.962H40.6647C41.2851 156.151 42.2416 150.06 43.3791 144.65C43.6635 143.299 43.9608 141.987 44.2646 140.752C44.885 138.237 45.5443 136.031 46.2164 134.378C46.2423 134.288 46.2681 134.198 46.294 134.108C46.5331 133.381 46.9015 132.725 47.3733 132.165C47.5737 131.889 47.7805 131.663 47.9873 131.515H48.0002C48.3816 131.181 48.8081 130.898 49.267 130.679C50.3528 130.139 51.6066 129.933 52.8928 130.171C55.0062 130.551 56.6349 132.024 57.3265 133.895C57.4105 134.056 57.4751 134.281 57.5204 134.552C57.6949 135.272 57.7272 136.037 57.5979 136.809C57.3459 142.431 54.7542 154.253 52.0461 163.31V163.316Z" fill="#C4CCFD"/>
<path d="M47.469 156.073C44.3086 155.5 41.2839 157.584 40.7087 160.73C40.1334 163.875 42.2275 166.885 45.3879 167.458C48.5484 168.03 51.5731 165.946 52.1483 162.801C52.7235 159.656 50.623 156.645 47.469 156.073Z" fill="#C4CCFD"/>
<path d="M52.8867 130.164C51.0641 129.835 49.2868 130.389 47.9942 131.514H47.9748C47.768 131.656 47.5676 131.881 47.3608 132.157C46.8308 132.788 46.4366 133.534 46.2104 134.37C43.8772 140.082 41.7508 152.496 40.6586 160.948H40.678" stroke="#384248" stroke-width="0.8" stroke-linecap="round" stroke-linejoin="round"/>
<path d="M47.096 158.113C45.0666 157.746 43.1277 159.084 42.7593 161.104C42.3909 163.123 43.7352 165.053 45.7646 165.42C47.794 165.786 49.7329 164.448 50.1013 162.429C50.4697 160.409 49.1254 158.479 47.096 158.113Z" fill="#C4CCFD"/>
<path d="M36.6677 203.466C38.5733 204.329 40.814 203.491 41.6724 201.594C42.5309 199.698 41.6821 197.461 39.7765 196.599C37.8709 195.736 35.6303 196.574 34.7718 198.471C33.9133 200.367 34.7621 202.604 36.6677 203.466Z" fill="white"/>
<path d="M37.5812 194.056L39.7863 185.141L47.1433 186.974L44.9323 195.887" fill="white"/>
<path d="M37.5812 194.056L39.7863 185.141L47.1433 186.974L44.9323 195.887" stroke="#384248" stroke-width="0.8" stroke-linecap="round" stroke-linejoin="round"/>
<g clip-path="url(#clip3_3192_94191)">
<path d="M37.9581 198.284C39.483 199.675 41.8528 199.561 43.2513 198.03C44.6498 196.499 44.5474 194.129 43.0226 192.738C41.4978 191.347 39.128 191.461 37.7295 192.992C36.3309 194.524 36.4333 196.893 37.9581 198.284Z" fill="white"/>
<path d="M37.9562 198.283C39.481 199.674 41.8508 199.56 43.2493 198.029C44.6479 196.498 44.5455 194.129 43.0207 192.738C41.4959 191.347 39.126 191.46 37.7275 192.992C36.329 194.523 36.4314 196.892 37.9562 198.283Z" fill="white"/>
<path d="M38.2396 192.443C36.7545 192.829 35.0771 194.256 33.4905 195.039C33.2536 195.155 33.0618 195.26 32.8883 195.365C32.0128 195.703 31.1773 196.227 30.7898 196.451C29.6723 197.102 28.7451 198.146 28.1156 198.683C27.4286 199.263 26.7117 200.315 26.3816 200.81C25.6101 201.97 27.1041 202.423 28.0387 201.447C28.2919 201.179 28.7436 200.542 29.4908 199.981C30.1406 199.489 31.1794 198.6 31.49 198.393C30.8545 198.898 30.2646 199.401 30.0027 199.678C29.0106 200.698 28.1519 201.848 27.6368 202.603C27.0923 203.418 26.5026 204.665 26.3012 205.286C25.8342 206.732 27.5156 206.77 28.2321 205.499C27.9206 206.212 27.6478 206.978 27.5483 207.421C27.2056 208.893 28.9077 208.775 29.484 207.429C29.6418 207.065 30.0302 206.335 30.573 205.483C31.0945 204.664 31.8941 203.731 32.4698 203.215C32.6457 203.061 33.0205 202.755 33.4714 202.414C32.64 203.563 31.9505 204.823 31.5569 205.645C31.1344 206.537 30.7304 207.857 30.6217 208.51C30.3587 210.029 32.0834 209.8 32.5888 208.398C32.7275 208.017 33.0779 207.252 33.5733 206.356C33.9755 205.63 36.6665 203.36 38.0626 202.185C38.4458 201.861 39.0014 202.149 39.1272 202.631C39.2305 203.014 39.3862 203.025 39.1282 203.603C38.2879 205.496 38.2106 207.192 38.8497 207.933C39.6852 208.888 40.3272 206.315 41.253 204.29C42.4369 201.687 43.8354 199.403 43.7702 197.261" fill="white"/>
<path d="M28.2507 205.621C29.4031 203.663 30.6952 201.876 32.4669 200.728L28.2507 205.621Z" fill="white"/>
<path d="M30.8844 198.742C30.2489 199.247 28.1584 201.469 27.5382 202.539C27.0409 203.389 26.5307 204.787 26.3293 205.408C25.8623 206.854 27.5438 206.892 28.2603 205.621C27.9487 206.334 27.676 207.1 27.5765 207.543C27.2338 209.015 28.9359 208.897 29.5122 207.55C29.67 207.187 30.0583 206.456 30.6012 205.604C31.1227 204.785 31.9223 203.853 32.498 203.337C32.6739 203.182 33.0487 202.877 33.4996 202.536C32.6682 203.685 31.9787 204.945 31.5851 205.767C31.1626 206.659 30.7586 207.979 30.6499 208.632C30.3869 210.15 32.1115 209.922 32.617 208.519C32.7557 208.139 33.1061 207.373 33.6015 206.478C34.0037 205.751 36.4752 203.579 37.8666 202.399C38.2497 202.075 39.0946 201.98 39.2205 202.462C39.3237 202.845 39.4096 203.142 39.152 203.729C38.3117 205.622 38.2344 207.319 38.8735 208.059C39.709 209.014 40.351 206.442 41.2769 204.417C42.4607 201.814 43.9202 199.462 43.8507 197.326" stroke="#384248" stroke-width="0.8" stroke-linecap="round" stroke-linejoin="round"/>
<path d="M38.1662 192.437C36.6812 192.823 35.1007 194.382 33.5137 195.157C33.2768 195.273 33.085 195.378 32.9115 195.482C32.036 195.821 31.2005 196.344 30.8131 196.568C29.6955 197.22 28.7062 198.198 28.1388 198.8C27.3099 199.689 26.7349 200.433 26.4048 200.928C25.6333 202.087 27.1273 202.54 28.062 201.565C28.2672 201.349 28.6801 200.869 29.2256 200.395" stroke="#384248" stroke-width="0.8" stroke-linecap="round" stroke-linejoin="round"/>
<path d="M28.2513 205.621C28.981 203.916 29.8865 202.372 32.1354 200.119" stroke="#384248" stroke-width="0.8" stroke-linecap="round" stroke-linejoin="round"/>
</g>
<path d="M40.9979 157L38.1676 184.541L47.4121 186.672L53.5146 156.501L40.9979 157Z" fill="#C4CCFD"/>
<path d="M40.9934 157L38.1663 184.541L47.4107 186.672L56.499 144.5" stroke="#384248" stroke-width="0.8" stroke-linecap="round" stroke-linejoin="round"/>
<path d="M48.999 151.5C49.6657 153.833 50.999 159.3 50.999 162.5M65.0029 172.5C69.1683 170.833 78.599 165.2 82.999 156" stroke="#384248" stroke-width="0.5"/>
<path d="M49.3317 184.961L48.9393 186.772C48.7415 187.685 47.8371 188.266 46.9195 188.069L37.1583 185.974C36.2407 185.777 35.6571 184.877 35.855 183.964L36.2473 182.153C36.4452 181.24 37.3495 180.659 38.2672 180.856L48.0283 182.951C48.946 183.148 49.5295 184.048 49.3317 184.961Z" fill="white" stroke="#384248" stroke-width="0.8" stroke-linecap="round" stroke-linejoin="round"/>
<rect x="225.416" y="93.9084" width="45.0917" height="45.0917" rx="22.5458" fill="#FFF6D7"/>
<path d="M238.136 117.633C237.954 116.538 237.96 115.437 238.137 114.372C239.238 114.399 240.229 113.871 240.614 112.941C240.998 112.012 240.672 110.938 239.874 110.178C240.502 109.301 241.276 108.518 242.18 107.872C242.939 108.67 244.014 108.997 244.943 108.612C245.873 108.227 246.401 107.236 246.374 106.134C247.47 105.952 248.571 105.958 249.635 106.135C249.608 107.237 250.137 108.227 251.066 108.612C251.995 108.997 253.069 108.67 253.829 107.872C254.707 108.5 255.489 109.274 256.136 110.178C255.338 110.938 255.011 112.012 255.396 112.941C255.781 113.871 256.771 114.399 257.873 114.372C258.055 115.468 258.049 116.569 257.872 117.633C256.771 117.607 255.78 118.135 255.396 119.064C255.011 119.994 255.337 121.067 256.135 121.827C255.507 122.705 254.733 123.488 253.83 124.134C253.07 123.336 251.996 123.009 251.066 123.394C250.136 123.779 249.608 124.77 249.635 125.871C248.539 126.053 247.438 126.047 246.374 125.87C246.401 124.769 245.872 123.779 244.943 123.394C244.014 123.009 242.94 123.336 242.18 124.133C241.302 123.506 240.52 122.731 239.874 121.828C240.672 121.068 240.999 119.994 240.614 119.064C240.229 118.135 239.238 117.606 238.136 117.633ZM248.005 119.003C249.661 119.003 251.005 117.66 251.005 116.003C251.005 114.346 249.661 113.003 248.005 113.003C246.348 113.003 245.005 114.346 245.005 116.003C245.005 117.66 246.348 119.003 248.005 119.003Z" fill="#384248"/>
<rect x="136.498" y="68.8611" width="67.6276" height="67.6276" rx="33.8138" fill="#ECF8E9"/>
<path d="M179.002 99.4998V102.5C179.002 104.985 174.973 107 170.002 107C165.031 107 161.002 104.985 161.002 102.5V99.4998C161.002 101.985 165.031 104 170.002 104C174.973 104 179.002 101.985 179.002 99.4998ZM161.002 104.5C161.002 106.985 165.031 109 170.002 109C174.973 109 179.002 106.985 179.002 104.5V107.5C179.002 109.985 174.973 112 170.002 112C165.031 112 161.002 109.985 161.002 107.5V104.5ZM170.002 102C165.031 102 161.002 99.985 161.002 97.4998C161.002 95.0145 165.031 92.9998 170.002 92.9998C174.973 92.9998 179.002 95.0145 179.002 97.4998C179.002 99.985 174.973 102 170.002 102Z" fill="#384248"/>
<rect x="182.836" y="10" width="67.6276" height="67.6276" rx="33.8138" fill="#EAF5FB"/>
<path d="M221 34L226 39V53.0082C226 53.556 225.555 54 225.007 54H208.993C208.445 54 208 53.5447 208 53.0082V34.9918C208 34.4441 208.445 34 208.993 34H221ZM216 43H213V45H216V48H218V45H221V43H218V40H216V43Z" fill="#384248"/>
</g>
<defs>
<clipPath id="clip0_3192_94191">
<rect width="284" height="284" fill="white"/>
</clipPath>
<clipPath id="clip1_3192_94191">
<rect width="25.8285" height="25.7001" fill="white" transform="matrix(0.777041 0.62945 0.62924 -0.777211 102.479 112.07)"/>
</clipPath>
<clipPath id="clip2_3192_94191">
<rect width="64.6307" height="64.3224" fill="white" transform="matrix(-1 0 0 1 166.552 175.52)"/>
</clipPath>
<clipPath id="clip3_3192_94191">
<rect width="25.7294" height="25.8519" fill="white" transform="matrix(0.738768 0.67396 -0.674369 0.738394 33.5479 184.095)"/>
</clipPath>
</defs>
</svg>
