<svg xmlns="http://www.w3.org/2000/svg" viewBox="0 0 200 200"><path d="M74.9,47.89,27,20.69l-7.87,13.7L67.32,61.77A44.27,44.27,0,0,1,74.9,47.89Z" fill="#2566b0"/><line x1="109.34" y1="155.61" x2="109.48" y2="131.36" fill="none" stroke="#2566b0" stroke-miterlimit="10"/><line x1="123.83" y1="160.51" x2="136.15" y2="148.19" fill="none" stroke="#2566b0" stroke-miterlimit="10"/><line x1="94.65" y1="160.59" x2="82.25" y2="148.19" fill="none" stroke="#2566b0" stroke-miterlimit="10"/><ellipse cx="109.2" cy="179.21" rx="38.71" ry="11.8" fill="#2566b0"/><ellipse cx="109.2" cy="179.21" rx="38.71" ry="11.8" fill="none" stroke="#2566b0" stroke-miterlimit="10"/><polyline points="67.28 61.9 19.17 34.39 27.04 20.69 74.8 47.99" fill="none" stroke="#2566b0" stroke-miterlimit="10"/><path d="M147.71,54.12a44.11,44.11,0,1,1-60-17A44.1,44.1,0,0,1,147.71,54.12ZM126.7,107A35.87,35.87,0,1,0,77.88,93.14,35.88,35.88,0,0,0,126.7,107Z" fill="none"/><path d="M140.52,58.14A35.88,35.88,0,1,1,91.71,44.32,35.88,35.88,0,0,1,140.52,58.14Z" fill="none"/><path d="M70.69,97.15a44.11,44.11,0,1,1,60,17A44.11,44.11,0,0,1,70.69,97.15Z" fill="none" stroke="#2566b0" stroke-miterlimit="10"/><path d="M77.88,93.14A35.88,35.88,0,1,1,126.7,107,35.88,35.88,0,0,1,77.88,93.14Z" fill="none" stroke="#2566b0" stroke-miterlimit="10"/></svg>