<svg width="390" height="256" viewBox="0 0 390 256" fill="none" xmlns="http://www.w3.org/2000/svg">
<path d="M334.659 23.0099L306.003 51.6389L329.259 19.3009L334.659 23.0099Z" fill="#F8ADA7"/>
<path d="M336.329 61.9133L313.913 60.9858L340.651 55.8323L336.329 61.9133Z" fill="#FFDF6B"/>
<path d="M303.484 17.0106L301.862 42.6367L297.919 13.6341L303.484 17.0106Z" fill="#73CBF2"/>
<path d="M185.953 255.898C254.812 255.898 310.633 199.973 310.633 130.986C310.633 61.9993 254.812 6.0744 185.953 6.0744C117.094 6.0744 61.2731 61.9993 61.2731 130.986C61.2731 199.973 117.094 255.898 185.953 255.898Z" fill="#FFFDEE"/>
<path d="M5.59197e-05 141.632L0.203774 152.398C0.216121 152.869 0.697635 153.152 1.08655 152.914L9.70441 147.718C10.0933 147.486 10.0995 146.899 9.71676 146.66L0.895176 141.09C0.500088 140.839 -0.00611734 141.142 5.59197e-05 141.626V141.632Z" fill="#FFA766"/>
<path d="M320 137C322.209 137 324 135.209 324 133C324 130.791 322.209 129 320 129C317.791 129 316 130.791 316 133C316 135.209 317.791 137 320 137Z" fill="#BFE7FF"/>
<path d="M62 47C64.2091 47 66 45.2091 66 43C66 40.7909 64.2091 39 62 39C59.7909 39 58 40.7909 58 43C58 45.2091 59.7909 47 62 47Z" stroke="#F06679" stroke-miterlimit="10"/>
<path d="M322 210.363L340.332 220.59L343.898 214.228L325.565 204.001L322 210.363Z" stroke="#73CBF2" stroke-miterlimit="10"/>
<path d="M389.258 134.146L381.129 126L372.999 134.146L381.129 142.291L389.258 134.146Z" fill="#60D8D2"/>
<path d="M91.6445 93.8592C89.1973 92.0711 87.4092 92.633 84.2263 88.2036C81.0434 83.7741 75.8476 84.2084 74.4988 86.6147C74.4988 86.6147 70.0796 87.1511 70.3657 93.5322C70.5905 98.5441 62.7942 97.7982 62.8913 101.635C62.927 103.03 63.7394 103.909 64.756 104.455C64.756 104.455 65.0013 103.868 65.4355 103.219C65.2516 102.682 64.9042 101.323 65.6706 100.245C65.6706 100.245 65.7165 101.615 66.1048 102.376C66.7894 101.671 67.6988 101.175 68.7513 101.701C69.068 101.86 69.3694 102.059 69.6658 102.274C69.7577 101.952 70.0132 101.62 70.6467 101.502C72.0159 101.252 72.9917 100.491 72.8844 99.4484C72.8844 99.4484 73.8245 101.18 72.8486 101.829C72.1487 102.294 71.8984 103.285 72.0006 103.949C72.4195 104.19 72.8742 104.394 73.3902 104.547C73.3442 104.154 73.3902 103.684 73.7529 103.377C73.7529 103.377 73.6252 104.041 73.8142 104.654C75.0813 104.935 76.6957 104.889 78.8874 104.19C85.1459 102.192 87.7106 98.2427 89.2995 98.304C89.5907 98.3142 89.8155 98.3806 89.9841 98.4726C90.3366 97.7471 91.1592 95.8261 90.3775 94.8963C90.3775 94.8963 92.9984 96.0816 90.4592 99.1265C90.5512 99.5404 90.4337 99.9491 90.4337 99.9491C90.4337 99.9491 94.0968 95.632 91.6496 93.8439L91.6445 93.8592Z" fill="#000D15"/>
<path d="M110.697 75.3526C112.486 75.3526 113.936 73.9024 113.936 72.1135C113.936 70.3246 112.486 68.8745 110.697 68.8745C108.908 68.8745 107.458 70.3246 107.458 72.1135C107.458 73.9024 108.908 75.3526 110.697 75.3526Z" fill="white"/>
<path d="M113.622 73.4473L110.475 80.6765L104.538 78.0914L107.686 70.8622" fill="white"/>
<path d="M113.622 73.4473L110.475 80.6765L104.538 78.0914L107.686 70.8622" stroke="#000D15" stroke-width="0.8" stroke-linecap="round" stroke-linejoin="round"/>
<path d="M95.1148 108.013C97.4241 109.091 98.4203 111.829 97.3474 114.138C96.2695 116.448 93.531 117.444 91.2218 116.371C88.9125 115.298 87.9163 112.555 88.9892 110.245C90.0672 107.936 92.8056 106.94 95.1148 108.013Z" fill="#FFDF6B"/>
<path d="M105.89 94.5007H105.88C106.682 92.2834 105.675 89.7851 103.499 88.7736C101.251 87.7262 98.5992 88.6561 97.4753 90.8376H97.465C95.6565 94.235 93.4801 98.6185 91.7328 102.644C91.2934 103.651 90.8847 104.637 90.5169 105.577C89.7659 107.488 89.1732 109.225 88.8513 110.599C88.8258 110.671 88.8054 110.742 88.7798 110.809C88.601 111.386 88.5346 111.984 88.5857 112.561C88.5857 112.837 88.6163 113.072 88.6828 113.261H88.693C88.7849 113.659 88.928 114.037 89.1272 114.39C89.5819 115.233 90.2972 115.943 91.2321 116.377C92.7699 117.098 94.4967 116.888 95.7995 115.984C95.9273 115.917 96.0754 115.805 96.2287 115.652C96.6681 115.264 97.041 114.783 97.3169 114.221C99.7334 110.461 103.489 101.617 105.9 94.5058L105.89 94.5007Z" fill="#F8ADA7"/>
<path d="M99.6097 97.1003C97.3107 96.0274 96.3145 93.2941 97.3873 90.9951C98.4602 88.696 101.194 87.6998 103.493 88.7727C105.792 89.8455 106.788 92.5788 105.72 94.8779C104.647 97.1769 101.914 98.1731 99.6148 97.1003H99.6097Z" fill="#F8ADA7"/>
<path d="M91.2221 116.372C89.8938 115.754 89.0048 114.584 88.688 113.261H88.6727C88.6063 113.067 88.5808 112.832 88.5757 112.556C88.5246 111.907 88.6114 111.243 88.8464 110.599C89.9602 105.832 94.2824 96.8101 97.4601 90.8326H97.4704C98.5943 88.6562 101.246 87.7263 103.494 88.7737C105.67 89.7852 106.677 92.2835 105.875 94.4957H105.885C104.316 99.1295 102.181 104.489 100.214 108.709" stroke="#000D15" stroke-width="0.8" stroke-linecap="round" stroke-linejoin="round"/>
<path d="M100.31 95.6086C98.8339 94.9189 98.1953 93.1665 98.885 91.69C99.5747 90.2135 101.327 89.5749 102.804 90.2646C104.28 90.9543 104.919 92.7067 104.229 94.1832C103.539 95.6597 101.787 96.2983 100.31 95.6086Z" fill="#F8ADA7"/>
<path d="M104.357 77.5239L105.747 74.2593C107.688 75.4037 109.916 76.4153 112.424 77.294L110.799 80.5842L104.357 77.5239Z" fill="#FFDF6B"/>
<path d="M97.2968 91.2087C99.4476 86.6056 100.807 79.5654 104.485 77.2408C107.223 78.5743 108.853 79.1107 111.203 79.8158C110.554 85.1444 107.086 91.2087 105.721 94.877L97.2968 91.2087Z" fill="#F8ADA7"/>
<path d="M97.2629 91.1784C99.4138 86.5752 100.803 79.5811 104.477 77.2463L105.708 74.3495C107.741 75.3202 109.974 76.3369 112.385 77.3842L111.195 79.811H111.2C110.551 85.1447 107.123 91.2091 105.759 94.8773" stroke="#000D15" stroke-width="0.8" stroke-linecap="round" stroke-linejoin="round"/>
<path d="M106.855 75.0746L105.578 78.0072" stroke="#000D15" stroke-width="0.8" stroke-linecap="round" stroke-linejoin="round"/>
<path d="M108.159 75.6401L106.882 78.5727" stroke="#000D15" stroke-width="0.8" stroke-linecap="round" stroke-linejoin="round"/>
<path d="M109.439 76.1981L108.161 79.1307" stroke="#000D15" stroke-width="0.8" stroke-linecap="round" stroke-linejoin="round"/>
<path d="M110.78 76.7843L109.503 79.7168" stroke="#000D15" stroke-width="0.8" stroke-linecap="round" stroke-linejoin="round"/>
<g clip-path="url(#clip0_1695_35543)">
<path d="M105.939 65.8652C106.349 65.6484 106.733 65.9891 107.111 66.5143C107.079 65.8785 107.074 65.2765 107.097 64.9758C107.185 63.8547 107.421 62.7449 107.602 62.0453C107.803 61.2965 108.238 60.2961 108.503 59.8526C109.121 58.8211 110.025 59.8004 109.642 60.8888C109.904 60.3319 110.219 59.7705 110.431 59.4804C111.129 58.5093 111.951 59.5822 111.45 60.6266C111.316 60.9099 111.083 61.5215 110.859 62.2883C110.644 63.0252 110.567 63.9984 110.561 64.6044C110.562 64.7894 110.848 63.5464 111.267 62.6008C111.583 61.8853 112.364 61.1444 112.692 60.7386C113.46 59.7906 114.227 60.9347 113.656 61.9661C112.401 63.7803 112.057 65.6698 112.531 65.4807C112.601 65.4525 112.807 64.1954 113.027 63.6955C113.246 63.2057 114.021 62.3768 114.021 62.3768C114.021 62.3768 114.303 62.4337 114.455 62.5945C114.725 62.8866 114.462 63.5976 114.178 64.1573C113.988 64.532 113.841 64.932 113.768 65.3507C113.154 68.9887 115.166 69.0216 113.41 73.7307L107.704 73.175C107.194 72.5376 106.845 71.697 106.711 70.5873C106.658 70.1393 106.543 69.6948 106.357 69.2835C105.719 67.8557 105.143 66.183 105.917 65.8782L105.939 65.8652Z" fill="white"/>
<path d="M113.581 72.7912C113.401 74.4206 111.933 75.5949 110.304 75.4143C108.675 75.2336 107.5 73.7662 107.681 72.1369C107.862 70.5075 109.329 69.3331 110.958 69.5138C112.588 69.6945 113.762 71.1618 113.581 72.7912Z" fill="white"/>
<path d="M107.72 73.1717C107.21 72.5342 106.861 71.6937 106.727 70.5839C106.674 70.136 106.558 69.6914 106.373 69.2802C105.734 67.8523 105.159 66.1796 105.933 65.8748C107.002 65.32 107.861 68.4685 109.065 69.0596C109.065 69.0596 110.97 69.5432 111.282 70.9914" stroke="#000D15" stroke-width="0.8" stroke-linecap="round" stroke-linejoin="round"/>
<path d="M113.425 73.7273C115.176 69.0176 113.169 68.9904 113.784 65.3473C113.856 64.9337 113.998 64.528 114.194 64.1539C114.477 63.5942 114.741 62.8833 114.47 62.5911C114.318 62.4303 114.037 62.3734 114.037 62.3734C114.037 62.3734 113.266 63.2029 113.043 63.6921C112.819 64.1813 112.611 65.4485 112.546 65.4773C112.073 65.6715 112.411 63.7763 113.671 61.9627C114.243 60.9363 113.475 59.7923 112.707 60.7353C112.38 61.141 111.598 61.8819 111.283 62.5974C110.864 63.5431 110.577 64.786 110.577 64.601C110.583 63.99 110.66 63.0218 110.875 62.2849C111.099 61.5181 111.331 60.9065 111.466 60.6232C111.967 59.5788 111.14 58.5053 110.446 59.477C110.234 59.7721 109.92 60.3285 109.658 60.8854C110.046 59.7976 109.137 58.8178 108.519 59.8492C108.254 60.2928 107.814 61.2926 107.617 62.0419C107.432 62.7409 107.196 63.8508 107.108 64.9718C107.084 65.2776 107.089 65.8847 107.12 66.5256" stroke="#000D15" stroke-width="0.8" stroke-linecap="round" stroke-linejoin="round"/>
<path d="M109.647 60.8894C109.647 60.8894 108.567 63.0262 109.584 65.1693" stroke="#000D15" stroke-width="0.8" stroke-linecap="round" stroke-linejoin="round"/>
</g>
<path d="M86.7434 221.884C84.4197 229.562 82.6688 235.636 82.3865 237.053C81.7423 240.407 78.2882 242.376 75.2908 241.091L74.9192 240.932C72.6068 239.938 71.3938 237.328 72.0579 234.774L72.3497 233.657C73.3768 229.449 75.1055 224.056 76.2186 219.107C76.2381 219.033 76.2525 218.957 76.2669 218.882C77.6915 212.53 78.5772 206.333 80.0358 200.542C81.5051 194.705 83.5191 189.337 85.6512 183.468C86.5606 180.301 89.8642 178.468 93.0364 179.378C96.2085 180.288 98.0363 183.591 97.1269 186.759C97.108 186.828 97.0752 186.886 97.057 186.951C96.831 188.035 94.6199 196.555 91.7187 205.746C89.9819 211.246 88.241 216.906 86.7383 221.884L86.7434 221.884Z" fill="white" stroke="#000D15" stroke-width="0.8" stroke-linecap="round" stroke-linejoin="round"/>
<path d="M86.7397 221.88C84.416 229.558 82.6652 235.633 82.3828 237.049C81.7393 240.399 78.2852 242.367 75.2929 241.083L74.9212 240.924C72.6133 239.935 71.4009 237.32 72.0593 234.771L72.3454 233.658C73.3725 229.45 75.1013 224.057 76.22 219.104C76.2338 219.034 76.254 218.954 76.2678 218.884C76.7558 216.715 77.1793 214.569 77.5788 212.451C77.9275 210.62 78.2623 208.819 78.6142 207.045C78.899 205.566 79.2022 204.106 79.5282 202.669C80.6589 202.766 81.7783 202.914 82.8997 203.13C85.8469 203.693 88.7461 204.688 91.5855 206.21C91.2234 207.355 90.8657 208.505 90.503 209.655C89.1857 213.878 87.8963 218.085 86.7486 221.892L86.7397 221.88Z" fill="#FFDF6B"/>
<path d="M91.5822 206.203C91.2201 207.348 90.8625 208.498 90.4998 209.648C87.6025 208.344 84.1817 207.028 81.9113 206.738L82.8958 203.127C85.843 203.691 88.7422 204.685 91.5816 206.208L91.5822 206.203Z" fill="#F8ADA7"/>
<path d="M86.6126 209.34L85.1048 214.611L77.5767 212.455C77.9254 210.624 78.2602 208.822 78.6122 207.049C81.2295 207.489 83.8977 208.27 86.6177 209.34L86.6126 209.34Z" fill="#F8ADA7"/>
<path d="M86.7397 221.88C84.416 229.558 82.6652 235.633 82.3828 237.049C81.7393 240.399 78.2852 242.367 75.2929 241.083L74.9212 240.924C72.6133 239.935 71.4009 237.32 72.0593 234.771L72.3454 233.658C73.3725 229.45 75.1013 224.057 76.22 219.104C76.2338 219.034 76.254 218.954 76.2678 218.884C76.7558 216.715 77.1793 214.569 77.5788 212.451C77.9275 210.62 78.2623 208.819 78.6142 207.045C78.899 205.566 79.2022 204.106 79.5282 202.669C80.6589 202.766 81.7783 202.914 82.8997 203.13C85.8469 203.693 88.7461 204.688 91.5855 206.21C91.2234 207.355 90.8657 208.505 90.503 209.655C89.1857 213.878 87.8963 218.085 86.7486 221.892L86.7397 221.88Z" stroke="#000D15" stroke-width="0.8" stroke-linecap="round" stroke-linejoin="round"/>
<path d="M91.0445 247.515L68.3483 240.292C68.3483 240.292 67.7932 238.92 70.9533 231.197C73.4522 225.097 77.4131 209.03 77.4131 209.03C77.4131 209.03 82.2462 208.702 83.64 210.202C85.0338 211.702 84.7558 212.879 84.7558 212.879C84.7558 212.879 85.5336 210.906 86.687 210.77C87.8404 210.633 90.3325 211.63 90.3391 212.232C90.3457 212.835 83.3252 234.169 83.0427 235.849C82.7602 237.528 85.6437 240.21 87.6793 241.26C90.1666 242.609 91.8326 244.399 91.0412 247.509L91.0445 247.515Z" fill="white" stroke="#000D15" stroke-width="0.8" stroke-linejoin="round"/>
<path d="M84.7592 212.885C84.7592 212.885 79.5062 232.557 79.2064 236.043C78.9065 239.529 85.2691 242.364 85.2691 242.364C85.2691 242.364 85.9995 241.181 87.1967 241.058" stroke="#000D15" stroke-width="0.8" stroke-linejoin="round"/>
<path d="M83.134 214.336L89.3516 216.363L82.3419 218.576L87.6882 221.286L81.1717 223.045L86.2404 225.666L80.3743 227.134L85.0489 229.882L79.1648 232.046L83.9076 234.108L78.6568 236.978L83.6164 237.399L80.8635 240.506L85.9781 239.968" stroke="#000D15" stroke-width="0.8" stroke-linejoin="round"/>
<path d="M67.9053 240.151L67.0041 241.719L91.0586 249.375L91.3659 247.618L67.9053 240.151Z" fill="white" stroke="#000D15" stroke-width="0.8" stroke-linejoin="round"/>
<path d="M80.3625 178.434C80.3625 178.434 91.8679 183.497 102.362 178.434C102.362 178.434 102.275 175.502 99.8788 173.898C96.6857 171.757 85.2876 170.725 80.3625 178.439V178.434Z" fill="#000D15"/>
<path d="M85.6243 143.52C82.7275 147.362 84.3624 168.579 85.5528 185.178L97.4873 185.091C98.6471 168.222 100.083 147.653 97.0684 143.53L85.6243 143.515V143.52Z" fill="white"/>
<path d="M91.4625 191.151C94.7581 191.151 97.4298 188.479 97.4298 185.184C97.4298 181.888 94.7581 179.216 91.4625 179.216C88.1669 179.216 85.4952 181.888 85.4952 185.184C85.4952 188.479 88.1669 191.151 91.4625 191.151Z" fill="white"/>
<path d="M95.7654 189.328C96.8383 188.24 97.4922 186.743 97.482 185.093C98.5549 169.511 99.8679 150.337 97.6761 144.717C96.8332 141.978 94.2787 139.996 91.2644 140.017C88.0049 140.042 85.3124 142.402 84.7658 145.504C83.1258 151.711 84.495 170.573 85.5424 185.18" stroke="#000D15" stroke-width="0.8" stroke-linecap="round" stroke-linejoin="round"/>
<path d="M101.971 157.535C101.971 157.535 98.5482 156.262 96.6272 156.518L96.6987 171.155C99.0846 171.661 101.312 172.274 102.819 173.372C102.819 173.372 103.948 165.413 102.533 162.199L103.693 162.817C103.693 162.817 103.816 159.593 101.971 157.54V157.535Z" fill="#73CBF2" stroke="#000D15" stroke-width="0.8" stroke-linecap="round" stroke-linejoin="round"/>
<path d="M102.535 162.194C102.535 162.194 99.9758 160.916 98.3409 160.686C98.3409 160.686 98.1366 158.812 97.7432 158.045" fill="#73CBF2"/>
<path d="M102.535 162.194C102.535 162.194 99.9758 160.916 98.3409 160.686C98.3409 160.686 98.1366 158.812 97.7432 158.045" stroke="#000D15" stroke-width="0.8" stroke-linecap="round" stroke-linejoin="round"/>
<path d="M100.918 145.038C100.882 139.888 96.6727 135.74 91.5228 135.78C88.3195 135.806 85.5096 137.441 83.8492 139.908C82.9551 141.078 82.3471 142.586 82.2041 144.445C82.2041 144.491 82.1939 144.532 82.199 144.578C82.1734 144.946 82.1581 145.319 82.1632 145.707C82.1683 149.917 80.3393 175.058 80.2933 178.425C85.9694 175.61 100.888 173.914 102.507 178.532C101.889 171.048 100.928 145.273 100.923 145.043L100.918 145.038Z" fill="#73CBF2"/>
<path d="M82.6437 174.609C85.0193 173.787 89.0299 172.704 93.5411 172.76C100.755 172.852 101.971 174.911 101.971 174.911" fill="#73CBF2"/>
<path d="M82.6437 174.609C85.0193 173.787 89.0299 172.704 93.5411 172.76C100.755 172.852 101.971 174.911 101.971 174.911" stroke="#000D15" stroke-width="0.8" stroke-linecap="round" stroke-linejoin="round"/>
<path d="M102.359 178.432C101.547 168.93 101.256 152.852 101.067 147.641" stroke="#000D15" stroke-width="0.8" stroke-linecap="round" stroke-linejoin="round"/>
<path d="M82.2006 149.405L80.3103 178.434L83.3144 177.315C85.736 176.533 89.44 175.629 93.5629 175.685C100.777 175.777 101.993 177.836 101.993 177.836" stroke="#000D15" stroke-width="0.8" stroke-linecap="round" stroke-linejoin="round"/>
<path d="M97.046 151.177L97.3577 163.796" stroke="#000D15" stroke-width="0.8" stroke-linecap="round" stroke-linejoin="round"/>
<path d="M42.4878 198.254C34.6558 199.996 28.5097 201.452 27.1354 201.902C23.8963 202.99 20.4886 200.941 20.1361 197.702L20.0952 197.299C19.8296 194.795 21.5053 192.461 24.0547 191.781L25.1684 191.485C29.3374 190.315 34.8857 189.175 39.7443 187.714C39.8158 187.694 39.8925 187.673 39.964 187.648C46.1969 185.773 52.0314 183.505 57.7892 181.931C63.598 180.347 69.2639 179.468 75.4253 178.447C78.6286 177.685 81.8524 179.663 82.6136 182.871C83.3748 186.074 81.3977 189.298 78.1892 190.059C78.1228 190.075 78.0513 190.075 77.9849 190.095C76.9273 190.432 68.4209 192.685 58.9898 194.668C53.3444 195.853 47.561 197.11 42.4827 198.249L42.4878 198.254Z" fill="white" stroke="#000D15" stroke-width="0.8" stroke-linecap="round" stroke-linejoin="round"/>
<path d="M42.4831 198.252C34.6511 199.994 28.505 201.45 27.1307 201.9C23.8967 202.983 20.484 200.94 20.1365 197.7L20.0906 197.297C19.8198 194.799 21.5006 192.459 24.05 191.784L25.1586 191.488C29.3276 190.318 34.8759 189.179 39.7396 187.723C39.806 187.702 39.8878 187.677 39.9542 187.656C42.0795 187.018 44.1589 186.333 46.2025 185.643C47.965 185.051 49.7021 184.458 51.4187 183.891C52.8492 183.416 54.2695 182.961 55.6796 182.537C55.1942 184.244 57.3349 192.336 58.5099 194.778C57.3349 195.029 56.1547 195.274 54.9796 195.524C50.6524 196.449 46.3557 197.389 42.4729 198.257L42.4831 198.252Z" fill="#FFDF6B"/>
<path d="M58.5177 194.774C57.3427 195.024 56.1625 195.269 54.9875 195.52C53.8379 193.251 53.1023 189.098 53.3066 186.609L55.999 186.002C56.6479 189.281 57.4398 192.459 58.5177 194.774Z" fill="#F8ADA7"/>
<path d="M52.5775 192.134L48.0203 193.258L46.2067 185.64C47.9693 185.048 49.7063 184.455 51.4229 183.888C51.5302 185.932 51.7397 189.498 52.5775 192.134Z" fill="#F8ADA7"/>
<path d="M42.4831 198.252C34.6511 199.994 28.505 201.45 27.1307 201.9C23.8967 202.983 20.484 200.94 20.1365 197.7L20.0906 197.297C19.8198 194.799 21.5006 192.459 24.05 191.784L25.1586 191.488C29.3276 190.318 34.8759 189.179 39.7396 187.723C39.806 187.702 39.8878 187.677 39.9542 187.656C42.0795 187.018 44.1589 186.333 46.2025 185.643C47.965 185.051 49.7021 184.458 51.4187 183.891C52.8492 183.416 54.2695 182.961 55.6796 182.537C55.2351 184.433 57.3144 192.622 58.5099 194.778C57.3349 195.029 56.1547 195.274 54.9796 195.524C50.6524 196.449 46.3557 197.389 42.4729 198.257L42.4831 198.252Z" stroke="#000D15" stroke-width="0.8" stroke-linecap="round" stroke-linejoin="round"/>
<path d="M23.2316 215.392L17.811 192.199C17.811 192.199 18.7053 191.019 26.9567 189.778C33.4753 188.8 49.3042 183.973 49.3042 183.973C49.3042 183.973 52.061 187.956 51.4867 189.921C50.9125 191.887 49.7593 192.25 49.7593 192.25C49.7593 192.25 51.8515 191.908 52.5598 192.829C53.2681 193.749 53.6884 196.4 53.1742 196.715C52.66 197.029 30.7404 201.926 29.1533 202.544C27.5663 203.162 26.74 207.012 26.8808 209.298C26.9959 212.125 26.3117 214.473 23.2354 215.386L23.2316 215.392Z" fill="white" stroke="#000D15" stroke-width="0.8" stroke-linejoin="round"/>
<path d="M49.7555 192.257C49.7555 192.257 30.1691 197.821 27.0214 199.349C23.8737 200.877 24.698 207.793 24.698 207.793C24.698 207.793 26.0882 207.815 26.8069 208.78" stroke="#000D15" stroke-width="0.8" stroke-linejoin="round"/>
<path d="M47.6774 191.604L49.1209 197.982L43.6293 193.096L44.0405 199.075L39.1917 194.379L39.5366 200.075L35.2713 195.789L35.3056 201.211L30.4328 197.266L31.0913 202.395L25.9369 199.355L28.1161 203.83L24.0372 203.058L27.1191 207.175" stroke="#000D15" stroke-width="0.8" stroke-linejoin="round"/>
<path d="M17.7051 191.746L15.8966 191.776L21.6417 216.356L23.3083 215.72L17.7051 191.746Z" fill="white" stroke="#000D15" stroke-width="0.8" stroke-linejoin="round"/>
<path d="M80.5171 152.754C84.1936 152.754 87.1741 149.774 87.1741 146.097C87.1741 142.421 84.1936 139.44 80.5171 139.44C76.8405 139.44 73.8601 142.421 73.8601 146.097C73.8601 149.774 76.8405 152.754 80.5171 152.754Z" fill="white"/>
<path d="M100.813 144.484C101.238 136.406 95.0292 129.512 86.9452 129.087C78.8612 128.662 71.9635 134.867 71.5387 142.945C71.1139 151.023 77.3229 157.917 85.4069 158.342C93.4909 158.767 100.389 152.563 100.813 144.484Z" fill="#73CBF2"/>
<path d="M66.4232 176.547C66.4232 176.547 77.3411 182.774 88.3049 178.82C88.3049 178.82 88.5195 175.893 86.3022 174.048C83.3492 171.591 72.1146 169.384 66.4232 176.547Z" fill="#000D15"/>
<path d="M75.1926 142.352C71.9178 145.873 71.4273 167.156 70.8909 183.791L82.7743 184.941C85.6762 168.28 89.1503 147.962 86.5754 143.548L75.1926 142.352Z" fill="white"/>
<path d="M80.6262 188.974C81.8064 188.003 82.6136 186.583 82.772 184.943C85.4491 169.555 88.6575 150.611 87.0584 144.792C86.5066 141.982 84.1667 139.744 81.1678 139.453C77.9236 139.141 75.0012 141.21 74.1327 144.235C71.8592 150.238 71.3534 169.151 70.8834 183.788" stroke="#000D15" stroke-width="0.8" stroke-linecap="round" stroke-linejoin="round"/>
<path d="M86.7298 166.215L88.3493 152.053L93.1109 150.332L89.5704 155.814L86.6021 171.008L86.7298 166.215Z" fill="#000D15"/>
<path d="M93.3735 150.116L89.4753 152.471C88.9951 161.192 88.6017 171.246 88.4382 178.925C87.304 174.163 72.2888 174.307 66.3522 176.524C66.7456 173.177 71.0882 148.358 71.5173 144.169C71.5531 143.786 71.6093 143.413 71.6706 143.05C71.6706 143.004 71.6808 142.963 71.691 142.917C73.1522 134.952 82.5067 134.441 86.5326 139.203C86.8238 139.55 87.3755 139.872 88.0499 140.163C91.8254 141.778 93.7669 146.028 93.3735 150.116Z" fill="#73CBF2"/>
<path d="M69.1105 156.784C69.1105 156.784 72.6357 155.819 74.526 156.243L73.0699 170.809C70.6483 171.1 68.3748 171.514 66.7757 172.469C66.7757 172.469 66.4385 164.448 68.1398 161.372L66.929 161.883C66.929 161.883 67.0976 158.665 69.1105 156.779V156.784Z" fill="#73CBF2" stroke="#000D15" stroke-width="0.8" stroke-linecap="round" stroke-linejoin="round"/>
<path d="M68.1351 161.374C68.1351 161.374 70.7969 160.327 72.4471 160.245C72.4471 160.245 72.8201 158.396 73.2747 157.67" fill="#73CBF2"/>
<path d="M68.1351 161.374C68.1351 161.374 70.7969 160.327 72.4471 160.245C72.4471 160.245 72.8201 158.396 73.2747 157.67" stroke="#000D15" stroke-width="0.8" stroke-linecap="round" stroke-linejoin="round"/>
<path d="M66.7543 173.629C66.7543 173.629 72.9566 171.427 80.1244 172.265C87.2872 173.103 88.2885 175.274 88.2885 175.274" fill="#73CBF2"/>
<path d="M66.7543 173.629C66.7543 173.629 72.9566 171.427 80.1244 172.265C87.2872 173.103 88.2885 175.274 88.2885 175.274" stroke="#000D15" stroke-width="0.8" stroke-linecap="round" stroke-linejoin="round"/>
<path d="M69.4822 175.736C71.9702 175.209 75.7509 174.693 79.8432 175.174C87.0059 176.011 88.0073 178.183 88.0073 178.183" stroke="#000D15" stroke-width="0.8" stroke-linecap="round" stroke-linejoin="round"/>
<path d="M88.3035 178.818C88.4823 169.279 88.9881 157.57 89.3406 152.364L93.2234 150.151" stroke="#000D15" stroke-width="0.8" stroke-linecap="round" stroke-linejoin="round"/>
<path d="M69.6663 156.501L71.1785 147.852" stroke="#000D15" stroke-width="0.8" stroke-linecap="round" stroke-linejoin="round"/>
<path d="M83.6098 150.938L82.6135 163.522" stroke="#000D15" stroke-width="0.8" stroke-linecap="round" stroke-linejoin="round"/>
<path d="M80.8117 139.087L80.541 140.584C80.1322 142.858 78.8243 144.865 76.9187 146.168" stroke="#000D15" stroke-width="0.8" stroke-linecap="round" stroke-linejoin="round"/>
<path d="M97.991 141.069C97.991 141.069 94.4505 141.815 89.8269 142.546C82.0255 143.777 71.1639 144.967 69.0999 142.484C69.0999 142.484 66.949 140.712 67.9197 134.198C68.1649 132.542 68.1292 130.3 67.9401 127.939C67.5723 123.275 66.6322 118.15 66.1418 116.183C65.8046 114.84 65.8761 113.399 66.4585 112.137C67.3373 110.201 69.1867 108.775 71.4449 108.535L89.4846 106.594C92.6777 106.252 95.6052 108.397 96.2387 111.534C96.2387 111.534 97.2605 118.769 98.7778 124.787C99.4522 127.469 100.229 129.911 101.056 131.362C103.253 135.204 101.389 140.318 97.991 141.074V141.069Z" fill="#FFDF6B"/>
<path d="M96.2329 111.532C95.5994 108.395 92.672 106.25 89.4789 106.592L84.6202 107.113C85.7084 113.06 88.0484 119.41 88.7176 126.226C93.0092 125.751 94.363 125.434 98.7721 124.78C97.2496 118.762 96.2329 111.527 96.2329 111.527V111.532Z" fill="#F8ADA7"/>
<path d="M88.9587 127.436C88.9178 127.002 88.8769 126.568 88.836 126.138C82.7717 126.818 73.7237 127.646 67.9404 127.937C68.1294 130.302 68.1652 132.545 67.92 134.195C66.9493 140.709 69.1001 142.482 69.1001 142.482C71.159 144.965 83.5329 143.611 91.3343 142.38C91.2066 137.307 89.4082 132.198 88.9587 127.436Z" fill="#F8ADA7"/>
<path d="M96.0502 124.588C96.0502 124.588 91.6719 132.216 86.3636 135.547" stroke="#000D15" stroke-width="0.5" stroke-miterlimit="10"/>
<path d="M92.9411 127.051C92.9411 127.051 87.8985 131.849 82.3451 132.544" stroke="#000D15" stroke-width="0.5" stroke-miterlimit="10"/>
<path d="M96.9537 115.027C97.9755 119.768 99.1915 128.1 101.051 131.355C103.248 135.202 101.388 140.316 97.9857 141.067C97.9857 141.067 72.3745 146.437 69.0946 142.482C69.0946 142.482 66.9488 140.709 67.9144 134.195C68.645 129.281 66.8722 119.144 66.1365 116.181C65.7993 114.832 65.8708 113.397 66.4481 112.135C67.332 110.204 69.1763 108.773 71.4396 108.533L89.4793 106.592C90.2508 106.51 91.0018 106.571 91.7119 106.755" stroke="#000D15" stroke-width="0.8" stroke-linecap="round" stroke-linejoin="round"/>
<path d="M88.943 107.188C89.1729 109.314 86.6338 111.332 83.2772 111.694C79.9206 112.057 77.0085 110.627 76.7786 108.496C76.7531 108.241 76.7633 107.985 76.8144 107.735C76.8246 107.674 88.6876 106.315 88.7131 106.376C88.8357 106.631 88.9124 106.907 88.943 107.188Z" fill="#FFDF6B" stroke="#000D15" stroke-width="0.8" stroke-linecap="round" stroke-linejoin="round"/>
<path d="M77.4791 109.977L82.9866 107.039L88.8159 108.178" stroke="#000D15" stroke-width="0.8" stroke-linecap="round" stroke-linejoin="round"/>
<path d="M79.6134 111.198L82.9853 107.039L87.6345 109.777" stroke="#000D15" stroke-width="0.8" stroke-linecap="round" stroke-linejoin="round"/>
<path d="M82.5216 111.683L82.9865 107.039L85.3571 111.085" stroke="#000D15" stroke-width="0.8" stroke-linecap="round" stroke-linejoin="round"/>
<path d="M71.5479 143.635C71.5479 143.635 80.8104 144.779 96.3008 141.407C96.3008 141.407 99.6063 140.799 100.362 139.737C100.362 139.737 99.0596 140.784 93.1485 140.442C86.323 140.043 76.3145 141.443 71.5479 143.635Z" fill="#000D15"/>
<path d="M34.5737 89.6333C36.3626 89.6333 37.8128 88.1831 37.8128 86.3942C37.8128 84.6053 36.3626 83.1551 34.5737 83.1551C32.7848 83.1551 31.3346 84.6053 31.3346 86.3942C31.3346 88.1831 32.7848 89.6333 34.5737 89.6333Z" fill="white"/>
<path d="M32.6008 88.9374L38.7469 93.8726L42.8034 88.8301L36.6573 83.8897" fill="white"/>
<path d="M32.6008 88.9374L38.7469 93.8726L42.8034 88.8301L36.6573 83.8897" stroke="#000D15" stroke-width="0.8" stroke-linecap="round" stroke-linejoin="round"/>
<g clip-path="url(#clip1_1695_35543)">
<path d="M32.2763 84.9126C33.0952 83.4925 34.9104 83.0051 36.3305 83.824C37.7507 84.643 38.238 86.4581 37.4191 87.8782C36.6002 89.2984 34.785 89.7858 33.3649 88.9668C31.9447 88.1479 31.4574 86.3328 32.2763 84.9126Z" fill="white"/>
<path d="M34.2478 89.3317C33.0353 89.3992 31.1259 88.599 29.7421 88.3907C29.5357 88.3601 29.366 88.3272 29.2102 88.2904C28.469 88.2463 27.6665 88.1551 27.3233 88.0752C26.3248 87.8532 25.3567 87.5072 24.7537 87.2539C24.097 86.9814 23.2582 86.4623 22.8886 86.1725C22.0301 85.4828 23.0493 84.779 23.9871 85.2903C24.2419 85.4313 24.7929 85.6724 25.4859 85.9127C26.0934 86.1274 26.8823 86.2934 27.4379 86.3425C26.838 86.1145 26.273 85.8772 26.0094 85.731C25.0178 85.2005 24.0959 84.5391 23.5273 84.0933C22.9221 83.6087 22.18 82.8092 21.8801 82.3885C21.1831 81.4086 22.4426 80.9732 23.2862 81.7604C22.8812 81.2968 22.4928 80.7839 22.3122 80.4733C21.7028 79.4437 23.0152 79.1212 23.7709 79.9993C23.9765 80.2359 24.4437 80.694 25.0563 81.2065C25.645 81.6993 26.4706 82.2108 27.0279 82.4614C27.1974 82.5356 27.553 82.6757 27.9745 82.8244C27.0735 82.1574 26.2527 81.3715 25.7599 80.8455C25.2286 80.2738 24.6092 79.374 24.3715 78.9067C23.8111 77.8228 25.1669 77.5784 25.8825 78.5159C26.0779 78.7702 26.5246 79.2637 27.1118 79.8205C27.5885 80.2723 30.338 81.5688 31.6691 82.1241C32.0354 82.2764 32.4592 82.0018 32.4392 81.6069C32.4259 81.2925 32.2935 80.939 31.9592 80.5575C30.8741 79.3302 30.4114 78.0667 30.7171 77.3525C31.1199 76.4289 32.2174 78.2177 33.3986 79.5239C34.9122 81.2047 36.634 82.8109 37.0952 84.4451" fill="white"/>
<path d="M23.2066 81.7145C24.5427 82.9155 25.9435 83.9533 27.5539 84.3924L23.2066 81.7145Z" fill="white"/>
<path d="M34.2073 89.3202C32.9948 89.3876 31.0514 88.5441 29.6695 88.3429C29.463 88.3123 29.2933 88.2793 29.1376 88.2426C28.3963 88.1985 27.5938 88.1073 27.2507 88.0273C26.2522 87.8054 25.284 87.4594 24.6811 87.2061C24.0244 86.9336 23.1855 86.4144 22.816 86.1246C21.9575 85.435 22.9767 84.7312 23.9144 85.2424C24.1693 85.3835 24.7203 85.6246 25.4132 85.8649C26.0207 86.0796 26.8097 86.2455 27.3652 86.2946C26.7654 86.0667 26.2004 85.8293 25.9367 85.6832C24.9452 85.1527 24.0232 84.4913 23.4547 84.0455C22.8495 83.5609 22.1074 82.7614 21.8074 82.3407C21.1104 81.3608 22.37 80.9253 23.2135 81.7125C22.8085 81.249 22.4202 80.7361 22.2395 80.4255C21.6302 79.3959 22.9425 79.0734 23.6982 79.9515C23.9039 80.1881 24.371 80.6462 24.9837 81.1587C25.5724 81.6515 26.398 82.1629 26.9553 82.4135C27.1248 82.4877 27.4804 82.6279 27.9018 82.7766C27.0008 82.1095 26.1801 81.3237 25.6873 80.7977C25.1559 80.2259 24.5365 79.3262 24.2989 78.8588C23.7385 77.7749 25.0943 77.5306 25.8098 78.4681C26.0053 78.7223 26.452 79.2158 27.0392 79.7726C27.5158 80.2244 30.2654 81.521 31.5965 82.0763C31.9628 82.2285 32.3866 81.9539 32.3666 81.5591C32.3532 81.2447 32.2209 80.8912 31.8865 80.5097C30.8014 79.2824 30.3387 78.0189 30.6444 77.3046C31.0473 76.381 32.1448 78.1698 33.3259 79.4761C34.8395 81.1569 36.0616 82.0444 37.1037 84.3792" stroke="#000D15" stroke-width="0.8" stroke-linecap="round" stroke-linejoin="round"/>
<path d="M23.2066 81.7145C24.5427 82.9155 25.9435 83.9533 27.5539 84.3924" stroke="#000D15" stroke-width="0.8" stroke-linecap="round" stroke-linejoin="round"/>
<path d="M30.1588 85.7353C32.7698 84.5517 33.8252 84.9715 33.8252 84.9715" stroke="#000D15" stroke-width="0.8" stroke-linecap="round" stroke-linejoin="round"/>
</g>
<path d="M65.042 110.948C63.4991 112.971 63.8874 115.868 65.9105 117.411C67.9337 118.954 70.8304 118.566 72.3733 116.543C73.9163 114.519 73.528 111.623 71.5048 110.08C69.4817 108.537 66.5849 108.925 65.042 110.948Z" fill="#FFDF6B"/>
<path d="M49.2259 103.986L49.2361 103.975C47.499 102.386 47.2334 99.7094 48.6843 97.7986C50.1863 95.8266 52.9707 95.4178 54.9786 96.833L54.9888 96.8228C58.1717 98.9941 62.1311 101.865 65.5541 104.619C66.4073 105.309 67.2298 105.988 67.9962 106.652C69.5493 107.996 70.8776 109.258 71.8024 110.326C71.8586 110.377 71.9096 110.428 71.9658 110.479C72.395 110.908 72.7271 111.404 72.9519 111.94C73.0745 112.185 73.1613 112.405 73.192 112.604L73.1818 112.615C73.284 113.008 73.3299 113.406 73.3197 113.81C73.3095 114.771 73.003 115.726 72.3797 116.548C71.3528 117.897 69.7281 118.515 68.1546 118.321C68.0115 118.321 67.8276 118.291 67.6181 118.224C67.0459 118.086 66.4942 117.831 65.9935 117.463C62.1056 115.256 54.6771 109.166 49.2361 103.986H49.2259Z" fill="#FFDF6B"/>
<path d="M55.991 103.373C57.5288 101.355 57.1405 98.4733 55.1225 96.9304C53.1044 95.3926 50.223 95.7809 48.6801 97.799C47.1423 99.817 47.5254 102.704 49.5435 104.241C51.5615 105.779 54.4481 105.391 55.9859 103.373H55.991Z" fill="#FFDF6B"/>
<path d="M71.7974 110.326C68.5941 106.622 60.5781 100.639 54.9889 96.8175L54.9787 96.8278C52.9709 95.4126 50.1865 95.8264 48.6845 97.7934C47.2284 99.699 47.4992 102.381 49.2363 103.97V103.98C52.7665 107.352 57.15 111.107 60.854 113.927" stroke="#000D15" stroke-width="0.8" stroke-linecap="round" stroke-linejoin="round"/>
<path d="M54.6832 102.377C55.6692 101.084 55.424 99.2296 54.1263 98.2436C52.8337 97.2576 50.9792 97.5028 49.9932 98.8005C49.0071 100.093 49.2524 101.948 50.55 102.934C51.8426 103.92 53.6972 103.669 54.6832 102.377Z" fill="#FFDF6B"/>
<path d="M42.7035 88.2443L39.9548 85.9963C38.7696 87.9122 37.2624 89.8434 35.4487 91.7848L38.417 93.9459L42.7035 88.2443Z" fill="#F8ADA7"/>
<path d="M55.3049 97.0768C51.2586 93.9961 46.7883 88.3967 42.4559 88.0442C40.6524 90.4965 39.4569 91.7277 37.6995 93.4444C40.7495 97.8636 46.6401 101.624 49.5471 104.234L55.3049 97.0717V97.0768Z" fill="#FFDF6B"/>
<path d="M55.3206 97.0356C51.2795 93.96 46.7989 88.4066 42.4614 88.049L40.0244 86.0565C38.6756 87.865 37.1685 89.7962 35.5183 91.8449L37.6998 93.4389C40.7499 97.8633 46.5996 101.644 49.5118 104.26" stroke="#000D15" stroke-width="0.8" stroke-linecap="round" stroke-linejoin="round"/>
<path d="M39.351 87.2307L41.8441 89.2334" stroke="#000D15" stroke-width="0.8" stroke-linecap="round" stroke-linejoin="round"/>
<path d="M38.4603 88.341L40.9535 90.3437" stroke="#000D15" stroke-width="0.8" stroke-linecap="round" stroke-linejoin="round"/>
<path d="M37.5868 89.425L40.08 91.4278" stroke="#000D15" stroke-width="0.8" stroke-linecap="round" stroke-linejoin="round"/>
<path d="M36.6661 90.5692L39.1593 92.5719" stroke="#000D15" stroke-width="0.8" stroke-linecap="round" stroke-linejoin="round"/>
<path d="M76.0818 96.1547L83.9047 94.4058L86.6501 106.686C86.6501 106.686 86.6557 106.711 86.659 106.726C86.931 107.942 85.5113 109.296 83.492 109.748C81.4728 110.199 79.1131 109.69 78.8411 108.474C78.8389 108.464 78.8367 108.454 78.8345 108.444L78.8245 108.446L76.0768 96.1558L76.0818 96.1547Z" fill="white" stroke="#000D15" stroke-width="0.8" stroke-linecap="round" stroke-linejoin="round"/>
<path d="M76.817 97.1317C77.101 97.7226 78.0205 99.2132 78.8822 99.6017L82.134 100.963C83.9269 101.186 85.8269 100.599 86.7464 99.4664C88.7056 97.06 87.2431 93.5392 86.2747 91.1277C85.8255 90.0083 85.3442 88.8857 84.7649 87.8164C83.83 86.0936 81.5624 85.0994 79.0349 85.9943C78.6915 86.0973 78.321 86.2429 77.9344 86.434C73.8731 88.4137 74.6325 91.4496 75.5802 93.2424C75.8305 93.7746 75.6367 93.9661 75.5086 93.9953C75.0668 93.916 74.56 94.0608 74.2922 94.4086C74.1041 94.6443 74.048 94.9553 74.0916 95.2439C74.1352 95.5326 74.2835 95.7978 74.4611 96.0303C74.9956 96.7118 75.8972 97.1384 76.817 97.1317Z" fill="white"/>
<path d="M74.8809 95.0517C74.935 94.9192 75.1683 94.9089 75.2847 94.9143C75.5695 94.9239 75.8301 95.0594 76.0348 95.2492C76.2129 95.4135 76.354 95.6228 76.459 95.8349C76.4884 95.8964 76.3993 95.9425 76.3659 95.8871C76.2076 95.577 75.9894 95.2803 75.6662 95.1222C75.4948 95.0349 75.2814 94.9936 75.087 95.0371C75.0521 95.0449 75.0321 95.0493 74.9995 95.0671C74.9795 95.0716 74.9895 95.0693 74.9768 95.0826C74.9768 95.0826 74.9591 95.0971 74.9768 95.0826C74.9768 95.0826 74.9701 95.0998 74.9768 95.0826C74.9541 95.1453 74.8521 95.1105 74.8748 95.0479L74.8809 95.0517Z" fill="#000D15"/>
<path d="M76.8219 97.1306C75.9021 97.1374 75.0005 96.7107 74.466 96.0292C74.2883 95.7967 74.14 95.5315 74.0964 95.2428C74.0529 94.9542 74.109 94.6432 74.2971 94.4075C74.5648 94.0597 75.0717 93.915 75.5135 93.9942C75.7632 93.8996 75.554 93.1976 75.4182 92.8585C74.8984 91.7047 74.5533 90.1674 75.3199 88.7099C76.3349 86.78 79.2483 85.5134 81.4275 85.667C82.8023 85.7639 84.0828 86.5494 84.7698 87.8153C85.3491 88.8846 85.8304 90.0072 86.2796 91.1266C87.248 93.5381 88.7105 97.0589 86.7513 99.4653C85.8318 100.597 83.9318 101.185 82.1388 100.962" stroke="#000D15" stroke-width="0.8" stroke-linecap="round" stroke-linejoin="round"/>
<path d="M86.0425 103.131L85.3942 100.559C84.5065 100.967 83.4177 101.038 82.2505 100.969C83.4833 102.08 84.7417 102.909 86.0425 103.131Z" fill="#000D15"/>
<path d="M84.5829 95.3725C84.1751 95.4217 82.7756 95.5776 81.6052 95.5408C81.542 95.5393 81.4911 95.5925 81.5045 95.6524C81.5537 96.0601 81.8081 97.3853 83.1615 97.4911C84.5198 97.5958 84.6828 95.9364 84.7005 95.477C84.7021 95.4139 84.6489 95.363 84.584 95.3774L84.5829 95.3725Z" fill="#000D15" stroke="#000D15" stroke-width="0.8" stroke-linecap="round" stroke-linejoin="round"/>
<path d="M82.7017 92.0654C83.1237 92.7354 83.4787 93.457 83.759 94.1953C83.7985 94.3016 83.7781 94.4214 83.6751 94.4758C83.5859 94.5219 83.433 94.4933 83.3946 94.3919C83.1171 93.6425 82.7593 92.932 82.3373 92.262C82.1968 92.0317 82.5623 91.84 82.7017 92.0654Z" fill="#000D15"/>
<path d="M78.5595 91.5414C78.799 91.2314 79.1329 91.0154 79.5096 90.9207C79.6143 90.8973 79.7363 90.9747 79.7597 91.0794C79.7831 91.1841 79.7145 91.2989 79.601 91.3295C79.5611 91.3385 79.5212 91.3474 79.4835 91.3663L79.4536 91.373C79.4835 91.3663 79.4885 91.3652 79.4636 91.3707C79.4437 91.3752 79.4259 91.3896 79.406 91.3941C79.3346 91.4258 79.2692 91.4613 79.205 91.5018C79.1873 91.5163 79.1673 91.5207 79.1546 91.534C79.1989 91.498 79.1446 91.5363 79.1369 91.5485C79.1053 91.5712 79.0848 91.5968 79.0533 91.6195C79.0228 91.6473 78.9924 91.675 78.967 91.7016C78.9542 91.7149 78.9365 91.7294 78.9249 91.7477C78.9509 91.7 78.9149 91.7499 78.9122 91.761C78.848 91.8486 78.7267 91.8915 78.623 91.8256C78.5365 91.7665 78.4853 91.6313 78.5583 91.5365L78.5606 91.5464L78.5595 91.5414Z" fill="#000D15"/>
<path d="M83.1235 90.1545C83.3631 89.8445 83.697 89.6285 84.0737 89.5338C84.1784 89.5104 84.3004 89.5878 84.3238 89.6925C84.3472 89.7972 84.2786 89.912 84.1651 89.9426C84.1252 89.9516 84.0853 89.9605 84.0476 89.9794L84.0177 89.9861C84.0476 89.9794 84.0526 89.9783 84.0277 89.9838C84.0077 89.9883 83.99 90.0027 83.9701 90.0072C83.8986 90.0388 83.8333 90.0744 83.7691 90.1149C83.7514 90.1294 83.7314 90.1338 83.7187 90.1471C83.763 90.1111 83.7087 90.1494 83.701 90.1616C83.6694 90.1843 83.6489 90.2098 83.6174 90.2326C83.5869 90.2604 83.5565 90.2881 83.531 90.3147C83.5183 90.328 83.5006 90.3425 83.489 90.3608C83.515 90.3131 83.479 90.363 83.4763 90.3741C83.4121 90.4617 83.2908 90.5046 83.1871 90.4387C83.1006 90.3796 83.0494 90.2444 83.1224 90.1496L83.1247 90.1595L83.1235 90.1545Z" fill="#000D15"/>
<path d="M79.9011 93.3513C79.8054 93.0638 79.9219 92.7655 80.1568 92.6921C80.3905 92.6136 80.6601 92.789 80.7558 93.0764C80.8514 93.3639 80.7349 93.6622 80.5 93.7356C80.2663 93.8141 79.9967 93.6388 79.9011 93.3513Z" fill="#000D15"/>
<path d="M84.2585 91.9318C84.1628 91.6444 84.2793 91.3461 84.5142 91.2726C84.7479 91.1942 85.0175 91.3695 85.1132 91.657C85.2089 91.9445 85.0923 92.2428 84.8574 92.3162C84.6237 92.3946 84.3542 92.2193 84.2585 91.9318Z" fill="#000D15"/>
<path d="M75.9147 89.59C77.1974 92.2875 76.9765 94.0301 76.804 94.698C76.7693 94.821 76.6094 94.8608 76.5256 94.7628C75.25 94.4029 74.3101 94.3554 74.3135 94.7386C72.3561 92.1373 71.8388 90.2077 72.7277 89.089C72.7277 89.089 72.0391 84.6055 79.8445 83.8455C79.8445 83.8455 83.6571 83.3711 85.1904 85.4812C86.7301 87.5877 75.9196 89.5914 75.9196 89.5914L75.9147 89.59Z" fill="#000D15"/>
<path d="M182.215 7.50012H256.748C267.64 7.50012 276.463 16.2928 276.463 27.1387V197.058C276.463 207.904 267.64 216.696 256.748 216.696H182.215C171.323 216.696 162.5 207.904 162.5 197.058V27.1387C162.5 16.2928 171.323 7.50012 182.215 7.50012Z" fill="#000D15" stroke="#000D15"/>
<path d="M241.266 13.9513L241.268 13.9466L241.678 13.0513C242.158 12.0055 243.209 11.3454 244.354 11.3454H256.231L256.242 11.3568H256.408C265.613 11.3568 273.07 18.7878 273.07 27.9544V196.241C273.07 205.407 265.613 212.838 256.408 212.838H182.581C173.375 212.838 165.918 205.407 165.918 196.241V27.943C165.918 18.7764 173.375 11.3454 182.581 11.3454H194.623C195.763 11.3454 196.807 12.0126 197.3 13.0532C197.3 13.0539 197.301 13.0547 197.301 13.0555L197.709 13.9466L197.709 13.9471C198.322 15.2825 199.661 16.1193 201.111 16.1193H237.866C239.32 16.1193 240.644 15.268 241.266 13.9513Z" fill="white" stroke="#000D15" stroke-width="0.8"/>
<path d="M191.4 100.588H191.307L191.223 100.629L183.243 104.574V40.1203C183.243 37.5218 185.373 35.4001 188.017 35.4001H291.458C294.094 35.4001 296.232 37.5142 296.232 40.1203V95.8676C296.232 98.466 294.102 100.588 291.458 100.588H191.4Z" fill="white" stroke="#000D15" stroke-width="0.8" stroke-miterlimit="10"/>
<path d="M263.023 56.2287C263.392 56.6129 263.377 57.2247 262.991 57.591L234.755 84.3646C234.408 84.6935 233.872 84.7157 233.499 84.4168L216.138 70.495C215.723 70.162 215.658 69.5532 215.994 69.1396L220.391 63.729C220.723 63.3207 221.32 63.257 221.73 63.5857L232.482 72.2074C233.167 72.7565 234.151 72.7156 234.788 72.1116L256.863 51.1809C257.244 50.819 257.846 50.8332 258.21 51.2127L263.023 56.2287Z" fill="#50B83C" stroke="black" stroke-width="0.8"/>
<path d="M148.174 183.809H248.232L256.789 188.039V122.942C256.789 120.119 254.476 117.822 251.615 117.822H148.174C145.321 117.822 143 120.111 143 122.942V178.689C143 181.512 145.313 183.809 148.174 183.809Z" fill="white" stroke="#000D15" stroke-width="0.8" stroke-miterlimit="10"/>
<path fill-rule="evenodd" clip-rule="evenodd" d="M223.873 138.773C224.395 139.318 224.375 140.184 223.827 140.703L195.591 167.477C195.099 167.943 194.339 167.975 193.81 167.551L176.449 153.629C175.86 153.157 175.769 152.295 176.245 151.709L180.642 146.298C181.112 145.72 181.96 145.629 182.542 146.095L193.294 154.717C193.822 155.141 194.582 155.109 195.074 154.643L217.149 133.712C217.69 133.199 218.543 133.219 219.06 133.757L223.873 138.773Z" fill="#50B83C" stroke="black" stroke-width="0.8"/>
<defs>
<clipPath id="clip0_1695_35543">
<rect width="20.4358" height="20.4358" fill="white" transform="matrix(0.993907 0.11022 0.11022 -0.993907 100.058 74.2781)"/>
</clipPath>
<clipPath id="clip1_1695_35543">
<rect width="20.4358" height="20.4358" fill="white" transform="translate(42.5592 78.9647) rotate(119.97)"/>
</clipPath>
</defs>
</svg>
