<svg width="250" height="250" viewBox="0 0 250 250" fill="none" xmlns="http://www.w3.org/2000/svg">
<path d="M124.954 249.898C193.812 249.898 249.634 193.973 249.634 124.986C249.634 55.9993 193.812 0.0744629 124.954 0.0744629C56.0948 0.0744629 0.273682 55.9993 0.273682 124.986C0.273682 193.973 56.0948 249.898 124.954 249.898Z" fill="#FFFDEE"/>
<path d="M238.071 192.283C240.001 190.55 241.989 188.742 243.062 186.367C244.135 183.992 243.894 180.858 241.897 179.208C239.901 177.558 236.125 178.558 235.842 181.133C235.717 179.683 235.409 178.108 234.303 177.15C233.197 176.192 231.101 176.383 230.677 177.783C233.247 174.008 235.917 169.892 235.767 165.325C235.617 160.758 231.151 156.158 226.867 157.683C225.605 158.219 224.471 159.017 223.54 160.025C219.481 164.023 216.376 168.889 214.457 174.258C214.725 173.718 214.872 173.125 214.889 172.522C214.906 171.919 214.792 171.319 214.554 170.764C214.317 170.209 213.962 169.713 213.514 169.309C213.067 168.905 212.537 168.603 211.961 168.425C211.366 168.327 210.757 168.363 210.178 168.529C209.598 168.696 209.062 168.989 208.609 169.387C208.156 169.785 207.796 170.279 207.556 170.833C207.316 171.387 207.201 171.988 207.22 172.592C207.511 167.983 207.719 163.042 205.282 159.125C202.845 155.208 196.69 153.35 193.637 156.783C192.531 158.19 191.85 159.884 191.674 161.667C191.105 165.149 191.187 168.706 191.915 172.158C191.433 170.003 190.358 168.025 188.813 166.45C187.216 164.958 184.72 164.275 182.791 165.292C179.339 167.117 180.079 172.217 181.318 175.933C180.94 175.349 180.449 174.847 179.875 174.456C179.301 174.064 178.654 173.791 177.973 173.653C177.293 173.515 176.591 173.514 175.91 173.651C175.229 173.788 174.582 174.06 174.007 174.45C171.786 176.158 171.744 180.075 174.007 181.708C174.14 179.9 171.511 178.833 170.073 179.942C168.634 181.05 168.609 183.358 169.632 184.85C168.459 183.183 167.902 181.133 166.787 179.417C165.672 177.7 163.643 176.25 161.68 176.825C159.858 177.358 158.868 179.458 158.976 181.35C159.085 183.242 160.025 184.983 160.939 186.65C161.006 184.983 158.71 183.917 157.246 184.75C155.782 185.583 155.292 187.558 155.691 189.192C156.21 190.803 157.099 192.27 158.286 193.475" fill="white"/>
<path d="M238.296 192.5C241.007 190.067 244.052 187.192 243.952 183.234C243.959 182.433 243.797 181.641 243.475 180.908C243.154 180.176 242.682 179.52 242.089 178.984C241.563 178.579 240.951 178.3 240.301 178.169C239.651 178.037 238.979 178.057 238.337 178.225C237.624 178.359 236.969 178.711 236.461 179.231C235.954 179.751 235.618 180.416 235.501 181.134H236.125C235.967 179.467 235.559 177.275 233.829 176.509C232.565 175.95 230.826 176.284 230.344 177.7C230.227 178.05 230.726 178.225 230.918 177.942C232.856 175.092 234.844 172.109 235.676 168.709C236.094 167.256 236.169 165.726 235.897 164.24C235.624 162.753 235.01 161.35 234.104 160.142C232.44 158.017 229.745 156.475 227.025 157.292C225.444 157.899 224.038 158.89 222.933 160.175C221.742 161.383 220.631 162.666 219.606 164.017C217.283 167.11 215.435 170.534 214.124 174.175C214.008 174.509 214.532 174.725 214.698 174.417C214.977 173.858 215.135 173.246 215.164 172.622C215.192 171.998 215.089 171.374 214.862 170.792C214.634 170.21 214.287 169.683 213.844 169.243C213.4 168.804 212.869 168.463 212.286 168.242C209.607 167.35 206.638 169.859 206.846 172.617C206.858 172.691 206.896 172.758 206.953 172.807C207.01 172.856 207.083 172.882 207.158 172.882C207.233 172.882 207.305 172.856 207.362 172.807C207.42 172.758 207.458 172.691 207.47 172.617C207.811 167.067 208.085 159.884 202.903 156.342C201.958 155.663 200.886 155.182 199.752 154.927C198.617 154.672 197.443 154.649 196.299 154.859C193.595 155.467 192.14 157.809 191.524 160.367C190.672 164.288 190.672 168.346 191.524 172.267L192.132 172.1C191.175 168.617 189.096 164.684 185.011 164.525C184.235 164.484 183.46 164.638 182.758 164.974C182.056 165.311 181.449 165.818 180.994 166.45C180.216 167.694 179.852 169.153 179.954 170.617C180.036 172.451 180.389 174.262 181.002 175.992L181.568 175.75C180.916 174.752 179.965 173.986 178.852 173.563C177.739 173.139 176.52 173.079 175.371 173.392C174.265 173.741 173.32 174.476 172.71 175.465C172.099 176.453 171.863 177.627 172.044 178.775C172.113 179.4 172.309 180.003 172.62 180.549C172.93 181.095 173.348 181.572 173.849 181.95C174.057 182.1 174.315 181.892 174.323 181.684C174.398 179.709 171.944 178.642 170.314 179.409C168.251 180.375 168.268 183.317 169.366 184.984L169.898 184.667C168.035 181.934 167.452 177.95 164.001 176.634C163.343 176.367 162.622 176.298 161.926 176.435C161.23 176.573 160.59 176.911 160.083 177.409C159.151 178.389 158.64 179.696 158.66 181.05C158.66 183.117 159.7 185.017 160.665 186.784C160.701 186.84 160.755 186.884 160.817 186.908C160.88 186.933 160.949 186.936 161.014 186.919C161.079 186.901 161.137 186.863 161.179 186.81C161.221 186.757 161.245 186.693 161.247 186.625C161.222 186.051 161.005 185.502 160.631 185.067C160.257 184.632 159.747 184.335 159.184 184.225C158.607 184.075 157.998 184.106 157.439 184.313C156.88 184.52 156.398 184.894 156.057 185.384C155.678 185.944 155.423 186.578 155.309 187.245C155.194 187.912 155.222 188.595 155.391 189.25C155.928 190.914 156.845 192.429 158.07 193.675C158.328 193.984 158.769 193.534 158.511 193.234C156.914 191.375 155.034 188.842 156.24 186.284C156.44 185.787 156.798 185.371 157.258 185.098C157.718 184.826 158.255 184.712 158.785 184.775C159.261 184.814 159.708 185.021 160.045 185.36C160.382 185.699 160.587 186.148 160.623 186.625L161.206 186.467C159.858 184.017 158.195 180.709 160.249 178.134C160.668 177.632 161.237 177.278 161.872 177.125C162.507 176.972 163.175 177.027 163.776 177.284C165.16 177.883 166.284 178.959 166.945 180.317C167.777 181.875 168.376 183.584 169.382 185.059C169.607 185.392 170.139 185.059 169.915 184.742C169.033 183.4 168.875 181.084 170.447 180.125C171.661 179.392 173.774 180.192 173.716 181.792L174.182 181.517C172.119 179.984 172.16 176.517 174.082 174.85C176.178 173.075 179.646 173.917 181.044 176.15C181.227 176.434 181.734 176.259 181.618 175.909C180.786 173.409 179.996 170.234 181.077 167.684C181.343 167.019 181.781 166.438 182.345 165.999C182.909 165.559 183.58 165.278 184.288 165.184C185.127 165.116 185.971 165.239 186.757 165.542C187.543 165.845 188.251 166.32 188.829 166.934C190.171 168.452 191.099 170.292 191.524 172.275C191.552 172.349 191.606 172.41 191.676 172.446C191.747 172.482 191.828 172.491 191.904 172.47C191.98 172.449 192.046 172.4 192.088 172.333C192.13 172.267 192.145 172.186 192.132 172.109C191.426 168.741 191.339 165.274 191.874 161.875C192.281 159.375 193.196 156.584 195.833 155.659C196.892 155.348 198.006 155.271 199.097 155.434C200.188 155.597 201.232 155.994 202.155 156.6C204.303 157.994 205.823 160.174 206.388 162.675C207.22 165.909 207.062 169.342 206.854 172.625H207.478C207.303 170.275 209.815 168.067 212.128 168.85C212.62 169.045 213.066 169.339 213.439 169.715C213.812 170.09 214.103 170.539 214.294 171.033C214.486 171.527 214.573 172.055 214.551 172.584C214.529 173.113 214.398 173.632 214.166 174.109L214.74 174.35C216.362 169.811 218.844 165.629 222.051 162.034C223.087 160.783 224.271 159.664 225.578 158.7C226.157 158.284 226.816 157.992 227.513 157.842C228.209 157.691 228.93 157.685 229.629 157.825C230.904 158.153 232.059 158.842 232.956 159.809C233.959 160.867 234.687 162.156 235.076 163.563C235.465 164.97 235.502 166.451 235.185 167.875C234.494 171.492 232.373 174.65 230.344 177.642L230.91 177.884C231.309 176.734 232.906 176.667 233.796 177.234C235.06 178.067 235.343 179.792 235.459 181.15C235.471 181.224 235.51 181.292 235.567 181.34C235.624 181.389 235.696 181.416 235.771 181.416C235.846 181.416 235.919 181.389 235.976 181.34C236.033 181.292 236.071 181.224 236.083 181.15C236.416 178.609 240.101 178.067 241.764 179.584C244.143 181.759 243.428 185.5 241.764 187.875C240.612 189.423 239.274 190.822 237.78 192.042C237.472 192.309 237.921 192.75 238.221 192.484L238.296 192.5Z" fill="black"/>
<path d="M152.755 243.95H242.812C244.879 243.95 246.555 242.271 246.555 240.2V196.225C246.555 194.154 244.879 192.475 242.812 192.475H152.755C150.687 192.475 149.012 194.154 149.012 196.225V240.2C149.012 242.271 150.687 243.95 152.755 243.95Z" fill="#FDEAE8"/>
<path d="M246.555 235.617V240.233C246.553 241.227 246.158 242.18 245.457 242.883C244.755 243.585 243.804 243.981 242.812 243.983H152.755C151.762 243.983 150.81 243.588 150.108 242.885C149.406 242.182 149.012 241.228 149.012 240.233V235.617H246.555Z" fill="#FBD6D2"/>
<path d="M152.755 243.95H242.812C244.879 243.95 246.555 242.271 246.555 240.2V196.225C246.555 194.154 244.879 192.475 242.812 192.475H152.755C150.687 192.475 149.012 194.154 149.012 196.225V240.2C149.012 242.271 150.687 243.95 152.755 243.95Z" stroke="black" stroke-width="0.75" stroke-miterlimit="10"/>
<path d="M115.873 108.384L115.216 107.85L116.539 100.675L109.211 100.984L107.797 107.85L105.16 113.284L105.426 114.4C105.887 116.342 105.589 118.387 104.594 120.117L100.103 127.85L97.8151 116.717C97.0416 111.792 89.2976 112.234 83.1174 115.825L79.5158 119.675C75.648 117.775 73.3606 116.55 69.2515 117.859L67.9207 118.275L68.6277 112.759L73.1609 109.85C73.6472 109.349 74.0042 108.737 74.2007 108.067L74.8661 101.7C74.8763 101.577 74.8591 101.454 74.816 101.339C74.7728 101.224 74.7047 101.119 74.6166 101.034L70.99 92.8502L62.564 89.5168C61.2249 89.5168 59.9407 90.0498 58.9938 90.9984C58.047 91.947 57.515 93.2336 57.515 94.5752V104.784C57.5151 105.687 57.7566 106.574 58.2144 107.352C58.6723 108.13 59.3297 108.771 60.1185 109.209C61.3579 109.9 60.3265 111.125 59.7193 112.409L58.4716 118.475L58.9124 118.942L57.0575 117.65C51.7674 114.084 46.5354 117.967 45.2462 124.225L43.6741 131.909C42.8423 136.075 44.2979 148.275 44.2979 148.275C44.2979 148.275 48.6149 147.075 52.674 145.817C44.4643 148.725 44.3561 157.275 50.7276 164.592L53.8635 166.792C55.8099 167.625 58.5381 166.925 60.5178 166.117C65.5085 164.067 82.1442 152.583 82.1442 152.583L85.5379 149.334C86.546 150.378 87.7693 151.19 89.1225 151.713C90.4758 152.236 91.9266 152.458 93.3738 152.362C94.8211 152.266 96.2301 151.855 97.5028 151.158C98.7755 150.461 99.8812 149.494 100.743 148.325C104.278 143.492 107.93 137.934 108.695 134.634L111.456 120.15L116.447 111.159C116.69 110.702 116.765 110.174 116.661 109.667C116.556 109.16 116.277 108.706 115.873 108.384ZM93.8974 136.992C93.8974 138.542 93.4399 135.775 93.4399 135.775L93.3068 133.967L92.683 132.442L97.0083 131.042C97.0083 131.042 93.8974 135.442 93.8974 136.992Z" fill="white"/>
<path d="M90.9778 222.417L84.3236 221.717C81.9862 221.2 79.6739 219.492 81.7616 217L87.3845 199.725L90.7616 182.817L68.7026 186.6C60.9171 184.508 54.4458 183.267 57.8894 167.242L71.7719 159.583L82.843 152.083L87.2847 156.492L95.6691 152.942C98.4723 149.742 133.174 143.208 113.403 182.4L101.018 206.783L90.9778 222.417Z" fill="#FFA198"/>
<path d="M119.841 178.85L140.777 196.45L172.011 216.6C174.647 218.842 181.027 216.442 181.776 213.058L181.634 211.017L151.382 178.267L139.197 167.542C134.663 162.717 127.843 158.742 121.363 160.042L119.067 160.5L119.841 178.85Z" fill="#FFA198"/>
<path d="M139.197 167.542C139.197 167.542 166.737 163.258 191.924 189.875C198.866 197.155 204.668 205.447 209.133 214.467C210.67 217.583 211.388 221.041 211.219 224.512C211.05 227.984 209.999 231.355 208.167 234.307C206.335 237.258 203.782 239.693 200.749 241.381C197.716 243.068 194.303 243.952 190.834 243.95H78.5426C64.9256 243.887 51.579 240.136 39.916 233.095C28.253 226.053 18.7077 215.983 12.2908 203.95C0.496027 181.4 -0.0446339 149.967 12.9728 127.733C20.4589 114.917 34.8073 104.733 50.162 106.433C53.747 106.825 58.3552 108.625 59.7026 112.375L58.6712 117.433C58.6712 117.433 58.8293 118.658 57.5816 117.767C56.3339 116.875 49.9291 114.15 47.1094 119.208C45.3388 122.65 44.2807 126.414 43.9985 130.275C43.9985 130.275 43.3747 136.875 43.4246 139C43.4745 141.125 44.3146 152.917 46.9513 158.109C49.5881 163.3 49.4467 164.658 53.8385 166.792C54.5227 166.998 55.2244 167.14 55.9347 167.217C56.6417 167.217 57.8394 168.217 57.382 169.175C56.7096 170.25 56.3923 171.51 56.4753 172.775C56.6084 174.492 56.3755 176.642 57.906 179.625C59.4365 182.608 60.4596 183.875 63.3625 185.517C66.2655 187.159 75.0075 186.083 75.0075 186.083L86.4446 183.583C86.4446 183.583 90.9695 182.025 90.7449 182.75C90.5204 183.475 88.9067 189.867 88.8235 191.483C88.7403 193.1 85.2053 208 84.6646 209.642C84.1239 211.283 82.1692 216.1 81.77 216.933C81.3707 217.767 80.697 219.067 80.697 219.067L81.6369 220.358C81.3374 220.558 79.624 221.617 79.4659 222.508C79.3079 223.4 80.2228 225.633 80.2228 226.325C80.0959 227.571 79.8166 228.797 79.3911 229.975C79.0667 230.692 78.8088 232.158 79.4826 232.8C79.7559 233.011 79.9827 233.275 80.1488 233.578C80.3149 233.881 80.4165 234.215 80.4474 234.559C80.4474 235.108 80.7801 236.309 80.8217 236.825C80.8633 237.342 83.0759 238.733 86.0287 239.008C88.9816 239.283 90.1294 237.8 89.0564 235.908C88.0893 233.772 87.5874 231.454 87.5842 229.108C87.6673 227.908 88.0001 224.425 89.5971 222.725C89.9572 222.711 90.3097 222.617 90.6291 222.45C90.9485 222.283 91.2267 222.047 91.4436 221.758C92.1257 220.8 95.902 215.175 95.902 215.175C95.902 215.175 107.464 195.817 109.543 190.617C110.638 187.801 111.908 185.057 113.345 182.4C113.345 182.4 114.401 178.742 116.747 178.975C119.092 179.208 123.609 177.558 128.991 183.3C134.372 189.042 134.963 193.017 140.777 196.483C146.591 199.95 155.633 204.567 155.749 204.625C155.866 204.683 166.562 210.659 168.841 213.258C171.121 215.858 171.936 216.675 172.476 216.892C173.017 217.108 175.754 216.892 175.695 218.483C175.637 220.075 174.606 220.983 176.81 222.092C179.014 223.2 181.21 222.358 182.075 223.358C182.832 224.314 183.935 224.931 185.145 225.075C186.118 225.075 188.68 224.283 189.378 225.075C190.077 225.867 194.369 225.817 196.124 221.7C197.879 217.583 198.037 216.95 195.009 217.375C191.982 217.8 185.028 214.933 184.762 214.8C184.496 214.667 181.817 213.383 181.784 212.442C181.784 211.838 181.653 211.241 181.401 210.693C181.148 210.145 180.779 209.658 180.32 209.267C179.047 207.975 158.461 186.567 157.862 185.892C157.263 185.217 144.395 171.95 143.846 171.45C143.297 170.95 139.197 167.542 139.197 167.542Z" fill="#E9F7FF"/>
<path d="M43.9985 130.275C43.9985 130.275 43.3747 136.875 43.4246 139C43.4745 141.125 44.3146 152.917 46.9513 158.108C49.5881 163.3 49.4467 164.658 53.8385 166.792C54.5227 166.998 55.2244 167.14 55.9346 167.217C56.6417 167.217 57.8394 168.217 57.382 169.175C56.7095 170.25 56.3923 171.51 56.4753 172.775C56.6084 174.492 56.3755 176.642 57.906 179.625C59.4365 182.608 60.4596 183.875 63.3625 185.517C66.2654 187.158 75.0075 186.083 75.0075 186.083L86.4446 183.583C86.4446 183.583 90.9695 182.025 90.7449 182.75C90.5204 183.475 88.9067 189.867 88.8235 191.483C88.7403 193.1 85.2052 208 84.6646 209.642C84.1239 211.283 82.1692 216.1 81.77 216.933C81.3707 217.767 80.697 219.067 80.697 219.067L81.6369 220.358C81.3374 220.558 79.624 221.617 79.4659 222.508C79.3079 223.4 80.2228 225.633 80.2228 226.325C80.0959 227.571 79.8166 228.797 79.391 229.975C79.0667 230.692 78.8088 232.158 79.4825 232.8C79.7559 233.011 79.9827 233.275 80.1488 233.578C80.3149 233.881 80.4165 234.215 80.4474 234.559C80.4474 235.109 80.7801 236.309 80.8217 236.825C80.8633 237.342 83.0759 238.734 86.0287 239.008C88.9816 239.284 90.1294 237.8 89.0564 235.909C88.0893 233.772 87.5874 231.454 87.5842 229.108C87.6673 227.908 88 224.425 89.5971 222.717C89.9567 222.705 90.3092 222.613 90.6287 222.447C90.9483 222.281 91.2267 222.046 91.4436 221.758C92.1257 220.8 95.902 215.175 95.902 215.175C95.902 215.175 107.464 195.817 109.543 190.617C110.638 187.801 111.908 185.057 113.345 182.4C113.345 182.4 114.401 178.742 116.747 178.975C119.092 179.208 123.609 177.558 128.991 183.3C134.372 189.042 134.963 193.017 140.777 196.483C146.591 199.95 155.633 204.567 155.749 204.625C155.866 204.683 166.562 210.659 168.841 213.259C171.121 215.859 171.936 216.675 172.476 216.892C173.017 217.108 175.754 216.892 175.695 218.483C175.637 220.075 174.606 220.983 176.81 222.092C179.014 223.2 181.21 222.358 182.075 223.358C182.832 224.314 183.935 224.931 185.144 225.075C186.118 225.075 188.68 224.284 189.378 225.075C190.077 225.867 194.369 225.817 196.124 221.7C196.307 221.292 196.457 220.933 196.598 220.592C196.864 222.208 196.224 224.575 194.802 227.4C192.225 232.412 188.314 236.612 183.501 239.533C178.689 242.454 173.163 243.983 167.536 243.95H95.1701C92.3348 243.954 89.5341 243.327 86.9706 242.113C84.4071 240.9 82.1449 239.13 80.3476 236.933C33.6594 179.592 43.9985 130.275 43.9985 130.275Z" fill="#D6F0FB"/>
<path d="M43.4246 139C43.4246 141.133 44.3146 152.917 46.9514 158.108C49.5882 163.3 49.4468 164.658 53.8386 166.792C54.5227 166.998 55.2244 167.14 55.9347 167.217C56.6417 167.217 57.8395 168.217 57.382 169.175C56.7096 170.25 56.3924 171.509 56.4754 172.775C56.6085 174.492 56.3756 176.642 57.906 179.625C59.4365 182.608 60.4596 183.875 63.3626 185.517C66.2655 187.158 75.0076 186.083 75.0076 186.083L86.4447 183.583C86.4447 183.583 90.9696 182.025 90.745 182.75C90.5204 183.475 88.9068 189.867 88.8236 191.483C88.8236 192.417 87.5759 197.783 86.4613 202.467H78.2183C71.8467 202.476 65.6355 200.466 60.4735 196.724C55.3115 192.982 51.4635 187.7 49.48 181.633C40.1557 152.85 43.5577 132.558 43.957 130.408C43.8821 131.575 43.383 137.092 43.4246 139Z" fill="#A7E1FF"/>
<path d="M103.255 202.533C105.992 197.717 108.653 192.85 109.543 190.608C110.638 187.793 111.908 185.049 113.345 182.392C113.345 182.392 114.401 178.733 116.747 178.967C119.092 179.2 123.609 177.55 128.99 183.292C134.372 189.033 134.963 193.008 140.777 196.475C144.104 198.483 148.571 200.867 151.74 202.533H103.255Z" fill="#A7E1FF"/>
<path d="M70.649 98.75C70.5311 98.8285 70.4422 98.9435 70.3956 99.0774C70.349 99.2113 70.3475 99.3568 70.3911 99.4917C70.4059 99.5665 70.4357 99.6375 70.4786 99.7005C70.5214 99.7635 70.5766 99.8172 70.6407 99.8583C70.7052 99.8942 70.7793 99.9086 70.8526 99.8997C70.9258 99.8907 70.9943 99.8587 71.0482 99.8083C71.0869 99.7653 71.1154 99.714 71.1314 99.6583C71.148 99.5955 71.148 99.5295 71.1314 99.4667C71.1185 99.4155 71.1019 99.3654 71.0815 99.3167L71.015 99.15C70.9905 99.0788 70.9439 99.0175 70.8819 98.975C70.8172 98.9403 70.7419 98.9314 70.671 98.9499C70.6001 98.9685 70.5388 99.0131 70.4993 99.075C70.4701 99.1472 70.4701 99.2278 70.4993 99.3L70.5658 99.4667C70.5937 99.5159 70.6134 99.5694 70.624 99.625V99.4917V99.425V99.3667H70.6822H70.7488H70.8237H70.8985H70.9651L71.015 99.4083L71.0649 99.4667C71.0406 99.4364 71.021 99.4027 71.0066 99.3667V99.4333C71.0019 99.3918 71.0019 99.3499 71.0066 99.3083V99.3833C70.9985 99.3477 70.9985 99.3106 71.0066 99.275V99.35V99.2583V99.325C71.0026 99.303 71.0026 99.2804 71.0066 99.2583V99.3167C71.0156 99.2918 71.0334 99.271 71.0566 99.2583L70.9983 99.3083C71.0308 99.2912 71.0593 99.2676 71.0822 99.2389C71.1051 99.2102 71.1219 99.1771 71.1314 99.1417C71.1601 99.0723 71.1601 98.9944 71.1314 98.925C71.1157 98.8915 71.0926 98.8621 71.0637 98.8389C71.0349 98.8158 71.0011 98.7996 70.9651 98.7917C70.8951 98.7669 70.8188 98.7669 70.7488 98.7917L70.649 98.75Z" fill="black"/>
<path d="M63.3043 103.492C62.5695 103.525 61.8411 103.342 61.2082 102.967C60.5426 102.602 60.0293 102.011 59.7609 101.3C59.6985 101.131 59.6731 100.95 59.6865 100.77C59.6998 100.59 59.7517 100.416 59.8385 100.257C59.9252 100.099 60.0449 99.9619 60.1894 99.8542C60.3339 99.7466 60.4998 99.6713 60.6759 99.6335C61.0246 99.5866 61.3795 99.64 61.6991 99.7875C62.0187 99.9351 62.2899 100.171 62.4808 100.467C62.6971 100.759 63.1878 100.467 62.9716 100.184C62.7741 99.8784 62.5166 99.6169 62.2149 99.4149C61.9131 99.2128 61.5734 99.0746 61.2165 99.0085C60.8803 98.9607 60.5374 99.0035 60.2231 99.1323C59.9089 99.2612 59.6345 99.4716 59.4282 99.7418C59.2258 100.071 59.1187 100.451 59.1187 100.838C59.1187 101.225 59.2258 101.604 59.4282 101.934C59.784 102.576 60.311 103.107 60.9503 103.467C61.6633 103.883 62.4796 104.089 63.3043 104.059C63.6703 104.059 63.6703 103.475 63.3043 103.492Z" fill="black"/>
<path d="M60.7175 101.008C60.7637 100.922 60.8401 100.855 60.9321 100.821C61.0241 100.788 61.1254 100.789 61.2165 100.825C61.4276 100.911 61.6177 101.042 61.7738 101.208C62.1107 101.519 62.392 101.886 62.6056 102.292C62.6056 102.375 62.772 102.292 62.7304 102.225C62.4942 101.749 62.1662 101.324 61.7655 100.975C61.5925 100.802 61.3674 100.691 61.125 100.658C61.0244 100.651 60.9239 100.675 60.8365 100.725C60.7491 100.776 60.6787 100.851 60.6343 100.942C60.6343 101.025 60.7175 101.092 60.759 101.008H60.7175Z" fill="black"/>
<path d="M61.5825 101.558C61.5681 101.524 61.5681 101.485 61.5825 101.45C61.6159 101.423 61.6562 101.406 61.6989 101.4C61.7554 101.398 61.8119 101.407 61.8648 101.427C61.9177 101.447 61.966 101.477 62.0067 101.517C62.0129 101.524 62.0206 101.53 62.0292 101.533C62.0378 101.537 62.0471 101.539 62.0566 101.539C62.066 101.539 62.0754 101.537 62.084 101.533C62.0926 101.53 62.1002 101.524 62.1065 101.517C62.1188 101.503 62.1256 101.485 62.1256 101.467C62.1256 101.448 62.1188 101.431 62.1065 101.417C62.048 101.361 61.9785 101.319 61.9027 101.291C61.8268 101.264 61.7461 101.253 61.6656 101.258C61.5928 101.268 61.526 101.304 61.4772 101.359C61.4283 101.414 61.4008 101.485 61.3995 101.558C61.4046 101.573 61.4141 101.586 61.4268 101.595C61.4395 101.604 61.4546 101.609 61.4702 101.609C61.4857 101.609 61.5009 101.604 61.5135 101.595C61.5262 101.586 61.5358 101.573 61.5409 101.558H61.5825Z" fill="black"/>
<path d="M69.8338 97.2251C69.8733 97.1923 69.9184 97.1669 69.9669 97.1501H70.0251L70.2996 97.0668H70.3662C70.441 97.0668 70.3163 97.0668 70.3662 97.0668H70.7654C70.7155 97.0668 70.7155 97.0668 70.7654 97.0668C70.8347 97.0955 70.9125 97.0955 70.9817 97.0668C71.0455 97.0301 71.093 96.9705 71.1148 96.9001C71.1329 96.8273 71.1222 96.7502 71.085 96.685C71.0479 96.6198 70.987 96.5715 70.9152 96.5501C70.4352 96.4693 69.9422 96.5639 69.5261 96.8168C69.4613 96.8536 69.4137 96.9144 69.3934 96.9862C69.3732 97.058 69.382 97.1348 69.4179 97.2001C69.4562 97.2656 69.5185 97.3135 69.5915 97.3337C69.6645 97.354 69.7425 97.3449 69.8089 97.3085L69.8338 97.2251Z" fill="black"/>
<path d="M69.6757 90.375C71.1844 93.031 72.4457 95.8206 73.4437 98.7083V98.7083C73.7788 99.6401 74.265 100.51 74.8827 101.283C74.9438 101.334 74.993 101.398 75.0267 101.47C75.0604 101.542 75.0779 101.62 75.0779 101.7C75.0779 101.78 75.0604 101.858 75.0267 101.93C74.993 102.002 74.9438 102.066 74.8827 102.117V102.117C74.7603 102.215 74.6649 102.344 74.6052 102.489C74.5456 102.635 74.5237 102.794 74.5417 102.95C74.891 105.333 74.7995 108.008 73.2108 109.8C72.3142 110.748 71.1455 111.392 69.8667 111.645C68.5879 111.897 67.2625 111.745 66.0741 111.208" stroke="black" stroke-width="0.680733" stroke-miterlimit="10"/>
<path d="M60.4929 105.95C59.9272 110.117 59.0788 114.283 58.1805 118.367C58.1056 118.725 58.6463 118.875 58.7295 118.517C59.6195 114.408 60.4679 110.275 61.0418 106.1C61.0918 105.742 60.5428 105.592 60.4929 105.95Z" fill="black"/>
<path d="M68.7026 111.709C67.8984 114.346 67.5523 117.103 67.6795 119.859C67.6795 120.225 68.2617 120.225 68.2451 119.859C68.1177 117.154 68.4553 114.448 69.2432 111.859C69.3514 111.509 68.8107 111.367 68.7026 111.709Z" fill="black"/>
<path d="M66.3071 111.45C66.9892 111.925 67.6962 112.383 68.4032 112.825C68.4468 112.836 68.4926 112.836 68.5363 112.825C68.5363 112.825 68.5945 112.75 68.6111 112.708L68.8274 112C68.8274 111.958 68.8274 111.908 68.8274 111.883C68.806 111.875 68.7823 111.875 68.7609 111.883C68.4839 111.865 68.206 111.865 67.9291 111.883C67.3476 111.831 66.7822 111.664 66.2655 111.392" fill="black"/>
<path d="M66.1574 111.708L67.3302 112.492L67.9291 112.875C68.1121 112.992 68.345 113.2 68.5779 113.15C68.8108 113.1 68.8857 112.842 68.9522 112.617L69.052 112.292C69.0947 112.186 69.1173 112.073 69.1186 111.958C69.1186 111.633 68.7526 111.608 68.503 111.608C68.2535 111.608 68.0289 111.608 67.796 111.608C67.3095 111.537 66.8376 111.388 66.3986 111.167C66.3344 111.13 66.2584 111.12 66.1869 111.139C66.1154 111.157 66.0541 111.203 66.016 111.267C65.9965 111.299 65.9837 111.335 65.9782 111.372C65.9726 111.409 65.9746 111.447 65.9839 111.484C65.9932 111.52 66.0096 111.554 66.0323 111.584C66.0549 111.614 66.0833 111.639 66.1158 111.658C66.5188 111.849 66.9395 112 67.3718 112.108C67.5951 112.162 67.8243 112.187 68.0539 112.183H68.7027L68.6028 112.083V111.942C68.6077 111.986 68.6077 112.031 68.6028 112.075L68.528 112.308L68.4614 112.525V112.617C68.4625 112.636 68.4625 112.656 68.4614 112.675C68.4614 112.742 68.4614 112.675 68.5529 112.583H68.7027C68.6181 112.547 68.5373 112.502 68.4614 112.45L68.2119 112.292L67.6546 111.933L66.5733 111.2C66.5082 111.161 66.4304 111.15 66.3571 111.169C66.2838 111.188 66.2209 111.235 66.1823 111.3C66.1437 111.365 66.1325 111.443 66.1513 111.517C66.17 111.59 66.2171 111.653 66.2821 111.692L66.1574 111.708Z" fill="black"/>
<path d="M72.3042 103.4C72.3261 103.357 72.3388 103.309 72.3413 103.261C72.3439 103.212 72.3363 103.163 72.3191 103.118C72.3019 103.072 72.2754 103.031 72.2413 102.996C72.2073 102.962 72.1663 102.935 72.1212 102.917C71.4059 102.608 69.7423 101.958 69.5011 102.417C69.1933 103 69.8421 104.5 71.0316 104.683C71.8883 104.783 72.0297 103.95 72.3042 103.4Z" fill="black" stroke="black" stroke-width="0.680733" stroke-miterlimit="10"/>
<path d="M51.7591 96.7169C56.65 88.2669 62.6306 89.3836 62.6306 89.3836C62.6306 89.3836 66.9226 86.5169 70.5242 89.5669C74.1259 92.6169 74.2257 95.1335 72.6536 96.4752L71.6305 94.4086C69.1934 93.8586 67.222 92.5586 65.1675 91.1336C65.6227 91.924 65.8664 92.8187 65.8751 93.7312C65.8839 94.6436 65.6573 95.5429 65.2174 96.3419C64.4645 97.6633 63.5661 98.896 62.5391 100.017C62.4524 99.8203 62.3192 99.6477 62.1511 99.5142C61.983 99.3806 61.785 99.29 61.5742 99.2502C61.1517 99.1629 60.7158 99.1629 60.2932 99.2502C60.1011 99.2734 59.9165 99.3389 59.7526 99.4419C59.5462 99.6154 59.4102 99.8584 59.3699 100.125C59.2879 100.527 59.3025 100.944 59.4124 101.339C59.5223 101.735 59.7244 102.098 60.0021 102.4C60.4346 102.85 60.9836 103.234 61.1749 103.234C61.3662 103.234 61.2581 104.2 61.2498 104.417C61.0287 108.115 61.3085 111.827 62.0816 115.45C58.2803 115.059 52.9319 112.95 52.4245 112.792L53.9633 107.467L51.2767 112.534C48.6216 111.519 46.0633 110.267 43.6325 108.792C41.7111 107.725 46.8765 105.167 51.7591 96.7169Z" fill="black"/>
<path d="M52.0086 96.8585C54.0465 93.3752 57.357 89.7585 61.6906 89.6169H62.2646H62.4476C62.4476 89.6169 62.5973 89.6169 62.5058 89.6169C62.8075 89.5652 63.0926 89.4424 63.3376 89.2585C64.4461 88.6251 65.7206 88.3441 66.9921 88.4528C68.2636 88.5614 69.4722 89.0545 70.4577 89.8669C72.1212 91.2669 74.6998 94.2419 72.429 96.2419L72.8699 96.2919L72.271 95.0835C72.1545 94.8419 72.0464 94.5835 71.905 94.3502C71.7636 94.1169 71.697 94.1085 71.4142 94.0335C69.1977 93.3511 67.1213 92.2758 65.284 90.8585C65.0427 90.6919 64.7683 91.0085 64.9013 91.2419C65.2919 91.9253 65.5205 92.6895 65.5695 93.4755C65.6185 94.2616 65.4867 95.0483 65.1841 95.7752C64.449 97.2656 63.4865 98.632 62.3311 99.8252L62.7803 99.8835C62.6255 99.6031 62.3992 99.3689 62.1244 99.2049C61.8497 99.0409 61.5363 98.953 61.2165 98.9502C60.5844 98.9502 59.6694 99.0002 59.3034 99.6002C58.4716 100.9 59.4365 102.475 60.4846 103.267C60.5988 103.363 60.7246 103.444 60.8589 103.509C60.9469 103.533 61.0331 103.563 61.1167 103.6C60.9836 103.425 61.0252 103.842 61.0169 103.875C61.0086 103.909 61.0169 104.159 61.0169 104.292C61.0169 104.742 60.967 105.192 60.9504 105.634C60.9504 106.959 60.9503 108.275 61.0086 109.592C61.1398 111.615 61.4178 113.626 61.8404 115.609L62.1149 115.25C58.7877 114.892 55.6935 113.584 52.5327 112.6L52.7323 112.95L54.2628 107.625C54.2793 107.559 54.2717 107.49 54.2415 107.429C54.2112 107.369 54.1603 107.321 54.0979 107.295C54.0355 107.269 53.9658 107.266 53.9014 107.286C53.8371 107.307 53.7823 107.351 53.7471 107.409L51.0687 112.475L51.3848 112.342C50.4033 111.992 49.4467 111.567 48.4985 111.125C47.5503 110.684 46.5022 110.15 45.529 109.617C44.9379 109.32 44.3631 108.992 43.8072 108.634C43.7081 108.582 43.6248 108.504 43.566 108.409C43.3081 107.934 44.2231 107.025 44.5226 106.684C45.5041 105.534 46.5438 104.442 47.5087 103.284C49.1944 101.275 50.7055 99.1254 52.0253 96.8585C52.0438 96.8262 52.0559 96.7906 52.0607 96.7537C52.0655 96.7167 52.063 96.6792 52.0534 96.6432C52.0437 96.6072 52.0271 96.5735 52.0044 96.544C51.9818 96.5144 51.9535 96.4896 51.9213 96.471C51.8891 96.4524 51.8535 96.4404 51.8166 96.4355C51.7798 96.4307 51.7423 96.4332 51.7064 96.4429C51.6705 96.4525 51.6368 96.4692 51.6073 96.4919C51.5778 96.5146 51.5531 96.5429 51.5345 96.5752C50.2525 98.777 48.789 100.868 47.1593 102.825C46.1196 104.067 44.9967 105.225 43.9569 106.467C43.5327 106.975 42.7841 107.767 43.0004 108.509C43.1252 108.959 43.591 109.167 43.9653 109.384C45.0882 110.042 46.2277 110.65 47.4005 111.225C48.6466 111.852 49.9268 112.409 51.2351 112.892C51.2962 112.909 51.3615 112.906 51.4204 112.882C51.4793 112.857 51.5283 112.814 51.5595 112.759L54.2378 107.7L53.7221 107.475L52.1833 112.8C52.1652 112.873 52.1759 112.95 52.2131 113.015C52.2502 113.081 52.3111 113.129 52.3829 113.15C55.5936 114.184 58.7212 115.45 62.1149 115.817C62.3062 115.817 62.4143 115.617 62.381 115.459C61.7846 112.648 61.489 109.782 61.4993 106.909C61.4993 106.075 61.4993 105.192 61.5825 104.334C61.6692 103.963 61.646 103.575 61.516 103.217C61.4245 103.075 61.308 103.084 61.1666 103.017C60.8525 102.859 60.5704 102.645 60.3348 102.384C60.0287 102.101 59.8068 101.738 59.6938 101.337C59.5807 100.935 59.5809 100.51 59.6944 100.109C59.8773 99.5585 60.626 99.5002 61.125 99.5169C61.3674 99.5065 61.6076 99.5662 61.817 99.6888C62.0265 99.8115 62.1963 99.9919 62.3062 100.209C62.328 100.245 62.3579 100.277 62.3936 100.301C62.4294 100.324 62.47 100.339 62.5124 100.345C62.5549 100.351 62.5981 100.347 62.6387 100.333C62.6793 100.319 62.7164 100.297 62.747 100.267C64.0375 98.9619 65.0828 97.4347 65.8329 95.7585C66.1079 94.9797 66.2116 94.1505 66.1369 93.3278C66.0623 92.5051 65.811 91.7083 65.4004 90.9919L65.0178 91.3835C66.7589 92.7066 68.6953 93.7497 70.7571 94.4752L71.1065 94.5669C71.1564 94.5669 71.4891 94.6252 71.381 94.5669C71.381 94.5669 71.381 94.6752 71.4475 94.7085C71.5805 94.9361 71.6972 95.1728 71.7969 95.4169L72.4041 96.6335C72.4259 96.6704 72.4558 96.7019 72.4915 96.7255C72.5273 96.7492 72.5679 96.7644 72.6103 96.77C72.6528 96.7756 72.696 96.7715 72.7366 96.758C72.7772 96.7444 72.8143 96.7218 72.8449 96.6919C74.6083 95.1419 73.8015 92.8169 72.5455 91.2252C71.5537 89.8203 70.1708 88.7392 68.5695 88.1169C67.3024 87.7377 65.9522 87.7377 64.6851 88.1169C64.2057 88.2532 63.7383 88.4288 63.2877 88.6419C63.015 88.7261 62.7609 88.8619 62.5391 89.0419C62.4476 89.1752 62.6638 88.9669 62.6971 89.0419C62.7304 89.1169 62.5557 89.0419 62.5474 89.0419C62.4144 89.0336 62.2811 89.0336 62.1481 89.0419C60.7471 89.0219 59.3615 89.3361 58.1056 89.9585C55.2193 91.3085 53.1149 93.8669 51.5179 96.5669C51.4793 96.6321 51.4681 96.71 51.4868 96.7834C51.5055 96.8569 51.5526 96.9199 51.6177 96.9585C51.6828 96.9972 51.7605 97.0084 51.8338 96.9896C51.9072 96.9709 51.97 96.9237 52.0086 96.8585Z" fill="black"/>
<path d="M72.246 110.667C72.629 112.326 73.1407 113.954 73.7765 115.533C74.3587 116.517 68.2867 116.158 68.1619 116.083C68.0372 116.008 68.4863 111.508 69.4263 111.792C70.3662 112.075 72.246 110.667 72.246 110.667Z" fill="black" stroke="black" stroke-width="0.680733" stroke-miterlimit="10"/>
<path d="M85.4631 133.825C82.5066 139.849 79.0772 145.628 75.2071 151.108C73.2025 153.858 71.0482 156.483 68.7857 159.033C66.332 161.8 63.7451 164.867 60.2183 166.217C58.4695 166.958 56.5352 167.141 54.6786 166.742C52.95 166.28 51.423 165.257 50.3367 163.833C49.2642 162.424 48.3857 160.877 47.7249 159.233C46.9416 157.429 46.2775 155.575 45.7369 153.683C43.6468 146.067 43.1512 138.1 44.2813 130.283C44.5355 128.224 44.9499 126.187 45.5207 124.192C45.9262 122.657 46.5155 121.177 47.2757 119.783C47.9413 118.506 49.0554 117.52 50.4032 117.017C52.1211 116.596 53.9239 116.683 55.5936 117.267C56.4717 117.532 57.3108 117.913 58.089 118.4C58.3967 118.592 58.6878 118.1 58.3718 117.908C56.7803 116.947 54.9849 116.376 53.1315 116.242C51.5893 116.032 50.0242 116.403 48.7397 117.283C47.646 118.171 46.7887 119.316 46.2443 120.617C45.5254 122.27 44.9682 123.989 44.5807 125.75C43.6616 129.853 43.1985 134.045 43.2 138.25C43.1541 142.294 43.5446 146.332 44.3645 150.292C45.1469 154.237 46.4738 158.054 48.3071 161.633C49.9707 164.758 52.5742 167.383 56.3006 167.467C60.1934 167.592 63.5455 165.308 66.1989 162.667C68.8676 159.98 71.3677 157.13 73.685 154.133C77.8967 148.655 81.5918 142.796 84.7228 136.633C85.172 135.8 85.6128 134.917 86.0536 134.058C86.2117 133.733 85.7292 133.45 85.5629 133.775L85.4631 133.825Z" fill="black"/>
<path d="M90.0962 124.558C89.6731 125.506 89.3928 126.511 89.2644 127.542C89.1825 128.412 88.981 129.268 88.6655 130.083C88.0164 131.585 86.929 132.854 85.5463 133.725C85.2219 133.892 85.5463 134.383 85.8291 134.208C87.2334 133.338 88.3524 132.075 89.0481 130.575C89.9631 128.783 89.7053 126.667 90.5703 124.842C90.7284 124.517 90.2376 124.225 90.0796 124.558H90.0962Z" fill="black"/>
<path d="M88.574 121.558C88.0668 122.366 87.6696 123.237 87.3929 124.15C87.3831 124.218 87.3985 124.288 87.4361 124.345C87.4738 124.403 87.5311 124.445 87.5973 124.463C87.6636 124.482 87.7343 124.475 87.7962 124.445C87.8581 124.415 87.9069 124.364 87.9335 124.3C88.2015 123.439 88.5789 122.615 89.0564 121.85C89.2561 121.542 88.7653 121.25 88.574 121.558Z" fill="black"/>
<path d="M86.3448 120.075C85.6942 121.05 85.2655 122.157 85.0888 123.317C85.0789 123.352 85.0762 123.39 85.0809 123.426C85.0856 123.463 85.0976 123.498 85.1162 123.53C85.1349 123.562 85.1597 123.59 85.1893 123.612C85.2189 123.634 85.2526 123.65 85.2885 123.658C85.3234 123.67 85.3603 123.674 85.3969 123.67C85.4334 123.666 85.4688 123.655 85.5009 123.637C85.5329 123.619 85.5609 123.595 85.583 123.566C85.6051 123.536 85.621 123.503 85.6295 123.467C85.8021 122.355 86.2137 121.295 86.8356 120.358C87.0352 120.058 86.5445 119.775 86.3448 120.075Z" fill="black"/>
<path d="M83.6747 119.067C82.5703 120.741 81.828 122.629 81.4955 124.608C81.4372 124.967 81.9779 125.117 82.0361 124.758C82.3625 122.828 83.0848 120.987 84.1572 119.35C84.3568 119.042 83.8744 118.758 83.6747 119.067Z" fill="black"/>
<path d="M80.0981 122.608C78.991 124.254 78.3764 126.183 78.3264 128.167C78.3596 128.939 78.343 129.713 78.2765 130.483C78.0232 131.632 77.5299 132.714 76.8292 133.658C76.1684 134.605 75.41 135.479 74.5667 136.267C72.8308 137.825 71.0031 139.278 69.0935 140.617C68.1869 141.283 67.3135 142 66.4069 142.658C65.5002 143.317 64.3856 144.033 63.3708 144.708C61.1084 146.208 58.8958 147.842 57.4651 150.2C57.4401 150.263 57.4384 150.333 57.4603 150.397C57.4823 150.461 57.5264 150.515 57.5848 150.549C57.6432 150.584 57.7119 150.596 57.7784 150.584C57.845 150.572 57.905 150.536 57.9476 150.483C59.3694 148.405 61.2256 146.662 63.3875 145.375C64.4023 144.692 65.4337 144.042 66.4318 143.333C67.43 142.625 68.2368 141.958 69.1434 141.275C72.637 138.675 76.7293 136.058 78.4428 131.85C78.7181 131.212 78.8732 130.528 78.9003 129.833C78.9003 129 78.8587 128.242 78.9003 127.45C79.0807 125.819 79.6514 124.255 80.5639 122.892C80.7635 122.592 80.2728 122.308 80.0731 122.608H80.0981Z" fill="black"/>
<path d="M75.3569 127.175C75.8056 127.85 76.2887 128.5 76.8042 129.125C77.0454 129.433 77.2866 129.75 77.5195 130.067C77.7704 130.359 77.965 130.695 78.0935 131.058C78.1033 131.095 78.1202 131.128 78.143 131.158C78.1659 131.188 78.1944 131.212 78.2268 131.231C78.2593 131.25 78.295 131.262 78.3321 131.266C78.3692 131.271 78.4068 131.268 78.4428 131.258C78.4789 131.249 78.5126 131.232 78.5422 131.209C78.5717 131.186 78.5965 131.157 78.615 131.125C78.6335 131.092 78.6455 131.057 78.6502 131.019C78.6549 130.982 78.6523 130.945 78.6425 130.908C78.5249 130.541 78.3386 130.198 78.0935 129.9C77.8523 129.558 77.5944 129.225 77.3366 128.892C76.8072 128.25 76.3103 127.583 75.8477 126.892C75.648 126.583 75.1573 126.892 75.3569 127.175Z" fill="black"/>
<path d="M68.5446 119.55C68.8946 120.179 68.9899 120.919 68.8108 121.617C68.674 121.899 68.4694 122.143 68.2153 122.326C67.9612 122.509 67.6656 122.626 67.3551 122.667C66.1475 122.806 64.9242 122.643 63.7951 122.192C61.6144 121.442 59.7522 119.973 58.5132 118.025C58.3136 117.717 57.8229 118.025 58.0225 118.308C59.484 120.618 61.763 122.288 64.4023 122.983C65.625 123.3 67.1472 123.567 68.32 122.983C69.7257 122.242 69.6093 120.742 69.0936 119.458C68.9522 119.117 68.4115 119.267 68.5446 119.608V119.55Z" fill="black"/>
<path d="M83.7247 151C81.9608 152.492 79.9511 153.665 77.7857 154.467C75.6477 155.204 73.4707 155.821 71.2645 156.317C71.1917 156.337 71.1298 156.385 71.0924 156.45C71.0549 156.516 71.045 156.594 71.0649 156.667C71.0847 156.74 71.1327 156.802 71.1982 156.839C71.2637 156.877 71.3415 156.887 71.4143 156.867C73.731 156.347 76.0142 155.687 78.2515 154.892C80.3903 154.065 82.3754 152.885 84.124 151.4C84.3984 151.167 83.9992 150.767 83.7247 151Z" fill="black"/>
<path d="M82.9262 158.817C86.5611 157.15 90.1794 155.483 93.8309 153.817C97.2329 152.275 100.801 150.825 104.553 150.483C107.771 150.102 111.024 150.818 113.785 152.517C115.097 153.446 116.207 154.632 117.049 156.002C117.891 157.373 118.447 158.9 118.685 160.492C119.195 164.047 118.821 167.674 117.595 171.05C116.385 174.549 114.996 177.984 113.436 181.342C110.467 188.117 107.239 194.783 103.713 201.283C100.226 207.76 96.386 214.039 92.2089 220.092C91.7099 220.82 91.2025 221.536 90.6868 222.242C90.4539 222.575 90.9945 222.883 91.2274 222.558C95.6222 216.4 99.6496 209.986 103.288 203.35C106.998 196.683 110.383 189.767 113.494 182.758C115 179.35 116.539 175.925 117.778 172.408C119.017 168.892 119.841 165.333 119.442 161.692C119.206 158.51 117.861 155.513 115.64 153.225C113.249 151.085 110.171 149.873 106.965 149.808C103.321 149.764 99.7102 150.515 96.3845 152.008C92.6581 153.508 89.0315 155.292 85.38 157.008L82.5768 158.3C82.2192 158.467 82.5768 159 82.8929 158.833L82.9262 158.817Z" fill="black"/>
<path d="M98.2227 169.65C93.1655 174.192 90.7366 180.767 89.3143 187.275C88.6073 190.608 88.2246 193.942 87.5758 197.325C86.8771 200.903 85.9886 204.442 84.9141 207.925C83.7744 211.736 82.2702 215.428 80.4225 218.95C80.2395 219.308 80.7718 219.625 80.9631 219.267C84.2903 213.067 86.3365 206.142 87.8004 199.267C88.5158 195.933 88.94 192.525 89.5638 189.167C90.1392 185.817 91.059 182.535 92.3087 179.375C93.6994 175.843 95.8657 172.671 98.6469 170.092C98.9464 169.817 98.4972 169.375 98.2061 169.65H98.2227Z" fill="black"/>
<path d="M92.8245 176.917C86.3781 179.933 80.3476 184.025 73.319 185.675C69.9919 186.458 66.3819 186.675 63.2461 185.117C61.8873 184.38 60.692 183.374 59.7326 182.161C58.7733 180.948 58.0698 179.552 57.6648 178.058C56.5487 174.567 56.4535 170.828 57.3903 167.283C57.4124 167.204 57.402 167.119 57.3614 167.047C57.3209 166.975 57.2535 166.922 57.174 166.9C57.0946 166.878 57.0097 166.888 56.9379 166.929C56.8662 166.97 56.8135 167.037 56.7914 167.117C55.9378 170.344 55.9149 173.736 56.7249 176.975C57.3337 180.033 59.001 182.778 61.4328 184.725C64.2276 186.792 67.8542 187.225 71.2063 186.7C74.8988 186.062 78.4759 184.877 81.8199 183.183C85.6461 181.375 89.306 179.233 93.1405 177.442C93.5065 177.267 93.1904 176.733 92.8245 176.9V176.917Z" fill="black"/>
<path d="M80.4225 219.292C81.2543 221.05 83.2672 221.842 85.0472 222.342C87.0029 222.89 89.0525 223.018 91.061 222.717C91.452 222.667 91.2856 222.058 90.8947 222.117C89.0562 222.385 87.1826 222.274 85.3882 221.792C83.7247 221.333 81.7866 220.642 80.9631 218.975C80.7885 218.617 80.2478 218.975 80.4225 219.292Z" fill="black"/>
<path d="M89.2893 222.633C86.245 226.95 86.977 232.542 89.1729 237.05C89.3559 237.417 89.8882 237.1 89.7135 236.733C87.6008 232.417 86.9104 227.083 89.8217 222.942C90.0546 222.617 89.5139 222.3 89.2893 222.633Z" fill="black"/>
<path d="M88.0999 237.717C87.9833 237.535 87.8778 237.345 87.7838 237.15L87.7172 237.009V236.967C87.7172 237.009 87.7172 237.017 87.7172 236.967C87.7158 236.939 87.7158 236.911 87.7172 236.884C87.7172 236.784 87.6424 236.684 87.6091 236.575C87.5841 236.498 87.5309 236.432 87.46 236.392C87.3891 236.352 87.3058 236.34 87.2265 236.359C87.1869 236.369 87.1499 236.388 87.1175 236.413C87.0852 236.438 87.0581 236.469 87.038 236.505C87.0179 236.54 87.005 236.58 87.0003 236.621C86.9955 236.661 86.9989 236.703 87.0102 236.742C87.1506 237.191 87.3492 237.62 87.6008 238.017C87.6425 238.088 87.7101 238.14 87.7893 238.161C87.8685 238.183 87.953 238.173 88.025 238.134C88.0963 238.09 88.1482 238.021 88.1699 237.94C88.1915 237.86 88.1814 237.774 88.1414 237.7L88.0999 237.717Z" fill="black"/>
<path d="M85.9539 238.117C85.9295 238.057 85.9018 237.998 85.8707 237.942C85.874 237.908 85.874 237.875 85.8707 237.842C85.8707 237.842 85.8707 237.767 85.8707 237.842C85.8208 237.725 85.7709 237.6 85.7293 237.475C85.6473 237.229 85.5806 236.979 85.5297 236.725C85.5191 236.685 85.5007 236.648 85.4757 236.616C85.4506 236.584 85.4194 236.556 85.3838 236.536C85.3481 236.516 85.3088 236.503 85.2682 236.498C85.2275 236.494 85.1863 236.497 85.147 236.508C85.0668 236.53 84.9984 236.582 84.9563 236.654C84.9143 236.726 84.9021 236.811 84.9224 236.892C85.0399 237.434 85.2214 237.96 85.4631 238.458C85.5077 238.528 85.5774 238.579 85.6578 238.599C85.7383 238.619 85.8234 238.607 85.8956 238.567C85.9308 238.546 85.9615 238.519 85.986 238.486C86.0104 238.454 86.0282 238.416 86.0383 238.377C86.0483 238.337 86.0505 238.296 86.0445 238.256C86.0386 238.215 86.0248 238.177 86.0038 238.142L85.9539 238.117Z" fill="black"/>
<path d="M83.6748 238.117V238.075V238.025C83.6748 237.975 83.6748 237.925 83.6748 237.875C83.6506 237.782 83.6311 237.687 83.6166 237.592V237.675C83.5958 237.498 83.5958 237.319 83.6166 237.142C83.6162 237.058 83.5835 236.977 83.5251 236.917C83.4621 236.862 83.3833 236.83 83.3005 236.825C83.2181 236.827 83.1398 236.861 83.0823 236.921C83.0249 236.98 82.9927 237.059 82.9927 237.142C82.9508 237.575 83.0225 238.011 83.2007 238.408C83.2429 238.478 83.3075 238.53 83.3837 238.558C83.4652 238.579 83.5516 238.567 83.6245 238.525C83.6975 238.483 83.7513 238.414 83.7746 238.333C83.7989 238.255 83.7989 238.17 83.7746 238.092L83.6748 238.117Z" fill="black"/>
<path d="M81.6119 237.633C80.5888 236.717 81.013 235.042 80.489 233.875C80.148 233.133 79.4992 232.65 79.4243 231.775C79.4142 230.914 79.5901 230.061 79.94 229.275C80.2915 228.485 80.4999 227.638 80.5556 226.775C80.5018 226.015 80.3248 225.269 80.0315 224.567C79.8592 224.205 79.7761 223.808 79.7891 223.408C79.8021 223.007 79.911 222.616 80.1064 222.267C80.5966 221.645 81.2189 221.141 81.928 220.792C82.2774 220.583 81.928 220.042 81.6203 220.25C80.6554 220.817 79.5574 221.517 79.2413 222.675C78.867 224.05 79.8569 225.25 79.9317 226.592C80.0066 228.142 79.0001 229.525 78.8254 231.042C78.7324 231.671 78.8249 232.314 79.0916 232.892C79.4744 233.412 79.8033 233.971 80.0731 234.558C80.3892 235.75 80.1646 237.167 81.1711 238.067C81.4705 238.333 81.9114 237.892 81.6119 237.625V237.633Z" fill="black"/>
<path d="M119.067 160.817C122.333 160.436 125.639 160.605 128.849 161.317C131.744 162.084 134.173 163.9 136.477 165.75C138.781 167.6 141.16 169.475 143.397 171.475C145.635 173.475 147.889 175.642 150.051 177.884C154.327 182.309 158.369 186.95 162.528 191.459C166.995 196.292 171.678 200.925 176.319 205.625L179.962 209.317C180.548 209.817 181.022 210.436 181.352 211.134C181.462 211.482 181.501 211.849 181.467 212.212C181.433 212.576 181.326 212.929 181.152 213.25C180.446 214.489 179.377 215.48 178.091 216.092C176.867 216.787 175.469 217.111 174.065 217.025C173.371 216.912 172.708 216.657 172.116 216.278C171.523 215.898 171.015 215.401 170.622 214.817C169.964 213.967 169.229 213.18 168.426 212.467C166.696 211.023 164.874 209.695 162.969 208.492C158.885 205.937 154.665 203.608 150.326 201.517C146.591 199.625 142.782 197.75 139.513 195.125C137.983 193.89 136.571 192.514 135.296 191.017C133.715 189.175 132.368 187.159 130.92 185.184C129.569 183.172 127.88 181.41 125.93 179.975C123.795 178.597 121.217 178.082 118.718 178.534C117.306 178.761 115.915 179.103 114.559 179.559C114.185 179.684 114.343 180.284 114.725 180.159C117.487 179.275 120.614 178.492 123.459 179.425C125.855 180.259 127.718 182.084 129.282 184C130.845 185.917 132.251 188.109 133.823 190.1C135.106 191.753 136.537 193.284 138.099 194.675C141.26 197.267 144.73 199.456 148.429 201.192C152.863 203.459 157.338 205.592 161.555 208.259C163.609 209.53 165.586 210.922 167.477 212.425C168.266 213.043 168.99 213.738 169.64 214.5C170.472 215.542 171.304 216.683 172.568 217.25C174.98 218.325 177.908 217.25 179.879 215.742C180.959 214.995 181.747 213.897 182.109 212.634C182.408 211.267 181.726 210.134 180.811 209.217C175.962 204.217 170.979 199.359 166.155 194.342C161.821 189.834 157.721 185.117 153.47 180.533C149.249 175.871 144.68 171.536 139.804 167.567C137.575 165.648 135.218 163.883 132.75 162.284C130.064 160.796 127.044 160.016 123.975 160.017C122.348 159.985 120.721 160.04 119.101 160.183C118.701 160.183 118.693 160.833 119.101 160.808L119.067 160.817Z" fill="black"/>
<path d="M87.4261 156.283C86.5361 155.45 85.6129 154.7 84.6729 153.958C83.9992 153.442 83.1924 152.908 83.0593 152C83.0379 151.928 82.9897 151.867 82.9246 151.83C82.8596 151.793 82.7827 151.782 82.7099 151.8C82.6738 151.81 82.6399 151.827 82.6102 151.849C82.5805 151.872 82.5557 151.901 82.5371 151.933C82.5186 151.966 82.5066 152.002 82.502 152.039C82.4974 152.076 82.5002 152.114 82.5103 152.15C82.7631 153.055 83.3605 153.824 84.1739 154.292C85.1554 155.05 86.1119 155.85 87.0269 156.683C87.2931 156.925 87.7006 156.525 87.4261 156.283Z" fill="black"/>
<path d="M90.5537 183.575C90.5537 183.575 78.2349 187.15 68.7026 186.6C72.9423 186.021 77.0905 184.901 81.0464 183.267C86.6027 180.767 91.1942 178.092 91.1942 178.092L92.3088 177.55C92.3088 177.55 93.0907 177.142 92.6249 178.009C91.8242 179.821 91.1326 181.68 90.5537 183.575Z" fill="black" stroke="black" stroke-width="0.680733" stroke-miterlimit="10"/>
<path d="M196.972 216.917C191.65 217.191 186.38 215.751 181.934 212.808C181.601 212.592 181.285 213.125 181.618 213.35C186.163 216.34 191.542 217.8 196.972 217.517C197.372 217.517 197.372 216.875 196.972 216.892V216.917Z" fill="black"/>
<path d="M195.692 219.733L194.469 219.383C194.389 219.361 194.305 219.372 194.233 219.412C194.161 219.453 194.108 219.521 194.086 219.6C194.064 219.68 194.075 219.765 194.115 219.837C194.156 219.909 194.223 219.961 194.303 219.983L195.525 220.333C195.606 220.354 195.691 220.344 195.764 220.303C195.837 220.263 195.891 220.196 195.916 220.117C195.937 220.036 195.924 219.951 195.882 219.879C195.84 219.807 195.772 219.755 195.692 219.733Z" fill="black"/>
<path d="M194.303 221.642C193.903 221.392 193.46 221.219 192.997 221.133C192.958 221.117 192.917 221.109 192.876 221.109C192.835 221.109 192.794 221.117 192.755 221.133C192.72 221.152 192.689 221.178 192.665 221.21C192.641 221.241 192.623 221.278 192.614 221.317C192.603 221.356 192.599 221.397 192.604 221.438C192.609 221.479 192.622 221.518 192.642 221.554C192.662 221.59 192.689 221.621 192.721 221.646C192.754 221.671 192.791 221.689 192.83 221.7C193.045 221.742 193.257 221.8 193.462 221.875H193.537C193.612 221.875 193.479 221.875 193.537 221.875L193.695 221.95C193.792 222.001 193.887 222.056 193.978 222.117C194.014 222.145 194.055 222.165 194.099 222.175C194.142 222.186 194.188 222.187 194.232 222.179C194.277 222.17 194.319 222.152 194.356 222.126C194.393 222.1 194.423 222.066 194.446 222.027C194.469 221.988 194.483 221.945 194.488 221.9C194.492 221.855 194.487 221.809 194.473 221.767C194.458 221.724 194.435 221.684 194.404 221.651C194.373 221.618 194.336 221.592 194.294 221.575L194.303 221.642Z" fill="black"/>
<path d="M192.14 223.583C192.044 223.473 191.935 223.375 191.815 223.292C191.694 223.209 191.563 223.142 191.424 223.092C191.387 223.074 191.346 223.065 191.304 223.065C191.262 223.065 191.221 223.074 191.183 223.092C191.115 223.133 191.064 223.198 191.042 223.275C191.013 223.353 191.013 223.439 191.042 223.517L191.092 223.583C191.131 223.616 191.176 223.642 191.225 223.658H191.15C191.267 223.706 191.376 223.771 191.474 223.85L191.408 223.8C191.49 223.861 191.566 223.931 191.632 224.008C191.693 224.067 191.773 224.1 191.857 224.1C191.897 224.1 191.937 224.092 191.974 224.076C192.012 224.061 192.045 224.038 192.073 224.008C192.132 223.948 192.164 223.867 192.165 223.783V223.7C192.148 223.65 192.12 223.604 192.082 223.567L192.14 223.583Z" fill="black"/>
<path d="M190.784 225.683C190.366 225.224 189.835 224.882 189.244 224.692C188.653 224.502 188.022 224.47 187.415 224.6C186.56 224.765 185.686 224.802 184.82 224.708C184.048 224.454 183.347 224.02 182.774 223.442C182.149 223.005 181.431 222.72 180.678 222.608C179.796 222.433 178.914 222.267 178.041 222.083C177.633 222.006 177.23 221.903 176.835 221.775C176.569 221.683 176.07 221.558 175.903 221.317C175.737 221.075 175.812 220.4 175.828 220.067C175.828 219.058 175.978 217.717 174.997 217.092C174.656 216.875 174.34 217.417 174.681 217.633C175.512 218.15 175.188 219.642 175.171 220.442C175.133 220.826 175.184 221.214 175.321 221.575C175.546 222.017 176.153 222.2 176.569 222.35C178.157 222.917 179.896 222.908 181.493 223.458C182.194 223.798 182.839 224.242 183.406 224.775C183.997 225.186 184.7 225.404 185.419 225.4C186.883 225.4 189.145 224.567 190.227 226.008C190.468 226.325 191.009 226.008 190.767 225.692L190.784 225.683Z" fill="black"/>
<path d="M119.142 161.45C121.044 165.743 121.646 170.501 120.872 175.133C120.315 178.692 122.977 178.992 122.977 178.992C120.73 178.675 118.443 178.809 116.248 179.383C114.01 179.992 114.301 180.217 115.116 178.317C115.931 176.417 119.516 170.15 119.142 161.45Z" fill="black" stroke="black" stroke-width="0.680733" stroke-miterlimit="10"/>
<path d="M78.8504 146.25C78.9585 146.067 70.9484 165.092 64.552 169.867C58.1555 174.642 56.1343 171.133 56.5585 170.117C56.8109 169.565 56.9004 168.952 56.8164 168.35C56.8164 168.35 56.492 167.042 57.8311 167.242C59.1703 167.442 61.6574 166.192 61.6574 166.192C63.6313 164.731 65.4637 163.088 67.1305 161.283C68.0372 160.175 74.1674 154.283 78.8504 146.25Z" fill="black" stroke="black" stroke-width="0.680733" stroke-miterlimit="10"/>
<path d="M82.1027 152.583C82.1027 152.583 79.4576 157.092 71.7137 159.583L73.0944 156.083C73.0944 156.083 74.8079 155.733 75.8144 155.425C80.0815 154.083 81.429 153.117 82.1027 152.583Z" fill="black" stroke="black" stroke-width="0.680733" stroke-miterlimit="10"/>
<path d="M82.1692 220.783C82.2191 220.783 87.7089 225.492 88.0832 225.125C88.4664 224.63 88.7877 224.09 89.0398 223.517C89.5555 222.558 90.2043 222.492 88.9316 222.617C87.6027 222.587 86.2808 222.414 84.9889 222.1C83.9535 221.906 82.9836 221.453 82.1692 220.783Z" fill="black" stroke="black" stroke-width="0.680733" stroke-miterlimit="10"/>
<path d="M181.468 213.25C181.468 213.25 179.655 219.183 175.646 220.033C175.615 219.352 175.529 218.675 175.388 218.008L175.23 217.7C175.23 217.7 174.872 217.35 175.446 217.292C176.943 217.068 178.367 216.497 179.605 215.625C180.418 215.006 181.06 214.188 181.468 213.25Z" fill="black" stroke="black" stroke-width="0.680733" stroke-miterlimit="10"/>
<path d="M87.4844 132.842C89.6152 132.963 91.7521 132.761 93.8226 132.242C94.8501 131.993 95.859 131.673 96.842 131.283C97.752 130.997 98.599 130.539 99.3373 129.933C100.677 128.667 100.394 126.6 100.028 124.933C99.512 122.658 98.9297 120.375 98.231 118.15C97.8817 117 97.4824 115.867 97.025 114.758C96.9216 114.342 96.7014 113.964 96.3904 113.668C96.0795 113.373 95.6906 113.173 95.2699 113.092C93.5348 112.842 91.773 112.842 90.0379 113.092C86.5601 113.399 83.2911 114.887 80.7718 117.308C79.7571 118.375 78.7672 119.683 78.9835 121.242C79.1998 122.8 80.6471 123.408 82.1193 123.275C82.477 123.233 82.4853 122.667 82.1193 122.7C80.8883 122.817 79.624 122.417 79.5325 121.033C79.441 119.65 80.2894 118.667 81.1295 117.783C83.3654 115.575 86.2654 114.166 89.3808 113.775C90.9373 113.527 92.5177 113.465 94.0887 113.592C94.4909 113.61 94.8912 113.658 95.2865 113.733C95.5563 113.797 95.8042 113.932 96.0046 114.124C96.2049 114.316 96.3505 114.558 96.4261 114.825C96.8336 115.792 97.1913 116.783 97.5157 117.783C98.1479 119.733 98.6469 121.708 99.1793 123.7C99.5619 125.283 100.277 127.342 99.4538 128.9C98.9464 129.867 97.7902 130.292 96.8586 130.675C95.8777 131.075 94.8685 131.401 93.8392 131.65C91.7659 132.186 89.6222 132.397 87.4844 132.275C87.1184 132.275 87.1184 132.817 87.4844 132.842Z" fill="black"/>
<path d="M98.8631 128.992C98.2809 127.508 96.0018 127.608 94.7042 127.65C92.7778 127.727 90.8897 128.213 89.1645 129.075C88.9233 129.2 89.1645 129.558 89.3724 129.442C90.8836 128.683 92.528 128.227 94.2134 128.1C95.0048 128.029 95.8009 128.029 96.5923 128.1C97.2744 128.183 98.1811 128.342 98.4639 129.067C98.5637 129.317 98.9629 129.208 98.8631 128.958V128.992Z" fill="black"/>
<path d="M83.1507 120.7C83.026 120.258 82.8929 119.867 82.7431 119.392C82.7194 119.289 82.6568 119.199 82.5685 119.142C82.452 119.067 82.3189 119.142 82.1942 119.142C81.9853 119.165 81.7838 119.233 81.6036 119.342C81.4543 119.441 81.3337 119.578 81.2534 119.739C81.1732 119.9 81.1362 120.079 81.1461 120.258C81.1608 120.446 81.2206 120.628 81.3206 120.787C81.4205 120.947 81.5576 121.08 81.72 121.175C81.9149 121.292 82.1377 121.353 82.3647 121.353C82.5917 121.353 82.8145 121.292 83.0093 121.175C83.2422 121.033 83.0093 120.675 82.8014 120.817C82.6873 120.893 82.5562 120.939 82.4198 120.953C82.2834 120.966 82.1459 120.945 82.0195 120.892C81.9081 120.847 81.8091 120.776 81.7309 120.684C81.6527 120.593 81.5977 120.484 81.5703 120.367C81.5476 120.256 81.5549 120.141 81.5915 120.034C81.6281 119.927 81.6926 119.832 81.7783 119.758C81.8865 119.68 82.012 119.628 82.1443 119.608C82.2283 119.597 82.3116 119.58 82.3938 119.558C82.4437 119.558 82.3938 119.558 82.3106 119.5C82.2274 119.442 82.3106 119.5 82.3106 119.5C82.3198 119.55 82.3366 119.597 82.3605 119.642C82.4936 120.042 82.6101 120.433 82.7182 120.833C82.7325 120.888 82.7678 120.934 82.8161 120.962C82.8645 120.99 82.922 120.998 82.9761 120.983C83.0301 120.969 83.0762 120.934 83.1043 120.885C83.1324 120.837 83.1401 120.779 83.1258 120.725L83.1507 120.7Z" fill="black"/>
<path d="M81.9281 118.483C82.0424 118.67 82.1371 118.869 82.2109 119.075C82.2941 119.292 82.344 119.517 82.4271 119.733C82.4426 119.787 82.4784 119.831 82.5268 119.858C82.5751 119.884 82.6321 119.891 82.685 119.875C82.7361 119.86 82.7793 119.825 82.8056 119.778C82.8319 119.732 82.8394 119.677 82.8264 119.625C82.7349 119.4 82.6933 119.167 82.6018 118.942C82.5169 118.71 82.4111 118.487 82.2857 118.275C82.2738 118.249 82.2563 118.225 82.2346 118.205C82.2129 118.186 82.1874 118.171 82.1597 118.163C82.1319 118.154 82.1027 118.151 82.0738 118.154C82.0448 118.157 82.0169 118.166 81.9917 118.181C81.9666 118.195 81.9448 118.215 81.9277 118.239C81.9107 118.262 81.8988 118.289 81.8928 118.318C81.8868 118.346 81.8868 118.376 81.8929 118.404C81.899 118.433 81.911 118.46 81.9281 118.483Z" fill="black"/>
<path d="M82.0112 118.317C82.0663 118.317 82.1192 118.295 82.1582 118.256C82.1972 118.217 82.2191 118.164 82.2191 118.108C82.2191 118.053 82.1972 118 82.1582 117.961C82.1192 117.922 82.0663 117.9 82.0112 117.9C81.956 117.9 81.9031 117.922 81.8641 117.961C81.8251 118 81.8032 118.053 81.8032 118.108C81.8032 118.164 81.8251 118.217 81.8641 118.256C81.9031 118.295 81.956 118.317 82.0112 118.317Z" fill="black"/>
<path d="M79.6406 119.434C77.6776 118.15 75.4816 117.075 73.0695 117.15C71.3144 117.209 69.6425 117.825 67.9041 117.984C67.5381 117.984 67.5381 118.592 67.9041 118.55C69.5676 118.392 71.1813 117.817 72.8948 117.717C75.2737 117.584 77.4363 118.642 79.3827 119.917C79.6905 120.117 79.9733 119.625 79.6738 119.425L79.6406 119.434Z" fill="black"/>
<path d="M84.7977 150.617C86.2866 149.192 84.2155 147.458 83.7081 146.158C83.3476 145.139 83.1374 144.072 83.0842 142.992C83.125 141.955 83.044 140.918 82.843 139.9C82.8299 139.859 82.8079 139.822 82.7787 139.791C82.7495 139.759 82.7138 139.735 82.6741 139.719C82.6344 139.703 82.5917 139.696 82.549 139.698C82.5063 139.701 82.4647 139.713 82.4271 139.733C82.3771 139.76 82.3339 139.798 82.3008 139.845C82.2676 139.891 82.2454 139.944 82.2358 140C82.1859 140.358 82.7266 140.508 82.7848 140.15L82.7099 140.225L82.294 140.05C82.4824 140.988 82.5551 141.945 82.5103 142.9C82.572 143.826 82.7224 144.744 82.9595 145.642C83.1835 146.442 83.5591 147.192 84.0657 147.85C84.5315 148.5 85.1221 149.517 84.3985 150.217C84.1323 150.467 84.5315 150.867 84.7977 150.617Z" fill="black"/>
<path d="M84.2737 151.133C84.3487 151.133 84.4206 151.103 84.4736 151.05C84.5267 150.997 84.5565 150.925 84.5565 150.85C84.5565 150.775 84.5267 150.703 84.4736 150.65C84.4206 150.596 84.3487 150.567 84.2737 150.567C84.1986 150.567 84.1267 150.596 84.0737 150.65C84.0206 150.703 83.9908 150.775 83.9908 150.85C83.9908 150.925 84.0206 150.997 84.0737 151.05C84.1267 151.103 84.1986 151.133 84.2737 151.133Z" fill="black"/>
<path d="M116.115 111.067C115.692 112.25 115.172 113.395 114.559 114.492C113.96 115.488 113.298 116.445 112.579 117.358C111.884 118.216 111.374 119.209 111.082 120.275C110.866 121.208 110.766 122.167 110.616 123.108C110.085 126.574 109.326 130.001 108.346 133.367C106.349 140.033 103.03 146.808 97.025 150.683C95.1618 151.883 93.0823 153 90.8115 152.475C88.5408 151.95 86.5278 150.142 85.0472 148.308C84.7894 147.992 84.3569 148.442 84.6064 148.75C85.9028 150.49 87.6204 151.869 89.5971 152.758C90.5362 153.147 91.5533 153.31 92.5666 153.233C93.5349 153.137 94.4755 152.854 95.3365 152.4C98.5114 150.785 101.251 148.427 103.322 145.525C107.672 139.6 109.652 132.192 110.916 125.042C111.091 124.083 111.249 123.125 111.39 122.158C111.505 120.85 111.915 119.585 112.588 118.458C113.328 117.35 114.251 116.35 114.9 115.192C115.62 113.946 116.227 112.638 116.713 111.283C116.846 110.9 116.248 110.742 116.106 111.117L116.115 111.067Z" fill="black"/>
<path d="M114.992 108.117C115.481 108.443 115.85 108.922 116.041 109.479C116.232 110.036 116.234 110.641 116.048 111.2C116.026 111.28 116.036 111.365 116.077 111.436C116.117 111.508 116.185 111.561 116.264 111.583C116.344 111.605 116.429 111.595 116.5 111.554C116.572 111.514 116.625 111.446 116.647 111.367C116.866 110.702 116.866 109.985 116.647 109.32C116.429 108.656 116.003 108.079 115.432 107.675C115.374 107.616 115.295 107.583 115.212 107.583C115.129 107.583 115.05 107.616 114.992 107.675C114.933 107.734 114.9 107.813 114.9 107.896C114.9 107.979 114.933 108.058 114.992 108.117Z" fill="black"/>
<path d="M112.737 109.85L112.995 109.925L113.112 109.975C113.195 109.975 113.112 109.975 113.112 109.975H113.178C113.34 110.052 113.495 110.142 113.644 110.242L113.744 110.317C113.744 110.317 113.802 110.317 113.744 110.317H113.785C113.858 110.371 113.925 110.433 113.985 110.5L114.176 110.692C114.206 110.726 114.234 110.762 114.26 110.8L114.31 110.867C114.33 110.902 114.357 110.933 114.389 110.959C114.421 110.984 114.458 111.002 114.497 111.013C114.537 111.024 114.578 111.027 114.619 111.022C114.659 111.017 114.698 111.004 114.734 110.983C114.769 110.963 114.8 110.936 114.825 110.904C114.851 110.871 114.869 110.834 114.88 110.795C114.891 110.755 114.894 110.714 114.888 110.674C114.883 110.633 114.87 110.594 114.85 110.558C114.368 109.88 113.665 109.391 112.862 109.175C112.823 109.164 112.782 109.161 112.741 109.166C112.701 109.171 112.662 109.184 112.626 109.204C112.591 109.224 112.559 109.251 112.534 109.283C112.509 109.315 112.491 109.352 112.48 109.392C112.469 109.431 112.466 109.472 112.471 109.513C112.476 109.553 112.488 109.593 112.508 109.628C112.529 109.664 112.555 109.695 112.588 109.72C112.62 109.745 112.657 109.764 112.696 109.775L112.737 109.85Z" fill="black"/>
<path d="M112.787 111.967H112.837C112.895 111.967 112.787 111.967 112.837 111.967L112.929 112.008L113.103 112.1L113.261 112.217H113.303L113.378 112.283L113.511 112.417L113.569 112.492C113.644 112.598 113.71 112.709 113.769 112.825C113.81 112.897 113.877 112.949 113.957 112.971C114.036 112.993 114.121 112.983 114.193 112.942C114.265 112.901 114.317 112.833 114.339 112.753C114.361 112.674 114.35 112.588 114.31 112.517C114.026 111.95 113.539 111.512 112.945 111.292C112.906 111.281 112.865 111.278 112.824 111.283C112.784 111.288 112.745 111.3 112.709 111.321C112.674 111.341 112.642 111.368 112.617 111.4C112.592 111.432 112.574 111.469 112.563 111.508C112.552 111.548 112.549 111.589 112.554 111.629C112.559 111.67 112.572 111.709 112.592 111.745C112.612 111.78 112.639 111.812 112.671 111.837C112.703 111.862 112.74 111.881 112.779 111.892L112.787 111.967Z" fill="black"/>
<path d="M111.332 113.742C111.583 113.963 111.814 114.205 112.022 114.467L112.089 114.567L112.23 114.767C112.322 114.908 112.405 115.058 112.488 115.208C112.53 115.279 112.598 115.33 112.678 115.35C112.757 115.371 112.841 115.359 112.912 115.317C112.983 115.275 113.034 115.206 113.054 115.127C113.074 115.047 113.062 114.962 113.02 114.892C112.697 114.261 112.26 113.696 111.731 113.225C111.671 113.169 111.592 113.138 111.511 113.138C111.429 113.138 111.35 113.169 111.29 113.225C111.233 113.284 111.201 113.363 111.201 113.446C111.201 113.528 111.233 113.608 111.29 113.667L111.332 113.742Z" fill="black"/>
<path d="M109.635 110.617C110.184 110.117 111.016 108.95 110.6 108.117C110.184 107.283 109.044 107.917 108.504 108.192C107.627 108.585 106.849 109.171 106.227 109.904C105.605 110.638 105.155 111.503 104.91 112.433C104.798 113.546 104.848 114.669 105.06 115.767C105.054 117.049 104.728 118.31 104.112 119.433C103.308 121.387 102.366 123.281 101.292 125.1C100.768 125.933 100.236 126.767 99.7864 127.667C99.6035 128.025 100.144 128.342 100.319 127.983C100.679 127.246 101.087 126.533 101.542 125.85C102.253 124.756 102.884 123.611 103.43 122.425C103.92 121.425 104.37 120.408 104.802 119.392C105.265 118.493 105.566 117.52 105.692 116.517C105.759 115.417 105.393 114.35 105.434 113.258C105.479 112.357 105.786 111.488 106.316 110.758C106.922 109.938 107.707 109.268 108.612 108.8C108.857 108.668 109.11 108.551 109.369 108.45C109.693 108.333 110.067 108.15 110.034 108.675C109.941 109.246 109.646 109.764 109.202 110.133C108.903 110.408 109.352 110.85 109.643 110.575L109.635 110.617Z" fill="black"/>
<path d="M97.2912 130.567C95.6764 132.782 94.3696 135.207 93.4067 137.775C93.282 138.117 93.831 138.258 93.9557 137.925C94.9063 135.404 96.1934 133.024 97.7819 130.85C97.9982 130.558 97.5075 130.275 97.2912 130.567Z" fill="black"/>
<path d="M115.491 107.85C115.94 106.142 116.322 104.417 116.597 102.667C116.672 102.258 116.73 101.833 116.788 101.442C116.871 101.139 116.871 100.819 116.788 100.517C116.547 99.95 115.823 100 115.324 100C113.551 99.9594 111.778 100.048 110.017 100.267C109.743 100.268 109.476 100.356 109.254 100.517C109.031 100.679 108.865 100.906 108.778 101.167C108.562 102 108.512 102.833 108.362 103.667C108.013 105.525 107.53 107.367 107.09 109.2C107.068 109.28 107.078 109.365 107.118 109.437C107.159 109.508 107.226 109.561 107.306 109.583C107.385 109.605 107.47 109.595 107.542 109.554C107.614 109.514 107.666 109.446 107.688 109.367C108.038 108.008 108.379 106.65 108.67 105.283C108.814 104.606 108.947 103.931 109.069 103.258C109.127 102.917 109.186 102.583 109.236 102.25C109.286 101.917 109.236 101.375 109.493 101.125C109.751 100.875 110.084 100.892 110.325 100.867C110.566 100.842 111.107 100.792 111.498 100.767C112.28 100.708 113.062 100.667 113.844 100.65C114.201 100.65 114.567 100.65 114.925 100.65C115.28 100.592 115.643 100.592 115.998 100.65C116.331 100.775 116.131 101.325 116.09 101.617C116.048 101.908 115.973 102.375 115.907 102.758C115.624 104.425 115.266 106.064 114.834 107.675C114.82 107.753 114.835 107.833 114.877 107.9C114.92 107.967 114.985 108.015 115.061 108.036C115.137 108.057 115.218 108.049 115.289 108.013C115.359 107.977 115.413 107.916 115.441 107.842L115.491 107.85Z" fill="black"/>
<path d="M112.238 114.667C112.18 114.759 111.639 114.667 111.548 114.667L110.774 114.592C110.209 114.534 109.643 114.475 109.111 114.375C108.579 114.275 106.308 113.917 106.873 113.05C107.09 112.709 106.549 112.4 106.333 112.734C106.19 112.988 106.152 113.288 106.225 113.57C106.297 113.853 106.476 114.096 106.724 114.25C107.337 114.615 108.02 114.848 108.728 114.934C109.469 115.071 110.215 115.171 110.966 115.234C111.34 115.234 111.723 115.334 112.097 115.342C112.233 115.359 112.372 115.337 112.497 115.28C112.621 115.223 112.728 115.131 112.804 115.017C113.02 114.675 112.48 114.367 112.263 114.7L112.238 114.667Z" fill="black"/>
<path d="M112.38 101.175C112.351 101.202 112.331 101.237 112.322 101.275C112.309 101.313 112.309 101.354 112.322 101.392C112.309 101.432 112.309 101.476 112.322 101.517C112.331 101.555 112.351 101.59 112.38 101.617L112.446 101.667C112.498 101.679 112.552 101.679 112.604 101.667H112.688C112.741 101.651 112.789 101.622 112.829 101.583C112.86 101.557 112.884 101.523 112.896 101.483C112.904 101.445 112.904 101.405 112.896 101.367C112.903 101.325 112.903 101.283 112.896 101.242C112.879 101.205 112.857 101.171 112.829 101.142L112.771 101.092C112.722 101.066 112.668 101.052 112.613 101.05H112.53C112.476 101.061 112.427 101.087 112.388 101.125L112.38 101.175Z" fill="black"/>
<path d="M86.6194 98.8501C86.6944 98.8501 86.7663 98.8203 86.8193 98.7671C86.8724 98.714 86.9022 98.6419 86.9022 98.5668C86.9022 98.4916 86.8724 98.4196 86.8193 98.3664C86.7663 98.3133 86.6944 98.2834 86.6194 98.2834C86.5444 98.2834 86.4724 98.3133 86.4194 98.3664C86.3663 98.4196 86.3365 98.4916 86.3365 98.5668C86.3365 98.6419 86.3663 98.714 86.4194 98.7671C86.4724 98.8203 86.5444 98.8501 86.6194 98.8501Z" fill="black"/>
<path d="M94.3633 113.167V113.225C94.3587 113.241 94.3587 113.259 94.3633 113.275C94.3795 113.281 94.3972 113.281 94.4134 113.275C94.4134 113.275 94.4884 113.275 94.4884 113.2V113.142C94.4852 113.123 94.4762 113.106 94.4628 113.092C94.4494 113.079 94.4321 113.07 94.4134 113.067C94.3949 113.069 94.3779 113.078 94.3656 113.091C94.3533 113.105 94.3466 113.123 94.3467 113.142L94.3633 113.167Z" fill="black"/>
<path d="M94.1386 136.85L92.5665 134.592C92.5284 134.528 92.4671 134.482 92.3956 134.464C92.324 134.445 92.2481 134.455 92.1839 134.492C92.1201 134.531 92.0736 134.594 92.0536 134.666C92.0335 134.739 92.0415 134.816 92.0758 134.883L93.6562 137.133C93.6943 137.197 93.7556 137.243 93.8271 137.261C93.8986 137.28 93.9746 137.27 94.0388 137.233C94.071 137.215 94.0992 137.191 94.1218 137.162C94.1443 137.132 94.1607 137.099 94.1701 137.063C94.1794 137.027 94.1814 136.99 94.176 136.953C94.1706 136.917 94.1579 136.882 94.1386 136.85Z" fill="black"/>
<path d="M93.3734 135.775C93.3734 135.067 93.8975 134.4 93.6396 133.675C93.3818 132.95 92.8078 132.783 92.4917 132.225C92.3171 131.908 91.8263 132.225 92.001 132.517C92.157 132.772 92.3505 133.002 92.5749 133.2C92.7885 133.37 92.9641 133.583 93.0906 133.825C93.1727 134.129 93.1492 134.453 93.0241 134.742C92.9033 135.075 92.8278 135.422 92.7995 135.775C92.8111 135.843 92.8462 135.904 92.8988 135.949C92.9513 135.993 93.0178 136.018 93.0865 136.018C93.1552 136.018 93.2217 135.993 93.2742 135.949C93.3267 135.904 93.3619 135.843 93.3734 135.775Z" fill="black"/>
<path d="M92.5332 134.467C91.4436 134.308 90.3623 135.1 89.4806 135.667C88.5472 136.264 87.6652 136.939 86.8438 137.683C85.1555 139.218 83.748 141.038 82.6849 143.058C82.5102 143.383 83.0009 143.667 83.1673 143.342C84.1338 141.503 85.3924 139.834 86.8937 138.4C87.6492 137.682 88.4646 137.029 89.3309 136.45C89.7468 136.167 90.1626 135.9 90.6118 135.617C91.1224 135.227 91.7422 135.009 92.3835 134.992C92.7412 135.042 92.8909 134.492 92.5332 134.442V134.467Z" fill="black"/>
<path d="M58.0724 143.95C58.2813 145.416 58.5757 146.869 58.9541 148.3C59.0705 148.65 59.6195 148.5 59.5031 148.15C59.1256 146.718 58.8312 145.266 58.6214 143.8C58.5382 143.45 57.9975 143.6 58.0724 143.95Z" fill="black"/>
<path d="M59.0206 143.617C53.7131 143.461 48.4944 145.005 44.1233 148.025C43.8238 148.233 44.1233 148.725 44.4144 148.517C48.6987 145.552 53.8156 144.034 59.0206 144.183C59.0956 144.183 59.1675 144.154 59.2206 144.1C59.2736 144.047 59.3034 143.975 59.3034 143.9C59.3034 143.825 59.2736 143.753 59.2206 143.7C59.1675 143.647 59.0956 143.617 59.0206 143.617Z" fill="black"/>
<path d="M76.9456 133.842C76.2183 132.267 75.0247 130.955 73.527 130.083C71.7658 129.156 69.7573 128.809 67.7876 129.092C66.9806 129.219 66.216 129.539 65.5586 130.025C64.9012 130.511 64.3705 131.148 64.0113 131.883C63.2086 133.66 62.9733 135.642 63.3376 137.558C63.5653 139.752 64.388 141.842 65.7165 143.6C65.7664 143.667 65.8662 143.6 65.8163 143.5C64.708 142.057 63.9633 140.368 63.6453 138.575C63.173 136.652 63.2248 134.638 63.7951 132.742C64.0589 131.925 64.5205 131.186 65.1388 130.591C65.7572 129.996 66.5129 129.564 67.3385 129.333C68.2984 129.149 69.2824 129.126 70.2497 129.267C71.2408 129.353 72.2091 129.613 73.1111 130.033C74.7473 130.89 76.0524 132.268 76.8209 133.95C76.8209 134.033 76.9872 133.95 76.9456 133.883V133.842Z" fill="black"/>
<path d="M80.148 144.008C80.5447 145.511 80.3362 147.109 79.5676 148.459C78.799 149.809 77.5317 150.802 76.039 151.225C76.0302 151.228 76.0221 151.232 76.0151 151.238C76.0081 151.244 76.0023 151.251 75.998 151.259C75.9894 151.276 75.9877 151.295 75.9932 151.313C75.9987 151.33 76.011 151.345 76.0274 151.354C76.0438 151.362 76.0629 151.364 76.0806 151.358C77.6006 150.915 78.8871 149.894 79.6645 148.512C80.4418 147.131 80.6482 145.499 80.2395 143.967C80.2395 143.883 80.0815 143.917 80.1064 143.967L80.148 144.008Z" fill="black"/>
<path d="M79.2163 145.833C79.5491 147.283 78.3845 148.467 77.3032 149.167C77.2284 149.217 77.3032 149.342 77.3781 149.292C78.5426 148.525 79.6988 147.292 79.3494 145.767C79.3494 145.683 79.1914 145.717 79.2163 145.767V145.833Z" fill="black"/>
<path d="M75.831 135.033C75.2817 133.826 74.4066 132.796 73.3044 132.06C72.2021 131.323 70.9166 130.91 69.5926 130.867C68.939 130.846 68.2919 131.002 67.7195 131.319C67.1471 131.636 66.6707 132.101 66.3403 132.667C65.6093 134.088 65.3583 135.708 65.625 137.283C65.8233 139.068 66.4388 140.781 67.4216 142.283C67.4715 142.358 67.588 142.283 67.5381 142.217C66.5089 140.636 65.8886 138.823 65.7331 136.942C65.5917 135.075 65.8495 132.842 67.4798 131.65C68.9022 130.625 70.99 131.033 72.4706 131.767C73.9061 132.469 75.0552 133.646 75.7228 135.1C75.7228 135.183 75.8809 135.1 75.8476 135.025L75.831 135.033Z" fill="black"/>
<path d="M74.7829 136.45C74.2034 135.598 73.5186 134.822 72.7451 134.142C72.0434 133.468 71.1047 133.1 70.1333 133.117C69.1517 133.25 68.6194 134.183 68.32 135.033C67.9882 136.006 67.9135 137.049 68.103 138.059C68.2925 139.07 68.7397 140.014 69.4013 140.8C69.4595 140.867 69.5593 140.8 69.5011 140.7C68.7583 139.819 68.2963 138.735 68.1747 137.588C68.0532 136.441 68.2776 135.284 68.819 134.267C68.9767 133.948 69.2235 133.683 69.5292 133.502C69.8349 133.322 70.1863 133.234 70.5408 133.25C71.1549 133.313 71.7422 133.534 72.246 133.892C73.1941 134.602 74.0105 135.474 74.6582 136.467C74.7164 136.542 74.8329 136.467 74.7829 136.392V136.45Z" fill="black"/>
<path d="M73.6268 137.55C73.399 137.011 73.0652 136.524 72.6453 136.117C72.2594 135.688 71.746 135.396 71.1813 135.283C70.9437 135.269 70.7073 135.327 70.5026 135.448C70.298 135.57 70.1346 135.751 70.0334 135.967C69.8153 136.501 69.8153 137.099 70.0334 137.633C70.2472 138.317 70.5258 138.978 70.8652 139.608C70.8741 139.624 70.8887 139.635 70.9058 139.64C70.923 139.645 70.9413 139.642 70.9567 139.633C70.9722 139.625 70.9835 139.61 70.9882 139.593C70.9928 139.576 70.9905 139.557 70.9817 139.542C70.6519 138.918 70.3737 138.269 70.1499 137.6C69.9999 137.277 69.9484 136.916 70.0016 136.563C70.0549 136.211 70.2106 135.881 70.4493 135.617C71.0649 135.075 71.8634 135.617 72.3708 136.025C72.8656 136.448 73.2533 136.982 73.502 137.583C73.502 137.675 73.66 137.583 73.6268 137.517V137.55Z" fill="black"/>
<path d="M72.5455 138.117C72.4379 137.966 72.3182 137.824 72.1878 137.692L71.9799 137.508C71.9196 137.449 71.8398 137.413 71.7553 137.408C71.7232 137.411 71.6921 137.421 71.6641 137.437C71.6361 137.453 71.6118 137.474 71.5928 137.5C71.5739 137.526 71.5608 137.556 71.5544 137.588C71.548 137.619 71.5484 137.652 71.5557 137.683C71.5824 137.843 71.6388 137.995 71.722 138.133L72.0215 138.775C72.0329 138.786 72.0473 138.792 72.0627 138.794C72.0781 138.796 72.0938 138.794 72.1075 138.786C72.1212 138.779 72.1323 138.767 72.1393 138.754C72.1462 138.74 72.1486 138.724 72.1462 138.708L71.8634 138.117C71.8634 138.017 71.7719 137.925 71.7303 137.833C71.7138 137.771 71.7138 137.705 71.7303 137.642C71.7303 137.433 72.0048 137.692 72.0631 137.75C72.2111 137.883 72.345 138.031 72.4623 138.192C72.5122 138.267 72.637 138.192 72.5788 138.125L72.5455 138.117Z" fill="black"/>
<path d="M93.0573 133.283C91.7185 134.022 90.2105 134.398 88.6821 134.375C87.9078 134.352 87.1379 134.501 86.4275 134.81C85.7172 135.12 85.0839 135.583 84.5731 136.167L85.4049 134.5C85.6057 134.135 85.891 133.824 86.2367 133.592C86.5622 133.387 86.8447 133.121 87.0685 132.808C87.3093 132.634 87.6034 132.548 87.9003 132.567C88.6406 132.642 91.0195 132.508 91.3106 132.483C91.6017 132.458 91.8513 132.158 92.4585 132.708" fill="black"/>
<path d="M93.0573 133.283C91.7185 134.022 90.2105 134.398 88.6821 134.375C87.9078 134.352 87.1379 134.501 86.4275 134.81C85.7172 135.12 85.0839 135.583 84.5731 136.167L85.4049 134.5C85.6057 134.135 85.891 133.824 86.2367 133.592C86.5622 133.387 86.8447 133.121 87.0685 132.808C87.3093 132.634 87.6034 132.548 87.9003 132.567C88.6406 132.642 91.0195 132.508 91.3106 132.483C91.6017 132.458 91.8513 132.158 92.4585 132.708" stroke="black" stroke-width="0.680733" stroke-miterlimit="10"/>
<path d="M90.038 135.658C90.038 135.658 84.806 139.558 85.1471 144.733C85.4881 149.908 86.5777 150.425 86.5777 150.425L85.4964 149.333C85.4964 149.333 85.0805 148.842 84.3818 147.817C83.722 146.874 83.2658 145.804 83.0426 144.675C83.0426 144 82.5935 143.358 83.367 142.433C84.1406 141.508 85.9622 138.942 86.1868 138.708C87.4035 137.61 88.6899 136.591 90.038 135.658Z" fill="black" stroke="black" stroke-width="0.680733" stroke-miterlimit="10"/>
<path d="M58.3468 143.867C58.3468 143.867 44.8635 145.533 46.1362 155.9C46.1362 155.9 44.8552 151.625 44.5807 150.242C44.3063 148.858 44.273 148.625 44.273 148.625C44.2499 148.564 44.2406 148.499 44.246 148.435C44.2513 148.37 44.2711 148.307 44.3038 148.251C44.3365 148.195 44.3814 148.148 44.4351 148.111C44.4888 148.075 44.5499 148.051 44.614 148.042C45.1214 147.883 48.3986 145.967 48.5816 145.883C51.6993 144.662 55.0013 143.98 58.3468 143.867Z" fill="black" stroke="black" stroke-width="0.680733" stroke-miterlimit="10"/>
<path d="M139.197 167.542C139.197 167.542 166.737 163.258 191.924 189.875C198.866 197.155 204.668 205.447 209.133 214.467C210.67 217.583 211.388 221.041 211.219 224.512C211.05 227.984 209.999 231.355 208.167 234.307C206.335 237.258 203.782 239.693 200.749 241.381C197.716 243.068 194.303 243.952 190.834 243.95H78.5426C64.9256 243.887 51.579 240.136 39.916 233.095C28.253 226.053 18.7077 215.983 12.2908 203.95C0.496027 181.4 -0.044634 149.967 12.9728 127.733C20.4589 114.917 34.8073 104.733 50.162 106.433" stroke="black" stroke-width="0.680733" stroke-miterlimit="10"/>
<path d="M84.3069 99.3334L81.8116 100.3C81.7388 100.32 81.6769 100.368 81.6394 100.434C81.602 100.499 81.5921 100.577 81.612 100.65C81.6318 100.723 81.6798 100.785 81.7453 100.823C81.8108 100.86 81.8885 100.87 81.9613 100.85L84.4567 99.8834C84.5282 99.8621 84.5884 99.8134 84.6243 99.7478C84.6601 99.6823 84.6686 99.6052 84.648 99.5334C84.6394 99.4965 84.6233 99.4618 84.6008 99.4315C84.5782 99.4012 84.5496 99.3758 84.5168 99.357C84.4841 99.3383 84.4477 99.3265 84.4102 99.3224C84.3726 99.3183 84.3347 99.3221 84.2986 99.3334H84.3069Z" fill="black"/>
<path d="M83.1923 92.2836L80.697 94.4586C80.6702 94.4848 80.6489 94.5161 80.6342 94.5506C80.6195 94.5852 80.6117 94.6222 80.6113 94.6598C80.611 94.6973 80.618 94.7345 80.6319 94.7694C80.6459 94.8042 80.6666 94.8359 80.6928 94.8627C80.719 94.8895 80.7503 94.9109 80.7847 94.9256C80.8192 94.9403 80.8562 94.9481 80.8937 94.9485C80.9311 94.9489 80.9683 94.9419 81.003 94.9279C81.0378 94.9139 81.0695 94.8932 81.0962 94.8669L83.5916 92.6836C83.6444 92.6305 83.6741 92.5585 83.6741 92.4836C83.6741 92.4086 83.6444 92.3367 83.5916 92.2836C83.5386 92.2306 83.4668 92.2009 83.392 92.2009C83.3171 92.2009 83.2453 92.2306 83.1923 92.2836Z" fill="black"/>
<path d="M79.2247 86.6668L77.5029 89.3751C77.3116 89.6835 77.8023 89.9668 77.9936 89.6584L79.7154 86.9501C79.9151 86.6418 79.4243 86.3584 79.2247 86.6668Z" fill="black"/>
<path d="M70.3661 83.5249L69.8754 85.4916C69.8439 85.5282 69.8224 85.5722 69.8127 85.6195C69.803 85.6667 69.8055 85.7157 69.82 85.7617C69.8345 85.8077 69.8604 85.8493 69.8955 85.8824C69.9305 85.9155 69.9733 85.9392 70.02 85.9511C70.0667 85.963 70.1156 85.9627 70.1622 85.9503C70.2087 85.938 70.2514 85.9139 70.286 85.8804C70.3207 85.8469 70.3462 85.8051 70.3603 85.7589C70.3743 85.7128 70.3763 85.6638 70.3661 85.6166L70.8569 83.6499C70.8724 83.6128 70.8799 83.5728 70.8789 83.5326C70.8778 83.4923 70.8682 83.4528 70.8506 83.4166C70.8331 83.3804 70.8081 83.3483 70.7772 83.3225C70.7463 83.2967 70.7104 83.2779 70.6716 83.2671C70.6329 83.2564 70.5923 83.254 70.5526 83.2602C70.5129 83.2664 70.475 83.281 70.4414 83.303C70.4078 83.3251 70.3792 83.354 70.3576 83.388C70.336 83.4219 70.3219 83.4601 70.3162 83.4999L70.3661 83.5249Z" fill="black"/>
<path d="M129.498 101.308C132.204 99.2704 135.18 97.6186 138.34 96.4001C138.706 96.2501 138.548 95.6501 138.173 95.7917C134.961 97.0351 131.935 98.7178 129.182 100.792C128.866 101.033 129.182 101.575 129.498 101.333V101.308Z" fill="black"/>
<path d="M125.356 101.45C126.897 99.6873 128.789 98.2679 130.912 97.2835C131.27 97.1168 130.954 96.5835 130.596 96.7501C128.428 97.7402 126.492 99.177 124.915 100.967C124.649 101.267 125.089 101.708 125.356 101.408V101.45Z" fill="black"/>
<path d="M126.553 103.725L126.778 103.583C126.812 103.562 126.84 103.534 126.861 103.5C126.893 103.472 126.914 103.434 126.919 103.392C126.932 103.351 126.932 103.308 126.919 103.267C126.934 103.218 126.937 103.167 126.928 103.117L126.878 103.058C126.842 103.019 126.796 102.99 126.745 102.975H126.662C126.61 102.963 126.555 102.963 126.503 102.975L126.279 103.117C126.245 103.14 126.214 103.168 126.187 103.2C126.161 103.231 126.144 103.268 126.137 103.308C126.125 103.349 126.125 103.393 126.137 103.433C126.129 103.469 126.129 103.506 126.137 103.542L126.187 103.608C126.227 103.647 126.276 103.676 126.329 103.692H126.412C126.467 103.691 126.521 103.677 126.57 103.65L126.553 103.725Z" fill="black"/>
<path d="M114.168 87.8919C114.777 82.8648 114.656 77.776 113.81 72.7835C113.744 72.3835 113.137 72.5502 113.203 72.9502C114.04 77.8878 114.155 82.9211 113.544 87.8919C113.494 88.2919 114.118 88.2835 114.168 87.8919Z" fill="black"/>
<path d="M117.628 84.2917L118.244 79.4417C118.242 79.3583 118.208 79.279 118.149 79.2201C118.09 79.1612 118.011 79.1271 117.928 79.125C117.845 79.1272 117.767 79.1615 117.71 79.2206C117.652 79.2798 117.62 79.3591 117.62 79.4417L117.005 84.2917C117.005 84.4583 117.163 84.6 117.312 84.6C117.395 84.6 117.474 84.5678 117.533 84.5102C117.592 84.4526 117.626 84.3742 117.628 84.2917Z" fill="black"/>
<path d="M113.311 92.325V91.6833C113.31 91.5995 113.278 91.5191 113.22 91.4583C113.191 91.4304 113.158 91.4085 113.12 91.3942C113.083 91.3799 113.043 91.3733 113.004 91.375C112.921 91.3722 112.84 91.4021 112.779 91.4583C112.725 91.5214 112.693 91.6004 112.688 91.6833V92.325C112.688 92.409 112.721 92.4895 112.78 92.5489C112.839 92.6083 112.92 92.6417 113.004 92.6417C113.084 92.6377 113.161 92.6053 113.22 92.55C113.25 92.5213 113.274 92.4863 113.29 92.4475C113.306 92.4087 113.313 92.3669 113.311 92.325Z" fill="black"/>
<path d="M13.3971 75.9083H23.2954C23.4057 75.9083 23.5114 75.8644 23.5894 75.7862C23.6674 75.7081 23.7113 75.6021 23.7113 75.4916C23.7113 75.3811 23.6674 75.2751 23.5894 75.197C23.5114 75.1188 23.4057 75.075 23.2954 75.075H13.3971C13.2868 75.075 13.181 75.1188 13.103 75.197C13.025 75.2751 12.9812 75.3811 12.9812 75.4916C12.9812 75.6021 13.025 75.7081 13.103 75.7862C13.181 75.8644 13.2868 75.9083 13.3971 75.9083Z" fill="black"/>
<path d="M23.3535 75.2418C23.1522 74.9704 23.0381 74.6442 23.0262 74.3063C23.0143 73.9685 23.1053 73.635 23.287 73.3501C23.378 73.2128 23.4971 73.0966 23.6365 73.0092C23.7758 72.9217 23.9322 72.8651 24.0952 72.843C24.2581 72.8209 24.4239 72.8339 24.5815 72.8811C24.739 72.9283 24.8847 73.0087 25.0088 73.1168C25.0611 73.1669 25.1254 73.2027 25.1955 73.2208C25.2656 73.239 25.3392 73.2389 25.4092 73.2205C25.4793 73.2021 25.5434 73.1661 25.5956 73.1159C25.6479 73.0656 25.6864 73.0028 25.7075 72.9334C25.7561 72.4742 25.8887 72.0279 26.0984 71.6168C26.2981 71.2918 26.8054 70.9751 27.055 71.4251C27.1074 71.5085 27.1876 71.5705 27.2814 71.6002C27.3751 71.63 27.4764 71.6255 27.5671 71.5875C27.6579 71.5495 27.7323 71.4806 27.7771 71.3929C27.8219 71.3052 27.8342 71.2044 27.8119 71.1084C27.3545 69.8791 27.305 68.5349 27.6705 67.2751C28.0115 66.3918 29.0263 65.3834 30.0494 65.8251C30.5382 66.1148 30.9561 66.5107 31.2721 66.9834C31.6695 67.4655 32.0362 67.972 32.3701 68.5001C33.0448 69.5642 33.5893 70.7058 33.9921 71.9001C34.1418 72.3251 34.8239 72.2834 34.8239 71.7834C34.8308 71.5683 34.8946 71.3588 35.0088 71.1765C35.1229 70.9941 35.2833 70.8454 35.4736 70.7454C35.6639 70.6454 35.8772 70.5978 36.0919 70.6074C36.3065 70.617 36.5148 70.6835 36.6954 70.8001C37.652 71.4251 37.9431 72.7918 38.1593 73.8251C38.2675 74.3168 38.9412 74.1501 38.9911 73.7168C39.008 73.5619 39.0585 73.4127 39.1391 73.2795C39.2197 73.1464 39.3285 73.0325 39.4577 72.9459C39.5869 72.8594 39.7335 72.8022 39.8871 72.7784C40.0407 72.7547 40.1977 72.7649 40.3469 72.8084C40.7379 72.9751 40.8793 73.4668 41.0373 73.8251C41.1788 74.233 41.4188 74.5994 41.736 74.8918C42.4025 75.3513 43.1895 75.6035 43.9985 75.6168C45.144 75.7499 46.2977 75.8 47.4504 75.7668C47.5607 75.7668 47.6665 75.7229 47.7445 75.6447C47.8225 75.5666 47.8663 75.4606 47.8663 75.3501C47.8663 75.2396 47.8225 75.1336 47.7445 75.0555C47.6665 74.9773 47.5607 74.9334 47.4504 74.9334C46.1013 74.9892 44.75 74.911 43.4162 74.7001C42.9071 74.671 42.4296 74.4437 42.0854 74.0668C41.7443 73.6334 41.6528 73.0584 41.3368 72.6084C40.322 71.1918 38.2841 72.1834 38.1427 73.7168L38.9745 73.6001C38.6834 72.2418 38.1427 70.2668 36.6039 69.8501C36.3026 69.7629 35.9854 69.7465 35.6767 69.8022C35.3681 69.8579 35.0765 69.9842 34.8246 70.1713C34.5727 70.3583 34.3672 70.6011 34.2243 70.8808C34.0813 71.1604 34.0047 71.4693 34.0004 71.7834L34.8322 71.6751C34.3324 70.196 33.6298 68.7936 32.7444 67.5084C32.0374 66.5001 31.0808 65.0084 29.7583 64.9168C29.1565 64.9144 28.5683 65.0957 28.072 65.4366C27.5757 65.7775 27.1948 66.2619 26.9801 66.8251C26.469 68.2896 26.4837 69.8869 27.0217 71.3418L27.7786 71.0251C27.6944 70.8774 27.5815 70.7482 27.4467 70.6449C27.3118 70.5416 27.1577 70.4664 26.9933 70.4237C26.829 70.381 26.6578 70.3716 26.4899 70.3962C26.3219 70.4208 26.1605 70.4788 26.0152 70.5668C25.6868 70.8276 25.4181 71.1559 25.2272 71.5297C25.0364 71.9035 24.9279 72.314 24.909 72.7334L25.6077 72.5501C25.4104 72.3658 25.1778 72.2236 24.924 72.1322C24.6702 72.0408 24.4004 72.0021 24.1312 72.0184C23.8619 72.0348 23.5988 72.1059 23.3579 72.2274C23.117 72.3489 22.9032 72.5182 22.7297 72.7251C22.3865 73.1728 22.2047 73.7236 22.2138 74.288C22.2228 74.8523 22.4223 75.397 22.7796 75.8334C23.104 76.2584 23.6946 75.6584 23.3618 75.2418H23.3535Z" fill="black"/>
<path d="M195.592 14.7835H202.62C202.731 14.7835 202.836 14.7396 202.914 14.6615C202.992 14.5833 203.036 14.4774 203.036 14.3669C203.036 14.2564 202.992 14.1504 202.914 14.0722C202.836 13.9941 202.731 13.9502 202.62 13.9502H195.558C195.448 13.9502 195.342 13.9941 195.264 14.0722C195.186 14.1504 195.143 14.2564 195.143 14.3669C195.143 14.4774 195.186 14.5833 195.264 14.6615C195.342 14.7396 195.448 14.7835 195.558 14.7835H195.592Z" fill="black"/>
<path d="M202.853 14.1501C202.718 13.9897 202.631 13.7944 202.601 13.5866C202.572 13.3787 202.602 13.1668 202.687 12.9751C202.733 12.8749 202.801 12.7867 202.886 12.7176C202.972 12.6484 203.072 12.6002 203.18 12.5767C203.287 12.5533 203.398 12.5552 203.505 12.5824C203.611 12.6096 203.71 12.6613 203.793 12.7334C203.846 12.7835 203.91 12.8193 203.98 12.8375C204.05 12.8557 204.124 12.8556 204.194 12.8372C204.264 12.8188 204.328 12.7828 204.38 12.7325C204.432 12.6823 204.471 12.6195 204.492 12.5501C204.492 12.3751 204.899 10.9251 205.241 11.5001C205.293 11.5858 205.374 11.6499 205.469 11.6805C205.564 11.7111 205.668 11.7062 205.76 11.6667C205.852 11.6271 205.927 11.5557 205.97 11.4653C206.014 11.375 206.024 11.272 205.997 11.1751C205.673 10.3212 205.638 9.38423 205.898 8.50842C206.164 7.84175 206.912 7.18342 207.619 7.67508C208.24 8.19295 208.754 8.82697 209.133 9.54175C209.573 10.2545 209.93 11.0149 210.198 11.8084C210.213 11.9189 210.272 12.0188 210.361 12.086C210.45 12.1532 210.562 12.1822 210.672 12.1668C210.782 12.1513 210.882 12.0925 210.949 12.0035C211.016 11.9144 211.045 11.8023 211.03 11.6918C211.036 11.5516 211.081 11.4158 211.16 11.3C211.239 11.1841 211.348 11.0928 211.477 11.0363C211.605 10.9799 211.746 10.9607 211.885 10.9808C212.024 11.0009 212.154 11.0595 212.261 11.1501C212.786 11.7025 213.111 12.4156 213.184 13.1751C213.292 13.6751 213.949 13.5001 214.016 13.0668C214.023 12.9528 214.064 12.8434 214.133 12.7527C214.202 12.6619 214.297 12.5939 214.405 12.5572C214.513 12.5206 214.629 12.517 214.739 12.5469C214.849 12.5768 214.948 12.6388 215.022 12.7251C215.388 13.2001 215.397 13.7584 215.937 14.1251C216.451 14.3974 217.02 14.5458 217.601 14.5584C218.385 14.6418 219.174 14.6752 219.963 14.6584C220.495 14.6584 220.495 13.8251 219.963 13.8251C218.983 13.8684 218.002 13.807 217.035 13.6418C216.84 13.6269 216.653 13.5625 216.49 13.4546C216.327 13.3466 216.194 13.1988 216.104 13.0251C215.975 12.6758 215.795 12.3473 215.571 12.0501C214.69 11.1334 213.334 11.9834 213.209 13.0668L214.041 12.9584C213.816 11.9168 213.4 10.4584 212.203 10.1834C211.973 10.127 211.733 10.1232 211.502 10.1723C211.271 10.2215 211.053 10.3223 210.866 10.4673C210.679 10.6123 210.527 10.7977 210.422 11.0097C210.316 11.2217 210.259 11.4548 210.256 11.6918L211.088 11.5834C210.724 10.5035 210.212 9.47971 209.566 8.54175C209.042 7.80009 208.351 6.75009 207.353 6.66675C206.91 6.66593 206.477 6.79696 206.108 7.04323C205.739 7.28951 205.452 7.63994 205.282 8.05009C204.889 9.1263 204.889 10.3072 205.282 11.3834L206.039 11.0584C205.903 10.8231 205.68 10.6514 205.418 10.581C205.156 10.5107 204.877 10.5475 204.642 10.6834C204.385 10.8727 204.174 11.1167 204.023 11.3977C203.872 11.6787 203.785 11.9897 203.768 12.3084L204.467 12.1251C204.317 11.9863 204.14 11.8787 203.948 11.8086C203.756 11.7385 203.552 11.7071 203.348 11.7164C203.144 11.7257 202.944 11.7755 202.759 11.8628C202.574 11.9501 202.408 12.0732 202.271 12.2251C202.004 12.5521 201.853 12.9591 201.842 13.3817C201.832 13.8044 201.962 14.2184 202.213 14.5584C202.537 14.9751 203.253 14.5584 202.936 14.1334L202.853 14.1501Z" fill="black"/>
</svg>
