<svg width="211" height="131" viewBox="0 0 211 131" fill="none" xmlns="http://www.w3.org/2000/svg">
                        <g clip-path="url(#clip0_1_231)">
                            <path d="M192.73 45.3849C188.825 49.2333 185.846 53.0913 183.876 56.8531C181.33 61.7138 180.455 66.4364 181.278 70.8906C182.524 77.6363 187.482 83.3206 191.857 88.336C197.915 95.2816 201.475 99.7856 198.447 104.643C193.623 112.381 185.595 109.382 170.642 102.944C162.001 99.2242 152.221 95.0165 140.95 92.8112C140.874 92.3345 140.516 91.9295 140.016 91.8207L138.687 91.5327C138.937 89.2679 137.439 87.1362 135.164 86.6424L134.348 86.4654L134.507 85.7311C134.812 84.3203 133.917 82.9274 132.506 82.622L122.102 80.3677L122.119 80.2919C122.427 78.8679 121.522 77.462 120.097 77.154C118.673 76.8453 117.268 77.7501 116.959 79.1741L116.943 79.2499L112.701 98.8308L112.684 98.9066C112.376 100.331 113.281 101.736 114.705 102.045C116.129 102.354 117.535 101.449 117.843 100.025L117.86 99.9492L128.263 102.204C129.674 102.509 131.067 101.613 131.372 100.202L131.531 99.468L132.346 99.6449C134.621 100.138 136.868 98.817 137.578 96.6518L138.907 96.9398C139.44 97.0552 139.967 96.7984 140.217 96.3431C151.129 98.4728 160.731 102.605 169.215 106.257C176.338 109.323 182.49 111.972 187.764 112.677C191.719 113.205 194.987 112.571 197.635 110.742C199.115 109.72 200.403 108.324 201.508 106.55C203.616 103.17 203.704 99.6057 201.78 95.6555C200.2 92.4123 197.467 89.2797 194.575 85.9635C190.306 81.069 185.892 76.0083 184.825 70.2343C181.813 53.9252 208.068 37.7864 208.334 37.6248L207.399 36.0819L206.464 34.5389C206.175 34.7141 199.302 38.9061 192.73 45.3824L192.73 45.3849Z" fill="#646C75"></path>
                            <path d="M71.8648 77.5194L73.6186 77.8951C75.6611 74.0303 80.0845 71.8227 84.5701 72.783L90.646 74.0841L90.685 73.9036C90.9898 72.4788 92.393 71.57 93.8179 71.8748C95.2428 72.1796 96.1516 73.5828 95.8468 75.0077L95.8078 75.1882L91.6212 94.7499L91.6149 94.7788C91.2951 96.1876 89.9039 97.0813 88.4883 96.7788C87.0727 96.4762 86.1688 95.0899 86.4546 93.6751L80.3772 92.3736C75.8159 91.397 72.6501 87.4586 72.4633 83.0047L70.7688 82.6421C70.3084 82.5435 69.9687 82.1942 69.8567 81.7697C58.9158 79.1435 48.3439 78.9553 39.0131 78.791C31.26 78.6534 24.5632 78.5349 19.4663 77.0066C13.5086 75.2187 10.2367 71.5421 9.4612 65.7652C8.93261 61.8166 10.3184 58.5322 13.6981 55.7241C16.4732 53.4189 20.2531 51.6887 24.254 49.857C30.1593 47.1536 36.2652 44.3583 39.6138 39.535C49.0659 25.919 31.8055 0.423208 31.6109 0.139524L34.5851 -1.90319C34.6566 -1.79986 35.3277 -0.815279 36.3148 0.823025C37.9824 3.59063 40.5498 8.22591 42.6378 13.6329C44.613 18.7476 45.7398 23.4898 45.9872 27.7292C46.3069 33.207 45.16 37.871 42.5771 41.5918C38.665 47.2268 31.8063 50.3663 25.7552 53.1365C17.3746 56.9726 12.2762 59.612 13.037 65.2857C14.2484 74.3232 22.7984 74.8947 39.0774 75.183C48.5398 75.3511 59.2543 75.5417 70.5083 78.2168C70.7323 77.7019 71.2942 77.3977 71.8648 77.5194Z" fill="#646C75"></path>
                            <path d="M95.328 80.777L106.204 83.1332C107.403 83.3926 108.586 82.6312 108.846 81.433C109.105 80.2338 108.344 79.0516 107.145 78.7916L96.2692 76.4353L95.3289 80.7763L95.328 80.777Z" fill="#646C75"></path>
                            <path d="M93.643 88.5534L92.7027 92.8944L103.579 95.2507C104.778 95.51 105.96 94.7487 106.22 93.5504C106.48 92.3513 105.718 91.1691 104.52 90.909L93.6439 88.5528L93.643 88.5534Z" fill="#646C75"></path>
                            <path d="M84.1897 103.487C83.8683 103.074 83.2697 102.994 82.8579 103.318L71.6281 112.02C71.2137 112.341 71.1385 112.938 71.4589 113.352C71.7697 113.753 72.3358 113.837 72.7477 113.553C72.7626 113.542 72.7765 113.533 72.7907 113.521L84.0205 104.819C84.435 104.499 84.5102 103.902 84.1897 103.487Z" fill="#646C75"></path>
                            <path d="M91.102 109.76C90.6577 109.48 90.0723 109.613 89.7928 110.057L82.2172 122.075C81.9377 122.519 82.0701 123.105 82.5143 123.384C82.8455 123.594 83.2573 123.572 83.5603 123.362C83.6626 123.292 83.7526 123.199 83.8235 123.087L91.3991 111.069C91.6786 110.625 91.5462 110.039 91.102 109.76Z" fill="#646C75"></path>
                            <path d="M99.7424 113.29C99.2301 113.178 98.7246 113.504 98.6135 114.017L95.6049 127.902C95.4933 128.414 95.819 128.92 96.3322 129.031C96.5986 129.088 96.8646 129.028 97.0729 128.884C97.2644 128.752 97.4078 128.55 97.4617 128.304L100.47 114.42C100.582 113.908 100.256 113.402 99.7431 113.291L99.7424 113.29Z" fill="#646C75"></path>
                            <path d="M109.069 113.653C108.55 113.725 108.185 114.203 108.257 114.722L110.179 128.798C110.249 129.317 110.728 129.681 111.248 129.61C111.401 129.589 111.539 129.533 111.658 129.451C111.944 129.254 112.11 128.908 112.06 128.541L110.138 114.465C110.067 113.946 109.588 113.582 109.069 113.653Z" fill="#646C75"></path>
                            <path d="M117.959 110.804C117.495 111.048 117.317 111.622 117.561 112.086L124.182 124.656C124.426 125.12 125 125.298 125.464 125.053C125.498 125.035 125.531 125.015 125.561 124.994C125.951 124.725 126.087 124.2 125.861 123.771L119.24 111.201C118.995 110.738 118.422 110.56 117.958 110.804L117.959 110.804Z" fill="#646C75"></path>
                        </g>
                        <defs>
                            <clipPath id="clip0_1_231">
                                <rect width="210" height="130" fill="white" transform="matrix(-1 8.74228e-08 8.74228e-08 1 210.408 0.949829)"></rect>
                            </clipPath>
                        </defs>
                    </svg>