<?xml version="1.0" encoding="utf-8"?>
<!-- Generator: Adobe Illustrator 28.0.0, SVG Export Plug-In . SVG Version: 6.00 Build 0)  -->
<svg version="1.1" id="Layer_1" xmlns="http://www.w3.org/2000/svg" xmlns:xlink="http://www.w3.org/1999/xlink" x="0px" y="0px"
	 viewBox="0 0 143.2 133.2" style="enable-background:new 0 0 143.2 133.2;" xml:space="preserve">
<style type="text/css">
	.st0{fill:#E5E5E5;}
	.st1{fill:#F4F4F4;}
	.st2{fill:#EFEFEF;}
	.st3{opacity:0.6;}
	.st4{fill:#FFFFFF;}
	.st5{fill:#D1CFCF;}
	.st6{fill:#F2F2F2;}
	.st7{opacity:5.000000e-02;}
	.st8{opacity:3.000000e-02;}
	.st9{fill:#B4CEF3;}
</style>
<g>
	<g>
		<g>
			<path class="st0" d="M118.4,9.7v49.1H21.8v-50c0-2.3,1-4.4,2.5-5.9h87.3C115.3,2.9,118.4,6,118.4,9.7z"/>
		</g>
		<g>
			<polygon class="st1" points="92.8,58 62.9,58.5 21.5,59.1 63.7,33.2 			"/>
		</g>
		<g>
			<polygon class="st2" points="115.3,58.7 60.8,59.6 62.9,58.5 92.8,58 82,47.6 95.6,40 			"/>
		</g>
		<g class="st3">
			<path class="st4" d="M70.1,17.1H36.7c-0.3,0-0.5-0.2-0.5-0.5s0.2-0.5,0.5-0.5h33.5c0.3,0,0.5,0.2,0.5,0.5S70.4,17.1,70.1,17.1z"
				/>
		</g>
		<g>
			<path class="st5" d="M121.1,59.8H21.9c-0.3,0-0.5-0.2-0.5-0.5s0.2-0.5,0.5-0.5H121c0.3,0,0.5,0.2,0.5,0.5S121.3,59.8,121.1,59.8z
				"/>
		</g>
	</g>
	<g>
		<g>
			<g>
				<g>
					<g>
						<g>
							<g>
								<g>
									<g>
										<g>
											<g>
												<g>
													<g>
														<g>
															<g>
																<g>
																	<path d="M111.5,133.2H30.1c-4.9,0-8.8-4-8.8-8.8V8.8c0-2.4,0.9-4.6,2.6-6.3l0,0C25.6,0.9,27.8,0,30.1,0h82.7
																		c4.9,0,8.8,4,8.8,8.8V123C121.7,128.7,117.1,133.2,111.5,133.2z M24.7,3.2c-1.5,1.5-2.3,3.5-2.3,5.6v115.6
																		c0,4.3,3.5,7.8,7.8,7.8h81.3c5.1,0,9.2-4.1,9.2-9.2V8.8c0-4.3-3.5-7.8-7.8-7.8H30.1C28.1,1,26.1,1.8,24.7,3.2
																		L24.7,3.2z"/>
																</g>
															</g>
														</g>
													</g>
												</g>
											</g>
										</g>
									</g>
								</g>
								<g>
									<g>
										<path class="st6" d="M139.6,43.7c-0.3,0-0.5-0.2-0.5-0.5v-6c0-0.3,0.2-0.5,0.5-0.5s0.5,0.2,0.5,0.5v6
											C140.1,43.5,139.8,43.7,139.6,43.7z"/>
									</g>
									<g>
										<path class="st6" d="M142.5,40.7h-6c-0.3,0-0.5-0.2-0.5-0.5s0.2-0.5,0.5-0.5h6c0.3,0,0.5,0.2,0.5,0.5
											S142.8,40.7,142.5,40.7z"/>
									</g>
								</g>
								<g>
									<g>
										<path class="st6" d="M2.8,96.3c-0.3,0-0.5-0.2-0.5-0.5V91c0-0.3,0.2-0.5,0.5-0.5s0.5,0.2,0.5,0.5v4.8
											C3.3,96.1,3.1,96.3,2.8,96.3z"/>
									</g>
									<g>
										<path class="st6" d="M5.2,94H0.5C0.2,94,0,93.8,0,93.5S0.2,93,0.5,93h4.8c0.3,0,0.5,0.2,0.5,0.5S5.5,94,5.2,94z"/>
									</g>
								</g>
								<g>
									<g>
										<path class="st1" d="M10.4,25c-0.3,0-0.5-0.2-0.5-0.5v-5c0-0.3,0.2-0.5,0.5-0.5c0.3,0,0.5,0.2,0.5,0.5v5
											C10.9,24.8,10.7,25,10.4,25z"/>
									</g>
									<g>
										<path class="st1" d="M12.9,22.5h-5c-0.3,0-0.5-0.2-0.5-0.5s0.2-0.5,0.5-0.5h5c0.3,0,0.5,0.2,0.5,0.5S13.2,22.5,12.9,22.5z
											"/>
									</g>
								</g>
							</g>
						</g>
					</g>
				</g>
			</g>
			<g>
				<g class="st7">
					<path d="M104,92.7H39c-2.5,0-4.5-2-4.5-4.5V73.9c0-2.5,2-4.5,4.5-4.5h65.1c2.5,0,4.5,2,4.5,4.5v14.3
						C108.5,90.7,106.5,92.7,104,92.7z"/>
				</g>
				<g class="st8">
					<path d="M52,121.5H40.5c-3.3,0-6-2.7-6-6v-10.2c0-3.3,2.7-6,6-6H52c3.3,0,6,2.7,6,6v10.2C58,118.8,55.3,121.5,52,121.5z"/>
				</g>
				<g class="st8">
					<path d="M82.3,121.5H70.7c-3.3,0-6-2.7-6-6v-10.2c0-3.3,2.7-6,6-6h11.5c3.3,0,6,2.7,6,6v10.2C88.3,118.8,85.6,121.5,82.3,121.5
						z"/>
				</g>
			</g>
			<g>
				<g>
					<circle class="st4" cx="121.8" cy="92.8" r="20.8"/>
				</g>
			</g>
			<g>
				<g>
					<circle class="st9" cx="120.6" cy="94.1" r="20.8"/>
				</g>
			</g>
			<g>
				<g>
					<path d="M121.9,114.2c-11.8,0-21.3-9.6-21.3-21.3s9.6-21.3,21.3-21.3s21.3,9.6,21.3,21.3S133.7,114.2,121.9,114.2z M121.9,72.5
						c-11.2,0-20.3,9.1-20.3,20.3s9.1,20.3,20.3,20.3s20.3-9.1,20.3-20.3S133.1,72.5,121.9,72.5z"/>
				</g>
			</g>
			<g>
				<g>
					<path d="M121.9,101.8c-0.3,0-0.5-0.2-0.5-0.5v-17c0-0.3,0.2-0.5,0.5-0.5s0.5,0.2,0.5,0.5v17
						C122.4,101.6,122.2,101.8,121.9,101.8z"/>
				</g>
				<g>
					<path d="M130.4,93.3h-17c-0.3,0-0.5-0.2-0.5-0.5s0.2-0.5,0.5-0.5h17c0.3,0,0.5,0.2,0.5,0.5S130.7,93.3,130.4,93.3z"/>
				</g>
			</g>
		</g>
	</g>
</g>
</svg>
