<svg width="402" height="300" viewBox="0 0 402 300" fill="none" xmlns="http://www.w3.org/2000/svg">
    <path d="M200.5 300C283.343 300 350.5 232.843 350.5 150C350.5 67.1573 283.343 0 200.5 0C117.657 0 50.5 67.1573 50.5 150C50.5 232.843 117.657 300 200.5 300Z" fill="#F9F9F9" />
    <path d="M368.033 173.052H290.907L284.311 176.98V134.32C284.311 131.697 286.095 129.575 288.298 129.575H368.033C370.237 129.575 372.021 131.704 372.021 134.32V168.3C372.021 170.923 370.237 173.044 368.033 173.044V173.052Z" fill="#F9F0F2" stroke="black" stroke-width="0.8" stroke-miterlimit="10" />
    <path d="M352.906 143.817H306.431" stroke="black" stroke-width="0.8" stroke-miterlimit="10" />
    <path d="M333.417 150.564H306.431" stroke="black" stroke-width="0.8" stroke-miterlimit="10" />
    <path d="M352.906 157.311H306.431" stroke="black" stroke-width="0.8" stroke-miterlimit="10" />
    <path d="M309.738 89.2868V212.476C309.738 214.665 307.969 216.434 305.781 216.434H100.068C97.8791 216.434 96.1025 214.657 96.1025 212.468V89.2868C96.1025 89.1443 96.1025 89.0094 96.125 88.8745C96.2899 86.9555 97.8041 85.4338 99.7231 85.2764C99.858 85.2614 99.993 85.2539 100.135 85.2539H305.698C305.841 85.2539 305.975 85.2539 306.11 85.2764C308.029 85.4413 309.551 86.9555 309.708 88.8745C309.723 89.0094 309.731 89.1443 309.731 89.2868H309.738Z" fill="#EAF5FB" stroke="black" stroke-width="0.8" stroke-miterlimit="10" />
    <path d="M309.356 88.2609V107.267C309.356 107.605 307.593 107.878 305.412 107.878H100.421C98.24 107.878 96.4697 107.604 96.4697 107.266V88.2609C96.4697 88.2389 96.4697 88.2181 96.4921 88.1973C96.6565 87.9012 98.1653 87.6664 100.078 87.6421C100.212 87.6398 100.346 87.6387 100.488 87.6387H305.33C305.472 87.6387 305.606 87.6387 305.741 87.6421C307.653 87.6676 309.169 87.9012 309.326 88.1973C309.341 88.2181 309.349 88.2389 309.349 88.2609H309.356Z" fill="#BFE7FF" />
    <path d="M96.1027 89.2868V103.994H309.739V89.2868C309.739 87.0604 307.932 85.2539 305.706 85.2539H100.128C97.9017 85.2539 96.0952 87.0604 96.0952 89.2868H96.1027Z" fill="white" stroke="black" stroke-width="0.8" stroke-miterlimit="10" />
    <path d="M108.846 97.6222C110.295 97.6222 111.469 96.4476 111.469 94.9986C111.469 93.5496 110.295 92.375 108.846 92.375C107.397 92.375 106.222 93.5496 106.222 94.9986C106.222 96.4476 107.397 97.6222 108.846 97.6222Z" fill="#FC2E63" />
    <path d="M118.591 97.6222C120.04 97.6222 121.214 96.4476 121.214 94.9986C121.214 93.5496 120.04 92.375 118.591 92.375C117.142 92.375 115.967 93.5496 115.967 94.9986C115.967 96.4476 117.142 97.6222 118.591 97.6222Z" fill="#FFA766" />
    <path d="M127.586 97.6222C129.035 97.6222 130.21 96.4476 130.21 94.9986C130.21 93.5496 129.035 92.375 127.586 92.375C126.138 92.375 124.963 93.5496 124.963 94.9986C124.963 96.4476 126.138 97.6222 127.586 97.6222Z" fill="#60D8D2" />
    <g opacity="0.18">
        <path d="M248.324 156.706C248.849 157.35 249.359 158.018 249.883 158.67C250.018 158.835 250.063 158.985 249.951 159.172L250.041 159.015C249.703 160.416 249.486 161.863 249.464 163.355L249.419 163.182C249.419 163.437 249.314 163.587 249.119 163.722C248.422 164.202 247.732 164.704 247.035 165.191C246.72 165.409 246.63 165.671 246.72 166.031C247.125 167.605 247.53 169.172 247.919 170.746C248.017 171.128 248.227 171.316 248.624 171.36C249.471 171.443 250.311 171.563 251.15 171.653C251.398 171.675 251.54 171.78 251.66 171.998L251.615 171.81C252.327 173.077 253.834 175.918 253.834 175.918L253.676 175.821C253.676 175.821 254.254 175.513 254.216 175.738C254.066 176.563 253.939 177.387 253.781 178.204C253.706 178.617 253.826 178.901 254.201 179.119C255.573 179.913 256.93 180.723 258.286 181.548C258.669 181.78 258.984 181.757 259.321 181.48C259.965 180.955 260.633 180.446 261.285 179.921C261.457 179.779 261.63 179.741 261.952 179.644L261.802 179.554C263.069 180.093 264.493 180.303 265.97 180.326L265.805 180.371C266.037 180.371 266.187 180.446 266.322 180.641C266.802 181.338 267.312 182.02 267.784 182.724C268.016 183.069 268.294 183.159 268.691 183.054C270.235 182.649 271.779 182.252 273.331 181.87C273.751 181.765 273.938 181.533 273.983 181.113C274.065 180.296 274.17 179.479 274.268 178.662C274.29 178.512 274.275 178.347 274.403 178.227L274.268 178.257C275.587 177.53 276.794 176.638 278.128 175.746L278.031 175.918C277.963 175.581 278.136 175.528 278.398 175.581C279.193 175.731 279.987 175.858 280.789 175.993C281.329 176.083 281.487 176.016 281.756 175.558C282.558 174.209 283.353 172.852 284.17 171.51C284.402 171.128 284.38 170.813 284.103 170.476C283.578 169.831 283.068 169.164 282.543 168.512C282.416 168.355 281.861 167.642 281.861 167.642L281.921 167.538C282.289 166.233 282.498 164.861 282.513 163.437L282.558 163.61C282.558 163.385 282.633 163.25 282.821 163.122C283.465 162.68 284.095 162.215 284.74 161.773C285.047 161.563 285.19 161.196 285.092 160.836C284.71 159.389 284.342 157.943 283.983 156.496C283.893 156.144 283.6 155.896 283.241 155.859C282.453 155.776 281.674 155.671 280.887 155.589C280.684 155.566 280.55 155.499 280.445 155.312L280.49 155.484C279.905 154.435 279.193 153.468 278.391 152.583L278.458 152.463L278.083 152.006C278.083 152.006 278.016 151.766 278.053 151.549C278.181 150.754 278.301 149.959 278.436 149.172C278.518 148.723 278.361 148.445 277.918 148.22C276.622 147.583 275.355 146.909 274.178 146.062C273.758 145.762 273.436 145.769 273.091 146.062C272.476 146.579 271.839 147.073 271.224 147.583C271.052 147.726 270.902 147.771 270.677 147.711C270.557 147.666 270.437 147.628 270.325 147.598C269.32 147.351 268.286 147.201 267.214 147.156L267.312 147.133C266.839 147.133 266.48 146.991 266.21 146.541C265.842 145.927 265.393 145.364 264.98 144.78C264.77 144.48 264.493 144.367 264.096 144.547C262.702 145.177 261.202 145.477 259.681 145.664C259.358 145.702 259.118 145.867 259.081 146.181C258.984 147.028 258.894 147.876 258.796 148.723C258.781 149.03 258.601 149.18 258.339 149.33L258.466 149.3C257.349 149.944 256.322 150.724 255.393 151.609L255.258 151.833C255.258 151.833 254.373 151.654 254.164 151.609C253.302 151.444 252.44 151.316 251.577 151.159C251.165 151.084 250.88 151.204 250.663 151.579C249.868 152.943 249.059 154.307 248.234 155.664C248.002 156.046 248.039 156.361 248.309 156.698L248.324 156.706ZM270.707 155.911C274.957 158.4 276.382 163.865 273.893 168.107C271.404 172.35 265.94 173.782 261.697 171.293C257.447 168.804 256.023 163.34 258.511 159.097C261 154.854 266.465 153.423 270.707 155.911Z" stroke="#3398DD" stroke-width="0.8" stroke-linecap="round" stroke-linejoin="round" />
        <path d="M220.551 206.839C226.041 206.839 230.491 202.389 230.491 196.9C230.491 191.41 226.041 186.96 220.551 186.96C215.061 186.96 210.611 191.41 210.611 196.9C210.611 202.389 215.061 206.839 220.551 206.839Z" stroke="#3398DD" stroke-width="0.8" stroke-linecap="round" stroke-linejoin="round" />
        <path d="M220.676 206.858C222.758 206.829 224.383 202.355 224.306 196.866C224.228 191.377 222.477 186.951 220.395 186.981C218.313 187.01 216.688 191.484 216.766 196.973C216.843 202.462 218.594 206.888 220.676 206.858Z" stroke="#3398DD" stroke-width="0.8" stroke-linecap="round" stroke-linejoin="round" />
        <path d="M220.552 206.839C226.041 206.839 230.491 202.389 230.491 196.9C230.491 191.41 226.041 186.96 220.552 186.96C215.062 186.96 210.612 191.41 210.612 196.9C210.612 202.389 215.062 206.839 220.552 206.839Z" stroke="#3398DD" stroke-width="0.8" stroke-linecap="round" stroke-linejoin="round" />
        <path d="M220.597 200.682C226.086 200.604 230.514 199.008 230.487 197.116C230.46 195.224 225.989 193.754 220.5 193.831C215.011 193.909 210.583 195.505 210.609 197.397C210.636 199.289 215.108 200.759 220.597 200.682Z" stroke="#3398DD" stroke-width="0.8" stroke-linecap="round" stroke-linejoin="round" />
    </g>
    <path d="M43.7668 162.437H120.233L126.77 166.275V134.094C126.77 131.531 125.001 129.462 122.82 129.462H43.7668C41.5855 129.462 39.8164 131.538 39.8164 134.094V157.804C39.8164 160.368 41.5855 162.437 43.7668 162.437Z" fill="#ECF8E9" stroke="black" stroke-width="0.8" stroke-miterlimit="10" />
    <path d="M51.4351 140.699H112.902" stroke="black" stroke-width="0.8" stroke-miterlimit="10" />
    <path d="M51.4351 149.694H96.411" stroke="black" stroke-width="0.8" stroke-miterlimit="10" />
    <path d="M219.194 165.844C218.767 169.442 212.066 177.073 207.658 181.751C205.147 184.404 203.625 187.845 203.325 191.488L202.1 253.132H154.615L179.053 178.767C179.743 177.013 179.9 175.124 179.653 173.258C179.158 169.532 179.878 165.889 180.92 162.074C182.209 157.389 173.386 146.212 174.233 141.984C175.095 137.742 180.433 140.628 180.433 140.628C180.433 140.628 219.839 160.44 219.194 165.844Z" fill="#FFD3A7" stroke="black" stroke-width="0.8" stroke-miterlimit="10" />
    <path d="M182.771 137.599C182.771 137.599 191.399 160.447 200.529 172.463C202.463 175.012 205.821 176.023 208.857 175.012L215.836 172.688C217.215 172.23 218.437 171.376 219.336 170.244C221.405 167.65 221.525 164.015 219.636 161.286C213.565 152.539 201.076 133.371 201.354 124.121C201.721 111.903 182.771 137.599 182.771 137.599V137.599Z" fill="#FC2E63" stroke="black" stroke-width="0.8" stroke-linecap="round" stroke-linejoin="round" />
    <path d="M242.934 58.9062C242.934 58.9062 242.934 58.924 242.934 58.9062" stroke="black" stroke-width="0.8" stroke-linecap="round" stroke-linejoin="round" />
    <path d="M279.229 131.4C278.922 131.4 278.614 131.415 278.307 131.422C278.3 131.422 278.292 131.422 278.285 131.422H278.27C269.372 131.602 260.736 131.872 252.476 132.352C228.991 133.694 208.422 136.624 192.613 143.431C190.327 144.398 188.145 145.455 186.084 146.594C184.052 147.719 182.111 148.925 180.297 150.215C179.555 150.724 178.843 151.257 178.146 151.811L165.125 125.021C165.725 124.878 166.317 124.713 166.917 124.548C169.413 123.844 171.924 122.944 174.42 121.865C176.406 121.025 178.408 120.051 180.387 118.964C195.641 110.726 210.761 96.2285 226.45 78.4181C232.019 72.0989 237.664 65.3525 243.421 58.3213" fill="white" />
    <path d="M279.229 131.4C278.922 131.4 278.614 131.415 278.307 131.422C278.3 131.422 278.292 131.422 278.285 131.422H278.27C269.372 131.602 260.736 131.872 252.476 132.352C228.991 133.694 208.422 136.624 192.613 143.431C190.327 144.398 188.145 145.455 186.084 146.594C184.052 147.719 182.111 148.925 180.297 150.215C179.555 150.724 178.843 151.257 178.146 151.811L165.125 125.021C165.725 124.878 166.317 124.713 166.917 124.548C169.413 123.844 171.924 122.944 174.42 121.865C176.406 121.025 178.408 120.051 180.387 118.964C195.641 110.726 210.761 96.2285 226.45 78.4181C232.019 72.0989 237.664 65.3525 243.421 58.3213" stroke="black" stroke-width="0.8" stroke-linecap="round" stroke-linejoin="round" />
    <path d="M276.209 87.6981C282.693 101.033 284.634 114.616 282.235 124.301C281.568 126.992 280.564 129.398 279.23 131.4L279.125 131.565C278.855 131.52 278.585 131.482 278.315 131.422C278.308 131.422 278.3 131.422 278.293 131.422H278.278C269.38 131.602 260.744 131.872 252.484 132.352C245.363 127.262 238.466 118.934 233.399 108.522C228.257 97.9526 225.978 87.2408 226.443 78.4181C232.012 72.0989 237.657 65.3525 243.414 58.3213C243.451 58.3213 243.489 58.3213 243.519 58.3288C245.977 58.4862 248.556 59.1833 251.15 60.3677C260.25 64.468 269.732 74.3702 276.216 87.6981H276.209Z" fill="white" stroke="black" stroke-width="0.8" stroke-linecap="round" stroke-linejoin="round" />
    <path d="M276.209 87.6974C282.693 101.033 284.634 114.616 282.235 124.3C281.568 126.991 280.564 129.398 279.23 131.399L279.125 131.564C278.855 131.519 278.585 131.482 278.315 131.422C278.308 131.422 278.3 131.422 278.293 131.422H278.278C267.521 129.315 255.205 118.041 247.289 101.767C239.373 85.4936 238.047 67.9605 243.519 58.3281C245.977 58.4855 248.556 59.1827 251.15 60.367C260.25 64.4673 269.732 74.3696 276.216 87.6974H276.209Z" fill="#BFE7FF" stroke="black" stroke-width="0.8" stroke-miterlimit="10" />
    <path d="M200.739 142.283C200.739 142.283 209.127 159.457 215.326 166.263" stroke="black" stroke-width="0.8" stroke-miterlimit="10" />
    <path d="M198.648 106.272H198.625C192.531 111.377 186.467 115.672 180.372 118.963C178.393 120.05 176.392 121.025 174.406 121.864C171.909 122.944 169.406 123.836 166.902 124.548C166.302 124.713 165.718 124.878 165.118 125.02H165.111C160.95 127.044 160.523 134.742 164.151 142.201C167.787 149.674 174.098 154.074 178.258 152.051L184.585 147.44C185.072 147.156 185.567 146.871 186.069 146.593C188.131 145.454 190.312 144.39 192.598 143.43C199.03 140.657 206.264 138.543 214.149 136.901C206.136 128.468 199.952 117.202 198.625 106.272H198.648Z" fill="#FC2E63" stroke="black" stroke-width="0.8" stroke-linecap="round" stroke-linejoin="round" />
    <path d="M265.782 109.249C266.989 114.564 267.971 120.59 268.698 127.397" stroke="black" stroke-width="0.8" stroke-linecap="round" stroke-linejoin="round" />
    <path d="M240.138 72.8643C247.027 75.203 253.181 79.8355 258.099 88.321" stroke="black" stroke-width="0.8" stroke-linecap="round" stroke-linejoin="round" />
    <path d="M211.563 167.829C208.302 166.6 208.145 162.649 208.145 162.649C208.145 162.649 201.908 161.975 202.35 157.889C202.35 157.889 197.238 156.705 198.257 152.605C199.277 148.504 203.707 145.423 203.707 145.423C203.707 145.423 198.415 147.44 196.608 144.374C194.802 141.308 202.92 136.871 209.232 137.793C215.543 138.715 211.983 143.549 211.983 143.549C211.983 143.549 216.255 144.254 215.348 148.369C215.348 148.369 221.622 148.13 220.063 153.414C220.063 153.414 222.799 155.123 223.504 158.482C224.606 163.736 214.846 169.058 211.585 167.837L211.563 167.829Z" fill="#FFD3A7" />
    <path d="M219.126 154.067C219.126 154.067 214.097 155.896 210.139 160.327" stroke="black" stroke-width="0.8" stroke-miterlimit="10" />
    <path d="M214.981 148.422C214.981 148.422 209.952 150.251 205.994 154.681" stroke="black" stroke-width="0.8" stroke-miterlimit="10" />
    <path d="M210.963 143.377C210.963 143.377 205.933 145.206 201.976 149.636" stroke="black" stroke-width="0.8" stroke-miterlimit="10" />
    <path d="M196.601 144.367C194.794 141.301 202.913 136.864 209.224 137.786C215.536 138.708 211.975 143.543 211.975 143.543C211.975 143.543 216.248 144.247 215.341 148.363C215.341 148.363 221.615 148.123 220.056 153.407C220.056 153.407 222.792 155.116 223.497 158.475C224.599 163.729 214.839 169.052 211.578 167.83" stroke="black" stroke-width="0.8" stroke-miterlimit="10" />
    <path d="M149.42 43.324C36.127 29.1693 59.5803 103.76 85.6674 86.2104C91.5974 80.1424 87.4746 72.2057 80.872 72.6192C59.8226 73.9373 62.0641 111.142 81.501 110.37" stroke="black" stroke-width="0.25" stroke-miterlimit="10" stroke-dasharray="1.6 1.6" />
    <path d="M146.89 52.8315L163.288 45.5909L166.321 41.383L149.353 39.6531L146.89 52.8315Z" fill="black" stroke="black" stroke-linecap="round" stroke-linejoin="round" />
    <path d="M141.179 30.0413L167.345 59.8813L183.843 30.6195L141.179 30.0413Z" fill="#BFE7FF" stroke="black" stroke-width="0.8" stroke-linecap="round" stroke-linejoin="round" />
    <path d="M147.035 52.5111L149.353 39.6537L180.813 31.9436L153.194 43.2226L147.035 52.5111Z" fill="#3398DD" stroke="black" stroke-width="0.8" stroke-linecap="round" stroke-linejoin="round" />
    <path d="M111.157 192.876H81.9234C79.7374 192.876 77.9653 194.521 77.9653 196.551V249.003C77.9653 251.033 79.7374 252.678 81.9234 252.678H111.157C113.343 252.678 115.115 251.033 115.115 249.003V196.551C115.115 194.521 113.343 192.876 111.157 192.876Z" fill="#EAF5FB" stroke="black" stroke-width="0.8" stroke-miterlimit="10" />
    <path d="M110.79 195.595H82.2909C81.4032 195.595 80.6836 196.287 80.6836 197.142V243.883C80.6836 244.737 81.4032 245.43 82.2909 245.43H110.79C111.677 245.43 112.397 244.737 112.397 243.883V197.142C112.397 196.287 111.677 195.595 110.79 195.595Z" fill="white" stroke="black" stroke-width="0.8" stroke-miterlimit="10" />
    <path d="M96.5396 250.866C97.7907 250.866 98.8049 249.852 98.8049 248.601C98.8049 247.35 97.7907 246.336 96.5396 246.336C95.2886 246.336 94.2744 247.35 94.2744 248.601C94.2744 249.852 95.2886 250.866 96.5396 250.866Z" stroke="black" stroke-width="0.5" stroke-miterlimit="10" />
    <path d="M96.3749 233.183C98.303 233.183 99.866 231.595 99.866 229.637C99.866 227.679 98.303 226.092 96.3749 226.092C94.4468 226.092 92.8838 227.679 92.8838 229.637C92.8838 231.595 94.4468 233.183 96.3749 233.183Z" fill="#F7D84D" stroke="black" stroke-width="0.8" stroke-miterlimit="10" stroke-linecap="round" stroke-linejoin="round" />
    <path d="M88.0299 225.656V218.701C88.0299 214.822 90.6006 211.557 94.1079 210.552V209.675C94.1079 208.403 95.1215 207.373 96.3744 207.373C97.6273 207.373 98.641 208.403 98.641 209.675V210.552C102.148 211.557 104.719 214.818 104.719 218.701V225.656L106.633 228.876H86.1201L88.0339 225.656H88.0299Z" fill="#F7D84D" stroke="black" stroke-width="0.8" stroke-miterlimit="10" stroke-linecap="round" stroke-linejoin="round" />
    <path d="M85.8339 210.527C85.5234 209.315 85.6631 208.085 86.3279 207.074C86.9389 206.145 87.8951 205.551 89.0017 205.309" stroke="black" stroke-width="0.8" stroke-miterlimit="10" stroke-linecap="round" stroke-linejoin="round" />
    <path d="M83.2472 210.363C82.8742 208.672 83.1029 206.971 84.0305 205.56C84.9581 204.149 86.3076 203.343 87.9149 202.983" stroke="black" stroke-width="0.8" stroke-miterlimit="10" stroke-linecap="round" stroke-linejoin="round" />
    <path d="M107.427 210.527C107.737 209.315 107.598 208.085 106.933 207.074C106.322 206.145 105.366 205.551 104.259 205.309" stroke="black" stroke-width="0.8" stroke-miterlimit="10" stroke-linecap="round" stroke-linejoin="round" />
    <path d="M110.014 210.363C110.387 208.672 110.158 206.971 109.23 205.56C108.303 204.149 106.953 203.343 105.346 202.983" stroke="black" stroke-width="0.8" stroke-miterlimit="10" stroke-linecap="round" stroke-linejoin="round" />
    <path d="M339.091 196.385H249.776C247.689 196.385 245.998 198.076 245.998 200.163V249.172C245.998 251.258 247.689 252.95 249.776 252.95H339.091C341.177 252.95 342.869 251.258 342.869 249.172V200.163C342.869 198.076 341.177 196.385 339.091 196.385Z" fill="white" stroke="black" stroke-width="0.8" stroke-miterlimit="10" />
    <path d="M264.956 224.51L277.039 233.782L300.457 219.143L323.664 227.088" stroke="black" stroke-width="0.8" stroke-miterlimit="10" />
    <path d="M307.955 235.15L303.716 236.676L308.173 249.061L312.412 247.536L307.955 235.15Z" fill="#BFE7FF" stroke="black" stroke-width="0.8" stroke-miterlimit="10" />
    <path d="M317.713 268.849C315.524 269.636 313.11 268.504 312.323 266.315L305.659 247.815C305.404 247.095 305.652 246.293 306.259 245.843C307.938 244.599 309.797 243.864 311.888 243.789C312.63 243.759 313.312 244.224 313.56 244.929L320.239 263.466C321.026 265.655 319.894 268.069 317.705 268.856L317.713 268.849Z" fill="#73CBF2" stroke="black" stroke-width="0.8" stroke-miterlimit="10" />
    <path d="M295.322 206.669C286.694 209.773 282.219 219.285 285.322 227.913C288.426 236.541 297.938 241.016 306.566 237.913C315.194 234.809 319.669 225.297 316.565 216.669C313.462 208.041 303.95 203.566 295.322 206.669ZM304.887 233.25C298.837 235.424 292.166 232.291 289.992 226.241C287.818 220.192 290.952 213.521 297.001 211.347C303.05 209.173 309.722 212.306 311.895 218.356C314.069 224.405 310.936 231.076 304.887 233.25Z" fill="#BFE7FF" stroke="black" stroke-width="0.8" stroke-miterlimit="10" />
    <path d="M265.203 226.916C266.652 226.916 267.827 225.742 267.827 224.293C267.827 222.844 266.652 221.669 265.203 221.669C263.754 221.669 262.58 222.844 262.58 224.293C262.58 225.742 263.754 226.916 265.203 226.916Z" fill="#FFA766" stroke="black" stroke-width="0.8" stroke-miterlimit="10" />
    <path d="M277.197 236.661C278.646 236.661 279.82 235.487 279.82 234.038C279.82 232.589 278.646 231.414 277.197 231.414C275.748 231.414 274.573 232.589 274.573 234.038C274.573 235.487 275.748 236.661 277.197 236.661Z" fill="#60D8D2" stroke="black" stroke-width="0.8" stroke-miterlimit="10" />
    <path d="M300.434 221.669C301.883 221.669 303.058 220.494 303.058 219.045C303.058 217.597 301.883 216.422 300.434 216.422C298.985 216.422 297.811 217.597 297.811 219.045C297.811 220.494 298.985 221.669 300.434 221.669Z" fill="#FC2E63" stroke="black" stroke-width="0.8" stroke-miterlimit="10" />
    <path d="M323.672 229.914C325.121 229.914 326.296 228.74 326.296 227.291C326.296 225.842 325.121 224.667 323.672 224.667C322.223 224.667 321.048 225.842 321.048 227.291C321.048 228.74 322.223 229.914 323.672 229.914Z" fill="#8F8FEF" stroke="black" stroke-width="0.8" stroke-miterlimit="10" />
    <path d="M276.066 71.9127C269.604 76.2004 263.045 80.3457 256.396 84.3336C254.522 85.458 252.648 86.5599 250.759 87.6618C250.654 87.7218 250.752 87.8867 250.857 87.8267C257.558 83.9288 264.17 79.8734 270.684 75.6682C272.513 74.4838 274.342 73.292 276.156 72.0851C276.253 72.0176 276.156 71.8527 276.058 71.9202L276.066 71.9127Z" fill="black" />
    <path d="M249.545 84.4685L254.568 78.3892C254.643 78.2993 254.515 78.1643 254.433 78.2543L249.41 84.3335C249.335 84.4235 249.463 84.5584 249.545 84.4685Z" fill="black" />
    <path d="M256.787 75.9757L257.814 74.7388C257.888 74.6489 257.761 74.5139 257.679 74.6039L256.652 75.8407C256.577 75.9307 256.704 76.0656 256.787 75.9757V75.9757Z" fill="black" />
    <path d="M257.364 103.373L268.36 99.895C268.473 99.8575 268.428 99.6776 268.308 99.7151L257.311 103.193C257.199 103.231 257.244 103.411 257.364 103.373Z" fill="black" />
    <path d="M261.352 114.572C265.332 114.932 269.312 115.232 273.3 115.472C273.42 115.472 273.42 115.292 273.3 115.285C269.312 115.037 265.332 114.737 261.352 114.385C261.232 114.377 261.232 114.565 261.352 114.572Z" fill="black" />
    <path d="M261.112 110.106C262.326 109.971 263.526 109.716 264.702 109.356C264.815 109.318 264.77 109.139 264.65 109.176C263.496 109.536 262.311 109.783 261.112 109.918C260.992 109.933 260.992 110.12 261.112 110.106Z" fill="black" />
    <path d="M267.618 108.689L269.477 108.321C269.597 108.299 269.544 108.119 269.424 108.142L267.565 108.509C267.446 108.531 267.498 108.711 267.618 108.689Z" fill="black" />
    <path d="M4.34545 181.195H53.2868C55.5956 181.195 57.4696 183.069 57.4696 185.378V213.743C57.4696 216.052 55.5956 217.926 53.2868 217.926H4.68277C2.374 217.926 0.5 216.052 0.5 213.743V185.041C0.5 182.919 2.22408 181.195 4.34545 181.195V181.195Z" fill="#F9F0F2" stroke="black" stroke-width="0.8" stroke-miterlimit="10" />
    <path d="M6.88646 185.693H11.549C12.0662 185.693 12.4935 186.113 12.4935 186.638V190.551C12.4935 191.18 11.9837 191.69 11.3541 191.69H6.88646C6.2568 191.69 5.74707 191.18 5.74707 190.551V186.833C5.74707 186.203 6.2568 185.693 6.88646 185.693V185.693Z" fill="#F2BCCA" stroke="black" stroke-width="0.8" stroke-miterlimit="10" />
    <path d="M38.3549 203.683H6.12207" stroke="black" stroke-width="0.8" stroke-miterlimit="10" />
    <path d="M6.12207 199.935H51.8477" stroke="black" stroke-width="0.8" stroke-miterlimit="10" />
    <path d="M43.0998 185.693H50.3409C50.9631 185.693 51.4728 186.203 51.4728 186.825V190.318C51.4728 191.075 50.8582 191.69 50.1011 191.69H43.0998C42.3427 191.69 41.728 191.075 41.728 190.318V187.065C41.728 186.308 42.3427 185.693 43.0998 185.693V185.693Z" fill="#F9F0F2" stroke="black" stroke-width="0.8" stroke-miterlimit="10" />
    <path d="M7.62127 213.053C8.44925 213.053 9.12047 212.382 9.12047 211.554C9.12047 210.726 8.44925 210.055 7.62127 210.055C6.79328 210.055 6.12207 210.726 6.12207 211.554C6.12207 212.382 6.79328 213.053 7.62127 213.053Z" fill="black" />
    <path d="M13.6183 213.053C14.4463 213.053 15.1175 212.382 15.1175 211.554C15.1175 210.726 14.4463 210.055 13.6183 210.055C12.7904 210.055 12.1191 210.726 12.1191 211.554C12.1191 212.382 12.7904 213.053 13.6183 213.053Z" fill="black" />
    <path d="M20.3644 213.053C21.1924 213.053 21.8636 212.382 21.8636 211.554C21.8636 210.726 21.1924 210.055 20.3644 210.055C19.5364 210.055 18.8652 210.726 18.8652 211.554C18.8652 212.382 19.5364 213.053 20.3644 213.053Z" fill="black" />
    <path d="M55.7831 224.695C60.958 224.695 65.1531 220.5 65.1531 215.325C65.1531 210.15 60.958 205.955 55.7831 205.955C50.6082 205.955 46.4131 210.15 46.4131 215.325C46.4131 220.5 50.6082 224.695 55.7831 224.695Z" fill="#C6F3BC" stroke="black" stroke-width="0.8" stroke-miterlimit="10" />
    <path d="M59.8013 214.201H56.9079V211.3H54.6591V214.201H51.7656V216.45H54.6591V219.343H56.9079V216.45H59.8013V214.201Z" fill="black" />
    <path d="M372.899 221.871C382.157 221.871 389.662 214.366 389.662 205.108C389.662 195.851 382.157 188.346 372.899 188.346C363.641 188.346 356.136 195.851 356.136 205.108C356.136 214.366 363.641 221.871 372.899 221.871Z" fill="#ECF8E9" stroke="black" stroke-width="0.8" stroke-miterlimit="10" />
    <path d="M384.483 205.361C384.483 211.62 379.411 216.692 373.152 216.692C366.893 216.692 361.821 211.62 361.821 205.361C361.821 199.102 366.893 194.03 373.152 194.03C379.411 194.03 384.483 199.102 384.483 205.361Z" fill="#ECF8E9" stroke="black" stroke-width="0.25" stroke-miterlimit="10" />
    <path d="M378.533 204.912C378.533 208.133 375.924 210.741 372.703 210.741C369.482 210.741 366.874 208.133 366.874 204.912C366.874 201.691 369.482 199.082 372.703 199.082C375.924 199.082 378.533 201.691 378.533 204.912Z" fill="#ECF8E9" stroke="black" stroke-width="0.25" stroke-miterlimit="10" />
    <path d="M371.61 205.405L374.2 200.466L372.861 205.039L376.549 207.995L371.61 205.405Z" fill="black" stroke="#000D15" stroke-width="0.8" stroke-miterlimit="10" />
    <path d="M372.704 204.988L390.325 199.486" stroke="black" stroke-width="0.8" stroke-miterlimit="10" />
    <path d="M400.5 200.302L395.125 197.883L398.15 192.767L389.049 195.609L386.453 200.554L391.399 203.144L400.5 200.302Z" fill="#FC2E63" stroke="black" stroke-width="0.8" stroke-miterlimit="10" />
</svg>
    